<svg xmlns="http://www.w3.org/2000/svg" viewBox="0 0 308.79 200"><defs><style>.cls-1,.cls-8{fill:#fff}.cls-2{fill:#3a85c6}.cls-3{fill:#f3f3f3}.cls-4{fill:#42b655}.cls-5{font-size:14px;fill:#6d6e6e;font-family:Raleway-Regular,Raleway}.cls-6{fill:#0b67b2}.cls-7{fill:#faa634}.cls-10,.cls-8,.cls-9{fill-rule:evenodd}.cls-9{fill:#fbb22f}.cls-10{fill:#eb2030}.cls-11{fill:none;stroke:#fff;stroke-miterlimit:2.61;stroke-width:.22px}</style></defs><title>activate</title><g id="Layer_2" data-name="Layer 2"><g id="Layer_1-2" data-name="Layer 1"><rect class="cls-1" width="308.79" height="200" rx="7" ry="7"/><rect class="cls-2" x="143.88" y="24.72" width="132.91" height="20.55" rx="7.5" ry="7.5"/><path class="cls-3" d="M190.7 30.68h.65l3.23 7.78h-.81l-1-2.43h-3.5l-1 2.43h-.82zm1.89 4.75L191 31.58l-1.59 3.85zm5.14 3.14a2.47 2.47 0 0 1-1.1-.25 2.8 2.8 0 0 1-.87-.65 3 3 0 0 1-.56-.94 3.08 3.08 0 0 1-.2-1.11 3.32 3.32 0 0 1 .2-1.15 3.06 3.06 0 0 1 .54-.95 2.55 2.55 0 0 1 .82-.64 2.33 2.33 0 0 1 1-.24 2.24 2.24 0 0 1 1.28.38 2.87 2.87 0 0 1 .88.92v-3.48h.75v7c0 .21.09.31.26.31v.66h-.26a.68.68 0 0 1-.46-.17.53.53 0 0 1-.2-.41v-.56a2.5 2.5 0 0 1-.92.89 2.42 2.42 0 0 1-1.16.39zm.16-.66a1.8 1.8 0 0 0 .59-.11 2.41 2.41 0 0 0 .59-.3 2 2 0 0 0 .47-.45 1.22 1.22 0 0 0 .24-.55v-1.76a2 2 0 0 0-.32-.55 2.57 2.57 0 0 0-.48-.46 2.25 2.25 0 0 0-.58-.31 1.79 1.79 0 0 0-.6-.11 1.76 1.76 0 0 0-.83.2 2.11 2.11 0 0 0-.64.52 2.3 2.3 0 0 0-.41.74 2.61 2.61 0 0 0-.14.86 2.39 2.39 0 0 0 .61 1.61 2.16 2.16 0 0 0 .67.5 1.91 1.91 0 0 0 .83.18zm6.65.66a2.47 2.47 0 0 1-1.1-.25 2.8 2.8 0 0 1-.87-.65 3 3 0 0 1-.56-.94 3.08 3.08 0 0 1-.2-1.11 3.32 3.32 0 0 1 .2-1.15 3.06 3.06 0 0 1 .54-.95 2.55 2.55 0 0 1 .82-.64 2.33 2.33 0 0 1 1-.24 2.24 2.24 0 0 1 1.28.38 2.87 2.87 0 0 1 .88.92v-3.48h.75v7c0 .21.09.31.26.31v.66h-.26a.68.68 0 0 1-.46-.17.53.53 0 0 1-.2-.41v-.56a2.5 2.5 0 0 1-.92.89 2.42 2.42 0 0 1-1.16.39zm.16-.66a1.8 1.8 0 0 0 .59-.11 2.41 2.41 0 0 0 .59-.3 2 2 0 0 0 .47-.45 1.22 1.22 0 0 0 .24-.55v-1.76a2 2 0 0 0-.32-.55 2.57 2.57 0 0 0-.48-.46 2.25 2.25 0 0 0-.58-.31 1.79 1.79 0 0 0-.6-.11 1.76 1.76 0 0 0-.83.2 2.11 2.11 0 0 0-.64.52 2.3 2.3 0 0 0-.41.74 2.61 2.61 0 0 0-.14.86 2.39 2.39 0 0 0 .61 1.61 2.16 2.16 0 0 0 .67.5 1.91 1.91 0 0 0 .84.18zm6.72-2.32a3.13 3.13 0 0 1 .21-1.14 2.83 2.83 0 0 1 .59-.94 2.73 2.73 0 0 1 .9-.63 2.87 2.87 0 0 1 1.16-.23 2.66 2.66 0 0 1 1.41.37 2.36 2.36 0 0 1 .91 1l-.72.23a1.74 1.74 0 0 0-.67-.69 2 2 0 0 0-1.78-.07 2.1 2.1 0 0 0-.66.48 2.18 2.18 0 0 0-.44.72 2.63 2.63 0 0 0 0 1.82 2.3 2.3 0 0 0 .45.74 2.13 2.13 0 0 0 .66.49 1.85 1.85 0 0 0 .81.18 2 2 0 0 0 .54-.08 2.06 2.06 0 0 0 .5-.21 1.77 1.77 0 0 0 .39-.31 1 1 0 0 0 .23-.37l.73.22a1.85 1.85 0 0 1-.35.56 2.4 2.4 0 0 1-.54.45 2.66 2.66 0 0 1-.69.3 2.94 2.94 0 0 1-.78.1 2.77 2.77 0 0 1-2.06-.88 3 3 0 0 1-.6-.95 3.09 3.09 0 0 1-.2-1.16zm7.84 2.98a2 2 0 0 1-.75-.14 1.92 1.92 0 0 1-.6-.38 1.7 1.7 0 0 1-.54-1.26 1.4 1.4 0 0 1 .18-.69 1.69 1.69 0 0 1 .49-.55 2.41 2.41 0 0 1 .76-.36 3.48 3.48 0 0 1 1-.13 5.31 5.31 0 0 1 .89.08 3.92 3.92 0 0 1 .8.22v-.52a1.66 1.66 0 0 0-.43-1.2 1.57 1.57 0 0 0-1.18-.44 2.51 2.51 0 0 0-.9.18 4.36 4.36 0 0 0-.93.5l-.26-.49a3.86 3.86 0 0 1 2.15-.75 2.31 2.31 0 0 1 1.69.6 2.23 2.23 0 0 1 .61 1.67v2.59c0 .21.09.31.27.31v.66h-.29a.64.64 0 0 1-.44-.14.54.54 0 0 1-.17-.39v-.45a2.59 2.59 0 0 1-1 .79 3.05 3.05 0 0 1-1.35.29zm.18-.57a2.57 2.57 0 0 0 1.07-.22 1.75 1.75 0 0 0 .74-.58.67.67 0 0 0 .15-.21.54.54 0 0 0 0-.21v-.93a4.57 4.57 0 0 0-.77-.22 4.37 4.37 0 0 0-.82-.08 2.28 2.28 0 0 0-1.28.33 1 1 0 0 0-.49.87 1.17 1.17 0 0 0 .1.49 1.26 1.26 0 0 0 .28.4 1.36 1.36 0 0 0 .43.27 1.47 1.47 0 0 0 .59.09zm7.21-4.59a2.36 2.36 0 0 0-1.32.42 2.1 2.1 0 0 0-.79 1.08v3.55h-.75v-5.71h.7v1.37a2.59 2.59 0 0 1 .86-1 2 2 0 0 1 1.15-.37h.14zm3.06 5.16a2.47 2.47 0 0 1-1.1-.25 2.8 2.8 0 0 1-.87-.65 3 3 0 0 1-.56-.94 3.08 3.08 0 0 1-.2-1.11 3.32 3.32 0 0 1 .2-1.15 3.06 3.06 0 0 1 .54-.95 2.55 2.55 0 0 1 .82-.64 2.33 2.33 0 0 1 1-.24 2.24 2.24 0 0 1 1.28.38 2.87 2.87 0 0 1 .88.92v-3.48h.75v7c0 .21.09.31.26.31v.66h-.26a.68.68 0 0 1-.46-.17.53.53 0 0 1-.2-.41v-.56a2.5 2.5 0 0 1-.92.89 2.42 2.42 0 0 1-1.16.39zm.16-.66a1.8 1.8 0 0 0 .59-.11 2.41 2.41 0 0 0 .59-.3 2 2 0 0 0 .47-.45 1.22 1.22 0 0 0 .24-.55v-1.76a2 2 0 0 0-.32-.55 2.57 2.57 0 0 0-.48-.46 2.25 2.25 0 0 0-.58-.31 1.79 1.79 0 0 0-.6-.11 1.76 1.76 0 0 0-.83.2 2.11 2.11 0 0 0-.64.52 2.3 2.3 0 0 0-.41.74 2.61 2.61 0 0 0-.14.86 2.39 2.39 0 0 0 .61 1.61 2.16 2.16 0 0 0 .67.5 1.91 1.91 0 0 0 .83.18z"/><rect class="cls-4" x="143.88" y="147.72" width="132.91" height="20.55" rx="7.5" ry="7.5"/><rect class="cls-2" x="143.88" y="98.85" width="132.91" height="20.55" rx="7.5" ry="7.5"/><path class="cls-3" d="M193.26 153.68h.65l3.23 7.78h-.81l-1-2.43h-3.5l-1 2.43H190zm1.89 4.75l-1.57-3.85-1.58 3.85zm2.41.16a3.13 3.13 0 0 1 .21-1.14 2.83 2.83 0 0 1 .59-.94 2.73 2.73 0 0 1 .9-.63 2.87 2.87 0 0 1 1.16-.23 2.66 2.66 0 0 1 1.41.37 2.36 2.36 0 0 1 .91 1l-.72.23a1.74 1.74 0 0 0-.67-.69 2 2 0 0 0-1.78-.07 2.1 2.1 0 0 0-.66.48 2.18 2.18 0 0 0-.44.72 2.63 2.63 0 0 0 0 1.82 2.3 2.3 0 0 0 .45.74 2.13 2.13 0 0 0 .66.49 1.85 1.85 0 0 0 .81.18 2 2 0 0 0 .54-.08 2.06 2.06 0 0 0 .5-.21 1.77 1.77 0 0 0 .39-.31 1 1 0 0 0 .23-.37l.73.22a1.85 1.85 0 0 1-.35.56 2.4 2.4 0 0 1-.54.45 2.66 2.66 0 0 1-.69.3 2.94 2.94 0 0 1-.78.1 2.77 2.77 0 0 1-2.06-.88 3 3 0 0 1-.6-.95 3.09 3.09 0 0 1-.2-1.16zm9.15 2.6l-.19.09-.29.11-.37.1a2.11 2.11 0 0 1-.44 0 1.59 1.59 0 0 1-.46-.07 1.06 1.06 0 0 1-.38-.2 1 1 0 0 1-.26-.34 1.11 1.11 0 0 1-.1-.48v-4.09h-.79v-.59h.79v-1.93h.78v1.93h1.32v.59H205v3.88a.59.59 0 0 0 .22.47.77.77 0 0 0 .47.15 1.41 1.41 0 0 0 .56-.1l.31-.15zm.93-6.63v-1.1h.75v1.1zm0 6.91v-5.71h.75v5.71zm4.1-.01l-2.32-5.71h.77l2 5 2-5h.72l-2.32 5.71zm5.42.11a2 2 0 0 1-.75-.14 1.92 1.92 0 0 1-.6-.38 1.7 1.7 0 0 1-.54-1.26 1.4 1.4 0 0 1 .18-.69 1.69 1.69 0 0 1 .49-.55 2.41 2.41 0 0 1 .76-.36 3.48 3.48 0 0 1 1-.13 5.31 5.31 0 0 1 .89.08 3.92 3.92 0 0 1 .8.22v-.52a1.66 1.66 0 0 0-.43-1.2 1.57 1.57 0 0 0-1.18-.44 2.51 2.51 0 0 0-.9.18 4.36 4.36 0 0 0-.93.5l-.26-.49a3.86 3.86 0 0 1 2.15-.75 2.31 2.31 0 0 1 1.69.6 2.23 2.23 0 0 1 .61 1.67v2.58c0 .21.09.31.27.31v.66h-.29a.64.64 0 0 1-.44-.14.54.54 0 0 1-.17-.39v-.45a2.59 2.59 0 0 1-1 .79 3.05 3.05 0 0 1-1.35.3zm.18-.57a2.57 2.57 0 0 0 1.07-.22 1.75 1.75 0 0 0 .74-.58.67.67 0 0 0 .15-.21.54.54 0 0 0 0-.21v-.93a4.57 4.57 0 0 0-.77-.22 4.37 4.37 0 0 0-.82-.08 2.28 2.28 0 0 0-1.28.33 1 1 0 0 0-.49.87 1.17 1.17 0 0 0 .1.49 1.26 1.26 0 0 0 .28.4 1.36 1.36 0 0 0 .43.27 1.47 1.47 0 0 0 .59.09zm7.06.19l-.19.09-.29.11-.37.1a2.11 2.11 0 0 1-.44 0 1.59 1.59 0 0 1-.46-.07 1.06 1.06 0 0 1-.38-.2 1 1 0 0 1-.26-.34 1.11 1.11 0 0 1-.1-.48v-4.09h-.79v-.59h.79v-1.93h.75v1.93H224v.59h-1.32v3.88a.59.59 0 0 0 .22.47.77.77 0 0 0 .47.15 1.41 1.41 0 0 0 .56-.1l.31-.15zm3.26.38a2.75 2.75 0 0 1-1.15-.24 2.82 2.82 0 0 1-.9-.65 3 3 0 0 1-.6-.95 3.09 3.09 0 0 1-.21-1.15 3 3 0 0 1 .21-1.13 3 3 0 0 1 .59-.93 2.81 2.81 0 0 1 .9-.64 2.78 2.78 0 0 1 3.18.64 3 3 0 0 1 .79 2v.18a.46.46 0 0 1 0 .12h-4.89a2.39 2.39 0 0 0 .21.85 2.3 2.3 0 0 0 .47.67 2.09 2.09 0 0 0 .65.44 2 2 0 0 0 .78.16 2 2 0 0 0 .55-.08 2.21 2.21 0 0 0 .5-.21 1.87 1.87 0 0 0 .42-.32 1.38 1.38 0 0 0 .29-.42l.65.18a1.9 1.9 0 0 1-.37.58 2.61 2.61 0 0 1-.56.45 2.73 2.73 0 0 1-.7.3 3 3 0 0 1-.81.15zm2.1-3.27a2.3 2.3 0 0 0-.21-.84 2.28 2.28 0 0 0-.46-.65 2 2 0 0 0-.65-.43 2 2 0 0 0-.78-.15 2.05 2.05 0 0 0-1.44.58 2.11 2.11 0 0 0-.45.66 2.51 2.51 0 0 0-.2.83z"/><rect class="cls-2" x="144.88" y="63.85" width="132.91" height="20.55" rx="7.5" ry="7.5"/><path class="cls-3" d="M191.7 69.8h.65l3.23 7.78h-.81l-1-2.43h-3.5l-1 2.43h-.82zm1.89 4.75L192 70.7l-1.59 3.85zm5.14 3.15a2.47 2.47 0 0 1-1.1-.25 2.8 2.8 0 0 1-.87-.65 3 3 0 0 1-.56-.94 3.08 3.08 0 0 1-.2-1.11 3.32 3.32 0 0 1 .2-1.15 3.06 3.06 0 0 1 .54-.95 2.55 2.55 0 0 1 .82-.64 2.33 2.33 0 0 1 1-.24 2.24 2.24 0 0 1 1.28.38 2.87 2.87 0 0 1 .88.92v-3.49h.75v7c0 .21.09.31.26.31v.66h-.26a.68.68 0 0 1-.46-.17.53.53 0 0 1-.2-.41v-.56a2.5 2.5 0 0 1-.92.89 2.42 2.42 0 0 1-1.16.4zm.16-.66a1.8 1.8 0 0 0 .59-.11 2.41 2.41 0 0 0 .59-.3 2 2 0 0 0 .47-.45 1.22 1.22 0 0 0 .24-.55v-1.77a2 2 0 0 0-.32-.55 2.57 2.57 0 0 0-.48-.46 2.25 2.25 0 0 0-.58-.31 1.79 1.79 0 0 0-.6-.11 1.76 1.76 0 0 0-.83.2 2.11 2.11 0 0 0-.64.52 2.3 2.3 0 0 0-.41.74 2.61 2.61 0 0 0-.14.86 2.39 2.39 0 0 0 .61 1.61 2.16 2.16 0 0 0 .67.5 1.91 1.91 0 0 0 .83.14zm6.65.66a2.47 2.47 0 0 1-1.1-.25 2.8 2.8 0 0 1-.87-.65 3 3 0 0 1-.56-.94 3.08 3.08 0 0 1-.2-1.11 3.32 3.32 0 0 1 .2-1.15 3.06 3.06 0 0 1 .54-.95 2.55 2.55 0 0 1 .82-.64 2.33 2.33 0 0 1 1-.24 2.24 2.24 0 0 1 1.28.38 2.87 2.87 0 0 1 .88.92v-3.49h.75v7c0 .21.09.31.26.31v.66h-.26a.68.68 0 0 1-.46-.17.53.53 0 0 1-.2-.41v-.56a2.5 2.5 0 0 1-.92.89 2.42 2.42 0 0 1-1.16.4zm.16-.66a1.8 1.8 0 0 0 .59-.11 2.41 2.41 0 0 0 .59-.3 2 2 0 0 0 .47-.45 1.22 1.22 0 0 0 .24-.55v-1.77a2 2 0 0 0-.32-.55 2.57 2.57 0 0 0-.48-.46 2.25 2.25 0 0 0-.58-.31 1.79 1.79 0 0 0-.6-.11 1.76 1.76 0 0 0-.83.2 2.11 2.11 0 0 0-.64.52 2.3 2.3 0 0 0-.41.74 2.61 2.61 0 0 0-.14.86 2.39 2.39 0 0 0 .61 1.61 2.16 2.16 0 0 0 .67.5 1.91 1.91 0 0 0 .84.14zm6.72-2.33a3.13 3.13 0 0 1 .21-1.14 2.83 2.83 0 0 1 .59-.94 2.73 2.73 0 0 1 .9-.63 2.87 2.87 0 0 1 1.16-.23 2.66 2.66 0 0 1 1.41.37 2.36 2.36 0 0 1 .91 1l-.72.23a1.74 1.74 0 0 0-.67-.69 2 2 0 0 0-1.78-.07 2.1 2.1 0 0 0-.66.48 2.18 2.18 0 0 0-.44.72 2.63 2.63 0 0 0 0 1.82 2.3 2.3 0 0 0 .45.74 2.13 2.13 0 0 0 .66.49 1.85 1.85 0 0 0 .81.18 2 2 0 0 0 .54-.08 2.06 2.06 0 0 0 .5-.21 1.77 1.77 0 0 0 .39-.31 1 1 0 0 0 .23-.37l.73.22a1.85 1.85 0 0 1-.35.56 2.4 2.4 0 0 1-.54.45 2.66 2.66 0 0 1-.69.3 2.94 2.94 0 0 1-.78.1 2.77 2.77 0 0 1-2.06-.88 3 3 0 0 1-.6-.95 3.09 3.09 0 0 1-.2-1.16zm7.84 2.99a2 2 0 0 1-.75-.14 1.92 1.92 0 0 1-.6-.38 1.7 1.7 0 0 1-.54-1.26 1.4 1.4 0 0 1 .18-.69 1.69 1.69 0 0 1 .49-.55 2.41 2.41 0 0 1 .76-.36 3.48 3.48 0 0 1 1-.13 5.31 5.31 0 0 1 .89.08 3.92 3.92 0 0 1 .8.22V74a1.66 1.66 0 0 0-.43-1.2 1.57 1.57 0 0 0-1.18-.44 2.51 2.51 0 0 0-.9.18 4.36 4.36 0 0 0-.93.5l-.26-.49a3.86 3.86 0 0 1 2.15-.75 2.31 2.31 0 0 1 1.69.6 2.23 2.23 0 0 1 .61 1.67v2.58c0 .21.09.31.27.31v.66h-.29a.64.64 0 0 1-.44-.14.54.54 0 0 1-.17-.39v-.45a2.59 2.59 0 0 1-1 .79 3.05 3.05 0 0 1-1.35.27zm.18-.57a2.57 2.57 0 0 0 1.07-.22 1.75 1.75 0 0 0 .74-.58.67.67 0 0 0 .15-.21.54.54 0 0 0 0-.21V75a4.57 4.57 0 0 0-.77-.22 4.37 4.37 0 0 0-.82-.08 2.28 2.28 0 0 0-1.28.33 1 1 0 0 0-.49.87 1.17 1.17 0 0 0 .1.49 1.26 1.26 0 0 0 .28.4 1.36 1.36 0 0 0 .43.27 1.47 1.47 0 0 0 .59.07zm7.21-4.6a2.36 2.36 0 0 0-1.32.42 2.1 2.1 0 0 0-.79 1.08v3.55h-.75v-5.7h.7v1.37a2.59 2.59 0 0 1 .86-1 2 2 0 0 1 1.15-.37h.14zm3.06 5.17a2.47 2.47 0 0 1-1.1-.25 2.8 2.8 0 0 1-.87-.65 3 3 0 0 1-.56-.94 3.08 3.08 0 0 1-.2-1.11 3.32 3.32 0 0 1 .2-1.15 3.06 3.06 0 0 1 .54-.95 2.55 2.55 0 0 1 .82-.64 2.33 2.33 0 0 1 1-.24 2.24 2.24 0 0 1 1.28.38 2.87 2.87 0 0 1 .88.92v-3.49h.75v7c0 .21.09.31.26.31v.66h-.26a.68.68 0 0 1-.46-.17.53.53 0 0 1-.2-.41v-.56a2.5 2.5 0 0 1-.92.89 2.42 2.42 0 0 1-1.16.4zm.16-.66a1.8 1.8 0 0 0 .59-.11 2.41 2.41 0 0 0 .59-.3 2 2 0 0 0 .47-.45 1.22 1.22 0 0 0 .24-.55v-1.77a2 2 0 0 0-.32-.55 2.57 2.57 0 0 0-.48-.46 2.25 2.25 0 0 0-.58-.31 1.79 1.79 0 0 0-.6-.11 1.76 1.76 0 0 0-.83.2 2.11 2.11 0 0 0-.64.52 2.3 2.3 0 0 0-.41.74 2.61 2.61 0 0 0-.14.86 2.39 2.39 0 0 0 .61 1.61 2.16 2.16 0 0 0 .67.5 1.91 1.91 0 0 0 .83.14zM190.7 104.8h.65l3.23 7.78h-.81l-1-2.43h-3.5l-1 2.43h-.82zm1.89 4.75L191 105.7l-1.59 3.85zm5.14 3.15a2.47 2.47 0 0 1-1.1-.25 2.8 2.8 0 0 1-.87-.65 3 3 0 0 1-.56-.94 3.08 3.08 0 0 1-.2-1.11 3.32 3.32 0 0 1 .2-1.15 3.06 3.06 0 0 1 .54-.95 2.55 2.55 0 0 1 .82-.64 2.33 2.33 0 0 1 1-.24 2.24 2.24 0 0 1 1.28.38 2.87 2.87 0 0 1 .88.92v-3.49h.75v7c0 .21.09.31.26.31v.66h-.26a.68.68 0 0 1-.46-.17.53.53 0 0 1-.2-.41v-.56a2.5 2.5 0 0 1-.92.89 2.42 2.42 0 0 1-1.16.4zm.16-.66a1.8 1.8 0 0 0 .59-.11 2.41 2.41 0 0 0 .59-.3 2 2 0 0 0 .47-.45 1.22 1.22 0 0 0 .24-.55v-1.76a2 2 0 0 0-.32-.55 2.57 2.57 0 0 0-.48-.46 2.25 2.25 0 0 0-.58-.31 1.79 1.79 0 0 0-.6-.11 1.76 1.76 0 0 0-.83.2 2.11 2.11 0 0 0-.64.52 2.3 2.3 0 0 0-.41.74 2.61 2.61 0 0 0-.14.86 2.39 2.39 0 0 0 .61 1.61 2.16 2.16 0 0 0 .67.5 1.91 1.91 0 0 0 .83.13zm6.65.66a2.47 2.47 0 0 1-1.1-.25 2.8 2.8 0 0 1-.87-.65 3 3 0 0 1-.56-.94 3.08 3.08 0 0 1-.2-1.11 3.32 3.32 0 0 1 .2-1.15 3.06 3.06 0 0 1 .54-.95 2.55 2.55 0 0 1 .82-.64 2.33 2.33 0 0 1 1-.24 2.24 2.24 0 0 1 1.28.38 2.87 2.87 0 0 1 .88.92v-3.49h.75v7c0 .21.09.31.26.31v.66h-.26a.68.68 0 0 1-.46-.17.53.53 0 0 1-.2-.41v-.56a2.5 2.5 0 0 1-.92.89 2.42 2.42 0 0 1-1.16.4zm.16-.66a1.8 1.8 0 0 0 .59-.11 2.41 2.41 0 0 0 .59-.3 2 2 0 0 0 .47-.45 1.22 1.22 0 0 0 .24-.55v-1.76a2 2 0 0 0-.32-.55 2.57 2.57 0 0 0-.48-.46 2.25 2.25 0 0 0-.58-.31 1.79 1.79 0 0 0-.6-.11 1.76 1.76 0 0 0-.83.2 2.11 2.11 0 0 0-.64.52 2.3 2.3 0 0 0-.41.74 2.61 2.61 0 0 0-.14.86 2.39 2.39 0 0 0 .61 1.61 2.16 2.16 0 0 0 .67.5 1.91 1.91 0 0 0 .84.13zm6.72-2.33a3.13 3.13 0 0 1 .21-1.14 2.83 2.83 0 0 1 .59-.94 2.73 2.73 0 0 1 .9-.63 2.87 2.87 0 0 1 1.16-.23 2.66 2.66 0 0 1 1.41.37 2.36 2.36 0 0 1 .91 1l-.72.23a1.74 1.74 0 0 0-.67-.69 2 2 0 0 0-1.78-.07 2.1 2.1 0 0 0-.66.48 2.18 2.18 0 0 0-.44.72 2.63 2.63 0 0 0 0 1.82 2.3 2.3 0 0 0 .45.74 2.13 2.13 0 0 0 .66.49 1.85 1.85 0 0 0 .81.18 2 2 0 0 0 .54-.08 2.06 2.06 0 0 0 .5-.21 1.77 1.77 0 0 0 .39-.31 1 1 0 0 0 .23-.37l.73.22a1.85 1.85 0 0 1-.35.56 2.4 2.4 0 0 1-.54.45 2.66 2.66 0 0 1-.69.3 2.94 2.94 0 0 1-.78.1 2.77 2.77 0 0 1-2.06-.88 3 3 0 0 1-.6-.95 3.09 3.09 0 0 1-.2-1.16zm7.84 2.99a2 2 0 0 1-.75-.14 1.92 1.92 0 0 1-.6-.38 1.7 1.7 0 0 1-.54-1.26 1.4 1.4 0 0 1 .18-.69 1.69 1.69 0 0 1 .49-.55 2.41 2.41 0 0 1 .76-.36 3.48 3.48 0 0 1 1-.13 5.31 5.31 0 0 1 .89.08 3.92 3.92 0 0 1 .8.22V109a1.66 1.66 0 0 0-.43-1.2 1.57 1.57 0 0 0-1.18-.44 2.51 2.51 0 0 0-.9.18 4.36 4.36 0 0 0-.93.5l-.26-.49a3.86 3.86 0 0 1 2.15-.75 2.31 2.31 0 0 1 1.69.6 2.23 2.23 0 0 1 .61 1.67v2.58c0 .21.09.31.27.31v.66h-.29a.64.64 0 0 1-.44-.14.54.54 0 0 1-.17-.39v-.45a2.59 2.59 0 0 1-1 .79 3.05 3.05 0 0 1-1.35.27zm.18-.57a2.57 2.57 0 0 0 1.07-.22 1.75 1.75 0 0 0 .74-.58.67.67 0 0 0 .15-.21.54.54 0 0 0 0-.21V110a4.57 4.57 0 0 0-.77-.22 4.37 4.37 0 0 0-.82-.08 2.28 2.28 0 0 0-1.28.33 1 1 0 0 0-.49.87 1.17 1.17 0 0 0 .1.49 1.26 1.26 0 0 0 .28.4 1.36 1.36 0 0 0 .43.27 1.47 1.47 0 0 0 .59.07zm7.21-4.6a2.36 2.36 0 0 0-1.32.42 2.1 2.1 0 0 0-.79 1.08v3.55h-.75v-5.71h.7v1.37a2.59 2.59 0 0 1 .86-1 2 2 0 0 1 1.15-.37h.14zm3.06 5.17a2.47 2.47 0 0 1-1.1-.25 2.8 2.8 0 0 1-.87-.65 3 3 0 0 1-.56-.94 3.08 3.08 0 0 1-.2-1.11 3.32 3.32 0 0 1 .2-1.15 3.06 3.06 0 0 1 .54-.95 2.55 2.55 0 0 1 .82-.64 2.33 2.33 0 0 1 1-.24 2.24 2.24 0 0 1 1.28.38 2.87 2.87 0 0 1 .88.92v-3.49h.75v7c0 .21.09.31.26.31v.66h-.26a.68.68 0 0 1-.46-.17.53.53 0 0 1-.2-.41v-.56a2.5 2.5 0 0 1-.92.89 2.42 2.42 0 0 1-1.16.4zm.16-.66a1.8 1.8 0 0 0 .59-.11 2.41 2.41 0 0 0 .59-.3 2 2 0 0 0 .47-.45 1.22 1.22 0 0 0 .24-.55v-1.76a2 2 0 0 0-.32-.55 2.57 2.57 0 0 0-.48-.46 2.25 2.25 0 0 0-.58-.31 1.79 1.79 0 0 0-.6-.11 1.76 1.76 0 0 0-.83.2 2.11 2.11 0 0 0-.64.52 2.3 2.3 0 0 0-.41.74 2.61 2.61 0 0 0-.14.86 2.39 2.39 0 0 0 .61 1.61 2.16 2.16 0 0 0 .67.5 1.91 1.91 0 0 0 .83.13z"/><text class="cls-5" transform="translate(25.79 113.55)">Others</text><path class="cls-6" d="M40.86 40.45h-2.83l1.77-10.9h2.84l-1.78 10.9zm-5.22-10.9l-2.71 7.5-.32-1.61-1-4.9a1.21 1.21 0 0 0-1.35-1h-4.42l-.05.18a10.6 10.6 0 0 1 3 1.25l2.47 9.47h3l4.51-10.9zM58 40.45h2.61l-2.27-10.9H56a1.3 1.3 0 0 0-1.31.81l-4.22 10.09h3l.53-1.62h3.61zm-3.16-3.85l1.49-4.08.84 4.08zm-4.15-4.42l.4-2.34a8.19 8.19 0 0 0-2.55-.48c-1.41 0-4.75.62-4.75 3.61 0 2.82 3.92 2.85 3.92 4.33s-3.52 1.21-4.68.28L42.61 40a8 8 0 0 0 3.2.62c1.94 0 4.86-1 4.86-3.73s-4-3.1-4-4.33 2.81-1.05 4.02-.38z"/><path class="cls-7" d="M32.61 35.44l-1-4.9a1.21 1.21 0 0 0-1.35-1h-4.42l-.05.18A11 11 0 0 1 30 31.85a8.5 8.5 0 0 1 2.61 3.59z"/><path class="cls-8" d="M24.79 56.12h36v36h-36v-36z"/><path class="cls-9" d="M49.78 84.58l.54-.02.54-.03.52-.07.52-.09.5-.12.5-.14.49-.17.47-.18.47-.21.45-.23.44-.26.42-.27.41-.29.4-.31.38-.33.36-.35.35-.36.33-.38.31-.4.29-.41.27-.43.26-.43.23-.45.21-.47.19-.48.16-.48.14-.5.12-.5.09-.52.07-.53.04-.53.01-.54-.01-.53-.04-.53-.07-.52-.09-.52-.12-.5-.14-.49-.16-.49-.19-.47-.21-.47-.23-.45-.26-.43-.27-.43-.29-.41-.31-.39-.33-.38-.35-.36-.36-.35-.38-.33-.4-.31-.41-.29-.42-.27-.44-.25-.45-.23-.47-.21-.47-.19-.49-.16-.5-.15-.5-.11-.52-.09-.52-.07-.54-.04-.54-.01-.53.01-.53.04-.53.07-.51.09-.51.11-.49.15-.49.16-.47.19-.46.21-.45.23-.44.25-.42.27-.41.29-.4.31-.37.33-.37.35-.34.36-.33.38-.31.39-.29.41-.27.43-.25.43-.24.45-.2.47-.19.47-.16.49-.15.49-.11.5-.09.52-.07.52-.04.53-.01.53.01.54.04.53.07.53.09.52.11.5.15.5.16.48.19.48.2.47.24.45.25.43.27.43.29.41.31.4.33.38.34.36.37.35.37.33.4.31.41.29.42.27.44.26.45.23.46.21.47.18.49.17.49.14.51.12.51.09.53.07.53.03.53.02z"/><path class="cls-10" d="M35.8 84.58l.53-.02.53-.03.53-.07.51-.09.51-.12.49-.14.49-.17.47-.18.46-.21.45-.23.44-.26.42-.27.41-.29.4-.31.37-.33.37-.35.34-.36.33-.38.31-.4.29-.41.27-.43.25-.43.24-.45.2-.47.19-.48.16-.48.15-.5.11-.5.09-.52.07-.53.04-.53.01-.54-.01-.53-.04-.53-.07-.52-.09-.52-.11-.5-.15-.49-.16-.49-.19-.47-.2-.47-.24-.45-.25-.43-.27-.43-.29-.41-.31-.39-.33-.38-.34-.36-.37-.35-.37-.33-.4-.31-.41-.29-.42-.27-.44-.25-.45-.23-.46-.21-.47-.19-.49-.16-.49-.15-.51-.11-.51-.09-.53-.07-.53-.04-.53-.01-.54.01-.54.04-.52.07-.52.09-.5.11-.5.15-.49.16-.47.19-.47.21-.45.23-.44.25-.42.27-.41.29-.4.31-.38.33-.36.35-.35.36-.33.38-.31.39-.29.41-.27.43-.26.43-.23.45-.21.47-.19.47-.16.49-.14.49-.12.5-.09.52-.07.52-.04.53-.01.53.01.54.04.53.07.53.09.52.12.5.14.5.16.48.19.48.21.47.23.45.26.43.27.43.29.41.31.4.33.38.35.36.36.35.38.33.4.31.41.29.42.27.44.26.45.23.47.21.47.18.49.17.5.14.5.12.52.09.52.07.54.03.54.02z"/><path class="cls-9" d="M41.57 67.68h5.55v-.57h-5.07l-.48.57zm-.84 1.26h6.39v-.57h-6.05l-.34.57zm-.62 1.26h7.01v-.57h-6.76l-.25.57zm-.42 1.26h7.43v-.57h-7.26l-.17.57zm.24 6.1h7.21V77h-7.38l.17.56zm.54 1.27h6.67v-.57H40.2l.27.57zm.74 1.25h5.93v-.56h-6.28l.35.56zm1.03 1.27h4.9v-.57h-5.39l.49.57zm-2.8-8.63h7.68v-.57h-7.57l-.11.57zm4.68 3.58h2.93v-.56h-2.82l-.11.56zm.23-1.25h2.7v-.58h-2.59l-.11.58zm-5.11-.58H40v.58h-.72l-.04-.58z"/><path class="cls-8" d="M37.82 73.79l-.05-.01h-.05l-.05-.01-.04-.01-.04-.01h-.05l-.05-.01-.04-.01h-.05l-.06-.01h-.29l-.09.01h-.1l-.07.01-.07.01-.06.03-.05.02-.05.02-.04.03-.04.03-.03.04-.02.03-.02.04-.01.05v.04l.01.04.02.05.02.05.04.04.07.07.09.05.09.05.11.04.11.03.12.04.12.04.11.05.1.06.1.07.09.09.07.11.06.13.04.16.01.19-.01.23-.03.16-.04.15-.06.13-.07.12-.08.1-.09.09-.1.08-.11.06-.11.05-.12.05-.12.04-.12.02-.12.03-.12.01h-.11l-.11.01h-.15l-.14-.01h-.35l-.1-.01-.08-.01-.08-.01-.08-.01-.06-.01-.07-.01-.06-.02-.06-.01-.06-.02-.05-.02-.06-.03.16-.78.03.01.04.01.05.02.06.01.06.01.07.02.08.02.08.01.09.01.09.02.1.01.1.01h.1l.1.01h.1l.1-.01.11-.02.08-.03.06-.04.05-.04.04-.05.02-.06.02-.06.02-.05v-.1l-.03-.09-.06-.07-.09-.06-.1-.05-.13-.06-.13-.05-.14-.05-.14-.07-.14-.07-.12-.09-.11-.11-.09-.13-.06-.16-.04-.19.01-.23.02-.14.02-.13.04-.12.04-.11.05-.11.07-.09.07-.09.09-.07.1-.07.11-.06.13-.05.14-.04.16-.03.18-.03.18-.01h.57l.1.01h.09l.08.01.07.01.06.01h.06l.05.01.05.01.04.01h.04l.03.01h.03l.03.01-.18.8z"/><path class="cls-11" d="M37.82 73.79l-.05-.01h-.05l-.05-.01-.04-.01-.04-.01h-.05l-.05-.01-.04-.01h-.05l-.06-.01h-.29l-.09.01h-.1l-.07.01-.07.01-.06.03-.05.02-.05.02-.04.03-.04.03-.03.04-.02.03-.02.04-.01.05v.04l.01.04.02.05.02.05.04.04.07.07.09.05.09.05.11.04.11.03.12.04.12.04.11.05.1.06.1.07.09.09.07.11.06.13.04.16.01.19-.01.23-.03.16-.04.15-.06.13-.07.12-.08.1-.09.09-.1.08-.11.06-.11.05-.12.05-.12.04-.12.02-.12.03-.12.01h-.11l-.11.01h-.15l-.14-.01h-.35l-.1-.01-.08-.01-.08-.01-.08-.01-.06-.01-.07-.01-.06-.02-.06-.01-.06-.02-.05-.02-.06-.03.16-.78.03.01.04.01.05.02.06.01.06.01.07.02.08.02.08.01.09.01.09.02.1.01.1.01h.1l.1.01h.1l.1-.01.11-.02.08-.03.06-.04.05-.04.04-.05.02-.06.02-.06.02-.05v-.1l-.03-.09-.06-.07-.09-.06-.1-.05-.13-.06-.13-.05-.14-.05-.14-.07-.14-.07-.12-.09-.11-.11-.09-.13-.06-.16-.04-.19.01-.23.02-.14.02-.13.04-.12.04-.11.05-.11.07-.09.07-.09.09-.07.1-.07.11-.06.13-.05.14-.04.16-.03.18-.03.18-.01h.57l.1.01h.09l.08.01.07.01.06.01h.06l.05.01.05.01.04.01h.04l.03.01h.03l.03.01-.18.8"/><path class="cls-8" d="M38.66 72.12h.97l-.14.85h.59l-.13.8-.62-.02-.34 1.97v.07l.02.06.03.04.05.04.06.03.07.02.08.01.08.01h.08l.07-.01.06-.01.06-.01.05-.02.03-.01.02-.01h.01l-.13.66-.02.01-.03.02-.02.01-.03.02-.02.01-.03.01-.03.01-.03.01-.04.01-.03.01h-.05l-.04.01-.04.01h-.06l-.05.01-.06.01h-.27l-.14-.01-.12-.02-.12-.02-.09-.02-.08-.03-.07-.04-.06-.04-.05-.05-.03-.05-.03-.06-.01-.06-.01-.06-.01-.08v-.07l.01-.09.01-.08.68-3.85z"/><path class="cls-11" d="M38.66 72.12h.97l-.14.85h.59l-.13.8-.62-.02-.34 1.97v.07l.02.06.03.04.05.04.06.03.07.02.08.01.08.01h.08l.07-.01.06-.01.06-.01.05-.02.03-.01.02-.01h.01l-.13.66-.02.01-.03.02-.02.01-.03.02-.02.01-.03.01-.03.01-.03.01-.04.01-.03.01h-.05l-.04.01-.04.01h-.06l-.05.01-.06.01h-.27l-.14-.01-.12-.02-.12-.02-.09-.02-.08-.03-.07-.04-.06-.04-.05-.05-.03-.05-.03-.06-.01-.06-.01-.06-.01-.08v-.07l.01-.09.01-.08.68-3.85"/><path class="cls-8" d="M40.86 75.1l-.01.06-.01.06.01.07.01.07.03.06.03.07.04.06.04.06.05.06.05.06.06.05.06.04.06.04.07.03.07.03.07.01.1.01.08.01.1.02h.09l.09.01h.1l.09-.01h.09l.1-.02.09-.02.1-.02.1-.03.1-.04.1-.04.1-.06.1-.06-.14.87-.06.03-.05.03-.06.02-.05.02-.06.02-.05.02-.06.01-.06.01-.06.01-.07.01h-.08l-.08.01-.09.01h-.5l-.17-.02-.18-.03-.17-.04-.18-.05-.16-.07-.16-.09-.15-.1-.14-.12-.12-.15-.1-.16-.08-.18-.06-.21-.04-.24-.01-.26.01-.29.02-.11.02-.13.03-.14.04-.15.05-.15.06-.15.09-.16.09-.14.12-.14.13-.14.16-.12.18-.1.2-.09.23-.07.25-.04.29-.01h.14l.14.01.15.03.14.03.14.06.14.06.13.08.11.1.11.12.09.14.07.17.05.18.02.22.01.24-.03.26-.05.3-.02.21h-2.57l.16-.69h1.55l.01-.09-.01-.08-.01-.08-.01-.07-.02-.07-.03-.06-.03-.05-.04-.05-.04-.04-.05-.04-.05-.03-.05-.03-.06-.02-.06-.01-.06-.01-.06-.01h-.07l-.06.01-.06.02-.06.02-.06.03-.05.03-.06.04-.04.04-.05.05-.04.05-.04.06-.03.06-.03.06-.03.07-.02.07-.01.08-.14.73z"/><path class="cls-11" d="M40.86 75.1l-.01.06-.01.06.01.07.01.07.03.06.03.07.04.06.04.06.05.06.05.06.06.05.06.04.06.04.07.03.07.03.07.01.1.01.08.01.1.02h.09l.09.01h.1l.09-.01h.09l.1-.02.09-.02.1-.02.1-.03.1-.04.1-.04.1-.06.1-.06-.14.87-.06.03-.05.03-.06.02-.05.02-.06.02-.05.02-.06.01-.06.01-.06.01-.07.01h-.08l-.08.01-.09.01h-.5l-.17-.02-.18-.03-.17-.04-.18-.05-.16-.07-.16-.09-.15-.1-.14-.12-.12-.15-.1-.16-.08-.18-.06-.21-.04-.24-.01-.26.01-.29.02-.11.02-.13.03-.14.04-.15.05-.15.06-.15.09-.16.09-.14.12-.14.13-.14.16-.12.18-.1.2-.09.23-.07.25-.04.29-.01h.14l.14.01.15.03.14.03.14.06.14.06.13.08.11.1.11.12.09.14.07.17.05.18.02.22.01.24-.03.26-.05.3-.02.21h-2.57l.16-.69h1.55l.01-.09-.01-.08-.01-.08-.01-.07-.02-.07-.03-.06-.03-.05-.04-.05-.04-.04-.05-.04-.05-.03-.05-.03-.06-.02-.06-.01-.06-.01-.06-.01h-.07l-.06.01-.06.02-.06.02-.06.03-.05.03-.06.04-.04.04-.05.05-.04.05-.04.06-.03.06-.03.06-.03.07-.02.07-.01.08-.14.73"/><path class="cls-8" d="M49.27 73.18l-.05-.02-.04-.02-.05-.03-.05-.02-.06-.02-.06-.02-.06-.03-.06-.02-.07-.02-.07-.01-.07-.01-.07-.01-.08-.01-.08-.01h-.27l-.09.01-.09.01-.1.02-.1.03-.1.03-.1.05-.1.07-.09.07-.09.1-.09.11-.09.13-.07.16-.08.17-.06.2-.06.22-.02.13-.02.12v.25l.01.12.02.11.04.11.03.1.06.1.06.09.08.08.08.07.1.07.11.05.11.05.14.03.04.01.06.01.06.01h.07l.08.01h.17l.09-.01.09-.01.09-.01.09-.03.09-.03.08-.04.09-.04.07-.06.07-.06-.16.94-.02.02-.02.02-.03.02-.03.02-.04.03-.05.03-.06.02-.06.02-.08.03-.09.02-.11.01-.12.01-.14.01-.16.01-.18-.01-.2-.01-.16-.02-.16-.03-.16-.05-.16-.07-.16-.09-.15-.11-.14-.12-.13-.14-.11-.16-.1-.18-.09-.19-.06-.22-.04-.24-.02-.25.01-.27.04-.29.03-.15.03-.14.03-.14.04-.13.04-.12.04-.12.05-.12.05-.11.05-.11.05-.1.06-.1.07-.09.06-.09.07-.08.07-.08.08-.08.08-.07.08-.06.08-.06.09-.06.1-.05.09-.05.1-.04.1-.04.11-.03.11-.03.11-.03.12-.02.12-.02.13-.01.13-.01h.25l.1.01.11.01.11.01.1.02.09.02.09.02.09.02.08.02.07.02.06.02.06.02.05.02.04.01.03.02h.03l-.18.98z"/><path class="cls-11" d="M49.27 73.18l-.05-.02-.04-.02-.05-.03-.05-.02-.06-.02-.06-.02-.06-.03-.06-.02-.07-.02-.07-.01-.07-.01-.07-.01-.08-.01-.08-.01h-.27l-.09.01-.09.01-.1.02-.1.03-.1.03-.1.05-.1.07-.09.07-.09.1-.09.11-.09.13-.07.16-.08.17-.06.2-.06.22-.02.13-.02.12v.25l.01.12.02.11.04.11.03.1.06.1.06.09.08.08.08.07.1.07.11.05.11.05.14.03.04.01.06.01.06.01h.07l.08.01h.17l.09-.01.09-.01.09-.01.09-.03.09-.03.08-.04.09-.04.07-.06.07-.06-.16.94-.02.02-.02.02-.03.02-.03.02-.04.03-.05.03-.06.02-.06.02-.08.03-.09.02-.11.01-.12.01-.14.01-.16.01-.18-.01-.2-.01-.16-.02-.16-.03-.16-.05-.16-.07-.16-.09-.15-.11-.14-.12-.13-.14-.11-.16-.1-.18-.09-.19-.06-.22-.04-.24-.02-.25.01-.27.04-.29.03-.15.03-.14.03-.14.04-.13.04-.12.04-.12.05-.12.05-.11.05-.11.05-.1.06-.1.07-.09.06-.09.07-.08.07-.08.08-.08.08-.07.08-.06.08-.06.09-.06.1-.05.09-.05.1-.04.1-.04.11-.03.11-.03.11-.03.12-.02.12-.02.13-.01.13-.01h.25l.1.01.11.01.11.01.1.02.09.02.09.02.09.02.08.02.07.02.06.02.06.02.05.02.04.01.03.02h.03l-.18.98"/><path class="cls-8" d="M57.95 76.75h-.97l.07-.39v-.04l-.06.07-.06.07-.06.05-.06.05-.07.05-.06.04-.06.03-.07.03-.07.02-.06.02-.07.02-.07.01-.07.01-.07.01H56l-.18-.01-.17-.04-.16-.06-.14-.08-.13-.11-.11-.11-.1-.14-.08-.14-.07-.16-.06-.17-.04-.17-.03-.18-.01-.18.01-.18.01-.18.04-.18.05-.21.06-.2.08-.18.08-.17.1-.16.1-.14.11-.12.12-.12.12-.1.13-.09.14-.08.13-.06.14-.05.14-.03.14-.02.15-.01h.1l.1.01.09.02.09.03.08.03.07.03.07.04.06.04.06.04.05.04.05.05.04.04.03.05.03.05.03.04.03.04.24-1.38h.96l-.8 4.61z"/><path class="cls-11" d="M57.95 76.75h-.97l.07-.39v-.04l-.06.07-.06.07-.06.05-.06.05-.07.05-.06.04-.06.03-.07.03-.07.02-.06.02-.07.02-.07.01-.07.01-.07.01H56l-.18-.01-.17-.04-.16-.06-.14-.08-.13-.11-.11-.11-.1-.14-.08-.14-.07-.16-.06-.17-.04-.17-.03-.18-.01-.18.01-.18.01-.18.04-.18.05-.21.06-.2.08-.18.08-.17.1-.16.1-.14.11-.12.12-.12.12-.1.13-.09.14-.08.13-.06.14-.05.14-.03.14-.02.15-.01h.1l.1.01.09.02.09.03.08.03.07.03.07.04.06.04.06.04.05.04.05.05.04.04.03.05.03.05.03.04.03.04.24-1.38h.96l-.8 4.61"/><path class="cls-9" d="M56.36 75.89h.09l.1-.02.08-.03.08-.04.08-.04.07-.05.06-.06.06-.07.06-.07.05-.07.04-.08.04-.09.04-.09.02-.09.03-.09.02-.1.01-.1.01-.1v-.2l-.01-.09-.01-.08-.03-.09-.03-.08-.03-.07-.04-.07-.05-.05-.05-.05-.06-.05-.07-.02-.06-.02-.08-.01-.09.01-.09.01-.08.03-.08.04-.07.04-.07.06-.06.06-.06.07-.06.07-.05.08-.04.09-.04.09-.04.09-.02.1-.03.1-.02.1-.02.16.01.17.02.17.05.17.07.14.09.12.12.08.14.02z"/><path class="cls-8" d="M34.7 75.97l-.15.78h-.89l.03-.15.02-.13.01-.09.01-.06-.04.06-.06.06-.07.05-.07.05-.09.05-.08.04-.1.04-.09.04-.1.03-.11.02-.1.02-.1.02-.11.01h-.1l-.1-.01-.09-.02-.13-.03-.11-.03-.1-.05-.09-.05-.07-.06-.07-.06-.06-.07-.05-.07-.04-.07-.04-.08-.03-.08-.02-.08-.01-.08-.01-.08-.01-.08v-.07l.01-.14.02-.13.04-.13.04-.12.06-.11.06-.1.08-.1.08-.09.09-.08.1-.07.1-.07.11-.06.11-.04.12-.04.12-.04.12-.02h.05l.04-.01h.04l.05-.01h.05l.06-.01.06-.01.06-.01h.07l.05-.01h.11l.05-.01h.12l.09.01h.21l.06.01h.04l.01-.02.02-.07.02-.07v-.07l-.01-.08-.03-.07-.05-.06-.05-.05-.07-.05-.07-.03-.09-.02-.09-.01h-.1l-.1-.01h-.11l-.11.01H33l-.12.01-.11.02-.11.01-.1.01-.11.02-.09.02-.08.02-.08.02-.06.02-.05.02-.04.02.25-.85.08-.03.07-.03.09-.02.08-.02.09-.02.09-.01.09-.01.1-.01.1-.01h.1l.1-.01h.34l.13.01h.12l.1.01.11.02.1.02.12.03.11.05.1.05.11.06.1.06.08.08.08.08.07.1.06.1.03.12.02.12v.13l-.02.14-.35 1.87z"/><path class="cls-11" d="M34.7 75.97l-.15.78h-.89l.03-.15.02-.13.01-.09.01-.06-.04.06-.06.06-.07.05-.07.05-.09.05-.08.04-.1.04-.09.04-.1.03-.11.02-.1.02-.1.02-.11.01h-.1l-.1-.01-.09-.02-.13-.03-.11-.03-.1-.05-.09-.05-.07-.06-.07-.06-.06-.07-.05-.07-.04-.07-.04-.08-.03-.08-.02-.08-.01-.08-.01-.08-.01-.08v-.07l.01-.14.02-.13.04-.13.04-.12.06-.11.06-.1.08-.1.08-.09.09-.08.1-.07.1-.07.11-.06.11-.04.12-.04.12-.04.12-.02h.05l.04-.01h.04l.05-.01h.05l.06-.01.06-.01.06-.01h.07l.05-.01h.11l.05-.01h.12l.09.01h.21l.06.01h.04l.01-.02.02-.07.02-.07v-.07l-.01-.08-.03-.07-.05-.06-.05-.05-.07-.05-.07-.03-.09-.02-.09-.01h-.1l-.1-.01h-.11l-.11.01H33l-.12.01-.11.02-.11.01-.1.01-.11.02-.09.02-.08.02-.08.02-.06.02-.05.02-.04.02.25-.85.08-.03.07-.03.09-.02.08-.02.09-.02.09-.01.09-.01.1-.01.1-.01h.1l.1-.01h.34l.13.01h.12l.1.01.11.02.1.02.12.03.11.05.1.05.11.06.1.06.08.08.08.08.07.1.06.1.03.12.02.12v.13l-.02.14-.35 1.87"/><path class="cls-10" d="M33.84 75.05v-.02l-.01-.02-.02-.01-.04-.01-.04-.01h-.21l-.06.01-.05.01-.06.01h-.05l-.05.01-.04.01-.04.02h-.03l-.02.01-.04.02-.04.01-.05.02-.04.03-.05.03-.05.02-.05.04-.04.03-.05.05-.04.04-.03.04-.03.05-.02.06-.01.06v.12l.02.09.03.07.05.05.05.04.06.02.06.01.05.01.11-.01.09-.01.1-.01.08-.02.07-.03.06-.03.06-.03.06-.04.04-.04.05-.04.03-.04.03-.04.02-.04.03-.04.01-.04.01-.04.03-.1.03-.12.02-.11.01-.09z"/><path class="cls-8" d="M27.27 76.75h-.96l.8-4.63h1.67l.16 2.74 1.15-2.74h1.75l-.82 4.63h-.96l.61-3.46h-.04l-1.44 3.46h-1.08l-.01-.15-.02-.38-.03-.55-.04-.62-.03-.64-.04-.55-.02-.4-.01-.17h-.05l-.59 3.46z"/><path class="cls-11" d="M27.27 76.75h-.96l.8-4.63h1.67l.16 2.74 1.15-2.74h1.75l-.82 4.63h-.96l.61-3.46h-.04l-1.44 3.46h-1.08l-.01-.15-.02-.38-.03-.55-.04-.62-.03-.64-.04-.55-.02-.4-.01-.17h-.05l-.59 3.46"/><path class="cls-8" d="M52.2 75.97l-.14.78h-.89l.01-.15v-.22l.01-.04-.05.05-.05.05-.06.06-.07.04-.08.05-.08.04-.09.04-.09.04-.1.03-.09.03-.1.01-.1.02-.1.01h-.1l-.1-.01-.09-.02-.13-.03-.11-.03-.1-.05-.09-.05-.08-.06-.07-.06-.05-.07-.05-.07-.05-.07-.03-.08-.03-.08-.01-.08-.02-.08-.01-.08v-.29l.02-.13.03-.13.05-.12.05-.11.07-.1.07-.1.09-.09.09-.08.09-.07.1-.07.11-.06.11-.04.12-.04.12-.04.12-.02h.05l.03-.01h.05l.05-.01h.05l.06-.01.06-.01.06-.01h.06l.06-.01h.1l.05-.01h.13l.08.01h.23l.05.01h.05l.01-.02.01-.07.01-.07.01-.07-.02-.08-.03-.07-.04-.06-.05-.05-.07-.05-.07-.03-.08-.02-.09-.01h-.09l-.11-.01h-.11l-.11.01h-.12l-.11.01-.11.02-.11.01-.11.01-.1.02-.09.02-.09.02-.07.02-.07.02-.05.02-.04.02.25-.85.08-.03.08-.03.08-.02.08-.02.09-.02.09-.01.09-.01.1-.01.1-.01h.1l.1-.01h.33l.12.01h.12l.1.01.11.02.11.02.11.03.11.05.11.05.1.06.1.06.09.08.08.08.07.1.05.1.04.12.03.12v.13l-.02.14-.37 1.87z"/><path class="cls-8" d="M52.06 76.77l.02-.02.14-.78-.04-.01-.15.79.03-.03v.05h.01l.01-.02-.02.02z"/><path class="cls-8" d="M51.15 76.75l.02.02h.89v-.05h-.89l.02.03h-.04v.02h.02l-.02-.02z"/><path class="cls-8" d="M51.21 76.35l-.04-.02-.01.05v.22l-.01.15h.04l.01-.15.01-.12-.01-.1v-.03l-.03-.02.04.02z"/><path class="cls-8" d="M49.83 76.81l.1.01.1.01h.1l.1-.01.1-.01.1-.02.1-.03.1-.03.09-.03.09-.05.08-.04.08-.05.07-.05.06-.05.06-.05.05-.06-.04-.02-.04.05-.05.05-.07.05-.06.05-.08.04-.08.04-.09.04-.09.04-.09.03-.1.03-.1.01-.09.02h-.1l-.1.01-.1-.01-.09-.02-.01.05zm-.85-1.07v.07l.01.08.01.09.02.08.01.08.03.08.03.08.05.07.05.07.05.07.07.07.09.06.09.05.1.05.12.03.12.04.01-.05-.13-.03-.11-.03-.09-.05-.09-.05-.08-.06-.06-.06-.06-.06-.05-.07-.03-.07-.04-.08-.02-.07-.02-.08-.02-.08-.01-.08v-.15h-.05zm1.27-1.36l-.13.02-.12.04-.11.03-.12.05-.11.06-.1.07-.1.07-.09.09-.08.09-.08.1-.07.1-.05.12-.05.12-.03.13-.02.13-.01.14h.05v-.14l.02-.13.04-.12.04-.12.06-.11.06-.1.07-.1.08-.08.09-.08.1-.07.1-.07.11-.06.1-.04.12-.04.11-.04.12-.02v-.04z"/><path class="cls-8" d="M50.97 74.31h-.09l-.04.01h-.06l-.06.01h-.06l-.06.01-.06.01h-.06l-.05.01h-.05l-.05.01-.03.01h-.05v.04h.05l.03-.01h.05l.05-.01h.05l.06-.01.06-.01h.06l.06-.01.06-.01h.19v-.05zm.48.04l.02-.02h-.05l-.05-.01-.07-.01h-.33v.05h.4l.05.01h.05l.02-.02-.02.02.02.01v-.03h-.04z"/><path class="cls-8" d="M51.48 74.12v.07l-.01.07-.01.06-.01.03h.04l.01-.02.01-.06.01-.08.01-.07h-.05zm-.42-.35v.01h.09l.07.02.07.03.06.04.05.05.04.06.03.07.01.07h.05l-.02-.08-.03-.08-.04-.07-.06-.05-.07-.05-.08-.03-.08-.02-.09-.01v.04z"/><path class="cls-8" d="M49.55 73.94l.04.02.03-.02.05-.02.06-.02.08-.02.08-.02.09-.02.1-.02.11-.01.11-.01.11-.01.11-.01.12-.01h.42v-.04h-.09l-.11-.01h-.11l-.11.01h-.12l-.11.01-.11.01-.11.02-.11.01-.1.02-.1.02-.08.01-.08.03-.07.02-.05.02-.04.03.03.02-.04-.01z"/><path class="cls-8" d="M49.81 73.07l-.01.02-.25.85.04.01.25-.85-.01.01-.02-.04-.01.01v.01l.01-.02z"/><path class="cls-8" d="M51.38 72.91l-.12-.01h-.45l-.1.01h-.1l-.1.01h-.1l-.09.02-.09.01-.09.02-.08.02-.09.02-.08.03-.08.03.02.04.07-.03.09-.02.07-.03.09-.02.09-.01.08-.02.09-.01.1-.01.1-.01h.77v-.04z"/><path class="cls-8" d="M52.59 74.11l.02-.15v-.13l-.02-.13-.04-.11-.06-.11-.07-.1-.08-.09-.09-.08-.11-.06-.1-.07-.11-.05-.11-.04-.12-.03-.11-.02-.11-.02-.1-.01v.04l.1.01.1.02.11.02.11.03.11.05.11.05.1.05.1.07.09.08.07.08.07.09.05.1.04.11.03.12v.13l-.02.14.04.01zm-.37 1.86l.37-1.86-.04-.01-.37 1.86.04.01z"/><path class="cls-9" d="M51.35 75.05l-.01-.03-.01-.01-.03-.01-.03-.02h-.19l-.06.01-.06.01h-.05l-.06.01-.05.01-.04.01-.05.01-.04.01h-.02l-.03.01-.03.01-.04.01-.05.03-.04.02-.05.02-.05.03-.04.03-.05.04-.04.04-.04.05-.03.05-.02.05-.02.06-.01.06-.01.12.02.09.03.07.04.05.05.04.06.02.06.01.06.01.11-.01.1-.01.09-.02.08-.02.08-.03.07-.03.06-.04.05-.04.05-.04.05-.04.04-.05.03-.04.02-.04.02-.05.01-.04.01-.04.02-.1.02-.1.01-.1.01-.08z"/><path class="cls-8" d="M58.61 76.27l.01-.09.03-.09.05-.09.06-.07.07-.06.09-.04.09-.03.1-.01.1.01.09.03.08.04.08.06.06.07.05.09.02.09.01.09h-.11v-.07l-.02-.08-.03-.07-.05-.06-.06-.05-.06-.03-.08-.03h-.16l-.08.03-.07.03-.05.05-.05.06-.04.07-.02.08v.07h-.11z"/><path class="cls-8" d="M58.93 76.27v-.22h.2l.04.01h.04l.02.02.03.01.02.02.01.02.01.03v.05l-.01.03-.01.02-.01.01h-.14l.01-.01h.02l.03-.01.01-.01.02-.01v-.01l.01-.02v-.04l-.01-.01-.01-.01h-.01l-.02-.01h-.16v.14h-.09zm-.32 0v.02l.01.1.03.09.05.09.06.07.07.06.09.05.09.02.1.01.1-.01.09-.02.08-.05.08-.06.06-.07.05-.09.02-.09.01-.1v-.02h-.11l.01.02-.01.08-.02.08-.03.07-.05.06-.06.05-.06.03-.08.03-.08.01-.08-.01-.08-.03-.07-.03-.05-.05-.05-.06-.04-.07-.02-.08v-.1h-.11z"/><path class="cls-8" d="M58.93 76.27v.21h.09v-.18h.09l.1.18h.07l-.1-.18h.05l.02-.01.02-.01v-.01h-.34z"/><path class="cls-11" d="M58.61 76.29v-.28l.06-.07.07-.06h.54l.07.06.06.07v.56l-.06.07-.07.06h-.45l-.07-.06-.06-.07v-.28m.41.19h-.09v-.43h.33v.17h-.09l.11.18h-.07l-.11-.18H59v.18m.09-.21h.12H59v.14h.09m0 .43h.29v-.77h-.59v.58h.29"/><path class="cls-8" d="M52.47 76.75h.99l.36-2.01.01-.08.02-.07.02-.08.03-.08.04-.08.04-.07.04-.07.06-.07.06-.06.08-.05.08-.06.09-.04.1-.04.11-.02.13-.02.13-.01h.09l.16-.91-.1.01-.09.01-.09.02-.09.02-.07.03-.08.04-.07.03-.07.05-.06.05-.06.04-.06.06-.05.06-.06.06-.05.06-.05.07-.05.07.11-.64h-.99l-.66 3.78z"/><path class="cls-11" d="M52.47 76.75h.99l.36-2.01.01-.08.02-.07.02-.08.03-.08.04-.08.04-.07.04-.07.06-.07.06-.06.08-.05.08-.06.09-.04.1-.04.11-.02.13-.02.13-.01h.09l.16-.91-.1.01-.09.01-.09.02-.09.02-.07.03-.08.04-.07.03-.07.05-.06.05-.06.04-.06.06-.05.06-.06.06-.05.06-.05.07-.05.07.11-.64h-.99l-.66 3.78"/><path class="cls-8" d="M43.13 76.75h1.01l.34-2.01.01-.08.02-.07.01-.07.03-.08.03-.06.03-.07.05-.07.04-.06.06-.05.07-.05.07-.04.09-.04.1-.03.11-.03.11-.02.14-.01h.03l.01.01h.06v.01h.01v-.02l.01-.04.02-.06.01-.08.03-.09.02-.1.04-.1.03-.1.03-.07.03-.06.04-.07.03-.06.03-.05.03-.05.02-.02v-.01h-.02l-.01-.01h-.08l-.02-.01h-.03l-.11.01-.1.01-.09.02-.08.02-.09.03-.07.03-.07.04-.06.04-.06.04-.06.06-.05.05-.05.06-.05.06-.05.07-.06.07-.05.07.13-.64h-1.02l-.65 3.78z"/><path class="cls-11" d="M43.13 76.75h1.01l.34-2.01.01-.08.02-.07.01-.07.03-.08.03-.06.03-.07.05-.07.04-.06.06-.05.07-.05.07-.04.09-.04.1-.03.11-.03.11-.02.14-.01h.03l.01.01h.06v.01h.01v-.02l.01-.04.02-.06.01-.08.03-.09.02-.1.04-.1.03-.1.03-.07.03-.06.04-.07.03-.06.03-.05.03-.05.02-.02v-.01h-.02l-.01-.01h-.08l-.02-.01h-.03l-.11.01-.1.01-.09.02-.08.02-.09.03-.07.03-.07.04-.06.04-.06.04-.06.06-.05.05-.05.06-.05.06-.05.07-.06.07-.05.07.13-.64h-1.02l-.65 3.78"/><path class="cls-9" d="M58.62 80.46v-.02l.03-.09.05-.08.06-.07.07-.06.09-.04.09-.02.1-.01.1.01.09.02.08.04.08.06.06.07.05.08.02.09v.02h-.1l-.02-.07-.03-.07-.05-.06-.06-.05-.06-.04-.08-.03h-.16l-.08.03-.07.04-.05.05-.05.06-.04.07-.02.07h-.1z"/><path class="cls-9" d="M58.93 80.46v-.12h.28l.02.01.03.01.02.02.01.02.01.03v.03h-.07v-.04l-.01-.01-.01-.01h-.01l-.02-.01h-.16v.07h-.09zm-.32.08l.01-.08h.1v.08h-.11z"/><path class="cls-9" d="M58.93 80.54v-.08h.09v.07h.09l.03-.01h.02l.03-.01.01-.01.02-.01v-.01l.01-.01v-.01h.07v.02l-.01.02-.01.02-.01.02h-.34zm.57 0l-.01-.08h.1l.01.08h-.1zm-.89 0v.01l.01.1.03.1.05.08.06.07.07.06.09.05.09.02.1.02.1-.02.09-.02.08-.05.08-.06.06-.07.05-.08.02-.1.01-.1v-.01h-.1v.01l-.01.08-.02.08-.03.07-.05.06-.06.05-.06.03-.08.03-.08.01-.08-.01-.08-.03-.07-.03-.05-.05-.05-.06-.04-.07-.02-.08v-.09h-.11z"/><path class="cls-9" d="M58.93 80.54v.2h.09v-.18h.09l.1.18h.07l-.1-.18h.05l.02-.01.02-.01h-.34z"/></g></g></svg>