<?xml version="1.0" encoding="utf-8"?>
<!-- Generator: Adobe Illustrator 21.0.0, SVG Export Plug-In . SVG Version: 6.00 Build 0)  -->
<svg version="1.1" id="Layer_1" xmlns="http://www.w3.org/2000/svg" xmlns:xlink="http://www.w3.org/1999/xlink" x="0px" y="0px"
	 viewBox="0 0 539.3 338" style="enable-background:new 0 0 539.3 338;" xml:space="preserve">
<style type="text/css">
	.st0{fill:#FFFFFF;}
	.st1{fill:#1168B2;}
	.st2{fill:#FAA735;}
	.st3{fill:#FBB22D;}
	.st4{fill:#EA2332;}
	.st5{fill:none;stroke:#FFFFFF;stroke-width:0.22;stroke-miterlimit:2.61;}
	.st6{opacity:0.5;}
	.st7{fill:#B4B4B4;}
	.st8{fill:#6D6E6E;}
	.st9{fill:#818181;}
	.st10{fill:#3A85C6;}
	.st11{fill:#F3F3F3;}
	.st12{fill:#42B655;}
</style>
<title>activation-lg</title>
<g>
	<path class="st0" d="M189.2,138H484c3.9,0,7,3.1,7,7v186c0,3.9-3.1,7-7,7H189.2c-3.9,0-7-3.1-7-7V145
		C182.2,141.1,185.3,138,189.2,138z"/>
	<path class="st1" d="M229.7,178.3h-3.1l1.9-11.9h3.1L229.7,178.3z M224,166.4l-3,8.2l-0.4-1.8l-1.1-5.4c-0.1-0.7-0.8-1.2-1.5-1.1
		h-4.8l-0.1,0.2c1.2,0.3,2.3,0.7,3.3,1.4l2.7,10.4h3.3l4.9-11.9L224,166.4z M248.5,178.3h2.9l-2.5-11.9h-2.6c-0.6,0-1.2,0.3-1.4,0.9
		l-4.6,11h3.3l0.6-1.8h4L248.5,178.3z M245,174.1l1.6-4.5l0.9,4.5H245z M240.5,169.2l0.4-2.6c-0.9-0.3-1.8-0.5-2.8-0.5
		c-1.5,0-5.2,0.7-5.2,4c0,3.1,4.3,3.1,4.3,4.7s-3.9,1.3-5.1,0.3l-0.5,2.6c1.1,0.5,2.3,0.7,3.5,0.7c2.1,0,5.3-1.1,5.3-4.1
		s-4.4-3.4-4.4-4.7S239.1,168.5,240.5,169.2L240.5,169.2z"/>
	<path class="st2" d="M220.7,172.8l-1.1-5.4c-0.1-0.7-0.8-1.2-1.5-1.1h-4.8l-0.1,0.2c1.7,0.4,3.3,1.2,4.6,2.3
		C219.1,169.9,220.1,171.3,220.7,172.8z"/>
	<path class="st0" d="M211.9,190.5h39.4v39.4h-39.4V190.5z"/>
	<path class="st3" d="M239.3,221.6h0.6h0.6l0.6-0.1l0.6-0.1l0.6-0.1l0.6-0.1l0.5-0.2l0.5-0.2l0.5-0.2l0.5-0.3l0.5-0.3l0.5-0.3
		l0.4-0.3l0.4-0.3l0.4-0.4l0.4-0.4l0.4-0.4l0.4-0.4l0.3-0.4l0.3-0.4l0.3-0.5l0.3-0.5l0.3-0.5l0.2-0.5l0.2-0.5l0.2-0.5l0.1-0.6
		l0.1-0.6l0.1-0.6l0.1-0.6v-0.6v-1.2V209l-0.1-0.6l-0.1-0.6l-0.1-0.6l-0.1-0.5l-0.2-0.5l-0.2-0.5l-0.2-0.5l-0.3-0.5l-0.3-0.5
		l-0.3-0.5l-0.3-0.4l-0.3-0.4l-0.4-0.4l-0.4-0.4l-0.4-0.4l-0.4-0.4l-0.4-0.3l-0.4-0.3l-0.5-0.3l-0.5-0.3l-0.5-0.3l-0.5-0.2l-0.5-0.2
		l-0.5-0.2l-0.6-0.2l-0.6-0.1l-0.6-0.1l-0.6-0.1h-0.6h-1.2h-0.6l-0.6,0.1L237,199l-0.6,0.1l-0.5,0.2l-0.5,0.2l-0.5,0.2l-0.5,0.2
		l-0.5,0.3l-0.5,0.3l-0.5,0.3l-0.4,0.3l-0.4,0.3l-0.4,0.4l-0.4,0.4l-0.4,0.4l-0.4,0.4l-0.3,0.4l-0.3,0.4l-0.3,0.5l-0.3,0.5l-0.3,0.5
		l-0.2,0.5l-0.2,0.5l-0.2,0.5l-0.2,0.5l-0.1,0.6l-0.1,0.6l-0.1,0.6v0.6v1.2v0.6l0.1,0.6l0.1,0.6l0.1,0.6l0.2,0.6l0.2,0.5l0.2,0.5
		l0.2,0.5l0.3,0.5l0.3,0.5l0.3,0.5l0.3,0.4l0.3,0.4l0.4,0.4l0.4,0.4l0.4,0.4l0.4,0.4l0.4,0.3l0.4,0.3l0.5,0.3l0.5,0.3l0.5,0.3
		l0.5,0.2l0.5,0.2l0.5,0.2l0.5,0.1l0.6,0.1l0.6,0.1l0.6,0.1h0.6h0.5V221.6z"/>
	<path class="st4" d="M224,221.6h0.6h0.6l0.6-0.1l0.6-0.1l0.6-0.1l0.5-0.1l0.5-0.2l0.5-0.2l0.5-0.2l0.5-0.3l0.5-0.3l0.5-0.3l0.4-0.3
		l0.4-0.3l0.4-0.4l0.4-0.4l0.4-0.4l0.4-0.4l0.3-0.4l0.3-0.4l0.3-0.5l0.3-0.5l0.3-0.5l0.2-0.5l0.2-0.5l0.2-0.5l0.1-0.6l0.1-0.6
		l0.1-0.6l0.1-0.6v-0.6v-1.2V209l-0.1-0.6l-0.1-0.6l-0.1-0.6l-0.2-0.5l-0.2-0.5l-0.2-0.5l-0.2-0.5l-0.3-0.5l-0.3-0.5l-0.3-0.5
		l-0.3-0.4l-0.3-0.4l-0.4-0.4l-0.4-0.4l-0.4-0.4l-0.4-0.4l-0.4-0.3l-0.4-0.3l-0.5-0.3l-0.5-0.3l-0.5-0.3l-0.5-0.2l-0.5-0.2l-0.5-0.2
		l-0.5-0.2l-0.6-0.1l-0.6-0.1l-0.6-0.1h-0.6h-1.2h-0.6l-0.6,0.1l-0.6,0.1l-0.6,0.1l-0.6,0.2l-0.5,0.2l-0.5,0.2l-0.5,0.2l-0.5,0.3
		l-0.5,0.3l-0.5,0.3l-0.4,0.3l-0.4,0.3l-0.4,0.4l-0.4,0.4l-0.4,0.4l-0.4,0.4l-0.3,0.4l-0.3,0.4l-0.3,0.5l-0.3,0.5l-0.3,0.5l-0.2,0.5
		l-0.2,0.5l-0.2,0.5l-0.1,0.5l-0.1,0.6l-0.1,0.6l-0.1,0.6v0.6v1.2v0.6l0.1,0.6l0.1,0.6l0.1,0.6l0.1,0.6l0.2,0.5l0.2,0.5l0.2,0.5
		l0.3,0.5l0.3,0.5l0.3,0.5l0.3,0.4l0.3,0.4l0.4,0.4l0.4,0.4l0.4,0.4l0.4,0.4l0.4,0.3l0.4,0.3l0.5,0.3l0.5,0.3l0.5,0.3l0.5,0.2
		l0.5,0.2l0.5,0.2l0.6,0.1l0.6,0.1l0.6,0.1l0.6,0.1h0.6L224,221.6z"/>
	<path class="st3" d="M230.3,203.1h6.1v-0.6h-5.6L230.3,203.1z M229.4,204.5h7v-0.6h-6.6L229.4,204.5z M228.7,205.9h7.7v-0.6H229
		L228.7,205.9z M228.2,207.3h8.1v-0.6h-8L228.2,207.3z M228.5,213.9h7.9v-0.6h-8.1L228.5,213.9z M229.1,215.3h7.3v-0.6h-7.6
		L229.1,215.3z M229.9,216.7h6.5v-0.6h-6.9L229.9,216.7z M231,218.1h5.4v-0.6h-5.9L231,218.1z M227.9,208.6h8.4V208H228L227.9,208.6
		z M233,212.5h3.2v-0.6h-3.1L233,212.5z M233.3,211.2h3v-0.6h-2.8L233.3,211.2z M227.7,210.5h0.8v0.6h-0.8V210.5z"/>
	<path class="st0" d="M226.2,209.8H225h-0.1h-0.1h-0.1l0,0l0,0l0,0l0,0l0,0v0.1v0.1v0.1l0,0l0.1,0.1l0.1,0.1l0.1,0.1h0.1h0.1h0.1
		h0.1l0.1,0.1l0.1,0.1l0.1,0.1l0.1,0.1l0.1,0.1l0.1,0.1v0.2v0.5v0.2v0.2l-0.1,0.1l-0.1,0.1l-0.1,0.1l-0.1,0.1l-0.1,0.1l-0.1,0.1
		l-0.1,0.1l-0.1,0.1h-0.1H225l0,0h-1.6h-0.1h-0.1h-0.1H223h-0.1l0.2-0.9h0.1h0.1h0.1h0.1h0.1h0.2h0.1h0.7h0.1h0.1h0.1h0.1v-0.1v-0.1
		v-0.1v-0.1v-0.1v-0.1l-0.1-0.1l-0.1-0.1l-0.1-0.1l-0.1-0.1l-0.1-0.1l-0.1-0.1l-0.1-0.1l-0.1-0.1l-0.1-0.1l-0.1-0.1l-0.1-0.1
		l-0.1-0.2v-0.2v-0.3v-0.1v-0.1v-0.1v-0.1l0.1-0.1l0.1-0.1l0.1-0.1l0.1-0.1l0.1-0.1l0.1-0.1l0.1-0.1h0.1h0.2h0.2h1.6l-0.2,0.9
		L226.2,209.8z"/>
	<path class="st5" d="M226.2,209.8H225h-0.1h-0.1h-0.1l0,0l0,0l0,0l0,0l0,0v0.1v0.1v0.1l0,0l0.1,0.1l0.1,0.1l0.1,0.1h0.1h0.1h0.1
		h0.1l0.1,0.1l0.1,0.1l0.1,0.1l0.1,0.1l0.1,0.1l0.1,0.1v0.2v0.5v0.2v0.2l-0.1,0.1l-0.1,0.1l-0.1,0.1l-0.1,0.1l-0.1,0.1l-0.1,0.1
		l-0.1,0.1l-0.1,0.1h-0.1H225l0,0h-1.6h-0.1h-0.1h-0.1H223h-0.1l0.2-0.9h0.1h0.1h0.1h0.1h0.1h0.2h0.1h0.7h0.1h0.1h0.1h0.1v-0.1v-0.1
		v-0.1v-0.1v-0.1v-0.1l-0.1-0.1l-0.1-0.1l-0.1-0.1l-0.1-0.1l-0.1-0.1l-0.1-0.1l-0.1-0.1l-0.1-0.1l-0.1-0.1l-0.1-0.1l-0.1-0.1
		l-0.1-0.2v-0.2v-0.3v-0.1v-0.1v-0.1v-0.1l0.1-0.1l0.1-0.1l0.1-0.1l0.1-0.1l0.1-0.1l0.1-0.1l0.1-0.1h0.1h0.2h0.2h1.6l-0.2,0.9"/>
	<path class="st0" d="M227.1,208h1.1l-0.1,0.9h0.6l-0.1,0.9h-0.7l-0.4,2.2l0,0v0.1l0,0h0.1h0.1h0.1h0.5h0.1h0.1l-0.1,0.7l0,0l0,0
		l0,0l0,0h-1H227h-0.1h-0.1h-0.1h-0.1h-0.1l-0.1-0.1v-0.1v-0.1V212l0.7-4.2L227.1,208z"/>
	<path class="st5" d="M227.1,208h1.1l-0.1,0.9h0.6l-0.1,0.9h-0.7l-0.4,2.2l0,0v0.1l0,0h0.1h0.1h0.1h0.5h0.1h0.1l-0.1,0.7l0,0l0,0
		l0,0l0,0h-1H227h-0.1h-0.1h-0.1h-0.1h-0.1l-0.1-0.1v-0.1v-0.1V212l0.7-4.2"/>
	<path class="st0" d="M229.5,211.2v0.3v0.1v0.1v0.1v0.1l0.1,0.1l0.1,0.1l0.1,0.1h0.1h0.1h0.1h0.1h0.3h0.1h0.5h0.1h0.1h0.1h0.1h0.1
		h0.1l0.1-0.1l0.1-0.1l-0.1,1h-0.1h-0.1h-0.1h-0.1h-0.1h-0.1h-1.1h-0.2h-0.2h-0.2l-0.2-0.1l-0.2-0.1l-0.2-0.1l-0.2-0.1l-0.1-0.1
		l-0.1-0.2l-0.1-0.2l-0.1-0.2l-0.1-0.2v-0.3v-0.6v-0.1v-0.1v-0.1v-0.2l0.1-0.2l0.1-0.2l0.1-0.2l0.1-0.1l0.1-0.1l0.1-0.1l0.2-0.1
		l0.2-0.1l0.2-0.1l0.3-0.1h0.3h0.6h0.2h0.1l0.1,0.1l0.1,0.1l0.1,0.1l0.1,0.1l0.1,0.1l0.1,0.1l0.1,0.2l0.1,0.2v0.2v0.3v0.3l0.2,0.4
		v0.2h-2.8l0.2-0.8h1.6v-0.4V210l0,0v-0.1v-0.1l0,0h-0.1h-0.1h-0.1h-0.1h-0.3h-0.1H230h-0.1h-0.1h-0.1l0,0l-0.1,0.1v0.1v0.1v0.1v0.1
		v0.1v0.1v0.1l-0.1,0.8L229.5,211.2z"/>
	<path class="st5" d="M229.5,211.2v0.3v0.1v0.1v0.1v0.1l0.1,0.1l0.1,0.1l0.1,0.1h0.1h0.1h0.1h0.1h0.3h0.1h0.5h0.1h0.1h0.1h0.1h0.1
		h0.1l0.1-0.1l0.1-0.1l-0.1,1h-0.1h-0.1h-0.1h-0.1h-0.1h-0.1h-1.1h-0.2h-0.2h-0.2l-0.2-0.1l-0.2-0.1l-0.2-0.1l-0.2-0.1l-0.1-0.1
		l-0.1-0.2l-0.1-0.2l-0.1-0.2l-0.1-0.2v-0.3v-0.6v-0.1v-0.1v-0.1v-0.2l0.1-0.2l0.1-0.2l0.1-0.2l0.1-0.1l0.1-0.1l0.1-0.1l0.2-0.1
		l0.2-0.1l0.2-0.1l0.3-0.1h0.3h0.6h0.2h0.1l0.1,0.1l0.1,0.1l0.1,0.1l0.1,0.1l0.1,0.1l0.1,0.1l0.1,0.2l0.1,0.2v0.2v0.3v0.3l0.2,0.4
		v0.2h-2.8l0.2-0.8h1.6v-0.4V210l0,0v-0.1v-0.1l0,0h-0.1h-0.1h-0.1h-0.1h-0.3h-0.1H230h-0.1h-0.1h-0.1l0,0l-0.1,0.1v0.1v0.1v0.1v0.1
		v0.1v0.1v0.1l-0.1,0.8"/>
	<path class="st0" d="M238.7,209.1L238.7,209.1L238.7,209.1h-0.1h-0.1h-0.1h-0.1h-0.1h-0.1H238h-0.9H237h-0.1h0.1l-0.1,0.1l-0.1,0.1
		l-0.1,0.1l-0.1,0.1l-0.1,0.1l-0.1,0.1l-0.1,0.2l-0.1,0.2l-0.1,0.2l-0.1,0.2v0.1v0.1v0.4v0.1v0.1v0.1l0.1,0.1l0.1,0.1l0.1,0.1
		l0.1,0.1l0.1,0.1l0.1,0.1l0.1,0.1h0.1h0.8h0.1h0.1h0.1h0.1l0.1-0.1l0.1-0.1l-0.2,1l0,0l0,0l0,0l0,0l0,0h0h-0.1h-0.1h-0.1h-0.1h-1
		h-0.2h-0.2l-0.2-0.1l-0.2-0.1l-0.2-0.1l-0.2-0.1l-0.1-0.1l-0.1-0.1l-0.1-0.2L235,212l-0.1-0.2l-0.1-0.2v-0.3V211v-0.3v-0.3v-0.2
		v-0.1V210v-0.1v-0.1v-0.1l0.1-0.1l0.1-0.1l0.1-0.1l0.1-0.1l0.1-0.1l0.1-0.1l0.1-0.1l0.1-0.1l0.1-0.1l0.1-0.1l0.1-0.1l0.1-0.1
		l0.1-0.1l0.1-0.1l0.1-0.1l0.1-0.1h0.1h0.1h0.1h0.1h0.1h0.1h0.1h1.1h0.1h0.1h0.1h0.1h0.1h0.1h0.1h0.1h0.1l0,0l0,0l0,0l-0.2,1.1
		L238.7,209.1z"/>
	<path class="st5" d="M238.7,209.1L238.7,209.1L238.7,209.1h-0.1h-0.1h-0.1h-0.1h-0.1h-0.1H238h-0.9H237h-0.1h0.1l-0.1,0.1l-0.1,0.1
		l-0.1,0.1l-0.1,0.1l-0.1,0.1l-0.1,0.1l-0.1,0.2l-0.1,0.2l-0.1,0.2l-0.1,0.2v0.1v0.1v0.4v0.1v0.1v0.1l0.1,0.1l0.1,0.1l0.1,0.1
		l0.1,0.1l0.1,0.1l0.1,0.1l0.1,0.1h0.1h0.8h0.1h0.1h0.1h0.1l0.1-0.1l0.1-0.1l-0.2,1l0,0l0,0l0,0l0,0l0,0h0h-0.1h-0.1h-0.1h-0.1h-1
		h-0.2h-0.2l-0.2-0.1l-0.2-0.1l-0.2-0.1l-0.2-0.1l-0.1-0.1l-0.1-0.1l-0.1-0.2L235,212l-0.1-0.2l-0.1-0.2v-0.3V211v-0.3v-0.3v-0.2
		v-0.1V210v-0.1v-0.1v-0.1l0.1-0.1l0.1-0.1l0.1-0.1l0.1-0.1l0.1-0.1l0.1-0.1l0.1-0.1l0.1-0.1l0.1-0.1l0.1-0.1l0.1-0.1l0.1-0.1
		l0.1-0.1l0.1-0.1l0.1-0.1l0.1-0.1h0.1h0.1h0.1h0.1h0.1h0.1h0.1h1.1h0.1h0.1h0.1h0.1h0.1h0.1h0.1h0.1h0.1l0,0l0,0l0,0l-0.2,1.1"/>
	<path class="st0" d="M248.2,213h-1.1l0.1-0.4l0,0l-0.1,0.1l-0.1,0.1l-0.1,0.1l-0.1,0.1l-0.1,0.1h-0.1h-0.1h-0.1h-0.1h-0.1h-0.1
		h-0.6h-0.2l-0.2-0.1l-0.1-0.1l-0.1-0.1l-0.1-0.1l-0.1-0.1l-0.1-0.1l-0.1-0.2l-0.1-0.2v-0.2v-0.2V211v-0.2l0.1-0.2l0.1-0.2l0.1-0.2
		l0.1-0.2l0.1-0.2l0.1-0.1l0.1-0.1l0.1-0.1l0.1-0.1l0.1-0.1l0.1-0.1l0.1-0.1l0.1-0.1h0.1h0.1h0.4h0.1h0.1h0.1h0.1h0.1h0.1h0.1h0.1
		l0.1,0.1l0,0v0.1v0.1l0,0l0,0l0.4-1.1h1.1L248.2,213L248.2,213z"/>
	<path class="st5" d="M248.2,213h-1.1l0.1-0.4l0,0l-0.1,0.1l-0.1,0.1l-0.1,0.1l-0.1,0.1l-0.1,0.1h-0.1h-0.1h-0.1h-0.1h-0.1h-0.1
		h-0.6h-0.2l-0.2-0.1l-0.1-0.1l-0.1-0.1l-0.1-0.1l-0.1-0.1l-0.1-0.1l-0.1-0.2l-0.1-0.2v-0.2v-0.2V211v-0.2l0.1-0.2l0.1-0.2l0.1-0.2
		l0.1-0.2l0.1-0.2l0.1-0.1l0.1-0.1l0.1-0.1l0.1-0.1l0.1-0.1l0.1-0.1l0.1-0.1l0.1-0.1h0.1h0.1h0.4h0.1h0.1h0.1h0.1h0.1h0.1h0.1h0.1
		l0.1,0.1l0,0v0.1v0.1l0,0l0,0l0.4-1.1h1.1L248.2,213"/>
	<path class="st3" d="M246.5,212.1h0.1h0.1h0.1h0.1h0.1l0.1-0.1l0.1-0.1l0.1-0.1l0.1-0.1l0.1-0.1v-0.1v-0.1v-0.1v-0.1v-0.1V211v-0.6
		v-0.1v-0.1v-0.1V210l-0.1-0.1l-0.1-0.1l-0.1-0.1H247l0,0h-0.3h-0.1h-0.1h-0.1l-0.1,0.1l-0.1,0.1l-0.1,0.1l-0.1,0.1l-0.1,0.1v0.1
		v0.1v0.1v0.1v0.1v0.1v0.2v0.2v0.2l0.1,0.2l0.1,0.1l0.1,0.1L246.5,212.1L246.5,212.1z"/>
	<path class="st0" d="M222.8,212.2l-0.2,0.9h-1v-0.2v-0.1v-0.2v0.1l-0.1,0.1l-0.1,0.1l-0.1,0.1l-0.1,0.1h-0.1H221h0h-0.1h-0.1h-0.1
		h-0.1h-0.3h-0.1h-0.1H220l-0.1-0.1l-0.1-0.1l-0.1-0.1l-0.1-0.1l-0.1-0.1l-0.1-0.1v-0.1v-0.1v-0.1v-0.1v-0.5v-0.1v-0.1v-0.1l0.1-0.1
		l0.1-0.1l0.1-0.1l0.1-0.1l0.1-0.1l0.1-0.1l0.1-0.1l0.1-0.1h0.1h0.1h0.1h0.1h1.3l0,0v-0.1v-0.1v-0.2V210l-0.1-0.1l-0.1-0.1l-0.1-0.1
		h-0.1h-0.1h-0.8h-0.1h-0.2h-0.1h-0.1H220h0h-0.1h-0.1l0,0l0.3-0.9h0.1h0.1h0.1h0.1h0.1h1.4h0.1h0.1h0.1l0.1,0.1l0.1,0.1l0.1,0.1
		l0.1,0.1l0.1,0.1l0.1,0.1l0.1,0.1l0.1,0.1v0.1v0.1v0.1v0.1L222.8,212.2L222.8,212.2z"/>
	<path class="st5" d="M222.8,212.2l-0.2,0.9h-1v-0.2v-0.1v-0.2v0.1l-0.1,0.1l-0.1,0.1l-0.1,0.1l-0.1,0.1h-0.1H221h0h-0.1h-0.1h-0.1
		h-0.1h-0.3h-0.1h-0.1H220l-0.1-0.1l-0.1-0.1l-0.1-0.1l-0.1-0.1l-0.1-0.1l-0.1-0.1v-0.1v-0.1v-0.1v-0.1v-0.5v-0.1v-0.1v-0.1l0.1-0.1
		l0.1-0.1l0.1-0.1l0.1-0.1l0.1-0.1l0.1-0.1l0.1-0.1l0.1-0.1h0.1h0.1h0.1h0.1h1.3l0,0v-0.1v-0.1v-0.2V210l-0.1-0.1l-0.1-0.1l-0.1-0.1
		h-0.1h-0.1h-0.8h-0.1h-0.2h-0.1h-0.1H220h0h-0.1h-0.1l0,0l0.3-0.9h0.1h0.1h0.1h0.1h0.1h1.4h0.1h0.1h0.1l0.1,0.1l0.1,0.1l0.1,0.1
		l0.1,0.1l0.1,0.1l0.1,0.1l0.1,0.1l0.1,0.1v0.1v0.1v0.1v0.1L222.8,212.2"/>
	<path class="st4" d="M221.8,211.2L221.8,211.2h-0.7l0,0H221l0,0l0,0h-0.1l0,0h-0.1h-0.1h-0.1l0,0l-0.1,0.1l0,0l0,0v0.1v0.1v0.2v0.1
		v0.1l0.1,0.1h0.1h0.1h0.4h0.1h0.1h0.1h0.1h0.1l0,0h0.1l0,0l0,0l0,0l0,0v-0.1v-0.1v-0.1v-0.1L221.8,211.2z"/>
	<path class="st0" d="M214.6,213h-1.1l0.9-5.1h1.8l0.2,3l1.3-3h1.9l-0.9,5.1h-1.1l0.7-3.8l0,0l-1.6,3.8h-1.2v-0.2v-0.4v-0.6v-0.7
		v-0.7v-0.6v-0.4v-0.2h-0.1L214.6,213z"/>
	<path class="st5" d="M214.6,213h-1.1l0.9-5.1h1.8l0.2,3l1.3-3h1.9l-0.9,5.1h-1.1l0.7-3.8l0,0l-1.6,3.8h-1.2v-0.2v-0.4v-0.6v-0.7
		v-0.7v-0.6v-0.4v-0.2h-0.1l-0.6,3.8"/>
	<path class="st0" d="M241.9,212.2l-0.1,0.9h-1v-0.4l-0.1,0.1l-0.1,0.1l-0.1,0.1h-0.1l-0.1,0.1h-0.1h-0.1H240h0h-0.1h-0.1h-0.1h-0.3
		h-0.1h-0.1H239v0.2l-0.1-0.1l-0.1-0.1l-0.1-0.1l-0.1-0.1l-0.1-0.1l-0.1-0.1v-0.1v-0.1v-0.1v-0.1v-0.4v-0.1v-0.1l0.1-0.1l0.1-0.1
		l0.1-0.1l0.1-0.1l0.1-0.1l0.1-0.1l0.1-0.1l0.1-0.1l0.1-0.1h0.1h0.1h0.1h0.1h1.3v-0.3v-0.1v-0.1v-0.1l-0.1-0.1l-0.1-0.1h0.2h-0.1
		H240h-0.1h-0.2h-0.1h-0.1h-0.1h-0.1h-0.1h-0.1l0,0l0.3-0.9h0.1h0.1h0.1h0.1h0.1h1.4h0.1h0.1h0.1l0.1,0.1l0.1,0.1l0.1,0.1l0.1,0.1
		l0.1,0.1l0.1,0.1l0.1,0.1l0.1,0.1v0.1v0.1l0,0v0.1L241.9,212.2L241.9,212.2z"/>
	<path class="st0" d="M241.8,213.1L241.8,213.1l0.1-0.9l0,0L241.8,213.1L241.8,213.1L241.8,213.1L241.8,213.1L241.8,213.1
		L241.8,213.1z"/>
	<path class="st0" d="M240.8,213L240.8,213h1l0,0H240.8L240.8,213L240.8,213L240.8,213L240.8,213z"/>
	<path class="st0" d="M240.8,212.6L240.8,212.6v0.4l0,0V212.6L240.8,212.6L240.8,212.6z"/>
	<path class="st0" d="M239.3,213.1h0.6h0.1h0.1h0.1h0.1l0.1-0.1h0.1l0.1-0.1l0.1-0.1l0.1-0.1l0.1-0.1l0.1-0.1l0,0v0.1l-0.1,0.1
		l-0.1,0.1l-0.1,0.1h-0.1h-0.1h-0.1h-0.1h-0.1h-0.1H240h-0.1h-0.3h-0.1L239.3,213.1L239.3,213.1z M238.4,211.9v0.3v0.1v0.1v0.1v0.1
		l0.1,0.1l0.1,0.1l0.1,0.1l0.1,0.1l0.1,0.1l0.1,0.1l0.1,0.1h0.1h0.1V213h-0.1h-0.1l-0.1-0.1l-0.1-0.1l-0.1-0.1l-0.1-0.1l-0.1-0.1
		l-0.1-0.1v-0.1v-0.1v-0.1V212v-0.1L238.4,211.9L238.4,211.9L238.4,211.9z M239.8,210.4h-0.1h-0.1h-0.1l-0.1,0.1l-0.1,0.1l-0.1,0.1
		l-0.1,0.1l-0.1,0.1l-0.1,0.1l-0.1,0.1l-0.1,0.1l-0.1,0.1l-0.1,0.1v0.1v0.1v0.1h0.1v-0.1v-0.1v-0.1v-0.1l0.1-0.1l0.1-0.1l0.1-0.1
		l0.1-0.1l0.1-0.1l0.1-0.1l0.1-0.1l0.1-0.1h0.1h0.1h0.1L239.8,210.4L239.8,210.4L239.8,210.4z"/>
	<path class="st0" d="M240.6,210.4h-0.8l0,0H240.6z M241.1,210.4L241.1,210.4h-0.6v0.1L241.1,210.4L241.1,210.4L241.1,210.4
		L241.1,210.4L241.1,210.4L241.1,210.4z"/>
	<path class="st0" d="M241.1,210.2v0.3l0,0V210.2z M240.7,209.8h0.1h0.1h0.1h0.1l0.1,0.1v0.1v0.1v0.1h0.1V210v-0.1v-0.1l-0.1-0.1
		l-0.1-0.1H241h-0.1L240.7,209.8L240.7,209.8z"/>
	<path class="st0" d="M239,210L239,210L239,210L239,210h0.1h0.1h0.1h0.1h0.1h1.1l0,0h-0.8h-0.1h-0.1h-0.1h-0.1h-0.1h-0.1H239
		L239,210L239,210L239,210L239,210z"/>
	<path class="st0" d="M239.3,209L239.3,209l-0.3,1l0,0L239.3,209L239.3,209L239.3,209L239.3,209L239.3,209z"/>
	<path class="st0" d="M241,208.8h-1h-0.1h-0.1h-0.1h-0.1h-0.1h-0.1h-0.1l0,0h0.1h0.1h0.1h0.1h0.1h0.1H241z"/>
	<path class="st0" d="M242.3,210.1V210v-0.1v-0.1v-0.1l-0.1-0.1l-0.1-0.1l-0.1-0.1l-0.1-0.1l-0.1-0.1l-0.1-0.1l-0.1-0.1h-0.1h-0.1
		h-0.1h-0.1H241l0,0h0.1h0.1h0.1h0.1l0.1,0.1l0.1,0.1l0.1,0.1l0.1,0.1l0.1,0.1l0.1,0.1l0.1,0.1l0.1,0.1v0.1v0.1L242.3,210.1
		l-0.1,0.2l0,0h0.1V210.1z M241.9,212.1l0.4-2l0,0L241.9,212.1z"/>
	<path class="st3" d="M241,211.2L241,211.2L241,211.2L241,211.2h-0.8h-0.1l0,0H240h-0.1l0,0h0.1l0,0v0.1v0.1v0.1v0.1v0.2v0.1v0.1
		v0.1h0.1h0.1h0.4h0.1h0.1h0.1h0.1h0.1h0.1h0.1h0.1V212l0,0l0,0v-0.1v-0.1v-0.1v-0.1L241,211.2L241,211.2z"/>
	<path class="st0" d="M248.9,212.5v-0.1v-0.1l0.1-0.1l0.1-0.1l0.1-0.1h0.1h0.1h0.2h0.1h0.1l0.1,0.1l0.1,0.1l0.1,0.1v0.1v0.1H250
		v-0.1v-0.1v-0.1l-0.1-0.1l-0.1-0.1h-0.1h-0.1h-0.2h-0.1h-0.1l-0.1,0.1l-0.1,0.1v0.1v0.1v0.1H248.9z"/>
	<path class="st0" d="M249.3,212.5v-0.2h0.3l0,0l0,0l0,0v0.2h-0.1v-0.1h-0.2V212.5L249.3,212.5L249.3,212.5z M248.9,212.5v0.1v0.1
		l0.1,0.1l0.1,0.1l0.1,0.1l0.1,0.1h0.1h0.2h0.1l0.1-0.1l0.1-0.1l0.1-0.1l0.1-0.1v-0.1v-0.1H250v0.1v0.1v0.1l-0.1,0.1l-0.1,0.1h-0.1
		h-0.1h-0.2h-0.1h-0.1l-0.1-0.1l-0.1-0.1v-0.1v-0.1v-0.1H248.9L248.9,212.5z"/>
	<path class="st0" d="M249.3,212.5v0.2h0.1v-0.2h0.1l0.1,0.2h0.1l-0.1-0.2H249.3L249.3,212.5z"/>
	<path class="st5" d="M248.9,212.5v-0.3l0.1-0.1l0.1-0.1h0.6l0.1,0.1l0.1,0.1v0.6l-0.1,0.1l-0.1,0.1h-0.5l-0.1-0.1l-0.1-0.1
		L248.9,212.5 M249.5,212.7h-0.1v-0.5h0.4v0.2h-0.1l0.1,0.2h-0.1l-0.1-0.2h-0.2v0.2 M249.4,212.4h-0.1v0.1h0.1 M249.4,213h0.3v-0.8
		h-0.6v0.6h0.3"/>
	<path class="st0" d="M242.2,213h1.1l0.4-2.2v-0.1v-0.1v-0.1v-0.1v-0.1v-0.1v-0.1l0.1-0.1l0.1-0.1l0.1-0.1l0.1-0.1h0.1h0.1h0.1h0.1
		h0.2l0.2-1h-0.2h-0.1h-0.1h-0.1h-0.1h-0.1l-0.1,0.1l-0.1,0.1l0,0l-0.1,0.1l-0.1,0.1l-0.1,0.1l-0.1,0.1l-0.1,0.1l-0.1,0.1l0.1-0.7
		h-1.1l-0.7,4.1L242.2,213z"/>
	<path class="st5" d="M242.2,213h1.1l0.4-2.2v-0.1v-0.1v-0.1v-0.1v-0.1v-0.1v-0.1l0.1-0.1l0.1-0.1l0.1-0.1l0.1-0.1h0.1h0.1h0.1h0.1
		h0.2l0.2-1h-0.2h-0.1h-0.1h-0.1h-0.1h-0.1l-0.1,0.1l-0.1,0.1l0,0l-0.1,0.1l-0.1,0.1l-0.1,0.1l-0.1,0.1l-0.1,0.1l-0.1,0.1l0.1-0.7
		h-1.1l-0.7,4.1"/>
	<path class="st0" d="M232,213h1.1l0.4-2.2v-0.1v-0.1v-0.1v-0.1v-0.1v-0.1l0.1-0.1V210l0.1-0.1l0.1-0.1h0.1h0.1h0.1h0.1h0.1h0.3v0.2
		v-0.1v-0.1v-0.1v-0.1v-0.1v-0.1v-0.1v-0.1v-0.1V209v0l0,0l0,0h-0.4H234h-0.1h-0.1h-0.1h-0.1h-0.1h-0.1l-0.1,0.1l-0.1,0.1l-0.1,0.1
		l-0.1,0.1l-0.1,0.1l-0.1,0.1l-0.1,0.1l0.1-0.7h-1.1L232,213z"/>
	<path class="st5" d="M232,213h1.1l0.4-2.2v-0.1v-0.1v-0.1v-0.1v-0.1v-0.1l0.1-0.1V210l0.1-0.1l0.1-0.1h0.1h0.1h0.1h0.1h0.1h0.3v0.2
		v-0.1v-0.1v-0.1v-0.1v-0.1v-0.1v-0.1v-0.1v-0.1V209v0l0,0l0,0h-0.4H234h-0.1h-0.1h-0.1h-0.1h-0.1h-0.1l-0.1,0.1l-0.1,0.1l-0.1,0.1
		l-0.1,0.1l-0.1,0.1l-0.1,0.1l-0.1,0.1l0.1-0.7h-1.1L232,213"/>
	<path class="st3" d="M248.9,217.1L248.9,217.1V217l0.1-0.1l0.1-0.1l0.1-0.1h0.1h0.1h0.2h0.1h0.1l0.1,0.1l0.1,0.1l0.1,0.1v0.1l0,0
		H250V217v-0.1l-0.1-0.1l-0.1-0.1h-0.1h-0.1h-0.2h-0.1h-0.1l-0.1,0.1l-0.1,0.1v0.1v0.1H248.9z"/>
	<path class="st3" d="M249.3,217.1V217h0.4l0,0v0.1h-0.1l0,0H249.3L249.3,217.1L249.3,217.1L249.3,217.1z M248.9,217.2L248.9,217.2
		L248.9,217.2L248.9,217.2L248.9,217.2z"/>
	<path class="st3" d="M249.3,217.2L249.3,217.2l0.1-0.1v0.1h0.3v0.1L249.3,217.2L249.3,217.2z M249.9,217.2L249.9,217.2l0.1-0.1v0.1
		H249.9z M248.9,217.2L248.9,217.2v0.1v0.1l0.1,0.1l0.1,0.1l0.1,0.1l0.1,0.1h0.1h0.1h0.1h0.1l0.1-0.1l0.1-0.1l0.1-0.1l0.1-0.1v-0.1
		v-0.1H250v0.1v0.1v0.1l-0.1,0.1l-0.1,0.1h-0.1h-0.1h-0.2h-0.1h-0.1l-0.1-0.1l-0.1-0.1v-0.1v-0.1v-0.1H248.9z"/>
	<path class="st3" d="M249.3,217.2v0.2h0.1v-0.2h0.1l0.1,0.2h0.1l-0.1-0.2H249.3L249.3,217.2z"/>
	<g id="line" class="st6">
		<rect id="line2" x="34" y="31.3" class="st7" width="89" height="1.4"/>
	</g>
	<path class="st8" d="M192.3,21.5h2.4l2.7,17h-2.8l-0.7-4.6h-6.1l-2.6,4.6h-2.8L192.3,21.5z M193.8,31.9l-1-7.3l-4.2,7.3
		C188.6,31.9,193.8,31.9,193.8,31.9z"/>
	<path class="st8" d="M205.4,38.7c-0.9,0-1.8-0.2-2.6-0.6c-0.7-0.4-1.4-0.9-1.9-1.6c-0.5-0.7-0.9-1.5-1.2-2.3
		c-0.3-0.9-0.4-1.8-0.4-2.7c0-1.2,0.3-2.4,0.7-3.5c0.5-1.2,1.2-2.3,2.1-3.2c0.9-1,1.9-1.8,3.1-2.4c1.2-0.6,2.6-0.9,3.9-0.9
		c1.3-0.1,2.5,0.3,3.6,1c0.9,0.7,1.5,1.6,1.8,2.7l-2.4,1.4c-0.1-0.5-0.3-0.9-0.5-1.3c-0.2-0.3-0.5-0.6-0.9-0.8
		c-0.3-0.2-0.7-0.4-1.1-0.4c-0.4-0.1-0.8-0.1-1.1-0.1c-0.9,0-1.9,0.2-2.7,0.7s-1.5,1.1-2.1,1.8c-0.6,0.7-1,1.5-1.3,2.4
		c-0.3,0.8-0.5,1.7-0.5,2.6c0,0.6,0.1,1.3,0.3,1.9s0.4,1.1,0.8,1.6c0.3,0.4,0.8,0.8,1.2,1.1c0.5,0.3,1.1,0.4,1.7,0.4
		c0.4,0,0.8-0.1,1.2-0.2c0.5-0.1,0.9-0.3,1.3-0.5c0.4-0.2,0.8-0.5,1.2-0.9s0.8-0.8,1.1-1.3l2,1.3c-0.4,0.6-0.9,1.2-1.4,1.7
		c-0.6,0.5-1.2,0.9-1.9,1.2s-1.4,0.6-2.1,0.8C206.8,38.6,206.1,38.7,205.4,38.7z"/>
	<path class="st8" d="M220.9,23.9h-5.3l0.5-2.4h13.4l-0.5,2.4h-5.3l-3.1,14.7h-2.7L220.9,23.9z"/>
	<path class="st8" d="M231.8,21.5h2.7l-3.6,17h-2.7L231.8,21.5z"/>
	<path class="st8" d="M236.5,21.5h2.9l1.9,13.7l7.6-13.7h2.9l-10.1,17h-2.3L236.5,21.5z"/>
	<path class="st8" d="M257.2,21.5h2.4l2.7,17h-2.8l-0.7-4.6h-6.1l-2.6,4.6h-2.8L257.2,21.5z M258.7,31.9l-1-7.3l-4.2,7.3
		C253.5,31.9,258.7,31.9,258.7,31.9z"/>
	<path class="st8" d="M269.4,23.9h-5.3l0.5-2.4H278l-0.5,2.4h-5.3L269,38.5h-2.7L269.4,23.9z"/>
	<path class="st8" d="M280.3,21.5h10.9l-0.5,2.4h-8.2l-1,4.9h7.1l-0.5,2.2H281l-1.1,5.2h8.4l-0.5,2.4h-11.1L280.3,21.5z"/>
	<path class="st8" d="M300.8,32.4l-3.6-10.9h3l2.5,8.5l6.2-8.5h2.9l-8.3,10.9l-1.3,6.1h-2.7L300.8,32.4z"/>
	<path class="st8" d="M316.1,38.6c-0.9,0-1.8-0.2-2.6-0.6c-0.7-0.4-1.4-0.9-1.9-1.6c-0.5-0.7-0.9-1.4-1.2-2.2
		c-0.3-0.9-0.4-1.8-0.4-2.7c0-1.3,0.3-2.6,0.8-3.8c0.5-1.2,1.3-2.3,2.2-3.3c0.9-0.9,2-1.7,3.1-2.3c1.2-0.6,2.4-0.9,3.7-0.9
		c0.9,0,1.8,0.2,2.6,0.6c0.7,0.4,1.4,0.9,1.9,1.6s0.9,1.4,1.2,2.3c0.3,0.9,0.4,1.8,0.4,2.6c0,1.3-0.3,2.6-0.8,3.8
		c-0.5,1.2-1.2,2.3-2.1,3.3c-0.9,0.9-2,1.7-3.1,2.3C318.7,38.3,317.4,38.6,316.1,38.6z M316.6,36.2c0.9,0,1.8-0.2,2.6-0.7
		c0.8-0.5,1.5-1.1,2.1-1.8s1-1.6,1.4-2.4c0.3-0.9,0.5-1.8,0.5-2.7c0-0.6-0.1-1.2-0.3-1.9c-0.2-0.6-0.4-1.1-0.7-1.5
		c-0.3-0.4-0.7-0.8-1.2-1.1c-0.5-0.3-1.1-0.4-1.7-0.4c-0.9,0-1.8,0.2-2.6,0.7c-0.8,0.5-1.5,1.1-2.1,1.8c-0.6,0.7-1.1,1.6-1.4,2.4
		c-0.3,0.9-0.5,1.8-0.5,2.7c0,0.6,0.1,1.3,0.3,1.9c0.2,0.6,0.4,1.1,0.7,1.5c0.3,0.4,0.7,0.8,1.2,1.1
		C315.5,36.1,316.1,36.2,316.6,36.2z"/>
	<path class="st8" d="M333.5,38.6c-0.9,0-1.8-0.1-2.6-0.4c-0.7-0.3-1.2-0.7-1.7-1.2c-0.4-0.5-0.8-1.1-1-1.8s-0.3-1.5-0.3-2.2
		c0-0.9,0.1-1.9,0.3-2.8l1.8-8.6h2.7l-1.9,8.6c-0.2,0.8-0.3,1.5-0.3,2.3c0,0.5,0.1,1,0.2,1.5c0.1,0.4,0.3,0.8,0.5,1.2
		c0.3,0.3,0.6,0.6,1,0.8c0.5,0.2,1,0.3,1.5,0.3c0.8,0,1.5-0.2,2.2-0.5c0.6-0.4,1.2-0.8,1.6-1.4c0.5-0.6,0.8-1.2,1.1-1.9
		c0.3-0.7,0.5-1.5,0.7-2.2l1.8-8.6h2.7l-1.9,8.6c-0.2,1.1-0.6,2.2-1.1,3.3c-0.5,1-1.1,1.9-1.8,2.7C337.9,37.8,335.7,38.7,333.5,38.6
		L333.5,38.6z"/>
	<path class="st8" d="M344.1,38.5l3.6-17h7.1c0.6,0,1.2,0.1,1.7,0.4c0.5,0.2,0.9,0.6,1.3,1c0.3,0.4,0.6,0.9,0.8,1.5
		c0.4,1.2,0.4,2.4-0.1,3.6c-0.2,0.6-0.5,1.2-0.9,1.7s-0.8,1-1.4,1.4c-0.5,0.4-1.1,0.7-1.7,0.9l2.4,6.5h-3l-2.2-5.9H348l-1.3,5.9
		H344.1z M352.9,30.2c0.4,0,0.8-0.1,1.2-0.3c0.4-0.2,0.7-0.5,1-0.9s0.5-0.8,0.7-1.2c0.2-0.5,0.3-0.9,0.3-1.4c0-0.6-0.2-1.3-0.5-1.8
		c-0.3-0.4-0.8-0.7-1.3-0.7h-4.2l-1.4,6.4L352.9,30.2z"/>
	<path class="st8" d="M373,21.5h2.4l2.7,17h-2.8l-0.7-4.6h-6.1l-2.6,4.6H363L373,21.5z M374.5,31.9l-1-7.3l-4.2,7.3
		C369.3,31.9,374.5,31.9,374.5,31.9z"/>
	<path class="st8" d="M386.1,38.7c-0.9,0-1.8-0.2-2.6-0.6c-0.7-0.4-1.4-0.9-1.9-1.6c-0.5-0.7-0.9-1.5-1.2-2.3
		c-0.3-0.9-0.4-1.8-0.4-2.7c0-1.2,0.3-2.4,0.7-3.5c0.5-1.2,1.2-2.3,2.1-3.2c0.9-1,2-1.8,3.2-2.4s2.6-0.9,4-0.9
		c1.3-0.1,2.5,0.3,3.6,1c0.9,0.7,1.5,1.6,1.8,2.7l-2.4,1.4c-0.1-0.5-0.3-0.9-0.5-1.3c-0.2-0.3-0.5-0.6-0.9-0.8
		c-0.3-0.2-0.7-0.4-1.1-0.4c-0.4-0.1-0.8-0.1-1.1-0.1c-0.9,0-1.9,0.2-2.7,0.7c-0.8,0.5-1.5,1.1-2,1.8c-0.6,0.7-1,1.5-1.3,2.4
		c-0.3,0.8-0.5,1.7-0.5,2.6c0,0.6,0.1,1.3,0.3,1.9c0.2,0.6,0.4,1.1,0.8,1.6c0.3,0.4,0.7,0.8,1.1,1.1c0.5,0.3,1.1,0.4,1.7,0.4
		c0.4,0,0.8-0.1,1.2-0.2c0.5-0.1,0.9-0.3,1.3-0.5s0.8-0.5,1.2-0.9c0.4-0.4,0.8-0.8,1.1-1.3l2,1.3c-0.4,0.6-0.9,1.2-1.4,1.7
		c-0.6,0.5-1.2,0.9-1.9,1.2c-0.7,0.3-1.4,0.6-2.1,0.8C387.4,38.6,386.8,38.7,386.1,38.7z"/>
	<path class="st8" d="M401.7,38.7c-0.9,0-1.8-0.2-2.6-0.6c-0.7-0.4-1.4-0.9-1.9-1.6c-0.5-0.7-0.9-1.5-1.2-2.3
		c-0.3-0.9-0.4-1.8-0.4-2.7c0-1.2,0.3-2.4,0.7-3.5c0.5-1.2,1.2-2.3,2.1-3.2c0.9-1,1.9-1.8,3.1-2.4s2.6-0.9,4-0.9
		c1.3-0.1,2.5,0.3,3.6,1c0.9,0.7,1.5,1.6,1.8,2.7l-2.4,1.4c-0.1-0.5-0.3-0.9-0.5-1.3c-0.2-0.3-0.5-0.6-0.9-0.8
		c-0.3-0.2-0.7-0.4-1.1-0.4c-0.4-0.1-0.8-0.1-1.1-0.1c-0.9,0-1.9,0.2-2.7,0.7c-0.8,0.5-1.5,1.1-2,1.8c-0.6,0.7-1,1.5-1.3,2.4
		c-0.3,0.8-0.5,1.7-0.5,2.6c0,0.6,0.1,1.3,0.3,1.9c0.2,0.6,0.4,1.1,0.8,1.6c0.3,0.4,0.8,0.8,1.2,1.1c0.5,0.3,1.1,0.4,1.7,0.4
		c0.4,0,0.8-0.1,1.2-0.2c0.5-0.1,0.9-0.3,1.3-0.5s0.8-0.5,1.2-0.9c0.4-0.4,0.8-0.8,1.1-1.3l2,1.3c-0.4,0.6-0.9,1.2-1.4,1.7
		c-0.6,0.5-1.2,0.9-1.9,1.2c-0.7,0.3-1.4,0.6-2.1,0.8C403,38.6,402.3,38.7,401.7,38.7z"/>
	<path class="st8" d="M417.3,38.6c-0.9,0-1.8-0.2-2.6-0.6c-0.7-0.4-1.4-0.9-1.9-1.6c-0.5-0.7-0.9-1.4-1.2-2.2
		c-0.3-0.9-0.4-1.8-0.4-2.7c0-1.3,0.3-2.6,0.8-3.8c0.5-1.2,1.3-2.3,2.2-3.3c0.9-0.9,2-1.7,3.1-2.3c1.2-0.6,2.4-0.9,3.7-0.9
		c0.9,0,1.8,0.2,2.6,0.6c0.7,0.4,1.4,0.9,1.9,1.6s0.9,1.4,1.2,2.3c0.3,0.9,0.4,1.8,0.4,2.6c0,1.3-0.3,2.6-0.8,3.8
		c-0.5,1.2-1.3,2.3-2.2,3.3c-0.9,1-2,1.7-3.2,2.3C419.9,38.3,418.6,38.6,417.3,38.6z M417.8,36.2c0.9,0,1.8-0.2,2.6-0.7
		c0.8-0.5,1.5-1.1,2.1-1.8s1-1.6,1.4-2.4c0.3-0.9,0.5-1.8,0.5-2.7c0-0.6-0.1-1.2-0.3-1.9c-0.2-0.6-0.4-1.1-0.7-1.5
		c-0.3-0.4-0.7-0.8-1.2-1.1c-0.5-0.3-1.1-0.4-1.7-0.4c-0.9,0-1.8,0.2-2.6,0.7c-0.8,0.5-1.5,1.1-2.1,1.8c-0.6,0.7-1.1,1.6-1.4,2.4
		c-0.3,0.9-0.5,1.8-0.5,2.7c0,0.6,0.1,1.3,0.3,1.9c0.2,0.6,0.4,1.1,0.7,1.5c0.3,0.4,0.7,0.8,1.2,1.1
		C416.7,36.1,417.2,36.2,417.8,36.2L417.8,36.2z"/>
	<path class="st8" d="M434.7,38.6c-0.9,0-1.8-0.1-2.6-0.4c-0.7-0.3-1.2-0.7-1.7-1.2c-0.4-0.5-0.8-1.1-1-1.8s-0.3-1.5-0.3-2.2
		c0-0.9,0.1-1.9,0.3-2.8l1.8-8.6h2.7l-1.9,8.6c-0.2,0.8-0.3,1.5-0.3,2.3c0,0.5,0.1,1,0.2,1.5c0.1,0.4,0.3,0.8,0.5,1.2
		c0.3,0.3,0.6,0.6,1,0.8c0.5,0.2,1,0.3,1.5,0.3c0.8,0,1.5-0.2,2.2-0.5c0.6-0.4,1.2-0.8,1.7-1.4c0.5-0.6,0.8-1.2,1.1-1.9
		c0.3-0.7,0.5-1.5,0.7-2.2l1.8-8.6h2.7l-1.9,8.6c-0.2,1.1-0.6,2.2-1.1,3.3c-0.5,1-1.1,1.9-1.8,2.7C439.1,37.8,436.9,38.7,434.7,38.6
		L434.7,38.6z"/>
	<path class="st8" d="M448.9,21.5h2.1l6.5,12.3l2.6-12.3h2.7l-3.6,17H457l-6.4-12l-2.5,12h-2.7L448.9,21.5z"/>
	<path class="st8" d="M469.8,23.9h-5.3l0.5-2.4h13.4l-0.5,2.4h-5.3l-3.1,14.7h-2.7L469.8,23.9z"/>
	<path class="st9" d="M186.4,69.2h0.8l4.1,9.9h-1l-1.4-3.1h-4.5l-1.3,3.1h-1L186.4,69.2z M188.8,75.3l-2-4.9l-2,4.9H188.8z"/>
	<path class="st9" d="M191.9,75.5c0-0.5,0.1-1,0.3-1.5c0.2-0.4,0.4-0.9,0.8-1.2c0.3-0.3,0.7-0.6,1.1-0.8c0.5-0.2,1-0.3,1.5-0.3
		c0.6,0,1.3,0.1,1.8,0.5c0.5,0.3,0.9,0.7,1.2,1.3l-0.9,0.3c-0.2-0.4-0.5-0.7-0.9-0.9c-0.4-0.2-0.8-0.3-1.2-0.3c-0.3,0-0.7,0.1-1,0.2
		s-0.6,0.4-0.8,0.6c-0.2,0.3-0.4,0.6-0.6,0.9c-0.3,0.7-0.3,1.6,0,2.3c0.1,0.3,0.3,0.7,0.6,0.9c0.2,0.3,0.5,0.5,0.9,0.6
		c0.3,0.1,0.7,0.2,1,0.2c0.2,0,0.5,0,0.7-0.1s0.4-0.2,0.6-0.3c0.2-0.1,0.4-0.2,0.5-0.4c0.1-0.1,0.2-0.3,0.3-0.5l0.9,0.3
		c-0.1,0.3-0.3,0.5-0.4,0.7c-0.2,0.2-0.4,0.4-0.7,0.6s-0.6,0.3-0.9,0.4c-0.3,0.1-0.7,0.1-1,0.1c-1,0-2-0.4-2.6-1.1
		c-0.3-0.4-0.6-0.8-0.8-1.2C192,76.5,191.9,76,191.9,75.5z"/>
	<path class="st9" d="M203.6,78.8l-0.2,0.1L203,79l-0.5,0.1c-0.2,0-0.4,0.1-0.6,0.1c-0.2,0-0.4,0-0.6-0.1c-0.2-0.1-0.3-0.1-0.5-0.3
		c-0.1-0.1-0.3-0.3-0.3-0.4c-0.1-0.2-0.1-0.4-0.1-0.6v-5.2h-1v-0.8h1v-2.5h1v2.5h1.6v0.8h-1.7v5c0,0.2,0.1,0.4,0.3,0.6
		c0.2,0.1,0.4,0.2,0.6,0.2c0.2,0,0.5,0,0.7-0.1c0.1-0.1,0.3-0.1,0.4-0.2L203.6,78.8z"/>
	<path class="st9" d="M204.8,70.4V69h1v1.4H204.8z M204.8,79.2v-7.3h1v7.3H204.8z"/>
	<path class="st9" d="M210,79.2l-3-7.3h1l2.5,6.4l2.5-6.4h1l-3,7.3H210z"/>
	<path class="st9" d="M217,79.3c-0.3,0-0.7,0-1-0.2c-0.3-0.1-0.5-0.3-0.8-0.5c-0.4-0.4-0.7-1-0.7-1.6c0-0.3,0.1-0.6,0.2-0.9
		c0.2-0.3,0.4-0.5,0.6-0.7c0.3-0.2,0.6-0.4,1-0.5s0.8-0.2,1.2-0.2s0.8,0,1.1,0.1s0.7,0.2,1,0.3v-0.7c0-0.6-0.2-1.1-0.6-1.5
		c-0.4-0.4-0.9-0.6-1.5-0.6c-0.4,0-0.8,0.1-1.1,0.2c-0.4,0.2-0.8,0.4-1.2,0.6l-0.3-0.6c0.8-0.6,1.7-1,2.7-1c0.8,0,1.6,0.2,2.2,0.8
		c0.5,0.6,0.8,1.3,0.8,2.1V78c0,0.3,0.1,0.4,0.4,0.4v0.8h-0.4c-0.2,0-0.4-0.1-0.6-0.2c-0.1-0.1-0.2-0.3-0.2-0.5V78
		c-0.3,0.4-0.8,0.8-1.3,1C218.1,79.2,217.6,79.3,217,79.3z M217.2,78.6c0.5,0,0.9-0.1,1.4-0.3c0.4-0.2,0.7-0.4,0.9-0.7
		c0.1-0.1,0.1-0.2,0.2-0.3c0-0.1,0.1-0.2,0.1-0.3v-1.2c-0.3-0.1-0.7-0.2-1-0.3c-0.3-0.1-0.7-0.1-1-0.1c-0.6,0-1.1,0.1-1.6,0.4
		c-0.4,0.2-0.6,0.7-0.6,1.1c0,0.2,0,0.4,0.1,0.6s0.2,0.4,0.4,0.5s0.3,0.3,0.6,0.3C216.8,78.6,217,78.6,217.2,78.6L217.2,78.6z"/>
	<path class="st9" d="M226.2,78.8l-0.2,0.1l-0.4,0.1l-0.5,0.1c-0.2,0-0.4,0.1-0.6,0.1c-0.2,0-0.4,0-0.6-0.1
		c-0.2-0.1-0.3-0.1-0.5-0.3c-0.1-0.1-0.3-0.3-0.3-0.4c-0.1-0.2-0.1-0.4-0.1-0.6v-5.2h-1v-0.8h1v-2.5h1v2.5h1.7v0.8H224v5
		c0,0.2,0.1,0.4,0.3,0.6c0.2,0.1,0.4,0.2,0.6,0.2c0.2,0,0.5,0,0.7-0.1c0.1-0.1,0.3-0.1,0.4-0.2L226.2,78.8z"/>
	<path class="st9" d="M230.4,79.3c-0.5,0-1-0.1-1.5-0.3c-0.4-0.2-0.8-0.5-1.1-0.8c-0.3-0.4-0.6-0.8-0.7-1.2c-0.2-0.5-0.3-1-0.3-1.5
		s0.1-1,0.3-1.4s0.4-0.8,0.8-1.2c0.3-0.3,0.7-0.6,1.1-0.8c0.9-0.4,2-0.4,2.9,0c0.4,0.2,0.8,0.5,1.1,0.8c0.7,0.7,1,1.7,1,2.6v0.2
		c0,0,0,0.1,0,0.2h-6.2c0,0.4,0.1,0.8,0.3,1.1c0.1,0.3,0.4,0.6,0.6,0.9c0.2,0.2,0.5,0.4,0.8,0.6c0.3,0.1,0.7,0.2,1,0.2
		c0.2,0,0.5,0,0.7-0.1s0.4-0.2,0.6-0.3c0.2-0.1,0.4-0.2,0.5-0.4c0.2-0.2,0.3-0.3,0.4-0.5l0.8,0.2c-0.1,0.3-0.3,0.5-0.5,0.7
		s-0.4,0.4-0.7,0.6s-0.6,0.3-0.9,0.4C231.1,79.3,230.7,79.3,230.4,79.3z M233,75.2c0-0.4-0.1-0.7-0.3-1.1c-0.1-0.3-0.3-0.6-0.6-0.8
		c-0.5-0.5-1.1-0.7-1.8-0.7c-0.3,0-0.7,0.1-1,0.2s-0.6,0.3-0.8,0.6c-0.2,0.2-0.4,0.5-0.6,0.8c-0.1,0.3-0.2,0.7-0.3,1.1L233,75.2z"/>
	<path class="st9" d="M239,81.4h0.2h0.2c0.1,0,0.3,0,0.4-0.1c0.1-0.1,0.2-0.2,0.3-0.3c0.1-0.2,0.2-0.5,0.3-0.7
		c0.1-0.3,0.3-0.7,0.5-1.2l-3.2-7.3h1l2.7,6.4l2.5-6.4h0.9l-3.8,9.4c-0.1,0.3-0.3,0.5-0.5,0.7c-0.3,0.2-0.6,0.3-1,0.3h-0.3H239V81.4
		z"/>
	<path class="st9" d="M249,79.3c-0.5,0-1-0.1-1.5-0.3c-0.4-0.2-0.8-0.5-1.1-0.8s-0.6-0.8-0.8-1.2c-0.2-0.5-0.3-0.9-0.3-1.4
		s0.1-1,0.3-1.5c0.2-0.4,0.4-0.9,0.8-1.2c0.3-0.3,0.7-0.6,1.1-0.8c0.5-0.2,0.9-0.3,1.4-0.3s1,0.1,1.4,0.3c0.4,0.2,0.8,0.5,1.1,0.8
		s0.6,0.8,0.8,1.2c0.2,0.5,0.3,1,0.3,1.5s-0.1,1-0.2,1.4c-0.2,0.4-0.4,0.9-0.8,1.2c-0.3,0.3-0.7,0.6-1.1,0.8
		C250,79.2,249.5,79.3,249,79.3z M246.4,75.6c0,0.4,0.1,0.8,0.2,1.1c0.1,0.3,0.3,0.6,0.6,0.9c0.2,0.3,0.5,0.5,0.8,0.6s0.7,0.2,1,0.2
		s0.7-0.1,1-0.2c0.3-0.2,0.6-0.4,0.9-0.6c0.2-0.3,0.4-0.6,0.6-0.9c0.3-0.7,0.3-1.6,0-2.3c-0.1-0.3-0.3-0.7-0.6-0.9
		c-0.2-0.3-0.5-0.5-0.9-0.6c-0.3-0.1-0.7-0.2-1-0.2s-0.7,0.1-1,0.2c-0.3,0.2-0.6,0.4-0.8,0.6c-0.2,0.3-0.4,0.6-0.6,0.9
		C246.4,74.8,246.4,75.2,246.4,75.6L246.4,75.6z"/>
	<path class="st9" d="M256.5,79.3c-0.7,0-1.3-0.2-1.8-0.8c-0.4-0.7-0.6-1.5-0.6-2.4v-4.3h1V76c0,1.7,0.6,2.5,1.7,2.5
		c0.3,0,0.6,0,0.8-0.1c0.3-0.1,0.5-0.2,0.8-0.4c0.2-0.2,0.4-0.4,0.6-0.6c0.2-0.3,0.3-0.5,0.4-0.8V72h1v6c0,0.3,0.1,0.4,0.3,0.4v0.8
		h-0.3h-0.1c-0.2,0-0.4-0.1-0.5-0.2c-0.1-0.2-0.2-0.4-0.2-0.6v-0.8c-0.3,0.6-0.7,1-1.3,1.3C257.8,79.2,257.2,79.4,256.5,79.3z"/>
	<path class="st9" d="M266.2,72.7c-0.6,0-1.2,0.2-1.7,0.5s-0.8,0.8-1,1.4v4.5h-1v-7.3h0.9v1.8c0.2-0.5,0.6-1,1.1-1.3
		c0.4-0.3,0.9-0.5,1.5-0.5h0.2V72.7z"/>
	<path class="st9" d="M272.6,79.3c-0.3,0-0.7,0-1-0.2c-0.3-0.1-0.5-0.3-0.8-0.5c-0.4-0.4-0.7-1-0.7-1.6c0-0.3,0.1-0.6,0.2-0.9
		c0.2-0.3,0.4-0.5,0.6-0.7c0.3-0.2,0.6-0.4,1-0.5s0.8-0.2,1.2-0.2c0.4,0,0.8,0,1.1,0.1c0.3,0.1,0.7,0.2,1,0.3v-0.7
		c0-0.6-0.2-1.1-0.5-1.5c-0.4-0.4-0.9-0.6-1.5-0.6c-0.4,0-0.8,0.1-1.1,0.2c-0.4,0.2-0.8,0.4-1.2,0.6l-0.3-0.6c0.8-0.6,1.7-1,2.7-1
		c0.8,0,1.6,0.2,2.2,0.8c0.5,0.6,0.8,1.3,0.8,2.1V78c0,0.3,0.1,0.4,0.4,0.4v0.8c-0.1,0-0.2,0-0.4,0c-0.2,0-0.4-0.1-0.6-0.2
		c-0.1-0.1-0.2-0.3-0.2-0.5V78c-0.3,0.4-0.8,0.8-1.3,1C273.7,79.2,273.1,79.3,272.6,79.3z M272.8,78.6c0.5,0,0.9-0.1,1.4-0.3
		c0.4-0.2,0.7-0.4,0.9-0.7c0.1-0.1,0.1-0.2,0.2-0.3c0-0.1,0.1-0.2,0.1-0.3v-1.2c-0.3-0.1-0.7-0.2-1-0.3c-0.3-0.1-0.7-0.1-1-0.1
		c-0.6,0-1.1,0.1-1.6,0.4c-0.4,0.2-0.7,0.6-0.7,1.1c0,0.2,0,0.4,0.1,0.6s0.2,0.4,0.4,0.5c0.2,0.1,0.3,0.3,0.5,0.3
		C272.3,78.6,272.5,78.6,272.8,78.6z"/>
	<path class="st9" d="M277.9,75.5c0-0.5,0.1-1,0.3-1.5c0.2-0.4,0.4-0.9,0.8-1.2c0.3-0.3,0.7-0.6,1.2-0.8c0.5-0.2,1-0.3,1.5-0.3
		c0.6,0,1.3,0.1,1.8,0.5c0.5,0.3,0.9,0.7,1.2,1.3l-0.9,0.3c-0.2-0.4-0.5-0.7-0.9-0.9c-0.4-0.2-0.8-0.3-1.2-0.3c-0.3,0-0.7,0.1-1,0.2
		s-0.6,0.4-0.8,0.6c-0.2,0.3-0.4,0.6-0.6,0.9c-0.1,0.4-0.2,0.8-0.2,1.2c0,0.4,0.1,0.8,0.2,1.2c0.1,0.3,0.3,0.7,0.6,0.9
		c0.2,0.3,0.5,0.5,0.9,0.6c0.3,0.1,0.7,0.2,1,0.2c0.2,0,0.5,0,0.7-0.1s0.4-0.2,0.6-0.3c0.2-0.1,0.4-0.2,0.5-0.4
		c0.1-0.1,0.2-0.3,0.3-0.5l0.9,0.3c-0.1,0.3-0.3,0.5-0.5,0.7s-0.4,0.4-0.7,0.6c-0.3,0.2-0.6,0.3-0.9,0.4s-0.7,0.1-1,0.1
		c-1,0-2-0.4-2.6-1.1c-0.3-0.4-0.6-0.8-0.8-1.2C278,76.5,277.9,76,277.9,75.5z"/>
	<path class="st9" d="M285.5,75.5c0-0.5,0.1-1,0.3-1.5c0.2-0.4,0.4-0.9,0.8-1.2c0.3-0.3,0.7-0.6,1.1-0.8c0.5-0.2,1-0.3,1.5-0.3
		c0.6,0,1.3,0.1,1.8,0.5c0.5,0.3,0.9,0.7,1.2,1.3l-0.9,0.3c-0.2-0.4-0.5-0.7-0.9-0.9c-0.4-0.2-0.8-0.3-1.2-0.3c-0.3,0-0.7,0.1-1,0.2
		s-0.6,0.4-0.8,0.6c-0.2,0.3-0.4,0.6-0.6,0.9c-0.3,0.7-0.3,1.6,0,2.3c0.1,0.3,0.3,0.7,0.6,0.9c0.2,0.3,0.5,0.5,0.9,0.6
		c0.3,0.1,0.7,0.2,1,0.2c0.2,0,0.5,0,0.7-0.1s0.4-0.2,0.6-0.3c0.2-0.1,0.4-0.2,0.5-0.4c0.1-0.1,0.2-0.3,0.3-0.5l0.9,0.3
		c-0.1,0.3-0.3,0.5-0.5,0.7s-0.4,0.4-0.7,0.6c-0.3,0.2-0.6,0.3-0.9,0.4s-0.7,0.1-1,0.1c-1,0-2-0.4-2.6-1.1c-0.3-0.4-0.6-0.8-0.8-1.2
		C285.6,76.5,285.5,76,285.5,75.5z"/>
	<path class="st9" d="M296.7,79.3c-0.5,0-1-0.1-1.5-0.3c-0.4-0.2-0.8-0.5-1.1-0.8c-0.3-0.3-0.6-0.8-0.8-1.2
		c-0.2-0.5-0.3-0.9-0.3-1.4s0.1-1,0.3-1.5c0.2-0.4,0.4-0.9,0.8-1.2c0.3-0.3,0.7-0.6,1.1-0.8c0.5-0.2,0.9-0.3,1.4-0.3s1,0.1,1.5,0.3
		c0.4,0.2,0.8,0.5,1.1,0.8c0.3,0.3,0.6,0.8,0.8,1.2c0.2,0.5,0.3,1,0.3,1.5s-0.1,1-0.3,1.4c-0.2,0.4-0.4,0.9-0.8,1.2
		c-0.3,0.3-0.7,0.6-1.1,0.8C297.7,79.2,297.2,79.3,296.7,79.3z M294,75.6c0,0.4,0.1,0.8,0.2,1.1c0.1,0.3,0.3,0.6,0.6,0.9
		c0.2,0.3,0.5,0.5,0.8,0.6s0.7,0.2,1,0.2s0.7-0.1,1-0.2c0.3-0.2,0.6-0.4,0.9-0.6c0.2-0.3,0.4-0.6,0.6-0.9c0.3-0.7,0.3-1.6,0-2.3
		c-0.1-0.3-0.3-0.7-0.6-0.9c-0.2-0.3-0.5-0.5-0.9-0.6c-0.3-0.1-0.7-0.2-1-0.2s-0.7,0.1-1,0.2c-0.3,0.2-0.6,0.4-0.8,0.6
		c-0.2,0.3-0.4,0.6-0.6,0.9C294.1,74.8,294,75.2,294,75.6z"/>
	<path class="st9" d="M304.2,79.3c-0.7,0-1.3-0.2-1.8-0.8c-0.4-0.7-0.6-1.5-0.6-2.4v-4.3h1V76c0,1.7,0.6,2.5,1.7,2.5
		c0.3,0,0.6,0,0.8-0.1c0.3-0.1,0.5-0.2,0.8-0.4c0.2-0.2,0.4-0.4,0.6-0.6c0.2-0.3,0.3-0.5,0.4-0.8V72h1v6c0,0.3,0.1,0.4,0.3,0.4v0.8
		h-0.3H308c-0.2,0-0.4-0.1-0.5-0.2c-0.1-0.2-0.2-0.4-0.2-0.6v-0.8c-0.3,0.6-0.7,1-1.3,1.3C305.4,79.2,304.8,79.3,304.2,79.3z"/>
	<path class="st9" d="M316.4,79.2h-1v-4.1c0.1-0.7-0.1-1.3-0.4-1.9c-0.3-0.4-0.7-0.6-1.2-0.6c-0.3,0-0.6,0.1-0.8,0.2
		c-0.3,0.1-0.5,0.2-0.8,0.4c-0.2,0.2-0.5,0.4-0.6,0.7c-0.2,0.3-0.3,0.5-0.4,0.8v4.5h-1v-7.3h0.9v1.7c0.3-0.5,0.7-1,1.3-1.3
		c0.5-0.3,1.2-0.5,1.8-0.5c0.3,0,0.7,0.1,1,0.2s0.5,0.4,0.7,0.6c0.2,0.3,0.3,0.6,0.4,1s0.1,0.9,0.1,1.3V79.2z"/>
	<path class="st9" d="M321.8,78.8l-0.2,0.1l-0.4,0.1l-0.5,0.1c-0.2,0-0.4,0.1-0.6,0.1s-0.4,0-0.6-0.1s-0.3-0.1-0.5-0.3
		c-0.1-0.1-0.3-0.3-0.3-0.4c-0.1-0.2-0.1-0.4-0.1-0.6v-5.2h-1v-0.8h1v-2.5h1v2.5h1.7v0.8h-1.7v5c0,0.2,0.1,0.4,0.3,0.6
		c0.2,0.1,0.4,0.2,0.6,0.2s0.5,0,0.7-0.1c0.1-0.1,0.3-0.1,0.4-0.2L321.8,78.8z"/>
	<path class="st9" d="M330.1,79.3c-0.6,0-1.1-0.1-1.6-0.4s-0.9-0.7-1.1-1.1v1.4h-0.9V69h1v4.4c0.3-0.5,0.7-0.9,1.2-1.2
		c0.5-0.3,1-0.5,1.6-0.5c0.5,0,1,0.1,1.4,0.3c0.4,0.2,0.7,0.5,1,0.9s0.5,0.8,0.7,1.2c0.2,0.4,0.2,0.9,0.2,1.4s-0.1,1-0.3,1.5
		c-0.2,0.4-0.4,0.8-0.7,1.2c-0.3,0.3-0.7,0.6-1.1,0.8C331.1,79.2,330.6,79.3,330.1,79.3z M329.9,78.5c0.4,0,0.8-0.1,1.1-0.3
		c0.3-0.2,0.6-0.4,0.9-0.7c0.2-0.3,0.4-0.6,0.6-0.9c0.1-0.3,0.2-0.7,0.2-1.1s-0.1-0.8-0.2-1.1c-0.1-0.3-0.3-0.7-0.5-0.9
		c-0.2-0.3-0.5-0.5-0.8-0.7s-0.7-0.3-1.1-0.3c-0.3,0-0.6,0-0.8,0.2c-0.3,0.1-0.5,0.2-0.7,0.4c-0.2,0.2-0.4,0.4-0.6,0.6
		s-0.3,0.4-0.4,0.7v2.3c0,0.3,0.1,0.5,0.3,0.7c0.2,0.2,0.4,0.4,0.6,0.6s0.5,0.3,0.7,0.4C329.4,78.4,329.7,78.5,329.9,78.5z"/>
	<path class="st9" d="M335.4,81.4h0.2h0.2c0.1,0,0.3,0,0.4-0.1s0.2-0.2,0.3-0.3c0.1-0.2,0.2-0.5,0.3-0.7c0.1-0.3,0.3-0.7,0.5-1.2
		l-3.2-7.3h1l2.7,6.4l2.5-6.4h0.9l-3.8,9.4c-0.1,0.3-0.3,0.5-0.5,0.7c-0.3,0.2-0.6,0.3-1,0.3h-0.3h-0.3L335.4,81.4z"/>
	<path class="st9" d="M347.6,79.3c-0.3,0-0.7,0-1-0.2c-0.3-0.1-0.5-0.3-0.8-0.5c-0.4-0.4-0.7-1-0.7-1.6c0-0.3,0.1-0.6,0.2-0.9
		c0.2-0.3,0.4-0.5,0.6-0.7c0.3-0.2,0.6-0.4,1-0.5s0.8-0.2,1.2-0.2c0.4,0,0.8,0,1.1,0.1c0.3,0.1,0.7,0.2,1,0.3v-0.7
		c0-0.6-0.2-1.1-0.5-1.5c-0.4-0.4-0.9-0.6-1.5-0.6c-0.4,0-0.8,0.1-1.1,0.2c-0.4,0.2-0.8,0.4-1.2,0.6l-0.3-0.6c0.8-0.6,1.7-1,2.7-1
		c0.8,0,1.6,0.2,2.2,0.8c0.5,0.6,0.8,1.3,0.8,2.1V78c0,0.3,0.1,0.4,0.4,0.4v0.8c-0.1,0-0.2,0-0.4,0c-0.2,0-0.4-0.1-0.6-0.2
		c-0.1-0.1-0.2-0.3-0.2-0.5V78c-0.3,0.4-0.8,0.8-1.3,1C348.7,79.2,348.1,79.3,347.6,79.3z M347.8,78.6c0.5,0,0.9-0.1,1.4-0.3
		c0.4-0.2,0.7-0.4,0.9-0.7c0.1-0.1,0.1-0.2,0.2-0.3c0-0.1,0.1-0.2,0.1-0.3v-1.2c-0.3-0.1-0.7-0.2-1-0.3c-0.3-0.1-0.7-0.1-1-0.1
		c-0.6,0-1.1,0.1-1.6,0.4c-0.4,0.2-0.6,0.7-0.6,1.1c0,0.2,0,0.4,0.1,0.6s0.2,0.4,0.4,0.5c0.2,0.1,0.3,0.3,0.5,0.3
		C347.3,78.6,347.6,78.6,347.8,78.6L347.8,78.6z"/>
	<path class="st9" d="M356.4,79.3c-0.5,0-1-0.1-1.4-0.3c-0.4-0.2-0.8-0.5-1.1-0.8c-0.3-0.4-0.6-0.8-0.7-1.2
		c-0.2-0.5-0.3-0.9-0.3-1.4s0.1-1,0.3-1.5c0.2-0.4,0.4-0.9,0.7-1.2c0.3-0.3,0.6-0.6,1-0.8c0.4-0.2,0.9-0.3,1.3-0.3
		c0.6,0,1.2,0.2,1.6,0.5c0.5,0.3,0.9,0.7,1.2,1.2V69h1v9c0,0.3,0.1,0.4,0.3,0.4v0.8c-0.1,0-0.2,0-0.3,0c-0.2,0-0.4-0.1-0.6-0.2
		s-0.3-0.3-0.3-0.5v-0.7c-0.3,0.5-0.7,0.9-1.2,1.1C357.5,79.2,356.9,79.3,356.4,79.3z M356.6,78.5c0.3,0,0.5-0.1,0.8-0.1
		c0.3-0.1,0.5-0.2,0.8-0.4c0.2-0.2,0.4-0.3,0.6-0.6c0.2-0.2,0.3-0.5,0.3-0.7v-2.3c-0.1-0.3-0.2-0.5-0.4-0.7
		c-0.2-0.2-0.4-0.4-0.6-0.6s-0.5-0.3-0.7-0.4s-0.5-0.1-0.8-0.1c-0.4,0-0.7,0.1-1.1,0.3c-0.3,0.2-0.6,0.4-0.8,0.7
		c-0.2,0.3-0.4,0.6-0.5,0.9c-0.1,0.4-0.2,0.7-0.2,1.1c0,0.8,0.3,1.5,0.8,2.1c0.2,0.3,0.5,0.5,0.9,0.6
		C355.9,78.4,356.2,78.5,356.6,78.5z"/>
	<path class="st9" d="M365.1,79.3c-0.5,0-1-0.1-1.4-0.3c-0.4-0.2-0.8-0.5-1.1-0.8c-0.3-0.4-0.6-0.8-0.7-1.2
		c-0.2-0.5-0.3-0.9-0.3-1.4s0.1-1,0.3-1.5c0.2-0.4,0.4-0.9,0.7-1.2c0.3-0.3,0.6-0.6,1-0.8c0.4-0.2,0.9-0.3,1.3-0.3
		c0.6,0,1.2,0.2,1.6,0.5c0.5,0.3,0.8,0.7,1.1,1.2V69h1v9c0,0.3,0.1,0.4,0.3,0.4v0.8c-0.1,0-0.2,0-0.3,0c-0.2,0-0.4-0.1-0.6-0.2
		s-0.3-0.3-0.3-0.5v-0.7c-0.3,0.5-0.7,0.9-1.2,1.1C366.2,79.2,365.6,79.3,365.1,79.3z M365.3,78.5c0.3,0,0.5-0.1,0.8-0.1
		c0.3-0.1,0.5-0.2,0.8-0.4c0.2-0.2,0.4-0.3,0.6-0.6c0.2-0.2,0.3-0.5,0.3-0.7v-2.3c-0.1-0.3-0.2-0.5-0.4-0.7
		c-0.2-0.2-0.4-0.4-0.6-0.6s-0.5-0.3-0.7-0.4s-0.5-0.1-0.8-0.1c-0.4,0-0.7,0.1-1.1,0.3c-0.3,0.2-0.6,0.4-0.8,0.7
		c-0.2,0.3-0.4,0.6-0.5,0.9c-0.1,0.4-0.2,0.7-0.2,1.1s0.1,0.8,0.2,1.1c0.1,0.3,0.3,0.7,0.6,0.9c0.2,0.3,0.5,0.5,0.9,0.6
		C364.5,78.4,364.9,78.5,365.3,78.5L365.3,78.5z"/>
	<path class="st9" d="M370.8,70.4V69h1v1.4H370.8z M370.8,79.2v-7.3h1v7.3H370.8z"/>
	<path class="st9" d="M380,79.2h-1v-4.1c0.1-0.7-0.1-1.3-0.4-1.9c-0.3-0.4-0.7-0.6-1.2-0.6c-0.3,0-0.6,0.1-0.8,0.2
		c-0.3,0.1-0.5,0.2-0.8,0.4c-0.2,0.2-0.5,0.4-0.6,0.7c-0.2,0.3-0.3,0.5-0.4,0.8v4.5h-1v-7.3h0.9v1.7c0.3-0.5,0.8-1,1.4-1.3
		c0.5-0.3,1.2-0.5,1.8-0.5c0.3,0,0.7,0.1,1,0.2s0.5,0.4,0.7,0.6c0.2,0.3,0.3,0.6,0.4,1s0.1,0.9,0.1,1.3L380,79.2z"/>
	<path class="st9" d="M384.9,79.3c-0.5,0-1-0.1-1.4-0.3c-0.4-0.2-0.8-0.5-1.1-0.8c-0.3-0.4-0.5-0.8-0.7-1.2
		c-0.2-0.4-0.3-0.9-0.3-1.4s0.1-1,0.3-1.4c0.2-0.4,0.4-0.9,0.7-1.2c0.3-0.3,0.7-0.6,1.1-0.8c0.4-0.2,0.9-0.3,1.4-0.3
		c0.6,0,1.1,0.2,1.6,0.5s0.9,0.7,1.2,1.2v-1.5h0.9v7.3c0,0.5-0.1,0.9-0.3,1.3c-0.2,0.4-0.4,0.7-0.8,1c-0.3,0.3-0.7,0.5-1.1,0.6
		s-0.9,0.2-1.4,0.2c-0.7,0-1.4-0.1-2-0.4c-0.5-0.3-0.9-0.7-1.3-1.2l0.6-0.5c0.3,0.4,0.7,0.8,1.1,1c0.5,0.2,1,0.3,1.5,0.3
		c0.3,0,0.7-0.1,1-0.2s0.6-0.2,0.8-0.4c0.2-0.2,0.4-0.4,0.6-0.7c0.1-0.3,0.2-0.7,0.2-1v-1.5c-0.3,0.5-0.7,0.9-1.1,1.1
		C386,79.2,385.5,79.3,384.9,79.3z M385.2,78.5c0.3,0,0.6,0,0.8-0.2c0.3-0.1,0.5-0.2,0.7-0.4c0.2-0.2,0.4-0.4,0.5-0.6
		s0.2-0.4,0.3-0.7v-2.3c-0.1-0.3-0.2-0.5-0.4-0.7c-0.2-0.2-0.4-0.4-0.6-0.6s-0.5-0.3-0.7-0.4s-0.5-0.1-0.8-0.1
		c-0.4,0-0.8,0.1-1.1,0.3c-0.3,0.2-0.6,0.4-0.8,0.7c-0.2,0.3-0.4,0.6-0.5,1c-0.1,0.3-0.2,0.7-0.2,1.1s0.1,0.8,0.2,1.1
		c0.1,0.3,0.3,0.7,0.6,0.9c0.2,0.3,0.5,0.5,0.9,0.6C384.5,78.4,384.8,78.5,385.2,78.5L385.2,78.5z"/>
	<path class="st9" d="M396.1,79.3c-0.3,0-0.7,0-1-0.2c-0.3-0.1-0.5-0.3-0.8-0.5c-0.2-0.2-0.4-0.4-0.5-0.7c-0.1-0.3-0.2-0.6-0.2-0.9
		s0.1-0.6,0.2-0.9c0.2-0.3,0.4-0.5,0.6-0.7c0.3-0.2,0.6-0.4,1-0.5s0.8-0.2,1.2-0.2c0.4,0,0.8,0,1.1,0.1c0.3,0.1,0.7,0.2,1,0.3v-0.7
		c0-0.6-0.2-1.1-0.5-1.5c-0.4-0.4-0.9-0.6-1.5-0.6c-0.4,0-0.8,0.1-1.1,0.2c-0.4,0.2-0.8,0.4-1.2,0.6l-0.3-0.6c0.8-0.6,1.7-1,2.7-1
		c0.8,0,1.6,0.2,2.2,0.8c0.5,0.6,0.8,1.3,0.8,2.1V78c0,0.3,0.1,0.4,0.4,0.4v0.8h-0.4c-0.2,0-0.4-0.1-0.6-0.2
		c-0.1-0.1-0.2-0.3-0.2-0.5V78c-0.3,0.4-0.8,0.8-1.3,1C397.2,79.2,396.6,79.3,396.1,79.3z M396.3,78.6c0.5,0,0.9-0.1,1.4-0.3
		c0.4-0.2,0.7-0.4,1-0.7c0.1-0.1,0.1-0.2,0.2-0.3c0-0.1,0.1-0.2,0.1-0.3v-1.2c-0.3-0.1-0.7-0.2-1-0.3c-0.3-0.1-0.7-0.1-1-0.1
		c-0.6,0-1.1,0.1-1.6,0.4c-0.4,0.2-0.6,0.7-0.6,1.1c0,0.2,0,0.4,0.1,0.6s0.2,0.4,0.4,0.5c0.2,0.1,0.3,0.3,0.5,0.3
		C395.8,78.6,396.1,78.6,396.3,78.6z"/>
	<path class="st9" d="M407.2,79.2l-3-7.3h1l2.5,6.4l2.5-6.4h0.9l-3,7.3H407.2z"/>
	<path class="st9" d="M414.2,79.3c-0.3,0-0.7,0-1-0.2c-0.3-0.1-0.5-0.3-0.8-0.5c-0.4-0.4-0.7-1-0.7-1.6c0-0.3,0.1-0.6,0.2-0.9
		c0.2-0.3,0.4-0.5,0.6-0.7c0.3-0.2,0.6-0.4,1-0.5s0.8-0.2,1.2-0.2c0.4,0,0.8,0,1.1,0.1c0.3,0.1,0.7,0.2,1,0.3v-0.7
		c0-0.6-0.2-1.1-0.5-1.5c-0.4-0.4-0.9-0.6-1.5-0.6c-0.4,0-0.8,0.1-1.1,0.2c-0.4,0.2-0.8,0.4-1.2,0.6l-0.3-0.6c0.8-0.6,1.7-1,2.7-1
		c0.8,0,1.6,0.2,2.2,0.8c0.5,0.6,0.8,1.3,0.8,2.1V78c0,0.3,0.1,0.4,0.4,0.4v0.8h-0.4c-0.2,0-0.4-0.1-0.6-0.2
		c-0.1-0.1-0.2-0.3-0.2-0.5V78c-0.3,0.4-0.8,0.8-1.3,1C415.3,79.2,414.7,79.3,414.2,79.3z M414.4,78.6c0.5,0,0.9-0.1,1.4-0.3
		c0.4-0.2,0.7-0.4,0.9-0.7c0.1-0.1,0.1-0.2,0.2-0.3c0.1-0.1,0.1-0.2,0.1-0.3v-1.2c-0.3-0.1-0.7-0.2-1-0.3c-0.3-0.1-0.7-0.1-1-0.1
		c-0.6,0-1.1,0.1-1.6,0.4c-0.4,0.2-0.6,0.7-0.6,1.1c0,0.2,0,0.4,0.1,0.6s0.2,0.4,0.4,0.5c0.2,0.1,0.3,0.3,0.5,0.3
		C414,78.6,414.2,78.6,414.4,78.6z"/>
	<path class="st9" d="M420,69h1v8.6c0,0.2,0.1,0.5,0.2,0.6c0.2,0.2,0.4,0.2,0.6,0.2c0.1,0,0.2,0,0.4,0c0.1,0,0.3-0.1,0.4-0.1
		l0.2,0.8c-0.2,0.1-0.4,0.1-0.6,0.2c-0.2,0-0.4,0.1-0.7,0.1c-0.4,0-0.7-0.1-1-0.4s-0.4-0.6-0.4-1L420,69z"/>
	<path class="st9" d="M423.8,70.4V69h1v1.4H423.8z M423.8,79.2v-7.3h1v7.3H423.8z"/>
	<path class="st9" d="M429.8,79.3c-0.5,0-1-0.1-1.4-0.3c-0.4-0.2-0.8-0.5-1.1-0.8c-0.3-0.4-0.6-0.8-0.7-1.2
		c-0.2-0.5-0.3-0.9-0.3-1.4s0.1-1,0.3-1.5c0.2-0.4,0.4-0.9,0.7-1.2c0.3-0.3,0.6-0.6,1-0.8c0.4-0.2,0.9-0.3,1.3-0.3
		c0.6,0,1.2,0.2,1.6,0.5c0.5,0.3,0.8,0.7,1.1,1.2V69h1v9c0,0.3,0.1,0.4,0.3,0.4v0.8c-0.1,0-0.2,0-0.3,0c-0.2,0-0.4-0.1-0.6-0.2
		s-0.3-0.3-0.3-0.5v-0.7c-0.3,0.5-0.7,0.9-1.2,1.1C430.9,79.2,430.4,79.3,429.8,79.3z M430,78.5c0.3,0,0.5-0.1,0.8-0.1
		c0.3-0.1,0.5-0.2,0.8-0.4c0.2-0.2,0.4-0.4,0.6-0.6s0.3-0.5,0.3-0.7v-2.3c-0.1-0.3-0.2-0.5-0.4-0.7c-0.2-0.2-0.4-0.4-0.6-0.6
		s-0.5-0.3-0.7-0.4s-0.5-0.1-0.8-0.1c-0.4,0-0.7,0.1-1.1,0.3c-0.3,0.2-0.6,0.4-0.8,0.7c-0.2,0.3-0.4,0.6-0.5,0.9
		c-0.1,0.4-0.2,0.7-0.2,1.1s0.1,0.8,0.2,1.1c0.1,0.3,0.3,0.7,0.6,0.9c0.2,0.3,0.5,0.5,0.9,0.6C429.3,78.4,429.6,78.5,430,78.5
		L430,78.5z"/>
	<path class="st9" d="M442.8,79.3c-0.6,0-1.1-0.2-1.6-0.5s-0.9-0.7-1.1-1.2v4.5h-1V71.9h1v1.4c0.3-0.5,0.7-0.8,1.2-1.1
		c0.5-0.3,1-0.4,1.5-0.4s1,0.1,1.4,0.3c0.4,0.2,0.8,0.5,1.1,0.8c0.3,0.4,0.6,0.8,0.7,1.2c0.2,0.5,0.3,0.9,0.3,1.4s-0.1,1-0.2,1.5
		c-0.1,0.4-0.4,0.8-0.7,1.2c-0.3,0.3-0.6,0.6-1,0.8C443.8,79.2,443.3,79.3,442.8,79.3z M442.6,78.5c0.4,0,0.7-0.1,1.1-0.3
		c0.3-0.2,0.6-0.4,0.8-0.7c0.2-0.3,0.4-0.6,0.5-0.9s0.2-0.7,0.2-1.1s-0.1-0.8-0.2-1.1c-0.1-0.3-0.3-0.7-0.6-0.9
		c-0.2-0.3-0.5-0.5-0.9-0.6c-0.3-0.2-0.7-0.2-1.1-0.2c-0.3,0-0.5,0.1-0.8,0.2s-0.5,0.2-0.7,0.4c-0.2,0.2-0.4,0.4-0.6,0.6
		s-0.3,0.4-0.3,0.7v2.2c0.1,0.3,0.3,0.5,0.4,0.7c0.2,0.2,0.4,0.4,0.6,0.6s0.5,0.3,0.7,0.4C442,78.4,442.3,78.5,442.6,78.5
		L442.6,78.5z"/>
	<path class="st9" d="M449.6,79.3c-0.3,0-0.7,0-1-0.2c-0.3-0.1-0.5-0.3-0.8-0.5c-0.4-0.4-0.7-1-0.7-1.6c0-0.3,0.1-0.6,0.2-0.9
		c0.2-0.3,0.4-0.5,0.6-0.7c0.3-0.2,0.6-0.4,1-0.5s0.8-0.2,1.2-0.2c0.4,0,0.8,0,1.1,0.1c0.3,0.1,0.7,0.2,1,0.3v-0.7
		c0-0.6-0.2-1.1-0.5-1.5c-0.4-0.4-0.9-0.6-1.5-0.6c-0.4,0-0.8,0.1-1.1,0.2c-0.4,0.2-0.8,0.4-1.2,0.6l-0.3-0.6c0.8-0.6,1.7-1,2.7-1
		c0.8,0,1.6,0.2,2.2,0.8c0.5,0.6,0.8,1.3,0.8,2.1V78c0,0.3,0.1,0.4,0.4,0.4v0.8c-0.1,0-0.2,0-0.4,0c-0.2,0-0.4-0.1-0.6-0.2
		c-0.1-0.1-0.2-0.3-0.2-0.5V78c-0.3,0.4-0.8,0.8-1.3,1C450.7,79.2,450.1,79.3,449.6,79.3z M449.8,78.6c0.5,0,0.9-0.1,1.4-0.3
		c0.4-0.2,0.7-0.4,0.9-0.7c0.1-0.1,0.1-0.2,0.2-0.3c0-0.1,0.1-0.2,0.1-0.3v-1.2c-0.3-0.1-0.7-0.2-1-0.3c-0.3-0.1-0.7-0.1-1-0.1
		c-0.6,0-1.1,0.1-1.6,0.4c-0.4,0.2-0.6,0.7-0.6,1.1c0,0.2,0,0.4,0.1,0.6s0.2,0.4,0.4,0.5c0.2,0.1,0.3,0.3,0.5,0.3
		C449.3,78.6,449.6,78.6,449.8,78.6L449.8,78.6z"/>
	<path class="st9" d="M455.6,81.4h0.2h0.2c0.1,0,0.3,0,0.4-0.1s0.2-0.2,0.3-0.3c0.1-0.2,0.2-0.5,0.3-0.7c0.1-0.3,0.3-0.7,0.5-1.2
		l-3.2-7.3h1l2.7,6.4l2.5-6.4h0.9l-3.8,9.4c-0.1,0.3-0.3,0.5-0.5,0.7c-0.3,0.2-0.6,0.3-1,0.3h-0.3h-0.3L455.6,81.4z"/>
	<path class="st9" d="M473.6,79.2h-1v-4.1c0-0.7-0.1-1.3-0.4-1.9c-0.3-0.4-0.7-0.6-1.2-0.6c-0.3,0-0.5,0-0.8,0.2
		c-0.3,0.1-0.5,0.2-0.7,0.4c-0.2,0.2-0.4,0.4-0.5,0.7c-0.2,0.3-0.3,0.6-0.4,0.8v4.4h-1V75c0.1-0.7-0.1-1.3-0.4-1.9
		c-0.3-0.4-0.7-0.6-1.2-0.6s-1.1,0.2-1.5,0.6s-0.8,0.9-0.9,1.5v4.5h-1v-7.3h0.9v1.7c0.3-0.5,0.7-1,1.2-1.3s1-0.5,1.6-0.5
		c0.5,0,1.1,0.2,1.5,0.5c0.4,0.4,0.6,0.8,0.7,1.4c0.5-1.1,1.6-1.9,2.8-1.9c0.3,0,0.7,0.1,1,0.2s0.5,0.4,0.7,0.6
		c0.2,0.3,0.3,0.6,0.4,1s0.1,0.9,0.1,1.3L473.6,79.2z"/>
	<path class="st9" d="M478.8,79.3c-0.5,0-1-0.1-1.5-0.3c-0.4-0.2-0.8-0.5-1.2-0.8c-0.3-0.4-0.6-0.8-0.8-1.2c-0.2-0.5-0.3-1-0.3-1.5
		s0.1-1,0.3-1.4c0.2-0.4,0.4-0.8,0.8-1.2c0.3-0.3,0.7-0.6,1.1-0.8c0.9-0.4,2-0.4,2.9,0c0.4,0.2,0.8,0.5,1.1,0.8c0.7,0.7,1,1.7,1,2.6
		v0.2c0,0,0,0.1,0,0.2H476c0,0.4,0.1,0.8,0.3,1.1c0.1,0.3,0.3,0.6,0.6,0.9c0.2,0.2,0.5,0.4,0.8,0.6c0.3,0.1,0.7,0.2,1,0.2
		c0.2,0,0.5,0,0.7-0.1s0.4-0.2,0.6-0.3c0.2-0.1,0.4-0.2,0.5-0.4c0.2-0.2,0.3-0.3,0.4-0.5l0.8,0.2c-0.1,0.3-0.3,0.5-0.5,0.7
		s-0.4,0.4-0.7,0.6c-0.3,0.2-0.6,0.3-0.9,0.4C479.5,79.3,479.1,79.3,478.8,79.3z M481.5,75.2c0-0.7-0.4-1.4-0.9-1.9
		c-0.2-0.2-0.5-0.4-0.8-0.6c-0.3-0.1-0.7-0.2-1-0.2s-0.7,0.1-1,0.2s-0.6,0.3-0.8,0.6c-0.2,0.2-0.4,0.5-0.6,0.8
		c-0.1,0.3-0.2,0.7-0.3,1.1H481.5z"/>
	<path class="st9" d="M490,79.2h-1v-4.1c0.1-0.7-0.1-1.3-0.4-1.9c-0.3-0.4-0.7-0.6-1.2-0.6c-0.3,0-0.6,0.1-0.8,0.2
		c-0.3,0.1-0.5,0.2-0.8,0.4c-0.2,0.2-0.5,0.4-0.6,0.7c-0.2,0.2-0.3,0.5-0.4,0.8v4.5h-1v-7.3h0.9v1.7c0.3-0.5,0.8-1,1.4-1.3
		c0.5-0.3,1.2-0.5,1.8-0.5c0.3,0,0.7,0.1,1,0.2s0.5,0.4,0.7,0.6c0.2,0.3,0.3,0.6,0.4,1s0.1,0.9,0.1,1.3L490,79.2z"/>
	<path class="st9" d="M495.5,78.8l-0.3,0.1l-0.4,0.1l-0.5,0.1c-0.2,0-0.4,0.1-0.6,0.1s-0.4,0-0.6-0.1s-0.3-0.1-0.5-0.3
		c-0.1-0.1-0.3-0.3-0.3-0.4c-0.1-0.2-0.1-0.4-0.1-0.6v-5.2h-1v-0.8h1v-2.5h1v2.5h1.7v0.8h-1.7v5c0,0.2,0.1,0.4,0.3,0.6
		c0.2,0.1,0.4,0.2,0.6,0.2s0.5,0,0.7-0.1c0.1-0.1,0.3-0.1,0.4-0.2L495.5,78.8z"/>
	<path class="st9" d="M503.3,79.3c-0.5,0-1-0.1-1.5-0.3c-0.4-0.2-0.8-0.5-1.1-0.8c-0.3-0.4-0.6-0.8-0.7-1.2
		c-0.2-0.5-0.3-0.9-0.3-1.4s0.1-1,0.3-1.5c0.2-0.4,0.4-0.9,0.8-1.2c0.3-0.3,0.7-0.6,1.1-0.8c0.5-0.2,0.9-0.3,1.4-0.3s1,0.1,1.5,0.3
		c0.4,0.2,0.8,0.5,1.1,0.8c0.3,0.3,0.6,0.8,0.8,1.2c0.2,0.5,0.3,1,0.3,1.5s-0.1,1-0.3,1.4c-0.2,0.4-0.4,0.9-0.8,1.2
		c-0.3,0.3-0.7,0.6-1.1,0.8C504.3,79.2,503.8,79.3,503.3,79.3z M500.7,75.6c0,0.4,0.1,0.8,0.2,1.1c0.1,0.3,0.3,0.6,0.6,0.9
		c0.2,0.3,0.5,0.5,0.8,0.6s0.7,0.2,1,0.2s0.7-0.1,1-0.2c0.3-0.2,0.6-0.4,0.9-0.6c0.2-0.3,0.4-0.6,0.6-0.9c0.3-0.7,0.3-1.6,0-2.3
		c-0.1-0.3-0.3-0.7-0.6-0.9c-0.2-0.3-0.5-0.5-0.9-0.6c-0.3-0.1-0.7-0.2-1-0.2s-0.7,0.1-1,0.2c-0.3,0.2-0.6,0.4-0.8,0.6
		c-0.2,0.3-0.4,0.6-0.6,0.9C500.7,74.8,500.7,75.2,500.7,75.6z"/>
	<path class="st9" d="M512.3,79.3c-0.6,0-1.1-0.2-1.6-0.5s-0.9-0.7-1.1-1.2v4.5h-1V71.9h0.9v1.4c0.3-0.5,0.7-0.8,1.2-1.1
		c0.5-0.3,1-0.4,1.5-0.4c0.5,0,1,0.1,1.4,0.3c0.4,0.2,0.8,0.5,1.1,0.8c0.3,0.4,0.6,0.8,0.7,1.2c0.2,0.5,0.3,0.9,0.3,1.4
		s-0.1,1-0.2,1.5c-0.1,0.4-0.4,0.8-0.7,1.2c-0.3,0.3-0.6,0.6-1,0.8C513.2,79.2,512.7,79.3,512.3,79.3z M512,78.5
		c0.4,0,0.7-0.1,1.1-0.3c0.3-0.2,0.6-0.4,0.8-0.7c0.2-0.3,0.4-0.6,0.5-0.9s0.2-0.7,0.2-1.1s-0.1-0.8-0.2-1.1
		c-0.1-0.3-0.3-0.7-0.6-0.9c-0.2-0.3-0.5-0.5-0.9-0.6c-0.3-0.2-0.7-0.2-1.1-0.2c-0.3,0-0.5,0.1-0.8,0.2s-0.5,0.2-0.7,0.4
		c-0.2,0.2-0.4,0.4-0.6,0.6s-0.3,0.4-0.3,0.7v2.2c0.1,0.3,0.3,0.5,0.4,0.7c0.2,0.2,0.4,0.4,0.6,0.6s0.5,0.3,0.7,0.4
		C511.5,78.4,511.7,78.5,512,78.5L512,78.5z"/>
	<path class="st9" d="M520.6,78.8l-0.3,0.1l-0.4,0.1l-0.5,0.1c-0.2,0-0.4,0.1-0.6,0.1c-0.2,0-0.4,0-0.6-0.1
		c-0.2-0.1-0.3-0.1-0.5-0.3c-0.1-0.1-0.3-0.3-0.3-0.4c-0.1-0.2-0.1-0.4-0.1-0.6v-5.2h-1v-0.8h1v-2.5h1v2.5h1.6v0.8h-1.7v5
		c0,0.2,0.1,0.4,0.3,0.6c0.2,0.1,0.4,0.2,0.6,0.2c0.2,0,0.5,0,0.7-0.1c0.1-0.1,0.3-0.1,0.4-0.2L520.6,78.8z"/>
	<path class="st9" d="M521.8,70.4V69h1v1.4H521.8z M521.8,79.2v-7.3h1v7.3H521.8z"/>
	<path class="st9" d="M527.9,79.3c-0.5,0-1-0.1-1.5-0.3c-0.4-0.2-0.8-0.5-1.1-0.8s-0.6-0.8-0.8-1.2c-0.2-0.5-0.3-0.9-0.3-1.4
		s0.1-1,0.3-1.5c0.2-0.4,0.4-0.9,0.8-1.2c0.3-0.3,0.7-0.6,1.1-0.8c0.5-0.2,0.9-0.3,1.4-0.3s1,0.1,1.5,0.3c0.4,0.2,0.8,0.5,1.2,0.8
		c0.3,0.3,0.6,0.8,0.8,1.2c0.2,0.5,0.3,1,0.3,1.5s-0.1,1-0.3,1.4s-0.4,0.9-0.8,1.2c-0.3,0.3-0.7,0.6-1.2,0.8
		C528.9,79.2,528.4,79.3,527.9,79.3z M525.3,75.6c0,0.4,0.1,0.8,0.2,1.1c0.1,0.3,0.3,0.6,0.6,0.9c0.2,0.3,0.5,0.5,0.8,0.6
		s0.7,0.2,1,0.2s0.7-0.1,1-0.2c0.3-0.2,0.6-0.4,0.8-0.6c0.2-0.3,0.4-0.6,0.6-0.9c0.3-0.7,0.3-1.6,0-2.3c-0.1-0.3-0.3-0.7-0.6-0.9
		c-0.2-0.3-0.5-0.5-0.8-0.6s-0.7-0.2-1-0.2s-0.7,0.1-1,0.2c-0.3,0.2-0.6,0.4-0.8,0.6c-0.2,0.3-0.4,0.6-0.6,0.9
		C525.3,74.8,525.3,75.2,525.3,75.6L525.3,75.6z"/>
	<path class="st9" d="M539.3,79.2h-1v-4.1c0.1-0.7-0.1-1.3-0.4-1.9c-0.3-0.4-0.7-0.6-1.2-0.6c-0.3,0-0.6,0.1-0.8,0.2
		c-0.3,0.1-0.5,0.2-0.8,0.4c-0.2,0.2-0.5,0.4-0.6,0.7c-0.2,0.3-0.3,0.5-0.4,0.8v4.5h-1v-7.3h1v1.7c0.3-0.5,0.7-1,1.3-1.3
		c0.5-0.3,1.2-0.5,1.8-0.5c0.3,0,0.7,0.1,1,0.2s0.5,0.4,0.7,0.6c0.2,0.3,0.3,0.6,0.4,1c0.1,0.4,0.1,0.9,0.1,1.3L539.3,79.2z"/>
	<path class="st9" d="M192.3,95.9h0.9l-3.1,7.3h-0.8l-1.6-3.7l-1.6,3.7h-0.8l-3.1-7.3h0.9l2.7,6.3l1.4-3.3l-1.3-3h0.8l1,2.4l1-2.4
		h0.8l-1.3,3l1.4,3.3L192.3,95.9z"/>
	<path class="st9" d="M200.7,103.2h-1v-4.1c0-0.6-0.1-1.3-0.4-1.9c-0.3-0.4-0.8-0.6-1.3-0.6c-0.3,0-0.5,0.1-0.8,0.2
		s-0.5,0.3-0.8,0.4c-0.2,0.2-0.4,0.4-0.6,0.7c-0.2,0.3-0.3,0.5-0.4,0.8v4.5h-1V93h1v4.6c0.3-0.5,0.7-1,1.2-1.3s1.1-0.5,1.7-0.5
		c0.4,0,0.7,0.1,1.1,0.2c0.3,0.2,0.5,0.4,0.7,0.6c0.2,0.3,0.3,0.6,0.4,1c0.1,0.4,0.1,0.8,0.1,1.3L200.7,103.2z"/>
	<path class="st9" d="M202.7,94.4V93h1v1.4H202.7z M202.7,103.2v-7.3h1v7.3H202.7z"/>
	<path class="st9" d="M205.2,99.5c0-0.5,0.1-1,0.3-1.5c0.2-0.4,0.4-0.9,0.8-1.2c0.3-0.3,0.7-0.6,1.1-0.8c0.5-0.2,1-0.3,1.5-0.3
		c0.6,0,1.3,0.1,1.8,0.5c0.5,0.3,0.9,0.7,1.2,1.3l-0.9,0.3c-0.2-0.4-0.5-0.7-0.9-0.9c-0.4-0.2-0.8-0.3-1.2-0.3c-0.3,0-0.7,0.1-1,0.2
		s-0.6,0.4-0.8,0.6c-0.2,0.3-0.4,0.6-0.6,0.9c-0.3,0.7-0.3,1.6,0,2.3c0.1,0.3,0.3,0.7,0.6,0.9c0.2,0.3,0.5,0.5,0.9,0.6
		c0.3,0.1,0.7,0.2,1,0.2c0.2,0,0.5,0,0.7-0.1s0.4-0.2,0.6-0.3c0.2-0.1,0.4-0.2,0.5-0.4c0.1-0.1,0.2-0.3,0.3-0.5l0.9,0.3
		c-0.1,0.3-0.3,0.5-0.4,0.7c-0.2,0.2-0.4,0.4-0.7,0.6s-0.6,0.3-0.9,0.4c-0.3,0.1-0.7,0.1-1,0.1c-1,0-2-0.4-2.6-1.1
		c-0.3-0.4-0.6-0.8-0.8-1.2C205.3,100.5,205.2,100,205.2,99.5z"/>
	<path class="st9" d="M219.6,103.2h-1v-4.1c0-0.6-0.1-1.3-0.4-1.9c-0.3-0.4-0.8-0.6-1.3-0.6c-0.3,0-0.5,0.1-0.8,0.2
		s-0.5,0.3-0.8,0.4c-0.2,0.2-0.4,0.4-0.6,0.7c-0.2,0.3-0.3,0.5-0.4,0.8v4.5h-1V93h1v4.6c0.3-0.5,0.7-1,1.2-1.3s1.1-0.5,1.7-0.5
		c0.4,0,0.7,0.1,1.1,0.2c0.3,0.2,0.5,0.4,0.7,0.6c0.2,0.3,0.3,0.6,0.4,1c0.1,0.4,0.1,0.8,0.1,1.3L219.6,103.2z"/>
	<path class="st9" d="M225.2,105.4h0.2h0.2c0.1,0,0.3,0,0.4-0.1c0.1-0.1,0.2-0.2,0.3-0.3c0.1-0.2,0.2-0.5,0.3-0.7
		c0.1-0.3,0.3-0.7,0.5-1.2l-3.2-7.3h1l2.7,6.4l2.5-6.4h0.9l-3.8,9.4c-0.1,0.3-0.3,0.5-0.5,0.7c-0.3,0.2-0.6,0.3-1,0.3h-0.3h-0.3
		L225.2,105.4z"/>
	<path class="st9" d="M235.2,103.3c-0.5,0-1-0.1-1.5-0.3c-0.4-0.2-0.8-0.5-1.1-0.8s-0.6-0.8-0.8-1.2c-0.2-0.5-0.3-0.9-0.3-1.4
		s0.1-1,0.3-1.5c0.2-0.4,0.4-0.9,0.8-1.2c0.3-0.3,0.7-0.6,1.1-0.8c0.5-0.2,0.9-0.3,1.4-0.3s1,0.1,1.4,0.3c0.4,0.2,0.8,0.5,1.1,0.8
		s0.6,0.8,0.8,1.2c0.2,0.5,0.3,1,0.3,1.5s-0.1,1-0.3,1.4s-0.4,0.9-0.8,1.2c-0.3,0.3-0.7,0.6-1.1,0.8
		C236.2,103.2,235.7,103.3,235.2,103.3z M232.6,99.6c0,0.4,0.1,0.8,0.2,1.1c0.1,0.3,0.3,0.6,0.6,0.9c0.2,0.3,0.5,0.5,0.8,0.6
		s0.7,0.2,1,0.2s0.7-0.1,1-0.2c0.3-0.2,0.6-0.4,0.9-0.6c0.2-0.3,0.4-0.6,0.6-0.9c0.3-0.7,0.3-1.6,0-2.3c-0.1-0.3-0.3-0.7-0.6-0.9
		c-0.2-0.3-0.5-0.5-0.9-0.6c-0.3-0.1-0.7-0.2-1-0.2s-0.7,0.1-1,0.2c-0.3,0.2-0.6,0.4-0.8,0.6c-0.2,0.3-0.4,0.6-0.6,0.9
		C232.6,98.8,232.6,99.2,232.6,99.6L232.6,99.6z"/>
	<path class="st9" d="M242.7,103.3c-0.7,0-1.3-0.2-1.8-0.8c-0.4-0.7-0.6-1.5-0.6-2.4v-4.3h1v4.1c0,1.7,0.6,2.5,1.7,2.5
		c0.3,0,0.6,0,0.8-0.1c0.3-0.1,0.5-0.2,0.8-0.4c0.2-0.2,0.4-0.4,0.6-0.6c0.2-0.3,0.3-0.5,0.4-0.8v-4.6h1v6.1c0,0.3,0.1,0.4,0.3,0.4
		v0.8h-0.3h-0.1c-0.2,0-0.5-0.1-0.6-0.2c-0.1-0.2-0.2-0.4-0.2-0.6v-0.8c-0.3,0.6-0.7,1-1.3,1.3C244,103.2,243.3,103.3,242.7,103.3z"
		/>
	<path class="st9" d="M251.8,99.5c0-0.5,0.1-1,0.3-1.5c0.2-0.4,0.4-0.9,0.8-1.2c0.3-0.3,0.7-0.6,1.1-0.8c0.5-0.2,1-0.3,1.5-0.3
		c0.6,0,1.3,0.1,1.8,0.5c0.5,0.3,0.9,0.7,1.2,1.3l-0.9,0.3c-0.2-0.4-0.5-0.7-0.9-0.9c-0.4-0.2-0.8-0.3-1.2-0.3c-0.3,0-0.7,0.1-1,0.2
		s-0.6,0.4-0.8,0.6c-0.2,0.3-0.4,0.6-0.6,0.9c-0.3,0.7-0.3,1.6,0,2.3c0.1,0.3,0.3,0.7,0.6,0.9c0.2,0.3,0.5,0.5,0.9,0.6
		c0.3,0.1,0.7,0.2,1,0.2c0.2,0,0.5,0,0.7-0.1s0.4-0.2,0.6-0.3c0.2-0.1,0.4-0.2,0.5-0.4c0.1-0.1,0.2-0.3,0.3-0.5l0.9,0.3
		c-0.1,0.3-0.3,0.5-0.5,0.7s-0.4,0.4-0.7,0.6c-0.3,0.2-0.6,0.3-0.9,0.4s-0.7,0.1-1,0.1c-1,0-2-0.4-2.6-1.1c-0.3-0.4-0.6-0.8-0.8-1.2
		C251.9,100.5,251.8,100,251.8,99.5z"/>
	<path class="st9" d="M261.8,103.3c-0.3,0-0.7,0-1-0.2c-0.3-0.1-0.5-0.3-0.8-0.5c-0.4-0.4-0.7-1-0.7-1.6c0-0.3,0.1-0.6,0.2-0.9
		c0.2-0.3,0.4-0.5,0.6-0.7c0.3-0.2,0.6-0.4,1-0.5s0.8-0.2,1.2-0.2c0.4,0,0.8,0,1.1,0.1c0.3,0.1,0.7,0.2,1,0.3v-0.7
		c0-0.6-0.2-1.1-0.5-1.5c-0.4-0.4-0.9-0.6-1.5-0.6c-0.4,0-0.8,0.1-1.1,0.2c-0.4,0.2-0.8,0.4-1.2,0.6l-0.3-0.6c0.8-0.6,1.7-1,2.7-1
		c0.8,0,1.6,0.2,2.2,0.8c0.5,0.6,0.8,1.3,0.8,2.1v3.4c0,0.3,0.1,0.4,0.4,0.4v0.8h-0.4c-0.2,0-0.4-0.1-0.6-0.2
		c-0.1-0.1-0.2-0.3-0.2-0.5V102c-0.3,0.4-0.8,0.8-1.3,1C262.9,103.2,262.4,103.3,261.8,103.3z M262,102.6c0.5,0,0.9-0.1,1.4-0.3
		c0.4-0.2,0.7-0.4,0.9-0.7c0.1-0.1,0.1-0.2,0.2-0.3c0-0.1,0.1-0.2,0.1-0.3v-1.2c-0.3-0.1-0.7-0.2-1-0.3c-0.3-0.1-0.7-0.1-1-0.1
		c-0.6,0-1.1,0.1-1.6,0.4c-0.4,0.2-0.6,0.7-0.6,1.1c0,0.2,0,0.4,0.1,0.6s0.2,0.4,0.4,0.5c0.2,0.1,0.3,0.3,0.5,0.3
		C261.6,102.6,261.8,102.6,262,102.6L262,102.6z"/>
	<path class="st9" d="M273.8,103.2h-1v-4.1c0-0.7-0.1-1.3-0.4-1.9c-0.3-0.4-0.7-0.6-1.2-0.6c-0.3,0-0.6,0.1-0.8,0.2
		c-0.3,0.1-0.5,0.2-0.8,0.4c-0.2,0.2-0.5,0.4-0.6,0.7c-0.2,0.2-0.3,0.5-0.4,0.8v4.5h-1v-7.3h0.9v1.7c0.3-0.5,0.7-1,1.3-1.3
		c0.5-0.3,1.2-0.5,1.8-0.5c0.3,0,0.7,0.1,1,0.2s0.5,0.4,0.7,0.6c0.2,0.3,0.3,0.6,0.4,1s0.1,0.9,0.1,1.3V103.2z"/>
	<path class="st9" d="M281.8,103.3c-0.6,0-1.1-0.1-1.7-0.3c-0.5-0.2-1-0.4-1.4-0.8l0.4-0.6c0.4,0.3,0.8,0.6,1.3,0.8
		c0.4,0.2,0.9,0.3,1.4,0.3s1-0.1,1.4-0.4c0.3-0.2,0.5-0.6,0.5-1c0-0.2,0-0.4-0.1-0.5s-0.2-0.3-0.4-0.4c-0.2-0.1-0.5-0.2-0.7-0.3
		l-1-0.3c-0.4-0.1-0.8-0.2-1.1-0.3c-0.3-0.1-0.5-0.2-0.8-0.3c-0.2-0.1-0.3-0.3-0.5-0.5c-0.1-0.2-0.2-0.5-0.1-0.7
		c0-0.3,0.1-0.7,0.2-1s0.3-0.5,0.6-0.7c0.3-0.2,0.6-0.3,0.9-0.4s0.7-0.1,1.1-0.1c0.5,0,1,0.1,1.5,0.3c0.4,0.2,0.8,0.4,1.1,0.7
		l-0.5,0.6c-0.3-0.3-0.6-0.5-1-0.6s-0.8-0.2-1.2-0.2c-0.2,0-0.5,0-0.7,0.1c-0.2,0-0.4,0.1-0.6,0.3c-0.2,0.1-0.3,0.3-0.4,0.4
		c-0.1,0.2-0.1,0.4-0.1,0.6s0,0.3,0.1,0.5c0.1,0.1,0.2,0.2,0.3,0.3c0.2,0.1,0.4,0.2,0.6,0.2c0.2,0.1,0.5,0.1,0.8,0.2
		s0.9,0.2,1.2,0.3c0.3,0.1,0.6,0.2,0.9,0.4c0.2,0.1,0.4,0.3,0.5,0.6c0.1,0.2,0.2,0.5,0.2,0.8c0,0.6-0.3,1.2-0.8,1.6
		C283.2,103.2,282.5,103.4,281.8,103.3z"/>
	<path class="st9" d="M289.3,103.3c-0.5,0-1-0.1-1.5-0.3c-0.4-0.2-0.8-0.5-1.1-0.8c-0.3-0.4-0.6-0.8-0.8-1.2c-0.2-0.5-0.3-1-0.3-1.5
		s0.1-1,0.3-1.4c0.2-0.4,0.4-0.8,0.8-1.2c0.3-0.3,0.7-0.6,1.2-0.8c0.9-0.4,2-0.4,2.9,0c0.4,0.2,0.8,0.5,1.1,0.8c0.7,0.7,1,1.7,1,2.6
		v0.2c0,0,0,0.1,0,0.2h-6.2c0,0.4,0.1,0.7,0.3,1.1c0.1,0.3,0.4,0.6,0.6,0.9c0.2,0.2,0.5,0.4,0.8,0.6c0.3,0.1,0.7,0.2,1,0.2
		c0.2,0,0.5,0,0.7-0.1s0.4-0.2,0.6-0.3c0.2-0.1,0.4-0.2,0.5-0.4c0.2-0.2,0.3-0.3,0.4-0.5l0.8,0.2c-0.1,0.3-0.3,0.5-0.5,0.7
		s-0.4,0.4-0.7,0.6c-0.3,0.2-0.6,0.3-0.9,0.4C290,103.3,289.7,103.3,289.3,103.3z M292,99.2c0-0.4-0.1-0.7-0.3-1.1
		c-0.1-0.3-0.3-0.6-0.6-0.8c-0.5-0.5-1.1-0.7-1.8-0.7c-0.3,0-0.7,0.1-1,0.2s-0.6,0.3-0.8,0.6c-0.2,0.2-0.4,0.5-0.6,0.8
		c-0.1,0.3-0.2,0.7-0.3,1.1L292,99.2z"/>
	<path class="st9" d="M297.8,102.8l-0.2,0.1l-0.4,0.1l-0.5,0.1c-0.2,0-0.4,0.1-0.6,0.1s-0.4,0-0.6-0.1s-0.3-0.1-0.5-0.3
		c-0.1-0.1-0.3-0.3-0.3-0.4c-0.1-0.2-0.1-0.4-0.1-0.6v-5.2h-1v-0.8h1v-2.5h1v2.5h1.7v0.8h-1.7v5c0,0.2,0.1,0.4,0.3,0.6
		c0.2,0.1,0.4,0.2,0.6,0.2s0.5,0,0.7-0.1c0.1-0.1,0.3-0.1,0.4-0.2L297.8,102.8z"/>
	<path class="st9" d="M306.2,96.7c-0.6,0-1.2,0.2-1.7,0.5s-0.8,0.8-1,1.4v4.5h-1v-7.3h0.9v1.8c0.2-0.5,0.6-1,1.1-1.3
		c0.4-0.3,0.9-0.5,1.5-0.5h0.2V96.7z"/>
	<path class="st9" d="M310.3,103.3c-0.5,0-1-0.1-1.5-0.3c-0.4-0.2-0.8-0.5-1.2-0.8c-0.3-0.4-0.6-0.8-0.8-1.2c-0.2-0.5-0.3-1-0.3-1.5
		s0.1-1,0.3-1.4c0.2-0.4,0.4-0.8,0.8-1.2c0.3-0.3,0.7-0.6,1.1-0.8c0.9-0.4,2-0.4,2.9,0c0.4,0.2,0.8,0.5,1.1,0.8c0.7,0.7,1,1.7,1,2.6
		v0.2c0,0,0,0.1,0,0.2h-6.2c0,0.4,0.1,0.7,0.3,1.1c0.1,0.3,0.3,0.6,0.6,0.9c0.2,0.2,0.5,0.4,0.8,0.6c0.3,0.1,0.7,0.2,1,0.2
		c0.2,0,0.5,0,0.7-0.1s0.4-0.2,0.6-0.3c0.2-0.1,0.4-0.2,0.5-0.4c0.2-0.2,0.3-0.3,0.4-0.5l0.8,0.2c-0.1,0.3-0.3,0.5-0.5,0.7
		s-0.4,0.4-0.7,0.6c-0.3,0.2-0.6,0.3-0.9,0.4C311,103.3,310.6,103.3,310.3,103.3z M313,99.2c0-0.7-0.3-1.4-0.9-1.9
		c-0.5-0.5-1.1-0.7-1.8-0.7c-0.3,0-0.7,0.1-1,0.2s-0.6,0.3-0.8,0.6c-0.2,0.2-0.4,0.5-0.6,0.8c-0.1,0.3-0.2,0.7-0.3,1.1L313,99.2z"/>
	<path class="st9" d="M314.9,99.5c0-0.5,0.1-1,0.3-1.5c0.2-0.4,0.4-0.9,0.8-1.2c0.3-0.3,0.7-0.6,1.2-0.8c0.5-0.2,1-0.3,1.5-0.3
		c0.6,0,1.3,0.1,1.8,0.5c0.5,0.3,0.9,0.7,1.2,1.3l-0.9,0.3c-0.2-0.4-0.5-0.7-0.9-0.9c-0.4-0.2-0.8-0.3-1.2-0.3c-0.3,0-0.7,0.1-1,0.2
		s-0.6,0.4-0.8,0.6c-0.2,0.3-0.4,0.6-0.6,0.9c-0.1,0.4-0.2,0.8-0.2,1.2c0,0.4,0.1,0.8,0.2,1.2c0.1,0.3,0.3,0.7,0.6,0.9
		c0.2,0.3,0.5,0.5,0.9,0.6c0.3,0.1,0.7,0.2,1,0.2c0.2,0,0.5,0,0.7-0.1s0.4-0.2,0.6-0.3c0.2-0.1,0.4-0.2,0.5-0.4
		c0.1-0.1,0.2-0.3,0.3-0.5l0.9,0.3c-0.1,0.3-0.3,0.5-0.5,0.7s-0.4,0.4-0.7,0.6c-0.3,0.2-0.6,0.3-0.9,0.4s-0.7,0.1-1,0.1
		c-1,0-2-0.4-2.6-1.1c-0.3-0.4-0.6-0.8-0.8-1.2C315,100.5,314.9,100,314.9,99.5z"/>
	<path class="st9" d="M325.3,103.3c-0.7,0-1.3-0.2-1.8-0.8c-0.4-0.7-0.6-1.5-0.6-2.4v-4.3h1v4.1c0,1.7,0.6,2.5,1.7,2.5
		c0.3,0,0.6,0,0.8-0.1c0.3-0.1,0.5-0.2,0.8-0.4c0.2-0.2,0.4-0.4,0.6-0.6c0.2-0.3,0.3-0.5,0.4-0.8v-4.6h1v6.1c0,0.3,0.1,0.4,0.3,0.4
		v0.8h-0.3h-0.1c-0.2,0-0.4-0.1-0.5-0.2c-0.1-0.2-0.2-0.4-0.2-0.6v-0.8c-0.3,0.6-0.7,1-1.3,1.3C326.6,103.2,326,103.4,325.3,103.3z"
		/>
	<path class="st9" d="M335,96.7c-0.6,0-1.2,0.2-1.7,0.5s-0.8,0.8-1,1.4v4.5h-1v-7.3h0.9v1.8c0.2-0.5,0.6-1,1.1-1.3
		c0.4-0.3,0.9-0.5,1.5-0.5h0.2V96.7z"/>
	<path class="st9" d="M339.9,96.7c-0.6,0-1.2,0.2-1.7,0.5s-0.8,0.8-1,1.4v4.5h-1v-7.3h0.9v1.8c0.2-0.5,0.6-1,1.1-1.3
		c0.4-0.3,0.9-0.5,1.5-0.5h0.2V96.7z"/>
	<path class="st9" d="M341.2,94.4V93h1v1.4H341.2z M341.2,103.2v-7.3h1v7.3H341.2z"/>
	<path class="st9" d="M350.4,103.2h-1v-4.1c0.1-0.7-0.1-1.3-0.4-1.9c-0.3-0.4-0.7-0.6-1.2-0.6c-0.3,0-0.6,0.1-0.8,0.2
		c-0.3,0.1-0.5,0.2-0.8,0.4c-0.2,0.2-0.5,0.4-0.6,0.7c-0.2,0.3-0.3,0.5-0.4,0.8v4.5h-1v-7.3h0.9v1.7c0.3-0.5,0.7-1,1.3-1.3
		c0.5-0.3,1.2-0.5,1.8-0.5c0.3,0,0.7,0.1,1,0.2s0.5,0.4,0.7,0.6c0.2,0.3,0.3,0.6,0.4,1s0.1,0.9,0.1,1.3V103.2z"/>
	<path class="st9" d="M355.3,103.3c-0.5,0-0.9-0.1-1.3-0.3c-0.4-0.2-0.8-0.5-1.1-0.8c-0.3-0.4-0.5-0.8-0.7-1.2
		c-0.2-0.4-0.3-0.9-0.3-1.4s0.1-1,0.3-1.4c0.2-0.4,0.4-0.9,0.7-1.2c0.3-0.3,0.7-0.6,1.1-0.8c0.4-0.2,0.9-0.3,1.4-0.3
		c0.6,0,1.1,0.2,1.6,0.5s0.9,0.7,1.2,1.2v-1.5h0.8v7.3c0,0.5-0.1,0.9-0.3,1.3c-0.2,0.4-0.4,0.7-0.8,1c-0.3,0.3-0.7,0.5-1.1,0.6
		s-0.9,0.2-1.4,0.2c-0.7,0-1.4-0.1-2-0.4c-0.5-0.3-0.9-0.7-1.3-1.2l0.6-0.5c0.3,0.4,0.7,0.8,1.1,1c0.5,0.2,1,0.3,1.5,0.3
		c0.3,0,0.7-0.1,1-0.2s0.6-0.2,0.8-0.4c0.2-0.2,0.4-0.4,0.6-0.7c0.1-0.3,0.2-0.7,0.2-1V102c-0.3,0.5-0.7,0.9-1.1,1.1
		C356.4,103.2,355.9,103.3,355.3,103.3z M355.6,102.5c0.3,0,0.6,0,0.8-0.2c0.3-0.1,0.5-0.2,0.7-0.4c0.2-0.2,0.4-0.4,0.5-0.6
		s0.2-0.4,0.3-0.7v-2.3c-0.1-0.3-0.2-0.5-0.4-0.7c-0.2-0.2-0.4-0.4-0.6-0.6s-0.5-0.3-0.7-0.4s-0.5-0.1-0.8-0.1
		c-0.4,0-0.8,0.1-1.1,0.3c-0.3,0.2-0.6,0.4-0.8,0.7c-0.2,0.3-0.4,0.6-0.5,1c-0.1,0.3-0.2,0.7-0.2,1.1s0.1,0.8,0.2,1.1
		c0.1,0.3,0.3,0.7,0.6,0.9c0.2,0.3,0.5,0.5,0.9,0.6C354.9,102.4,355.2,102.5,355.6,102.5z"/>
	<path class="st9" d="M367.6,103.3c-0.5,0-1-0.1-1.4-0.3c-0.4-0.2-0.8-0.5-1.1-0.8c-0.3-0.4-0.6-0.8-0.7-1.2
		c-0.2-0.5-0.3-0.9-0.3-1.4s0.1-1,0.3-1.5c0.2-0.4,0.4-0.9,0.7-1.2c0.3-0.3,0.6-0.6,1-0.8c0.4-0.2,0.9-0.3,1.3-0.3
		c0.6,0,1.2,0.2,1.6,0.5c0.5,0.3,0.8,0.7,1.1,1.2V93h1v9c0,0.3,0.1,0.4,0.3,0.4v0.8c-0.1,0-0.2,0-0.3,0c-0.2,0-0.4-0.1-0.6-0.2
		s-0.3-0.3-0.3-0.5v-0.7c-0.3,0.5-0.7,0.9-1.2,1.1C368.7,103.2,368.2,103.3,367.6,103.3z M367.8,102.5c0.3,0,0.5-0.1,0.8-0.1
		c0.3-0.1,0.5-0.2,0.8-0.4c0.2-0.2,0.4-0.3,0.6-0.6c0.2-0.2,0.3-0.5,0.3-0.7v-2.3c-0.1-0.3-0.2-0.5-0.4-0.7
		c-0.2-0.2-0.4-0.4-0.6-0.6s-0.5-0.3-0.7-0.4s-0.5-0.1-0.8-0.1c-0.4,0-0.7,0.1-1.1,0.3c-0.3,0.2-0.6,0.4-0.8,0.7
		c-0.2,0.3-0.4,0.6-0.5,0.9c-0.1,0.4-0.2,0.7-0.2,1.1c0,0.8,0.3,1.5,0.8,2.1c0.2,0.3,0.5,0.5,0.9,0.6
		C367.1,102.4,367.5,102.5,367.8,102.5z"/>
	<path class="st9" d="M376.5,103.3c-0.5,0-1-0.1-1.5-0.3c-0.4-0.2-0.8-0.5-1.2-0.8c-0.3-0.4-0.6-0.8-0.8-1.2c-0.2-0.5-0.3-1-0.3-1.5
		s0.1-1,0.3-1.4c0.2-0.4,0.4-0.8,0.8-1.2c0.3-0.3,0.7-0.6,1.1-0.8c0.9-0.4,2-0.4,2.9,0c0.4,0.2,0.8,0.5,1.1,0.8c0.7,0.7,1,1.7,1,2.6
		v0.2c0,0,0,0.1,0,0.2h-6.2c0,0.4,0.1,0.7,0.3,1.1c0.1,0.3,0.3,0.6,0.6,0.9c0.2,0.2,0.5,0.4,0.8,0.6c0.3,0.1,0.7,0.2,1,0.2
		c0.2,0,0.5,0,0.7-0.1s0.4-0.2,0.6-0.3c0.2-0.1,0.4-0.2,0.5-0.4c0.2-0.2,0.3-0.3,0.4-0.5l0.8,0.2c-0.1,0.3-0.3,0.5-0.5,0.7
		s-0.4,0.4-0.7,0.6c-0.3,0.2-0.6,0.3-0.9,0.4C377.2,103.2,376.8,103.3,376.5,103.3z M379.2,99.2c0-0.7-0.3-1.4-0.9-1.9
		c-0.5-0.5-1.1-0.7-1.8-0.7c-0.3,0-0.7,0.1-1,0.2s-0.6,0.3-0.8,0.6c-0.2,0.2-0.4,0.5-0.6,0.8c-0.1,0.3-0.2,0.7-0.3,1.1L379.2,99.2z"
		/>
	<path class="st9" d="M385.1,103.3c-0.6,0-1.1-0.1-1.6-0.4s-0.9-0.7-1.1-1.1v1.4h-0.9V93h1v4.4c0.3-0.5,0.7-0.9,1.2-1.2
		c0.5-0.3,1-0.5,1.6-0.5c0.5,0,1,0.1,1.4,0.3c0.4,0.2,0.7,0.5,1,0.9s0.5,0.8,0.7,1.2c0.2,0.4,0.2,0.9,0.2,1.4s-0.1,1-0.3,1.5
		c-0.2,0.4-0.4,0.8-0.7,1.2c-0.3,0.3-0.7,0.6-1.1,0.8C386.1,103.2,385.6,103.3,385.1,103.3z M384.9,102.5c0.4,0,0.8-0.1,1.1-0.3
		c0.3-0.2,0.6-0.4,0.9-0.7c0.2-0.3,0.4-0.6,0.6-0.9c0.1-0.3,0.2-0.7,0.2-1.1s-0.1-0.8-0.2-1.1c-0.1-0.3-0.3-0.7-0.5-0.9
		c-0.2-0.3-0.5-0.5-0.8-0.7s-0.7-0.3-1.1-0.3c-0.3,0-0.6,0-0.8,0.2c-0.3,0.1-0.5,0.2-0.7,0.4c-0.2,0.2-0.4,0.4-0.6,0.6
		s-0.3,0.4-0.4,0.7v2.3c0,0.3,0.1,0.5,0.3,0.7c0.2,0.2,0.4,0.4,0.6,0.6s0.5,0.3,0.7,0.4C384.4,102.4,384.6,102.5,384.9,102.5z"/>
	<path class="st9" d="M390.2,94.4V93h1v1.4H390.2z M390.2,103.2v-7.3h1v7.3H390.2z"/>
	<path class="st9" d="M396.8,102.8l-0.3,0.1l-0.4,0.1l-0.5,0.1c-0.2,0-0.4,0.1-0.6,0.1s-0.4,0-0.6-0.1s-0.3-0.1-0.5-0.3
		c-0.1-0.1-0.3-0.3-0.3-0.4c-0.1-0.2-0.1-0.4-0.1-0.6v-5.2h-1v-0.8h1v-2.5h1v2.5h1.7v0.8h-1.7v5c0,0.2,0.1,0.4,0.3,0.6
		c0.2,0.1,0.4,0.2,0.6,0.2s0.5,0,0.7-0.1c0.1-0.1,0.3-0.1,0.4-0.2L396.8,102.8z"/>
	<path class="st9" d="M412.4,103.2h-1v-4.1c0-0.7-0.1-1.3-0.4-1.9c-0.3-0.4-0.7-0.6-1.2-0.6c-0.3,0-0.5,0-0.8,0.2
		c-0.3,0.1-0.5,0.2-0.7,0.4c-0.2,0.2-0.4,0.4-0.5,0.7c-0.2,0.3-0.3,0.6-0.4,0.8v4.4h-1V99c0.1-0.7-0.1-1.3-0.4-1.9
		c-0.3-0.4-0.7-0.6-1.2-0.6s-1.1,0.2-1.5,0.6s-0.8,0.9-0.9,1.5v4.5h-1v-7.3h0.9v1.7c0.3-0.5,0.7-1,1.2-1.3s1-0.5,1.6-0.5
		c0.5,0,1.1,0.2,1.5,0.5c0.4,0.4,0.6,0.8,0.7,1.4c0.5-1.1,1.6-1.9,2.8-1.9c0.3,0,0.7,0.1,1,0.2s0.5,0.4,0.7,0.6
		c0.2,0.3,0.3,0.6,0.4,1s0.1,0.9,0.1,1.3L412.4,103.2z"/>
	<path class="st9" d="M416.2,103.3c-0.3,0-0.7,0-1-0.2c-0.3-0.1-0.5-0.3-0.8-0.5c-0.4-0.4-0.7-1-0.7-1.6c0-0.3,0.1-0.6,0.2-0.9
		c0.2-0.3,0.4-0.5,0.6-0.7c0.3-0.2,0.6-0.4,1-0.5s0.8-0.2,1.2-0.2c0.4,0,0.8,0.1,1.2,0.1c0.3,0.1,0.7,0.2,1,0.3v-0.7
		c0-0.6-0.2-1.1-0.5-1.5c-0.4-0.4-0.9-0.6-1.5-0.6c-0.4,0-0.8,0.1-1.1,0.2c-0.4,0.2-0.8,0.4-1.2,0.6l-0.3-0.6c0.8-0.6,1.7-1,2.7-1
		c0.8,0,1.6,0.2,2.2,0.8c0.5,0.6,0.8,1.3,0.8,2.1v3.4c0,0.3,0.1,0.4,0.4,0.4v0.8H420c-0.2,0-0.4-0.1-0.6-0.2
		c-0.1-0.1-0.2-0.3-0.2-0.5V102c-0.3,0.4-0.8,0.8-1.3,1S416.8,103.3,416.2,103.3z M416.4,102.6c0.5,0,0.9-0.1,1.4-0.3
		c0.4-0.2,0.7-0.4,0.9-0.7c0.1-0.1,0.1-0.2,0.2-0.3c0-0.1,0.1-0.2,0.1-0.3v-1.2c-0.3-0.1-0.7-0.2-1-0.3c-0.3-0.1-0.7-0.1-1-0.1
		c-0.6,0-1.1,0.1-1.6,0.4c-0.4,0.2-0.6,0.7-0.6,1.1c0,0.2,0,0.4,0.1,0.6s0.2,0.4,0.4,0.5c0.2,0.1,0.3,0.3,0.5,0.3
		C416,102.6,416.2,102.6,416.4,102.6z"/>
	<path class="st9" d="M428.1,103.2h-1v-4.1c0.1-0.7-0.1-1.3-0.4-1.9c-0.3-0.4-0.7-0.6-1.2-0.6c-0.3,0-0.6,0.1-0.8,0.2
		c-0.3,0.1-0.5,0.2-0.8,0.4c-0.2,0.2-0.5,0.4-0.6,0.7c-0.2,0.2-0.3,0.5-0.4,0.8v4.5h-1v-7.3h0.9v1.7c0.3-0.5,0.7-1,1.3-1.3
		c0.5-0.3,1.2-0.5,1.8-0.5c0.3,0,0.7,0.1,1,0.2s0.5,0.4,0.7,0.6c0.2,0.3,0.3,0.6,0.4,1s0.1,0.9,0.1,1.3V103.2z"/>
	<path class="st9" d="M433.2,103.3c-0.5,0-1-0.1-1.4-0.3c-0.4-0.2-0.8-0.5-1.1-0.8c-0.3-0.4-0.6-0.8-0.7-1.2
		c-0.2-0.5-0.3-0.9-0.3-1.4s0.1-1,0.3-1.5c0.2-0.4,0.4-0.9,0.7-1.2c0.3-0.3,0.6-0.6,1-0.8c0.4-0.2,0.9-0.3,1.3-0.3
		c0.6,0,1.2,0.2,1.6,0.5c0.5,0.3,0.8,0.7,1.1,1.2V93h1v9c0,0.3,0.1,0.4,0.3,0.4v0.8c-0.1,0-0.2,0-0.3,0c-0.2,0-0.4-0.1-0.6-0.2
		s-0.3-0.3-0.3-0.5v-0.7c-0.3,0.5-0.7,0.9-1.2,1.1C434.3,103.2,433.7,103.3,433.2,103.3z M433.4,102.5c0.3,0,0.5-0.1,0.8-0.1
		c0.3-0.1,0.5-0.2,0.8-0.4c0.2-0.2,0.4-0.4,0.6-0.6s0.3-0.5,0.3-0.7v-2.3c-0.1-0.3-0.2-0.5-0.4-0.7c-0.2-0.2-0.4-0.4-0.6-0.6
		s-0.5-0.3-0.7-0.4s-0.5-0.1-0.8-0.1c-0.4,0-0.7,0.1-1.1,0.3c-0.3,0.2-0.6,0.4-0.8,0.7c-0.2,0.3-0.4,0.6-0.5,0.9
		c-0.1,0.4-0.2,0.7-0.2,1.1s0.1,0.8,0.2,1.1c0.1,0.3,0.3,0.7,0.6,0.9c0.2,0.3,0.5,0.5,0.9,0.6C432.6,102.4,433,102.5,433.4,102.5z"
		/>
	<path class="st9" d="M440.7,103.3c-0.3,0-0.7,0-1-0.2c-0.3-0.1-0.5-0.3-0.8-0.5c-0.4-0.4-0.7-1-0.7-1.6c0-0.3,0.1-0.6,0.2-0.9
		c0.2-0.3,0.4-0.5,0.6-0.7c0.3-0.2,0.6-0.4,1-0.5s0.8-0.2,1.2-0.2c0.4,0,0.8,0,1.1,0.1c0.3,0.1,0.7,0.2,1,0.3v-0.7
		c0-0.6-0.2-1.1-0.5-1.5c-0.4-0.4-0.9-0.6-1.5-0.6c-0.4,0-0.8,0.1-1.1,0.2c-0.4,0.2-0.8,0.4-1.2,0.6l-0.3-0.6c0.8-0.6,1.7-1,2.7-1
		c0.8,0,1.6,0.2,2.2,0.8c0.5,0.6,0.8,1.3,0.8,2.1v3.4c0,0.3,0.1,0.4,0.4,0.4v0.8h-0.4c-0.2,0-0.4-0.1-0.6-0.2
		c-0.1-0.1-0.2-0.3-0.2-0.5V102c-0.3,0.4-0.8,0.8-1.3,1C441.8,103.2,441.3,103.3,440.7,103.3z M440.9,102.6c0.5,0,0.9-0.1,1.4-0.3
		c0.4-0.2,0.7-0.4,0.9-0.7c0.1-0.1,0.1-0.2,0.2-0.3c0-0.1,0.1-0.2,0.1-0.3v-1.2c-0.3-0.1-0.7-0.2-1-0.3c-0.3-0.1-0.7-0.1-1-0.1
		c-0.6,0-1.1,0.1-1.6,0.4c-0.4,0.2-0.6,0.7-0.6,1.1c0,0.2,0,0.4,0.1,0.6s0.2,0.4,0.4,0.5c0.2,0.1,0.3,0.3,0.5,0.3
		C440.5,102.6,440.7,102.6,440.9,102.6z"/>
	<path class="st9" d="M450,102.8l-0.3,0.1l-0.4,0.1l-0.5,0.1c-0.2,0-0.4,0.1-0.6,0.1s-0.4,0-0.6-0.1s-0.3-0.1-0.5-0.3
		c-0.1-0.1-0.3-0.3-0.3-0.4c-0.1-0.2-0.1-0.4-0.1-0.6v-5.2h-1v-0.8h1v-2.5h1v2.5h1.7v0.8h-1.7v5c0,0.2,0.1,0.4,0.3,0.6
		c0.2,0.1,0.4,0.2,0.6,0.2s0.5,0,0.7-0.1c0.1-0.1,0.3-0.1,0.4-0.2L450,102.8z"/>
	<path class="st9" d="M454.1,103.3c-0.5,0-1-0.1-1.5-0.3c-0.4-0.2-0.8-0.5-1.2-0.8c-0.3-0.4-0.6-0.8-0.8-1.2c-0.2-0.5-0.3-1-0.3-1.5
		s0.1-1,0.3-1.4c0.2-0.4,0.4-0.8,0.8-1.2c0.3-0.3,0.7-0.6,1.1-0.8c0.9-0.4,2-0.4,2.9,0c0.4,0.2,0.8,0.5,1.1,0.8c0.7,0.7,1,1.7,1,2.6
		v0.2c0,0,0,0.1,0,0.2h-6.2c0,0.4,0.1,0.7,0.3,1.1c0.1,0.3,0.3,0.6,0.6,0.9c0.2,0.2,0.5,0.4,0.8,0.6c0.3,0.1,0.7,0.2,1,0.2
		c0.2,0,0.5,0,0.7-0.1s0.4-0.2,0.6-0.3c0.2-0.1,0.4-0.2,0.5-0.4c0.2-0.2,0.3-0.3,0.4-0.5l0.8,0.2c-0.1,0.3-0.3,0.5-0.5,0.7
		s-0.4,0.4-0.7,0.6c-0.3,0.2-0.6,0.3-0.9,0.4C454.8,103.3,454.5,103.3,454.1,103.3z M456.8,99.2c0-0.7-0.4-1.4-0.9-1.9
		c-0.2-0.2-0.5-0.4-0.8-0.6c-0.3-0.1-0.7-0.2-1-0.2s-0.7,0.1-1,0.2s-0.6,0.3-0.8,0.6c-0.2,0.2-0.4,0.5-0.6,0.8
		c-0.1,0.3-0.2,0.7-0.3,1.1H456.8z"/>
	<path class="st9" d="M459,103.2v-1.4h0.8v1.4H459z"/>
	<path class="st10" d="M333.6,162.7h117.9c4.1,0,7.5,3.4,7.5,7.5v5.6c0,4.1-3.4,7.5-7.5,7.5H333.6c-4.1,0-7.5-3.4-7.5-7.5v-5.6
		C326.1,166.1,329.4,162.7,333.6,162.7z"/>
	<path class="st11" d="M372.9,168.6h0.6l3.2,7.8H376l-1-2.4h-3.5l-1,2.4h-0.8L372.9,168.6z M374.8,173.4l-1.6-3.9l-1.6,3.9H374.8z"
		/>
	<path class="st11" d="M379.9,176.5c-0.4,0-0.8-0.1-1.1-0.3c-0.3-0.2-0.6-0.4-0.9-0.6c-0.2-0.3-0.4-0.6-0.6-0.9
		c-0.1-0.4-0.2-0.7-0.2-1.1c0-0.4,0.1-0.8,0.2-1.1s0.3-0.7,0.5-0.9c0.2-0.3,0.5-0.5,0.8-0.6c0.3-0.2,0.7-0.2,1-0.2
		c0.5,0,0.9,0.1,1.3,0.4c0.4,0.2,0.7,0.6,0.9,0.9v-3.5h0.8v7c0,0.2,0.1,0.3,0.3,0.3v0.7h-0.3c-0.2,0-0.3-0.1-0.5-0.2
		c-0.1-0.1-0.2-0.3-0.2-0.4v-0.6c-0.2,0.4-0.5,0.7-0.9,0.9C380.7,176.4,380.3,176.5,379.9,176.5z M380.1,175.9c0.2,0,0.4,0,0.6-0.1
		s0.4-0.2,0.6-0.3s0.3-0.3,0.5-0.4c0.1-0.2,0.2-0.3,0.2-0.6v-1.8c-0.1-0.2-0.2-0.4-0.3-0.6c-0.1-0.2-0.3-0.3-0.5-0.5
		c-0.2-0.1-0.4-0.2-0.6-0.3s-0.4-0.1-0.6-0.1c-0.3,0-0.6,0.1-0.8,0.2c-0.2,0.1-0.5,0.3-0.6,0.5c-0.2,0.2-0.3,0.5-0.4,0.7
		c-0.1,0.3-0.1,0.6-0.1,0.9c0,0.6,0.2,1.2,0.6,1.6c0.2,0.2,0.4,0.4,0.7,0.5C379.5,175.8,379.8,175.9,380.1,175.9L380.1,175.9z"/>
	<path class="st11" d="M386.8,176.5c-0.4,0-0.8-0.1-1.1-0.3c-0.3-0.2-0.6-0.4-0.9-0.6c-0.2-0.3-0.4-0.6-0.6-0.9
		c-0.1-0.4-0.2-0.7-0.2-1.1c0-0.4,0.1-0.8,0.2-1.1s0.3-0.7,0.5-0.9c0.2-0.3,0.5-0.5,0.8-0.6c0.3-0.2,0.7-0.2,1-0.2
		c0.5,0,0.9,0.1,1.3,0.4c0.4,0.2,0.7,0.6,0.9,0.9v-3.5h0.8v7c0,0.2,0.1,0.3,0.3,0.3v0.7h-0.3c-0.2,0-0.3-0.1-0.5-0.2
		c-0.1-0.1-0.2-0.3-0.2-0.4v-0.6c-0.2,0.4-0.5,0.7-0.9,0.9C387.6,176.4,387.2,176.5,386.8,176.5z M386.9,175.9c0.2,0,0.4,0,0.6-0.1
		s0.4-0.2,0.6-0.3s0.3-0.3,0.5-0.4c0.1-0.2,0.2-0.3,0.2-0.6v-1.8c-0.1-0.2-0.2-0.4-0.3-0.6c-0.1-0.2-0.3-0.3-0.5-0.5
		c-0.2-0.1-0.4-0.2-0.6-0.3s-0.4-0.1-0.6-0.1c-0.3,0-0.6,0.1-0.8,0.2c-0.2,0.1-0.5,0.3-0.6,0.5c-0.2,0.2-0.3,0.5-0.4,0.7
		c-0.1,0.3-0.1,0.6-0.1,0.9c0,0.6,0.2,1.2,0.6,1.6c0.2,0.2,0.4,0.4,0.7,0.5C386.3,175.8,386.6,175.9,386.9,175.9L386.9,175.9z"/>
	<path class="st11" d="M393.6,173.6c0-0.4,0.1-0.8,0.2-1.1s0.3-0.7,0.6-0.9c0.3-0.3,0.6-0.5,0.9-0.6c0.4-0.2,0.8-0.2,1.2-0.2
		c0.5,0,1,0.1,1.4,0.4c0.4,0.2,0.7,0.6,0.9,1l-0.7,0.2c-0.2-0.3-0.4-0.5-0.7-0.7c-0.5-0.3-1.2-0.3-1.8-0.1c-0.2,0.1-0.5,0.3-0.7,0.5
		s-0.3,0.5-0.4,0.7c-0.2,0.6-0.2,1.2,0,1.8c0.1,0.3,0.3,0.5,0.5,0.7s0.4,0.4,0.7,0.5c0.3,0.1,0.5,0.2,0.8,0.2c0.2,0,0.4,0,0.5-0.1
		c0.2,0,0.3-0.1,0.5-0.2c0.1-0.1,0.3-0.2,0.4-0.3s0.2-0.2,0.2-0.4l0.7,0.2c-0.1,0.2-0.2,0.4-0.4,0.6c-0.2,0.2-0.3,0.3-0.5,0.4
		c-0.2,0.1-0.4,0.2-0.7,0.3c-0.3,0.1-0.5,0.1-0.8,0.1c-0.8,0-1.5-0.3-2.1-0.9c-0.3-0.3-0.5-0.6-0.6-0.9
		C393.7,174.3,393.6,174,393.6,173.6z"/>
	<path class="st11" d="M401.5,176.5c-0.3,0-0.5,0-0.8-0.1c-0.2-0.1-0.4-0.2-0.6-0.4c-0.3-0.3-0.5-0.8-0.5-1.3c0-0.2,0.1-0.5,0.2-0.7
		s0.3-0.4,0.5-0.6c0.2-0.2,0.5-0.3,0.8-0.4c0.3-0.1,0.7-0.1,1-0.1s0.6,0,0.9,0.1c0.3,0,0.5,0.1,0.8,0.2v-0.5c0-0.4-0.1-0.9-0.4-1.2
		s-0.7-0.5-1.2-0.4c-0.3,0-0.6,0.1-0.9,0.2c-0.3,0.1-0.6,0.3-0.9,0.5l-0.3-0.5c0.6-0.5,1.4-0.7,2.1-0.8c0.6,0,1.2,0.2,1.7,0.6
		c0.4,0.4,0.6,1.1,0.6,1.7v2.6c0,0.2,0.1,0.3,0.3,0.3v0.7h-0.3c-0.2,0-0.3,0-0.4-0.1s-0.2-0.2-0.2-0.4v-0.4c-0.3,0.3-0.6,0.6-1,0.8
		C402.4,176.4,401.9,176.5,401.5,176.5z M401.6,176c0.4,0,0.7-0.1,1.1-0.2c0.3-0.1,0.6-0.3,0.7-0.6c0.1-0.1,0.1-0.1,0.1-0.2
		c0-0.1,0-0.1,0-0.2v-0.9c-0.2-0.1-0.5-0.2-0.8-0.2c-0.3-0.1-0.5-0.1-0.8-0.1c-0.4,0-0.9,0.1-1.3,0.3c-0.3,0.2-0.5,0.5-0.5,0.9
		c0,0.2,0,0.3,0.1,0.5s0.2,0.3,0.3,0.4c0.1,0.1,0.3,0.2,0.4,0.3C401.2,176,401.4,176,401.6,176L401.6,176z"/>
	<path class="st11" d="M408.9,171.4c-0.5,0-0.9,0.2-1.3,0.4c-0.4,0.3-0.7,0.6-0.8,1.1v3.6H406v-5.7h0.7v1.4c0.2-0.4,0.5-0.7,0.9-1
		c0.3-0.2,0.7-0.4,1.1-0.4h0.1L408.9,171.4z"/>
	<path class="st11" d="M411.9,176.5c-0.4,0-0.8-0.1-1.1-0.3c-0.3-0.2-0.6-0.4-0.9-0.6c-0.2-0.3-0.4-0.6-0.6-0.9
		c-0.1-0.4-0.2-0.7-0.2-1.1c0-0.4,0.1-0.8,0.2-1.1s0.3-0.7,0.5-0.9c0.2-0.3,0.5-0.5,0.8-0.6c0.3-0.2,0.7-0.2,1-0.2
		c0.5,0,0.9,0.1,1.3,0.4c0.4,0.2,0.7,0.6,0.9,0.9v-3.5h0.8v7c0,0.2,0.1,0.3,0.3,0.3v0.7h-0.3c-0.2,0-0.3-0.1-0.5-0.2
		c-0.1-0.1-0.2-0.3-0.2-0.4v-0.6c-0.2,0.4-0.5,0.7-0.9,0.9C412.7,176.4,412.3,176.5,411.9,176.5z M412.1,175.9c0.2,0,0.4,0,0.6-0.1
		s0.4-0.2,0.6-0.3s0.3-0.3,0.5-0.4c0.1-0.2,0.2-0.3,0.2-0.6v-1.8c-0.1-0.2-0.2-0.4-0.3-0.6c-0.1-0.2-0.3-0.3-0.5-0.5
		c-0.2-0.1-0.4-0.2-0.6-0.3s-0.4-0.1-0.6-0.1c-0.3,0-0.6,0.1-0.8,0.2c-0.2,0.1-0.5,0.3-0.6,0.5c-0.2,0.2-0.3,0.5-0.4,0.7
		c-0.1,0.3-0.1,0.6-0.1,0.9c0,0.6,0.2,1.2,0.6,1.6c0.2,0.2,0.4,0.4,0.7,0.5C411.5,175.8,411.8,175.9,412.1,175.9L412.1,175.9z"/>
	<path class="st12" d="M333.6,285.7h117.9c4.1,0,7.5,3.4,7.5,7.5v5.5c0,4.1-3.4,7.5-7.5,7.5H333.6c-4.1,0-7.5-3.4-7.5-7.5v-5.5
		C326.1,289.1,329.4,285.7,333.6,285.7z"/>
	<path class="st11" d="M375.5,291.6h0.6l3.2,7.8h-0.8l-1-2.4H374l-1,2.4h-0.8L375.5,291.6z M377.4,296.4l-1.6-3.9l-1.6,3.9H377.4z"
		/>
	<path class="st11" d="M379.8,296.6c0-0.4,0.1-0.8,0.2-1.1c0.1-0.3,0.3-0.7,0.6-0.9c0.3-0.3,0.6-0.5,0.9-0.6
		c0.4-0.2,0.8-0.2,1.2-0.2c0.5,0,1,0.1,1.4,0.4c0.4,0.2,0.7,0.6,0.9,1l-0.7,0.2c-0.2-0.3-0.4-0.5-0.7-0.7c-0.5-0.3-1.2-0.3-1.8-0.1
		c-0.2,0.1-0.5,0.3-0.7,0.5s-0.3,0.5-0.4,0.7c-0.2,0.6-0.2,1.2,0,1.8c0.1,0.3,0.3,0.5,0.5,0.7s0.4,0.4,0.7,0.5
		c0.3,0.1,0.5,0.2,0.8,0.2c0.2,0,0.4,0,0.5-0.1c0.2,0,0.3-0.1,0.5-0.2c0.1-0.1,0.3-0.2,0.4-0.3c0.1-0.1,0.2-0.2,0.2-0.4l0.7,0.2
		c-0.1,0.2-0.2,0.4-0.4,0.6c-0.2,0.2-0.3,0.3-0.5,0.5c-0.2,0.1-0.4,0.2-0.7,0.3c-0.3,0.1-0.5,0.1-0.8,0.1c-0.8,0-1.5-0.3-2.1-0.9
		c-0.3-0.3-0.5-0.6-0.6-1C379.8,297.4,379.7,297,379.8,296.6z"/>
	<path class="st11" d="M388.9,299.2l-0.2,0.1l-0.3,0.1l-0.4,0.1c-0.1,0-0.3,0-0.4,0c-0.2,0-0.3,0-0.5-0.1c-0.1,0-0.3-0.1-0.4-0.2
		s-0.2-0.2-0.3-0.3c-0.1-0.2-0.1-0.3-0.1-0.5v-4.1h-0.8v-0.6h0.8v-1.9h0.8v1.9h1.3v0.6h-1.3v3.9c0,0.2,0.1,0.4,0.2,0.5
		s0.3,0.2,0.5,0.1c0.2,0,0.4,0,0.6-0.1l0.3-0.1L388.9,299.2z"/>
	<path class="st11" d="M389.9,292.5v-1.1h0.8v1.1H389.9z M389.9,299.4v-5.7h0.8v5.7H389.9z"/>
	<path class="st11" d="M394,299.4l-2.3-5.7h0.8l2,5l2-5h0.7l-2.3,5.7H394z"/>
	<path class="st11" d="M399.4,299.5c-0.3,0-0.5,0-0.8-0.1c-0.2-0.1-0.4-0.2-0.6-0.4c-0.3-0.3-0.5-0.8-0.5-1.3c0-0.2,0.1-0.5,0.2-0.7
		s0.3-0.4,0.5-0.5c0.2-0.2,0.5-0.3,0.8-0.4s0.7-0.1,1-0.1s0.6,0,0.9,0.1c0.3,0,0.5,0.1,0.8,0.2v-0.5c0-0.4-0.1-0.9-0.4-1.2
		c-0.3-0.3-0.7-0.5-1.2-0.4c-0.3,0-0.6,0.1-0.9,0.2s-0.6,0.3-0.9,0.5l-0.3-0.5c0.6-0.5,1.4-0.7,2.1-0.8c0.6,0,1.2,0.2,1.7,0.6
		c0.4,0.4,0.6,1.1,0.6,1.7v2.6c0,0.2,0.1,0.3,0.3,0.3v0.7h-0.3c-0.2,0-0.3,0-0.4-0.1s-0.2-0.2-0.2-0.4v-0.5c-0.3,0.3-0.6,0.6-1,0.8
		C400.3,299.4,399.8,299.5,399.4,299.5z M399.5,299c0.4,0,0.7-0.1,1.1-0.2c0.3-0.1,0.6-0.3,0.7-0.6c0.1-0.1,0.1-0.1,0.1-0.2
		s0-0.1,0-0.2v-0.9c-0.2-0.1-0.5-0.2-0.8-0.2c-0.3-0.1-0.5-0.1-0.8-0.1c-0.4,0-0.9,0.1-1.3,0.3c-0.3,0.2-0.5,0.5-0.5,0.9
		c0,0.2,0,0.3,0.1,0.5s0.2,0.3,0.3,0.4c0.1,0.1,0.3,0.2,0.4,0.3C399.1,299,399.3,299,399.5,299L399.5,299z"/>
	<path class="st11" d="M406.6,299.2l-0.2,0.1l-0.3,0.1l-0.4,0.1c-0.1,0-0.3,0-0.4,0c-0.2,0-0.3,0-0.5-0.1c-0.1,0-0.3-0.1-0.4-0.2
		s-0.2-0.2-0.3-0.3c-0.1-0.2-0.1-0.3-0.1-0.5v-4.1h-0.8v-0.6h0.8v-1.9h0.8v1.9h1.3v0.6h-1.3v3.9c0,0.2,0.1,0.4,0.2,0.5
		s0.3,0.2,0.5,0.1c0.2,0,0.4,0,0.6-0.1l0.3-0.1L406.6,299.2z"/>
	<path class="st11" d="M409.9,299.5c-0.4,0-0.8-0.1-1.1-0.2c-0.3-0.2-0.6-0.4-0.9-0.6c-0.3-0.3-0.5-0.6-0.6-1s-0.2-0.8-0.2-1.1
		c0-0.4,0.1-0.8,0.2-1.1c0.1-0.3,0.3-0.7,0.6-0.9c0.3-0.3,0.6-0.5,0.9-0.6c1.1-0.5,2.4-0.2,3.2,0.6c0.5,0.5,0.8,1.3,0.8,2v0.2v0.1
		h-4.9c0,0.3,0.1,0.6,0.2,0.9c0.1,0.2,0.3,0.5,0.5,0.7s0.4,0.3,0.6,0.4s0.5,0.2,0.8,0.2c0.2,0,0.4,0,0.5-0.1c0.2,0,0.3-0.1,0.5-0.2
		s0.3-0.2,0.4-0.3c0.1-0.1,0.2-0.3,0.3-0.4l0.6,0.2c-0.1,0.2-0.2,0.4-0.4,0.6c-0.2,0.2-0.4,0.3-0.6,0.5c-0.2,0.1-0.5,0.2-0.7,0.3
		C410.4,299.5,410.1,299.5,409.9,299.5z M412,296.3c0-0.3-0.1-0.6-0.2-0.8c-0.1-0.2-0.3-0.5-0.5-0.6c-0.2-0.2-0.4-0.3-0.6-0.4
		s-0.5-0.2-0.8-0.1c-0.5,0-1.1,0.2-1.4,0.6c-0.2,0.2-0.3,0.4-0.5,0.7c-0.1,0.3-0.2,0.5-0.2,0.8h4.2V296.3z"/>
	<path class="st10" d="M334.6,201.8h117.9c4.1,0,7.5,3.4,7.5,7.5v5.6c0,4.1-3.4,7.5-7.5,7.5H334.6c-4.1,0-7.5-3.4-7.5-7.5v-5.6
		C327.1,205.2,330.4,201.8,334.6,201.8z"/>
	<path class="st11" d="M373.9,207.8h0.6l3.2,7.8H377l-1-2.4h-3.5l-1,2.4h-0.8L373.9,207.8z M375.8,212.5l-1.6-3.9l-1.6,3.9H375.8z"
		/>
	<path class="st11" d="M380.9,215.7c-0.4,0-0.8-0.1-1.1-0.3c-0.3-0.2-0.6-0.4-0.9-0.6c-0.2-0.3-0.4-0.6-0.6-0.9
		c-0.1-0.4-0.2-0.7-0.2-1.1c0-0.4,0.1-0.8,0.2-1.1s0.3-0.7,0.5-0.9c0.2-0.3,0.5-0.5,0.8-0.6c0.3-0.2,0.7-0.2,1-0.2
		c0.5,0,0.9,0.1,1.3,0.4c0.4,0.2,0.7,0.6,0.9,0.9v-3.5h0.8v7c0,0.2,0.1,0.3,0.3,0.3v0.7h-0.3c-0.2,0-0.3-0.1-0.5-0.2
		c-0.1-0.1-0.2-0.3-0.2-0.4v-0.6c-0.2,0.4-0.5,0.7-0.9,0.9C381.7,215.5,381.3,215.6,380.9,215.7z M381.1,215c0.2,0,0.4,0,0.6-0.1
		s0.4-0.2,0.6-0.3s0.3-0.3,0.5-0.4c0.1-0.2,0.2-0.3,0.2-0.6v-1.8c-0.1-0.2-0.2-0.4-0.3-0.6c-0.1-0.2-0.3-0.3-0.5-0.5
		c-0.2-0.1-0.4-0.2-0.6-0.3s-0.4-0.1-0.6-0.1c-0.3,0-0.6,0.1-0.8,0.2c-0.2,0.1-0.5,0.3-0.6,0.5c-0.2,0.2-0.3,0.5-0.4,0.7
		c-0.1,0.3-0.1,0.6-0.1,0.9c0,0.6,0.2,1.2,0.6,1.6c0.2,0.2,0.4,0.4,0.7,0.5C380.5,215,380.8,215,381.1,215L381.1,215z"/>
	<path class="st11" d="M387.8,215.7c-0.4,0-0.8-0.1-1.1-0.3c-0.3-0.2-0.6-0.4-0.9-0.6c-0.2-0.3-0.4-0.6-0.6-0.9
		c-0.1-0.4-0.2-0.7-0.2-1.1c0-0.4,0.1-0.8,0.2-1.1s0.3-0.7,0.5-0.9c0.2-0.3,0.5-0.5,0.8-0.6c0.3-0.2,0.7-0.2,1-0.2
		c0.5,0,0.9,0.1,1.3,0.4c0.4,0.2,0.7,0.6,0.9,0.9v-3.5h0.8v7c0,0.2,0.1,0.3,0.3,0.3v0.7h-0.3c-0.2,0-0.3-0.1-0.5-0.2
		c-0.1-0.1-0.2-0.3-0.2-0.4v-0.6c-0.2,0.4-0.5,0.7-0.9,0.9C388.6,215.5,388.2,215.6,387.8,215.7z M387.9,215c0.2,0,0.4,0,0.6-0.1
		s0.4-0.2,0.6-0.3s0.3-0.3,0.5-0.4c0.1-0.2,0.2-0.3,0.2-0.6v-1.8c-0.1-0.2-0.2-0.4-0.3-0.6c-0.1-0.2-0.3-0.3-0.5-0.5
		c-0.2-0.1-0.4-0.2-0.6-0.3s-0.4-0.1-0.6-0.1c-0.3,0-0.6,0.1-0.8,0.2c-0.2,0.1-0.5,0.3-0.6,0.5c-0.2,0.2-0.3,0.5-0.4,0.7
		c-0.1,0.3-0.1,0.6-0.1,0.9c0,0.6,0.2,1.2,0.6,1.6c0.2,0.2,0.4,0.4,0.7,0.5C387.3,215,387.6,215,387.9,215L387.9,215z"/>
	<path class="st11" d="M394.6,212.7c0-0.4,0.1-0.8,0.2-1.1s0.3-0.7,0.6-0.9c0.3-0.3,0.6-0.5,0.9-0.6c0.4-0.2,0.8-0.2,1.2-0.2
		c0.5,0,1,0.1,1.4,0.4c0.4,0.2,0.7,0.6,0.9,1l-0.7,0.2c-0.2-0.3-0.4-0.5-0.7-0.7c-0.5-0.3-1.2-0.3-1.8-0.1c-0.2,0.1-0.5,0.3-0.7,0.5
		s-0.3,0.5-0.4,0.7c-0.2,0.6-0.2,1.2,0,1.8c0.1,0.3,0.3,0.5,0.5,0.7s0.4,0.4,0.7,0.5c0.3,0.1,0.5,0.2,0.8,0.2c0.2,0,0.4,0,0.5-0.1
		c0.2,0,0.3-0.1,0.5-0.2c0.1-0.1,0.3-0.2,0.4-0.3s0.2-0.2,0.2-0.4l0.7,0.2c-0.1,0.2-0.2,0.4-0.4,0.6c-0.2,0.2-0.3,0.3-0.5,0.4
		c-0.2,0.1-0.4,0.2-0.7,0.3c-0.3,0.1-0.5,0.1-0.8,0.1c-0.8,0-1.5-0.3-2.1-0.9c-0.3-0.3-0.5-0.6-0.6-0.9
		C394.7,213.5,394.6,213.1,394.6,212.7z"/>
	<path class="st11" d="M402.5,215.7c-0.3,0-0.5,0-0.8-0.1c-0.2-0.1-0.4-0.2-0.6-0.4c-0.3-0.3-0.5-0.8-0.5-1.3c0-0.2,0.1-0.5,0.2-0.7
		s0.3-0.4,0.5-0.6c0.2-0.2,0.5-0.3,0.8-0.4c0.3-0.1,0.7-0.1,1-0.1s0.6,0,0.9,0.1c0.3,0,0.5,0.1,0.8,0.2V212c0-0.4-0.1-0.9-0.4-1.2
		s-0.7-0.5-1.2-0.4c-0.3,0-0.6,0.1-0.9,0.2c-0.3,0.1-0.6,0.3-0.9,0.5l-0.3-0.5c0.6-0.5,1.4-0.7,2.1-0.8c0.6,0,1.2,0.2,1.7,0.6
		c0.4,0.4,0.6,1.1,0.6,1.7v2.6c0,0.2,0.1,0.3,0.3,0.3v0.7h-0.3c-0.2,0-0.3,0-0.4-0.1s-0.2-0.2-0.2-0.4v-0.4c-0.3,0.3-0.6,0.6-1,0.8
		C403.4,215.6,402.9,215.7,402.5,215.7z M402.6,215.1c0.4,0,0.7-0.1,1.1-0.2c0.3-0.1,0.6-0.3,0.7-0.6c0.1-0.1,0.1-0.1,0.1-0.2
		c0-0.1,0-0.1,0-0.2V213c-0.2-0.1-0.5-0.2-0.8-0.2c-0.3-0.1-0.5-0.1-0.8-0.1c-0.4,0-0.9,0.1-1.3,0.3c-0.3,0.2-0.5,0.5-0.5,0.9
		c0,0.2,0,0.3,0.1,0.5s0.2,0.3,0.3,0.4c0.1,0.1,0.3,0.2,0.4,0.3C402.2,215.1,402.4,215.1,402.6,215.1L402.6,215.1z"/>
	<path class="st11" d="M409.9,210.5c-0.5,0-0.9,0.2-1.3,0.4c-0.4,0.3-0.7,0.6-0.8,1.1v3.6H407v-5.7h0.7v1.4c0.2-0.4,0.5-0.7,0.9-1
		c0.3-0.2,0.7-0.4,1.1-0.4h0.1L409.9,210.5z"/>
	<path class="st11" d="M412.9,215.7c-0.4,0-0.8-0.1-1.1-0.3c-0.3-0.2-0.6-0.4-0.9-0.6c-0.2-0.3-0.4-0.6-0.6-0.9
		c-0.1-0.4-0.2-0.7-0.2-1.1c0-0.4,0.1-0.8,0.2-1.1s0.3-0.7,0.5-0.9c0.2-0.3,0.5-0.5,0.8-0.6c0.3-0.2,0.7-0.2,1-0.2
		c0.5,0,0.9,0.1,1.3,0.4c0.4,0.2,0.7,0.6,0.9,0.9v-3.5h0.8v7c0,0.2,0.1,0.3,0.3,0.3v0.7h-0.3c-0.2,0-0.3-0.1-0.5-0.2
		c-0.1-0.1-0.2-0.3-0.2-0.4v-0.6c-0.2,0.4-0.5,0.7-0.9,0.9C413.7,215.5,413.3,215.6,412.9,215.7z M413.1,215c0.2,0,0.4,0,0.6-0.1
		s0.4-0.2,0.6-0.3s0.3-0.3,0.5-0.4c0.1-0.2,0.2-0.3,0.2-0.6v-1.8c-0.1-0.2-0.2-0.4-0.3-0.6c-0.1-0.2-0.3-0.3-0.5-0.5
		c-0.2-0.1-0.4-0.2-0.6-0.3s-0.4-0.1-0.6-0.1c-0.3,0-0.6,0.1-0.8,0.2c-0.2,0.1-0.5,0.3-0.6,0.5c-0.2,0.2-0.3,0.5-0.4,0.7
		c-0.1,0.3-0.1,0.6-0.1,0.9c0,0.6,0.2,1.2,0.6,1.6c0.2,0.2,0.4,0.4,0.7,0.5C412.5,215,412.8,215,413.1,215L413.1,215z"/>
	<path class="st10" d="M333.6,236.8h117.9c4.1,0,7.5,3.4,7.5,7.5v5.5c0,4.1-3.4,7.5-7.5,7.5H333.6c-4.1,0-7.5-3.4-7.5-7.5v-5.5
		C326.1,240.2,329.4,236.8,333.6,236.8z"/>
	<path class="st11" d="M372.9,242.8h0.6l3.2,7.8H376l-1-2.4h-3.5l-1,2.4h-0.8L372.9,242.8z M374.8,247.5l-1.6-3.9l-1.6,3.9H374.8z"
		/>
	<path class="st11" d="M379.9,250.7c-0.4,0-0.8-0.1-1.1-0.3c-0.3-0.2-0.6-0.4-0.9-0.6c-0.2-0.3-0.4-0.6-0.6-0.9
		c-0.1-0.4-0.2-0.7-0.2-1.1c0-0.4,0.1-0.8,0.2-1.1s0.3-0.7,0.5-0.9c0.2-0.3,0.5-0.5,0.8-0.6c0.3-0.2,0.7-0.2,1-0.2
		c0.5,0,0.9,0.1,1.3,0.4c0.4,0.2,0.7,0.6,0.9,0.9v-3.5h0.8v7c0,0.2,0.1,0.3,0.3,0.3v0.7h-0.3c-0.2,0-0.3-0.1-0.5-0.2
		c-0.1-0.1-0.2-0.3-0.2-0.4v-0.6c-0.2,0.4-0.5,0.7-0.9,0.9C380.7,250.5,380.3,250.6,379.9,250.7z M380.1,250c0.2,0,0.4,0,0.6-0.1
		s0.4-0.2,0.6-0.3s0.3-0.3,0.5-0.4c0.1-0.2,0.2-0.3,0.2-0.6v-1.8c-0.1-0.2-0.2-0.4-0.3-0.6c-0.1-0.2-0.3-0.3-0.5-0.5
		c-0.2-0.1-0.4-0.2-0.6-0.3s-0.4-0.1-0.6-0.1c-0.3,0-0.6,0.1-0.8,0.2c-0.2,0.1-0.5,0.3-0.6,0.5c-0.2,0.2-0.3,0.5-0.4,0.7
		c-0.1,0.3-0.1,0.6-0.1,0.9c0,0.6,0.2,1.2,0.6,1.6c0.2,0.2,0.4,0.4,0.7,0.5C379.5,250,379.8,250,380.1,250L380.1,250z"/>
	<path class="st11" d="M386.8,250.7c-0.4,0-0.8-0.1-1.1-0.3c-0.3-0.2-0.6-0.4-0.9-0.6c-0.2-0.3-0.4-0.6-0.6-0.9
		c-0.1-0.4-0.2-0.7-0.2-1.1c0-0.4,0.1-0.8,0.2-1.1s0.3-0.7,0.5-0.9c0.2-0.3,0.5-0.5,0.8-0.6c0.3-0.2,0.7-0.2,1-0.2
		c0.5,0,0.9,0.1,1.3,0.4c0.4,0.2,0.7,0.6,0.9,0.9v-3.5h0.8v7c0,0.2,0.1,0.3,0.3,0.3v0.7h-0.3c-0.2,0-0.3-0.1-0.5-0.2
		c-0.1-0.1-0.2-0.3-0.2-0.4v-0.6c-0.2,0.4-0.5,0.7-0.9,0.9C387.6,250.5,387.2,250.6,386.8,250.7z M386.9,250c0.2,0,0.4,0,0.6-0.1
		s0.4-0.2,0.6-0.3s0.3-0.3,0.5-0.4c0.1-0.2,0.2-0.3,0.2-0.6v-1.8c-0.1-0.2-0.2-0.4-0.3-0.6c-0.1-0.2-0.3-0.3-0.5-0.5
		c-0.2-0.1-0.4-0.2-0.6-0.3s-0.4-0.1-0.6-0.1c-0.3,0-0.6,0.1-0.8,0.2c-0.2,0.1-0.5,0.3-0.6,0.5c-0.2,0.2-0.3,0.5-0.4,0.7
		c-0.1,0.3-0.1,0.6-0.1,0.9c0,0.6,0.2,1.2,0.6,1.6c0.2,0.2,0.4,0.4,0.7,0.5C386.3,250,386.6,250,386.9,250L386.9,250z"/>
	<path class="st11" d="M393.6,247.7c0-0.4,0.1-0.8,0.2-1.1s0.3-0.7,0.6-0.9c0.3-0.3,0.6-0.5,0.9-0.6c0.4-0.2,0.8-0.2,1.2-0.2
		c0.5,0,1,0.1,1.4,0.4c0.4,0.2,0.7,0.6,0.9,1l-0.7,0.2c-0.2-0.3-0.4-0.5-0.7-0.7c-0.5-0.3-1.2-0.3-1.8-0.1c-0.2,0.1-0.5,0.3-0.7,0.5
		s-0.3,0.5-0.4,0.7c-0.2,0.6-0.2,1.2,0,1.8c0.1,0.3,0.3,0.5,0.5,0.7s0.4,0.4,0.7,0.5c0.3,0.1,0.5,0.2,0.8,0.2c0.2,0,0.4,0,0.5-0.1
		c0.2,0,0.3-0.1,0.5-0.2c0.1-0.1,0.3-0.2,0.4-0.3s0.2-0.2,0.2-0.4l0.7,0.2c-0.1,0.2-0.2,0.4-0.4,0.6c-0.2,0.2-0.3,0.3-0.5,0.4
		c-0.2,0.1-0.4,0.2-0.7,0.3c-0.3,0.1-0.5,0.1-0.8,0.1c-0.8,0-1.5-0.3-2.1-0.9c-0.3-0.3-0.5-0.6-0.6-0.9
		C393.7,248.5,393.6,248.1,393.6,247.7z"/>
	<path class="st11" d="M401.5,250.7c-0.3,0-0.5,0-0.8-0.1c-0.2-0.1-0.4-0.2-0.6-0.4c-0.3-0.3-0.5-0.8-0.5-1.3c0-0.2,0.1-0.5,0.2-0.7
		s0.3-0.4,0.5-0.6c0.2-0.2,0.5-0.3,0.8-0.4c0.3-0.1,0.7-0.1,1-0.1s0.6,0,0.9,0.1c0.3,0,0.5,0.1,0.8,0.2V247c0-0.4-0.1-0.9-0.4-1.2
		s-0.7-0.5-1.2-0.4c-0.3,0-0.6,0.1-0.9,0.2c-0.3,0.1-0.6,0.3-0.9,0.5l-0.3-0.5c0.6-0.5,1.4-0.7,2.1-0.8c0.6,0,1.2,0.2,1.7,0.6
		c0.4,0.4,0.6,1.1,0.6,1.7v2.6c0,0.2,0.1,0.3,0.3,0.3v0.7h-0.3c-0.2,0-0.3,0-0.4-0.1s-0.2-0.2-0.2-0.4v-0.4c-0.3,0.3-0.6,0.6-1,0.8
		C402.4,250.6,401.9,250.7,401.5,250.7z M401.6,250.1c0.4,0,0.7-0.1,1.1-0.2c0.3-0.1,0.6-0.3,0.7-0.6c0.1-0.1,0.1-0.1,0.1-0.2
		c0-0.1,0-0.1,0-0.2V248c-0.2-0.1-0.5-0.2-0.8-0.2c-0.3-0.1-0.5-0.1-0.8-0.1c-0.4,0-0.9,0.1-1.3,0.3c-0.3,0.2-0.5,0.5-0.5,0.9
		c0,0.2,0,0.3,0.1,0.5s0.2,0.3,0.3,0.4c0.1,0.1,0.3,0.2,0.4,0.3C401.2,250.1,401.4,250.1,401.6,250.1L401.6,250.1z"/>
	<path class="st11" d="M408.9,245.5c-0.5,0-0.9,0.2-1.3,0.4c-0.4,0.3-0.7,0.6-0.8,1.1v3.6H406v-5.7h0.7v1.4c0.2-0.4,0.5-0.7,0.9-1
		c0.3-0.2,0.7-0.4,1.1-0.4h0.1L408.9,245.5z"/>
	<path class="st11" d="M411.9,250.7c-0.4,0-0.8-0.1-1.1-0.3c-0.3-0.2-0.6-0.4-0.9-0.6c-0.2-0.3-0.4-0.6-0.6-0.9
		c-0.1-0.4-0.2-0.7-0.2-1.1c0-0.4,0.1-0.8,0.2-1.1s0.3-0.7,0.5-0.9c0.2-0.3,0.5-0.5,0.8-0.6c0.3-0.2,0.7-0.2,1-0.2
		c0.5,0,0.9,0.1,1.3,0.4c0.4,0.2,0.7,0.6,0.9,0.9v-3.5h0.8v7c0,0.2,0.1,0.3,0.3,0.3v0.7h-0.3c-0.2,0-0.3-0.1-0.5-0.2
		c-0.1-0.1-0.2-0.3-0.2-0.4v-0.6c-0.2,0.4-0.5,0.7-0.9,0.9C412.7,250.5,412.3,250.6,411.9,250.7z M412.1,250c0.2,0,0.4,0,0.6-0.1
		s0.4-0.2,0.6-0.3s0.3-0.3,0.5-0.4c0.1-0.2,0.2-0.3,0.2-0.6v-1.8c-0.1-0.2-0.2-0.4-0.3-0.6c-0.1-0.2-0.3-0.3-0.5-0.5
		c-0.2-0.1-0.4-0.2-0.6-0.3s-0.4-0.1-0.6-0.1c-0.3,0-0.6,0.1-0.8,0.2c-0.2,0.1-0.5,0.3-0.6,0.5c-0.2,0.2-0.3,0.5-0.4,0.7
		c-0.1,0.3-0.1,0.6-0.1,0.9c0,0.6,0.2,1.2,0.6,1.6c0.2,0.2,0.4,0.4,0.7,0.5C411.5,250,411.8,250,412.1,250L412.1,250z"/>
	<path class="st8" d="M213.3,251.6c-0.7,0-1.3-0.1-1.9-0.4c-0.6-0.3-1.1-0.7-1.5-1.1c-0.4-0.5-0.8-1-1-1.6s-0.3-1.2-0.3-1.9
		s0.1-1.3,0.4-1.9c0.2-0.6,0.6-1.1,1-1.6s0.9-0.8,1.5-1.1s1.2-0.4,1.9-0.4s1.3,0.1,1.9,0.4c0.6,0.3,1.1,0.7,1.5,1.2s0.7,1,0.9,1.6
		s0.3,1.2,0.3,1.8c0,0.7-0.1,1.3-0.4,1.9c-0.2,0.6-0.6,1.1-1,1.6s-0.9,0.8-1.5,1.1C214.5,251.5,213.9,251.6,213.3,251.6z
		 M209.6,246.6c0,0.5,0.1,1.1,0.3,1.6s0.4,0.9,0.8,1.3c0.3,0.4,0.7,0.7,1.2,0.9c0.9,0.5,2.1,0.5,3,0c0.5-0.2,0.8-0.6,1.2-1
		c0.3-0.4,0.6-0.8,0.7-1.3c0.4-1,0.4-2.1,0-3.1c-0.2-0.5-0.4-0.9-0.8-1.3c-0.3-0.4-0.7-0.7-1.2-0.9s-1-0.3-1.5-0.3s-1.1,0.1-1.5,0.4
		c-0.4,0.2-0.8,0.6-1.2,0.9c-0.3,0.4-0.6,0.8-0.7,1.3C209.7,245.5,209.6,246,209.6,246.6L209.6,246.6z"/>
	<path class="st8" d="M223.1,251.2l-0.3,0.1l-0.4,0.1l-0.5,0.1c-0.2,0-0.4,0.1-0.6,0.1c-0.2,0-0.4,0-0.6-0.1
		c-0.2-0.1-0.3-0.1-0.5-0.3c-0.1-0.1-0.3-0.3-0.3-0.4c-0.1-0.2-0.1-0.4-0.1-0.6V245h-1v-0.8h1v-2.5h1v2.5h1.7v0.8h-1.7v5
		c0,0.2,0.1,0.4,0.3,0.6c0.2,0.1,0.4,0.2,0.6,0.2c0.2,0,0.5,0,0.7-0.1c0.1-0.1,0.3-0.1,0.4-0.2L223.1,251.2z"/>
	<path class="st8" d="M230.4,251.5h-1v-4.1c0-0.6-0.1-1.3-0.4-1.9c-0.3-0.4-0.8-0.6-1.3-0.6c-0.3,0-0.5,0.1-0.8,0.2
		c-0.3,0.1-0.5,0.3-0.8,0.4c-0.2,0.2-0.4,0.4-0.6,0.7c-0.2,0.3-0.3,0.5-0.4,0.8v4.5h-1v-10.2h1v4.6c0.3-0.5,0.7-1,1.2-1.3
		s1.1-0.5,1.7-0.5c0.4,0,0.7,0.1,1.1,0.2c0.3,0.2,0.5,0.4,0.7,0.6c0.2,0.3,0.3,0.6,0.4,1c0.1,0.4,0.1,0.8,0.1,1.3L230.4,251.5z"/>
	<path class="st8" d="M235.6,251.7c-0.5,0-1-0.1-1.5-0.3c-0.4-0.2-0.8-0.5-1.2-0.8c-0.3-0.4-0.6-0.8-0.8-1.2c-0.2-0.5-0.3-1-0.3-1.5
		s0.1-1,0.3-1.4s0.4-0.8,0.8-1.2c0.3-0.3,0.7-0.6,1.2-0.8c1.4-0.6,3-0.3,4.1,0.8c0.7,0.7,1,1.7,1,2.6v0.2v0.1H233
		c0,0.4,0.1,0.7,0.3,1.1c0.1,0.3,0.3,0.6,0.6,0.9c0.2,0.2,0.5,0.4,0.8,0.6c0.3,0.1,0.7,0.2,1,0.2c0.2,0,0.5,0,0.7-0.1
		s0.4-0.2,0.6-0.3c0.2-0.1,0.4-0.2,0.5-0.4c0.2-0.2,0.3-0.3,0.4-0.5l0.8,0.2c-0.1,0.3-0.3,0.5-0.5,0.7s-0.4,0.4-0.7,0.6
		c-0.3,0.2-0.6,0.3-0.9,0.4C236.3,251.6,235.9,251.7,235.6,251.7z M238.3,247.5c0-0.7-0.3-1.4-0.9-1.9c-0.2-0.2-0.5-0.4-0.8-0.6
		c-0.3-0.1-0.7-0.2-1-0.2s-0.7,0.1-1,0.2c-0.3,0.1-0.6,0.3-0.8,0.6c-0.2,0.2-0.4,0.5-0.6,0.8c-0.1,0.3-0.2,0.7-0.3,1.1L238.3,247.5
		L238.3,247.5z"/>
	<path class="st8" d="M244.3,245.1c-0.6,0-1.2,0.2-1.7,0.5s-0.8,0.8-1,1.4v4.5h-1v-7.3h0.9v1.8c0.2-0.5,0.6-1,1.1-1.3
		c0.4-0.3,0.9-0.5,1.5-0.5h0.2V245.1z"/>
	<path class="st8" d="M248,251.7c-0.6,0-1.1-0.1-1.7-0.3c-0.5-0.2-1-0.4-1.4-0.8l0.4-0.6c0.4,0.3,0.8,0.6,1.3,0.8
		c0.4,0.2,0.9,0.3,1.4,0.3s1-0.1,1.4-0.4c0.3-0.2,0.5-0.6,0.5-1c0-0.2,0-0.4-0.1-0.5s-0.2-0.3-0.4-0.4c-0.2-0.1-0.5-0.2-0.7-0.3
		l-1-0.3c-0.4-0.1-0.8-0.2-1.1-0.3s-0.5-0.2-0.8-0.4c-0.2-0.1-0.3-0.3-0.4-0.5c-0.1-0.2-0.2-0.5-0.1-0.7c0-0.3,0.1-0.7,0.2-1
		c0.1-0.3,0.3-0.5,0.6-0.7s0.6-0.3,0.9-0.4c0.3-0.1,0.7-0.1,1.1-0.1c0.5,0,1,0.1,1.5,0.3c0.4,0.2,0.8,0.4,1.1,0.7l-0.5,0.6
		c-0.3-0.3-0.6-0.5-1-0.6s-0.8-0.2-1.2-0.2c-0.2,0-0.5,0-0.7,0.1c-0.2,0-0.4,0.1-0.6,0.3c-0.2,0.1-0.3,0.3-0.4,0.4
		c-0.1,0.2-0.1,0.4-0.1,0.6c0,0.2,0,0.3,0.1,0.5c0.1,0.1,0.2,0.2,0.3,0.3c0.2,0.1,0.4,0.2,0.6,0.2c0.2,0.1,0.5,0.1,0.8,0.2
		s0.9,0.2,1.2,0.3s0.6,0.2,0.9,0.4c0.2,0.1,0.4,0.3,0.5,0.6c0.1,0.2,0.2,0.5,0.2,0.8c0,0.6-0.3,1.2-0.8,1.6
		C249.4,251.5,248.7,251.7,248,251.7z"/>
	<ellipse transform="matrix(0.5299 -0.848 0.848 0.5299 -11.3452 39.5383)" class="st7" cx="30" cy="30" rx="30" ry="30"/>
	<path class="st0" d="M22.6,29.5l10.5-10.3h2.5l-1.8,10.1h2.4l-0.4,2.1h-2.4l-0.7,4.3h-2.2l0.7-4.3h-8.9L22.6,29.5z M25.7,29.3h5.9
		l1.2-6.9L25.7,29.3z"/>
</g>
</svg>
