<svg xmlns="http://www.w3.org/2000/svg" viewBox="0 0 133.41 23.79"><defs><style>.cls-1{fill:#fff;stroke:#b4b4b4;stroke-miterlimit:10;stroke-width:.5px}.cls-2{fill:#898989}</style></defs><title>settings1</title><g id="Layer_2" data-name="Layer 2"><g id="Layer_1-2" data-name="Layer 1"><rect class="cls-1" x=".25" y=".25" width="132.91" height="23.29" rx="7.5" ry="7.5"/><path class="cls-2" d="M18.86 8.26h-2.77v7.1h-.77v-7.1h-2.77v-.68h6.31zm2.19 7.21a2.71 2.71 0 0 1-1.14-.24 2.81 2.81 0 0 1-.89-.64 2.88 2.88 0 0 1-.59-.94 3.1 3.1 0 0 1-.21-1.13 3.06 3.06 0 0 1 .21-1.14 3 3 0 0 1 .59-.94 2.87 2.87 0 0 1 .89-.65 2.62 2.62 0 0 1 1.13-.24 2.66 2.66 0 0 1 1.13.24 2.85 2.85 0 0 1 .9.65 3 3 0 0 1 .59.94 3.06 3.06 0 0 1 .21 1.14 3.1 3.1 0 0 1-.21 1.13 2.91 2.91 0 0 1-.59.94 2.79 2.79 0 0 1-.9.64 2.75 2.75 0 0 1-1.12.24zM19 12.53a2.37 2.37 0 0 0 .17.89 2.43 2.43 0 0 0 .44.72 2 2 0 0 0 .66.49 1.89 1.89 0 0 0 .81.18 1.85 1.85 0 0 0 .81-.18 2.15 2.15 0 0 0 .66-.49 2.35 2.35 0 0 0 .45-.73 2.53 2.53 0 0 0 0-1.79 2.34 2.34 0 0 0-.45-.73 2.13 2.13 0 0 0-.66-.49 1.84 1.84 0 0 0-.81-.18 1.81 1.81 0 0 0-.8.18 2.11 2.11 0 0 0-.66.5 2.39 2.39 0 0 0-.45.74 2.45 2.45 0 0 0-.17.89zm9.06 2.94a2.26 2.26 0 0 1-1.28-.37 2.92 2.92 0 0 1-.89-.93v3.52h-.75v-8h.67v1.11a2.77 2.77 0 0 1 .91-.87 2.33 2.33 0 0 1 1.22-.33 2.38 2.38 0 0 1 1.06.2 2.78 2.78 0 0 1 .86.66 3.06 3.06 0 0 1 .56.95 3.12 3.12 0 0 1 .2 1.11 3.46 3.46 0 0 1-.19 1.14 2.91 2.91 0 0 1-.53.94 2.55 2.55 0 0 1-.82.64 2.33 2.33 0 0 1-1.02.23zm-.21-.66a1.79 1.79 0 0 0 .84-.2 2.1 2.1 0 0 0 .65-.52 2.33 2.33 0 0 0 .41-.73 2.59 2.59 0 0 0 .14-.85 2.37 2.37 0 0 0-.16-.88 2.44 2.44 0 0 0-.45-.73 2.15 2.15 0 0 0-.67-.5 1.92 1.92 0 0 0-.84-.19 1.74 1.74 0 0 0-.6.12 2.47 2.47 0 0 0-.58.31 2.06 2.06 0 0 0-.46.45 1.21 1.21 0 0 0-.24.54v1.75a2.65 2.65 0 0 0 .33.57 2.36 2.36 0 0 0 .46.46 2.21 2.21 0 0 0 .55.3 1.77 1.77 0 0 0 .62.1zm5.84.66a1.6 1.6 0 0 1-1.39-.62 3.1 3.1 0 0 1-.45-1.85V9.65h.75v3.22q0 1.94 1.33 1.94a2 2 0 0 0 .65-.11 2.05 2.05 0 0 0 .59-.32 2.57 2.57 0 0 0 .48-.49 2.46 2.46 0 0 0 .34-.65V9.65h.75v4.75c0 .21.09.31.26.31v.66h-.33a.59.59 0 0 1-.43-.19.66.66 0 0 1-.17-.47v-.66a2.65 2.65 0 0 1-1 1 2.7 2.7 0 0 1-1.38.42zm7.64 0a2.26 2.26 0 0 1-1.28-.37 2.92 2.92 0 0 1-.89-.93v3.52h-.75v-8h.67v1.11a2.77 2.77 0 0 1 .92-.92 2.33 2.33 0 0 1 1.22-.33 2.38 2.38 0 0 1 1.08.25 2.78 2.78 0 0 1 .86.66 3.06 3.06 0 0 1 .56.95 3.12 3.12 0 0 1 .2 1.11 3.46 3.46 0 0 1-.19 1.14 2.91 2.91 0 0 1-.53.94 2.55 2.55 0 0 1-.82.64 2.33 2.33 0 0 1-1.05.23zm-.21-.66a1.79 1.79 0 0 0 .84-.2 2.1 2.1 0 0 0 .65-.52 2.33 2.33 0 0 0 .41-.73 2.59 2.59 0 0 0 .14-.85 2.37 2.37 0 0 0-.16-.88 2.44 2.44 0 0 0-.45-.73 2.15 2.15 0 0 0-.67-.5 1.92 1.92 0 0 0-.84-.19 1.74 1.74 0 0 0-.6.12 2.47 2.47 0 0 0-.58.31 2.06 2.06 0 0 0-.46.45 1.21 1.21 0 0 0-.24.54v1.75a2.65 2.65 0 0 0 .33.57 2.36 2.36 0 0 0 .46.46 2.21 2.21 0 0 0 .55.3 1.77 1.77 0 0 0 .62.1zm8.29.66a2 2 0 0 1-.75-.14 1.92 1.92 0 0 1-.6-.38 1.7 1.7 0 0 1-.54-1.26 1.4 1.4 0 0 1 .18-.69 1.69 1.69 0 0 1 .49-.55 2.41 2.41 0 0 1 .76-.36 3.48 3.48 0 0 1 1-.13 5.31 5.31 0 0 1 .89.08 3.92 3.92 0 0 1 .8.22v-.52a1.66 1.66 0 0 0-.43-1.2 1.57 1.57 0 0 0-1.21-.43 2.51 2.51 0 0 0-.9.18 4.36 4.36 0 0 0-.93.5l-.26-.49A3.86 3.86 0 0 1 50 9.55a2.31 2.31 0 0 1 1.69.6 2.23 2.23 0 0 1 .61 1.67v2.58c0 .21.09.31.27.31v.66h-.29a.64.64 0 0 1-.44-.14.54.54 0 0 1-.17-.39v-.45a2.59 2.59 0 0 1-1 .79 3.05 3.05 0 0 1-1.26.29zm.18-.57a2.57 2.57 0 0 0 1.07-.22 1.75 1.75 0 0 0 .74-.58.67.67 0 0 0 .15-.21.54.54 0 0 0 0-.21v-.93a4.57 4.57 0 0 0-.77-.22 4.37 4.37 0 0 0-.82-.08 2.28 2.28 0 0 0-1.28.33 1 1 0 0 0-.49.87 1.17 1.17 0 0 0 .1.49 1.26 1.26 0 0 0 .28.4 1.36 1.36 0 0 0 .43.27 1.47 1.47 0 0 0 .58.09zm12.85.46h-.75v-3.19a2.67 2.67 0 0 0-.32-1.47 1.06 1.06 0 0 0-.94-.47 1.6 1.6 0 0 0-.62.12 1.92 1.92 0 0 0-.54.34 2.33 2.33 0 0 0-.43.52 2.55 2.55 0 0 0-.29.66v3.49h-.75v-3.19a2.75 2.75 0 0 0-.31-1.48 1.06 1.06 0 0 0-.94-.46 1.68 1.68 0 0 0-1.15.45 2.51 2.51 0 0 0-.72 1.18v3.5h-.75V9.65h.68v1.29a2.7 2.7 0 0 1 .92-1 2.28 2.28 0 0 1 1.26-.37A1.63 1.63 0 0 1 58 10a1.77 1.77 0 0 1 .49 1 2.44 2.44 0 0 1 2.2-1.47 1.74 1.74 0 0 1 .82.18 1.37 1.37 0 0 1 .54.5 2.32 2.32 0 0 1 .3.78 5 5 0 0 1 .09 1zm4.01.11a2.71 2.71 0 0 1-1.14-.24 2.81 2.81 0 0 1-.89-.64 2.88 2.88 0 0 1-.59-.94 3.1 3.1 0 0 1-.21-1.13 3.06 3.06 0 0 1 .21-1.14 3 3 0 0 1 .59-.94 2.87 2.87 0 0 1 .89-.65 2.62 2.62 0 0 1 1.13-.24 2.66 2.66 0 0 1 1.13.24 2.85 2.85 0 0 1 .9.65 3 3 0 0 1 .59.94 3.06 3.06 0 0 1 .21 1.14 3.1 3.1 0 0 1-.21 1.13 2.91 2.91 0 0 1-.59.94 2.79 2.79 0 0 1-.9.64 2.75 2.75 0 0 1-1.12.24zm-2.07-2.94a2.37 2.37 0 0 0 .17.89 2.43 2.43 0 0 0 .44.72 2 2 0 0 0 .66.49 1.89 1.89 0 0 0 .81.18 1.85 1.85 0 0 0 .81-.18 2.15 2.15 0 0 0 .66-.49 2.35 2.35 0 0 0 .45-.73 2.53 2.53 0 0 0 0-1.79 2.34 2.34 0 0 0-.45-.73 2.13 2.13 0 0 0-.66-.49 1.84 1.84 0 0 0-.81-.18 1.81 1.81 0 0 0-.8.18 2.11 2.11 0 0 0-.66.5 2.39 2.39 0 0 0-.45.74 2.45 2.45 0 0 0-.17.89zm7.95 2.94a1.6 1.6 0 0 1-1.39-.62 3.1 3.1 0 0 1-.46-1.85V9.65h.75v3.22q0 1.94 1.33 1.94a2 2 0 0 0 .65-.11 2.05 2.05 0 0 0 .59-.32 2.57 2.57 0 0 0 .48-.49 2.46 2.46 0 0 0 .34-.65V9.65h.75v4.75c0 .21.09.31.26.31v.66h-.33a.59.59 0 0 1-.43-.19.66.66 0 0 1-.17-.47v-.66a2.65 2.65 0 0 1-1 1 2.7 2.7 0 0 1-1.37.42zm9.52-.11h-.75v-3.19a2.78 2.78 0 0 0-.3-1.48 1 1 0 0 0-.93-.46 1.91 1.91 0 0 0-.66.12 2.26 2.26 0 0 0-.61.34 2.63 2.63 0 0 0-.5.52 2 2 0 0 0-.32.65v3.5H77V9.65h.68v1.29a2.68 2.68 0 0 1 1-1 2.75 2.75 0 0 1 1.42-.38 1.68 1.68 0 0 1 .8.18 1.37 1.37 0 0 1 .53.49 2.28 2.28 0 0 1 .28.78 5.45 5.45 0 0 1 .09 1zm4.28-.28l-.19.09-.29.11-.37.1a2.11 2.11 0 0 1-.44 0 1.59 1.59 0 0 1-.46-.07 1.06 1.06 0 0 1-.38-.2 1 1 0 0 1-.26-.34 1.11 1.11 0 0 1-.1-.48v-4.05h-.79v-.59h.79V7.72h.75v1.93h1.32v.59h-1.34v3.88a.59.59 0 0 0 .22.47.77.77 0 0 0 .47.15 1.41 1.41 0 0 0 .56-.1l.31-.15z"/></g></g></svg>