<svg xmlns="http://www.w3.org/2000/svg" xmlns:xlink="http://www.w3.org/1999/xlink" viewBox="0 0 319.28 126"><defs><style>.cls-1{fill:#fff}.cls-2{fill:#898989}.cls-11,.cls-3,.cls-8{opacity:.22}.cls-3{fill:url(#linear-gradient)}.cls-4{fill:#d8d8d8}.cls-5{fill:#e6e6e6}.cls-14,.cls-6,.cls-9{opacity:.78}.cls-6{fill:url(#linear-gradient-2)}.cls-10,.cls-15,.cls-7{opacity:.33}.cls-7{fill:url(#linear-gradient-3)}.cls-8{fill:url(#linear-gradient-4)}.cls-9{fill:url(#linear-gradient-5)}.cls-10{fill:url(#linear-gradient-6)}.cls-11{fill:url(#linear-gradient-7)}.cls-12{fill:#5fbb4e}.cls-13{fill:#38aa49}.cls-14{fill:url(#linear-gradient-8)}.cls-15{fill:url(#linear-gradient-9)}</style><linearGradient id="linear-gradient" x1="45.05" y1="49.92" x2="45.05" y2="76.97" gradientUnits="userSpaceOnUse"><stop offset="0" stop-color="#fff"/><stop offset="1" stop-color="#cfcfcf"/></linearGradient><linearGradient id="linear-gradient-2" x1="36.53" y1="56.47" x2="36.53" y2="69.65" xlink:href="#linear-gradient"/><linearGradient id="linear-gradient-3" x1="32.63" y1="63.25" x2="40.44" y2="63.25" xlink:href="#linear-gradient"/><linearGradient id="linear-gradient-4" x1="275.05" y1="52.92" x2="275.05" y2="79.97" xlink:href="#linear-gradient"/><linearGradient id="linear-gradient-5" x1="266.53" y1="59.47" x2="266.53" y2="72.65" xlink:href="#linear-gradient"/><linearGradient id="linear-gradient-6" x1="262.63" y1="66.25" x2="270.44" y2="66.25" xlink:href="#linear-gradient"/><linearGradient id="linear-gradient-7" x1="161.2" y1="51.32" x2="161.2" y2="80.12" xlink:href="#linear-gradient"/><linearGradient id="linear-gradient-8" x1="170.68" y1="58.28" x2="170.68" y2="75.16" xlink:href="#linear-gradient"/><linearGradient id="linear-gradient-9" x1="166.52" y1="65.25" x2="174.84" y2="65.25" xlink:href="#linear-gradient"/></defs><title>settings3</title><g id="Layer_2" data-name="Layer 2"><g id="Layer_1-2" data-name="Layer 1"><rect class="cls-1" width="319.28" height="126" rx="7" ry="7"/><path class="cls-2" d="M27 35.11v-7.78h2.64a4 4 0 0 1 1.63.31 3.31 3.31 0 0 1 1.16.83 3.51 3.51 0 0 1 .7 1.23 4.73 4.73 0 0 1 .24 1.51 4.63 4.63 0 0 1-.26 1.61 3.49 3.49 0 0 1-.74 1.18 3.35 3.35 0 0 1-1.17.79 4 4 0 0 1-1.54.28zm5.6-3.9a4 4 0 0 0-.2-1.29 2.91 2.91 0 0 0-.58-1 2.57 2.57 0 0 0-.93-.66 3.17 3.17 0 0 0-1.23-.26h-1.88v6.42h1.87a3.12 3.12 0 0 0 1.28-.25 2.6 2.6 0 0 0 .93-.68 3 3 0 0 0 .56-1 4.09 4.09 0 0 0 .2-1.28zm3.53 4.01a2 2 0 0 1-.75-.14 1.92 1.92 0 0 1-.6-.38 1.7 1.7 0 0 1-.54-1.26 1.4 1.4 0 0 1 .18-.69 1.69 1.69 0 0 1 .49-.55 2.41 2.41 0 0 1 .76-.36 3.48 3.48 0 0 1 1-.13 5.31 5.31 0 0 1 .89.08 3.92 3.92 0 0 1 .8.22v-.51a1.66 1.66 0 0 0-.43-1.2 1.57 1.57 0 0 0-1.18-.44 2.51 2.51 0 0 0-.9.18 4.36 4.36 0 0 0-.93.5l-.31-.54a3.86 3.86 0 0 1 2.15-.75 2.31 2.31 0 0 1 1.69.6 2.23 2.23 0 0 1 .61 1.67v2.58c0 .21.09.31.27.31v.66h-.29a.64.64 0 0 1-.44-.14.54.54 0 0 1-.17-.39v-.45a2.59 2.59 0 0 1-1 .79 3.05 3.05 0 0 1-1.3.34zm.18-.57a2.57 2.57 0 0 0 1.07-.22 1.75 1.75 0 0 0 .74-.58.67.67 0 0 0 .15-.21.54.54 0 0 0 0-.21v-.93a4.57 4.57 0 0 0-.77-.22 4.37 4.37 0 0 0-.82-.08 2.28 2.28 0 0 0-1.28.33 1 1 0 0 0-.49.87 1.17 1.17 0 0 0 .1.49 1.26 1.26 0 0 0 .28.4 1.36 1.36 0 0 0 .43.27 1.47 1.47 0 0 0 .59.09zm4.36-6.45v-1.1h.75v1.1zm0 6.91V29.4h.75v5.71zm2.42-8h.75v6.71a.69.69 0 0 0 .17.5.65.65 0 0 0 .49.18h.29l.31-.09.13.6a2.42 2.42 0 0 1-.51.14 2.91 2.91 0 0 1-.52.05 1.11 1.11 0 0 1-.81-.29 1.09 1.09 0 0 1-.3-.82zm3.16 9.75h.33a.73.73 0 0 0 .31-.05.58.58 0 0 0 .22-.24 3.91 3.91 0 0 0 .25-.54q.14-.35.39-.94l-2.49-5.69H46l2.12 5 2-5h.71l-3 7.37a1.35 1.35 0 0 1-.4.55 1.14 1.14 0 0 1-.76.24h-.45zm98.34-9.48h.72l1.1 2.76 1.11-2.76h.73l-1.36 3.32 1.49 3.52 2.82-6.89h.8l-3.3 7.78h-.7l-1.63-3.85-1.64 3.85h-.67l-3.29-7.78h.82l2.83 6.89 1.48-3.52zm10.15 7.84a2.75 2.75 0 0 1-1.15-.24 2.82 2.82 0 0 1-.9-.65 3 3 0 0 1-.6-.95 3.09 3.09 0 0 1-.21-1.15 3 3 0 0 1 .21-1.13 3 3 0 0 1 .59-.93 2.81 2.81 0 0 1 .9-.64 2.78 2.78 0 0 1 3.18.64 3 3 0 0 1 .79 2v.18a.46.46 0 0 1 0 .12h-4.89a2.39 2.39 0 0 0 .21.85 2.3 2.3 0 0 0 .47.67 2.09 2.09 0 0 0 .65.44 2 2 0 0 0 .78.16 2 2 0 0 0 .55-.08 2.21 2.21 0 0 0 .5-.21 1.87 1.87 0 0 0 .42-.32 1.38 1.38 0 0 0 .29-.42l.65.18a1.9 1.9 0 0 1-.37.58 2.61 2.61 0 0 1-.56.45 2.73 2.73 0 0 1-.7.3 3 3 0 0 1-.81.15zm2.1-3.27a2.3 2.3 0 0 0-.21-.84 2.28 2.28 0 0 0-.46-.65 2 2 0 0 0-.65-.43 2 2 0 0 0-.78-.15 2.05 2.05 0 0 0-1.44.58 2.11 2.11 0 0 0-.45.66 2.51 2.51 0 0 0-.2.83zm4.33 3.27A2.75 2.75 0 0 1 160 35a2.82 2.82 0 0 1-.9-.65 3 3 0 0 1-.6-.95 3.09 3.09 0 0 1-.21-1.15 3 3 0 0 1 .21-1.13 3 3 0 0 1 .59-.93 2.81 2.81 0 0 1 .9-.64 2.78 2.78 0 0 1 3.18.64 3 3 0 0 1 .79 2v.18a.46.46 0 0 1 0 .12h-4.89a2.39 2.39 0 0 0 .21.85 2.3 2.3 0 0 0 .47.67 2.09 2.09 0 0 0 .65.44 2 2 0 0 0 .78.16 2 2 0 0 0 .55-.08 2.21 2.21 0 0 0 .5-.21 1.87 1.87 0 0 0 .42-.32 1.38 1.38 0 0 0 .29-.42l.65.18a1.9 1.9 0 0 1-.37.58 2.61 2.61 0 0 1-.56.45 2.73 2.73 0 0 1-.7.3 3 3 0 0 1-.79.13zm2.1-3.27a2.3 2.3 0 0 0-.21-.84 2.28 2.28 0 0 0-.46-.65 2 2 0 0 0-.6-.46 2 2 0 0 0-.78-.15 2.05 2.05 0 0 0-1.44.58 2.11 2.11 0 0 0-.45.66 2.51 2.51 0 0 0-.2.83zm5.95 3.16l-2.1-2.93-1.23 1.14v1.79h-.75v-8h.75v5.44l3.21-3.13h.84l-2.33 2.33 2.39 3.36zm1.78-8h.75v6.71a.69.69 0 0 0 .17.5.65.65 0 0 0 .49.18h.29l.31-.09.13.6a2.42 2.42 0 0 1-.51.14 2.91 2.91 0 0 1-.52.05 1.11 1.11 0 0 1-.81-.29 1.09 1.09 0 0 1-.3-.82zm3.14 9.75h.33a.73.73 0 0 0 .31-.05.58.58 0 0 0 .22-.24 3.91 3.91 0 0 0 .25-.54q.14-.35.39-.94l-2.49-5.71h.77l2.12 5 2-5h.71l-3 7.37a1.35 1.35 0 0 1-.4.55 1.14 1.14 0 0 1-.76.24h-.45zm87.3-1.75v-6.39l-2.84 4.94h-.45l-2.84-4.94v6.39h-.77v-7.78h.79l3 5.33 3.06-5.33h.78v7.78zm4.93.11a2.71 2.71 0 0 1-1.14-.24 2.81 2.81 0 0 1-.89-.64 2.88 2.88 0 0 1-.59-.94 3.1 3.1 0 0 1-.21-1.13 3.06 3.06 0 0 1 .21-1.14 3 3 0 0 1 .59-.94 2.87 2.87 0 0 1 .89-.65 2.62 2.62 0 0 1 1.13-.24 2.66 2.66 0 0 1 1.13.24 2.85 2.85 0 0 1 .9.65 3 3 0 0 1 .59.94 3.06 3.06 0 0 1 .21 1.14 3.1 3.1 0 0 1-.19 1.13 2.91 2.91 0 0 1-.59.94 2.79 2.79 0 0 1-.9.64 2.75 2.75 0 0 1-1.14.24zm-2.07-2.94a2.37 2.37 0 0 0 .17.89 2.43 2.43 0 0 0 .44.72 2 2 0 0 0 .66.49 1.89 1.89 0 0 0 .81.18 1.85 1.85 0 0 0 .81-.18 2.15 2.15 0 0 0 .66-.49 2.35 2.35 0 0 0 .45-.73 2.53 2.53 0 0 0 0-1.79 2.34 2.34 0 0 0-.45-.73 2.13 2.13 0 0 0-.66-.49 1.84 1.84 0 0 0-.81-.18 1.81 1.81 0 0 0-.8.18 2.11 2.11 0 0 0-.66.5 2.39 2.39 0 0 0-.45.74 2.45 2.45 0 0 0-.18.89zm10.96 2.83h-.75v-3.19a2.78 2.78 0 0 0-.3-1.48 1 1 0 0 0-.93-.46 1.91 1.91 0 0 0-.66.12 2.26 2.26 0 0 0-.61.34 2.63 2.63 0 0 0-.5.52 2 2 0 0 0-.32.65v3.5h-.75V29.4h.68v1.29a2.68 2.68 0 0 1 1-1 2.75 2.75 0 0 1 1.42-.38 1.68 1.68 0 0 1 .8.18 1.37 1.37 0 0 1 .53.49 2.28 2.28 0 0 1 .28.78 5.45 5.45 0 0 1 .09 1zm4.27-.28l-.19.09-.34.08-.37.1a2.11 2.11 0 0 1-.44 0 1.59 1.59 0 0 1-.46-.07 1.06 1.06 0 0 1-.38-.2 1 1 0 0 1-.26-.34 1.11 1.11 0 0 1-.1-.48V30h-.79v-.6h.8v-1.93h.75v1.93h1.32v.6h-1.32v3.88a.59.59 0 0 0 .22.47.77.77 0 0 0 .47.15 1.41 1.41 0 0 0 .56-.1l.31-.15zm5.73.28h-.75v-3.19a2.58 2.58 0 0 0-.33-1.46 1.12 1.12 0 0 0-1-.48 1.67 1.67 0 0 0-.63.13 2.31 2.31 0 0 0-.59.35 2.35 2.35 0 0 0-.48.51 2.16 2.16 0 0 0-.3.65v3.5h-.75v-8h.75v3.58a2.59 2.59 0 0 1 .94-1 2.43 2.43 0 0 1 1.3-.37 1.76 1.76 0 0 1 .83.18 1.55 1.55 0 0 1 .56.5 2.2 2.2 0 0 1 .32.78 4.7 4.7 0 0 1 .1 1zm1.63-8h.75v6.71a.69.69 0 0 0 .17.5.65.65 0 0 0 .49.18h.29l.31-.09.13.6a2.42 2.42 0 0 1-.51.14 2.91 2.91 0 0 1-.52.05 1.11 1.11 0 0 1-.81-.29 1.09 1.09 0 0 1-.3-.82zm3.11 9.75h.33a.73.73 0 0 0 .31-.05.58.58 0 0 0 .22-.24 3.91 3.91 0 0 0 .25-.54q.14-.35.39-.94l-2.49-5.71h.77l2.12 5 2-5h.71l-3 7.37a1.35 1.35 0 0 1-.4.55 1.14 1.14 0 0 1-.76.24H290z"/><path class="cls-3" d="M67.79 63.24c0 7.52-5.64 13.62-12.59 13.62H34.9c-7 0-12.59-6.1-12.59-13.62s5.64-13.62 12.59-13.62h20.3c7 0 12.59 6.1 12.59 13.62z"/><circle class="cls-4" cx="37.22" cy="63.94" r="9.65"/><path class="cls-5" d="M65.38 63.24a11.25 11.25 0 0 1-11.26 11.25H36a11.25 11.25 0 0 1-11.27-11.25A11.25 11.25 0 0 1 36 52h18.12a11.25 11.25 0 0 1 11.26 11.24z"/><path class="cls-4" d="M25.7 65A11.25 11.25 0 0 1 37 53.77h18.1a11.24 11.24 0 0 1 9.28 4.89 11.25 11.25 0 0 0-10.2-6.5H36a11.25 11.25 0 0 0-9.28 17.61A11.21 11.21 0 0 1 25.7 65z"/><circle class="cls-1" cx="36.53" cy="63.25" r="9.65"/><circle class="cls-6" cx="36.53" cy="63.25" r="8.44"/><circle class="cls-1" cx="36.53" cy="63.25" r="6.6"/><circle class="cls-7" cx="36.53" cy="63.25" r="3.91"/><path class="cls-8" d="M297.79 66.24c0 7.52-5.64 13.62-12.59 13.62h-20.3c-7 0-12.59-6.1-12.59-13.62s5.64-13.62 12.59-13.62h20.3c7 0 12.59 6.1 12.59 13.62z"/><circle class="cls-4" cx="267.22" cy="66.94" r="9.65"/><path class="cls-5" d="M295.38 66.24a11.25 11.25 0 0 1-11.25 11.25H266a11.25 11.25 0 0 1-11.25-11.25A11.25 11.25 0 0 1 266 55h18.14a11.25 11.25 0 0 1 11.25 11.25z"/><path class="cls-4" d="M255.7 68A11.25 11.25 0 0 1 267 56.77h18.1a11.24 11.24 0 0 1 9.28 4.89 11.25 11.25 0 0 0-10.2-6.5H266a11.25 11.25 0 0 0-9.28 17.61A11.21 11.21 0 0 1 255.7 68z"/><circle class="cls-1" cx="266.53" cy="66.25" r="9.65"/><circle class="cls-9" cx="266.53" cy="66.25" r="8.44"/><circle class="cls-1" cx="266.53" cy="66.25" r="6.6"/><circle class="cls-10" cx="266.53" cy="66.25" r="3.91"/><path class="cls-11" d="M185.41 65.5c0 8-6 14.5-13.4 14.5H150.4C143 80 137 73.51 137 65.5c0-8 6-14.5 13.4-14.5H172c7.4 0 13.4 6.49 13.4 14.5z"/><circle class="cls-4" cx="171.41" cy="65.99" r="10.27"/><path class="cls-12" d="M182.55 65.93a12 12 0 0 1-12 12h-19.29a12 12 0 0 1-12-12 12 12 0 0 1 12-12h19.31a12 12 0 0 1 12 12z"/><path class="cls-13" d="M140.32 67.14a12 12 0 0 1 12-12h19.32a12 12 0 0 1 9.88 5.2 12 12 0 0 0-10.86-6.92h-19.34a12 12 0 0 0-9.88 18.75 11.93 11.93 0 0 1-1.12-5.03z"/><circle class="cls-1" cx="170.68" cy="65.25" r="10.27"/><circle class="cls-14" cx="170.68" cy="65.25" r="8.99"/><circle class="cls-1" cx="170.68" cy="65.25" r="7.03"/><circle class="cls-15" cx="170.68" cy="65.25" r="4.16"/></g></g></svg>