<svg xmlns="http://www.w3.org/2000/svg" viewBox="0 0 319.28 119"><defs><style>.cls-1{fill:#fff}.cls-2{fill:#4e4e4e}.cls-3{fill:url(#linear-gradient)}.cls-4{fill:#898989}</style><linearGradient id="linear-gradient" x1="25.28" y1="50" x2="257.78" y2="50" gradientUnits="userSpaceOnUse"><stop offset="0" stop-color="#3a85c6"/><stop offset=".06" stop-color="#4187bf"/><stop offset=".16" stop-color="#568dac"/><stop offset=".27" stop-color="#78978c"/><stop offset=".4" stop-color="#a7a461"/><stop offset=".54" stop-color="#e2b629"/><stop offset=".58" stop-color="#f5bb18"/><stop offset=".72" stop-color="#f5b918"/><stop offset=".78" stop-color="#f5b219" stop-opacity=".98"/><stop offset=".83" stop-color="#f4a61a" stop-opacity=".96"/><stop offset=".87" stop-color="#f3951b" stop-opacity=".92"/><stop offset=".91" stop-color="#f27e1d" stop-opacity=".88"/><stop offset=".94" stop-color="#f0621f" stop-opacity=".83"/><stop offset=".97" stop-color="#ef4221" stop-opacity=".76"/><stop offset="1" stop-color="#ed2224" stop-opacity=".7"/></linearGradient></defs><title>settings2</title><g id="Layer_2" data-name="Layer 2"><g id="Layer_1-2" data-name="Layer 1"><rect class="cls-1" width="319.28" height="119" rx="7" ry="7"/><path class="cls-2" d="M26.28 86.35h.47L29.11 92h-.59l-.74-1.78h-2.55L24.5 92h-.6zm1.38 3.46L26.51 87l-1.16 2.81zm3.34 2.3a1.17 1.17 0 0 1-1-.45 2.26 2.26 0 0 1-.33-1.35v-2.45h.54v2.35q0 1.42 1 1.42a1.43 1.43 0 0 0 .47-.08 1.46 1.46 0 0 0 .43-.23 1.9 1.9 0 0 0 .35-.36 1.81 1.81 0 0 0 .25-.47v-2.63h.54v3.46c0 .15.06.22.19.22V92h-.24a.43.43 0 0 1-.31-.14.48.48 0 0 1-.12-.34v-.48a1.93 1.93 0 0 1-.74.76 2 2 0 0 1-1.03.31zm5.47-.28l-.14.06-.21.08-.27.07a1.54 1.54 0 0 1-.32 0 1.16 1.16 0 0 1-.34 0 .78.78 0 0 1-.28-.15.72.72 0 0 1-.19-.25.8.8 0 0 1-.07-.35v-3h-.58v-.43h.58v-1.41h.54v1.41h1v.43h-1v2.83a.43.43 0 0 0 .16.34.56.56 0 0 0 .34.11 1 1 0 0 0 .41-.08l.22-.11zm2.35.28a2 2 0 0 1-.83-.17 2.06 2.06 0 0 1-.65-.47 2.12 2.12 0 0 1-.43-.69 2.26 2.26 0 0 1-.15-.82 2.23 2.23 0 0 1 .16-.83 2.18 2.18 0 0 1 .43-.69A2.12 2.12 0 0 1 38 88a1.92 1.92 0 0 1 .82-.18 2 2 0 0 1 .83.18 2.11 2.11 0 0 1 .66.47 2.18 2.18 0 0 1 .43.69 2.3 2.3 0 0 1 0 1.66 2.12 2.12 0 0 1-.43.69 2 2 0 0 1-.66.47 2 2 0 0 1-.83.13zM37.31 90a1.74 1.74 0 0 0 .12.65 1.77 1.77 0 0 0 .32.53 1.46 1.46 0 0 0 .48.36 1.37 1.37 0 0 0 .59.13 1.35 1.35 0 0 0 .59-.13 1.57 1.57 0 0 0 .48-.36 1.74 1.74 0 0 0 .33-.53 1.84 1.84 0 0 0 0-1.31 1.71 1.71 0 0 0-.33-.54 1.56 1.56 0 0 0-.48-.36 1.35 1.35 0 0 0-.59-.13 1.32 1.32 0 0 0-.58.13 1.54 1.54 0 0 0-.48.36 1.74 1.74 0 0 0-.33.54 1.8 1.8 0 0 0-.12.66zm6.44 1.83l-.14.06-.21.11-.27.07a1.54 1.54 0 0 1-.32 0 1.16 1.16 0 0 1-.34 0 .78.78 0 0 1-.28-.15.72.72 0 0 1-.19-.25.8.8 0 0 1-.07-.35v-3h-.58v-.43h.58v-1.44h.54v1.41h1v.43h-1v2.83a.43.43 0 0 0 .16.34.56.56 0 0 0 .34.11 1 1 0 0 0 .41-.08l.22-.11zm2.35.28a2 2 0 0 1-.83-.17 2.06 2.06 0 0 1-.65-.47 2.12 2.12 0 0 1-.43-.69A2.26 2.26 0 0 1 44 90a2.23 2.23 0 0 1 .16-.83 2.18 2.18 0 0 1 .43-.69 2.12 2.12 0 0 1 .65-.47 1.92 1.92 0 0 1 .82-.18 2 2 0 0 1 .83.18 2.11 2.11 0 0 1 .66.47 2.18 2.18 0 0 1 .43.69 2.3 2.3 0 0 1 0 1.66 2.12 2.12 0 0 1-.43.69 2 2 0 0 1-.66.47 2 2 0 0 1-.79.12zM44.59 90a1.74 1.74 0 0 0 .12.65 1.77 1.77 0 0 0 .32.53 1.46 1.46 0 0 0 .48.36 1.37 1.37 0 0 0 .59.13 1.35 1.35 0 0 0 .59-.13 1.57 1.57 0 0 0 .48-.36 1.74 1.74 0 0 0 .33-.53 1.84 1.84 0 0 0 0-1.31 1.71 1.71 0 0 0-.33-.54 1.56 1.56 0 0 0-.48-.36 1.35 1.35 0 0 0-.59-.13 1.32 1.32 0 0 0-.58.13 1.54 1.54 0 0 0-.48.36 1.74 1.74 0 0 0-.33.54 1.8 1.8 0 0 0-.12.66zm6.62 2.11a1.64 1.64 0 0 1-.93-.27 2.12 2.12 0 0 1-.65-.68v2.57h-.54v-5.87h.49v.81a2 2 0 0 1 .66-.64 1.7 1.7 0 0 1 .89-.24 1.75 1.75 0 0 1 .79.18 2 2 0 0 1 .62.48 2.23 2.23 0 0 1 .41.69 2.27 2.27 0 0 1 .15.81 2.52 2.52 0 0 1-.14.83 2.12 2.12 0 0 1-.39.69 1.87 1.87 0 0 1-.6.47 1.71 1.71 0 0 1-.76.17zm-.15-.48a1.31 1.31 0 0 0 .61-.14 1.52 1.52 0 0 0 .47-.38 1.71 1.71 0 0 0 .3-.54 1.88 1.88 0 0 0 .1-.62 1.72 1.72 0 0 0-.12-.64 1.77 1.77 0 0 0-.33-.54 1.57 1.57 0 0 0-.49-.37 1.4 1.4 0 0 0-.61-.14 1.24 1.24 0 0 0-.44.08 1.8 1.8 0 0 0-.42.22 1.53 1.53 0 0 0-.34.33.88.88 0 0 0-.17.4v1.28a1.89 1.89 0 0 0 .24.42 1.7 1.7 0 0 0 .34.33 1.57 1.57 0 0 0 .4.22 1.27 1.27 0 0 0 .46.09zm4.27.48a1.17 1.17 0 0 1-1-.45 2.26 2.26 0 0 1-.33-1.35v-2.45h.54v2.35q0 1.42 1 1.42a1.43 1.43 0 0 0 .47-.08 1.46 1.46 0 0 0 .43-.23 1.9 1.9 0 0 0 .35-.36 1.81 1.81 0 0 0 .25-.47v-2.63h.54v3.46c0 .15.06.22.19.22V92h-.24a.43.43 0 0 1-.31-.14.48.48 0 0 1-.12-.34v-.48a1.93 1.93 0 0 1-.74.76 2 2 0 0 1-1.03.31zm5.57 0a1.64 1.64 0 0 1-.93-.27 2.12 2.12 0 0 1-.65-.68v2.57h-.54v-5.87h.49v.81a2 2 0 0 1 .66-.64 1.7 1.7 0 0 1 .89-.24 1.75 1.75 0 0 1 .79.18 2 2 0 0 1 .62.48 2.23 2.23 0 0 1 .41.69 2.27 2.27 0 0 1 .15.81 2.52 2.52 0 0 1-.14.83 2.12 2.12 0 0 1-.39.69 1.87 1.87 0 0 1-.6.47 1.71 1.71 0 0 1-.76.17zm-.15-.48a1.31 1.31 0 0 0 .61-.14 1.52 1.52 0 0 0 .47-.38 1.71 1.71 0 0 0 .3-.54 1.88 1.88 0 0 0 .1-.62 1.72 1.72 0 0 0-.12-.64 1.77 1.77 0 0 0-.33-.54 1.57 1.57 0 0 0-.49-.37 1.4 1.4 0 0 0-.61-.14 1.24 1.24 0 0 0-.44.08 1.8 1.8 0 0 0-.42.22 1.53 1.53 0 0 0-.34.33.88.88 0 0 0-.17.4v1.28a1.89 1.89 0 0 0 .24.42 1.7 1.7 0 0 0 .34.33 1.57 1.57 0 0 0 .4.22 1.27 1.27 0 0 0 .46.09zm6.38.48a2.9 2.9 0 0 1-1-.16 2.28 2.28 0 0 1-.8-.46l.25-.37a2.69 2.69 0 0 0 .72.43 2.09 2.09 0 0 0 .78.14 1.41 1.41 0 0 0 .8-.2.66.66 0 0 0 .3-.58.5.5 0 0 0-.08-.29.69.69 0 0 0-.24-.2 1.88 1.88 0 0 0-.39-.16l-.47-.14-.62-.18a1.87 1.87 0 0 1-.44-.2.72.72 0 0 1-.26-.28.9.9 0 0 1-.08-.41 1.19 1.19 0 0 1 .12-.55 1.12 1.12 0 0 1 .34-.4 1.53 1.53 0 0 1 .5-.24 2.24 2.24 0 0 1 .6-.08 2.33 2.33 0 0 1 .87.16 1.71 1.71 0 0 1 .63.41l-.26.32a1.47 1.47 0 0 0-.56-.36 2 2 0 0 0-.69-.12 1.72 1.72 0 0 0-.4 0 1 1 0 0 0-.32.14.69.69 0 0 0-.22.24.72.72 0 0 0-.08.35.57.57 0 0 0 .06.27.48.48 0 0 0 .18.18 1.54 1.54 0 0 0 .32.14l.48.12.7.19a2.2 2.2 0 0 1 .51.22.88.88 0 0 1 .31.31.9.9 0 0 1 .1.45 1.09 1.09 0 0 1-.44.91 1.91 1.91 0 0 1-1.22.4zm6.02-.11h-.54v-2.3a1.88 1.88 0 0 0-.24-1.06.81.81 0 0 0-.72-.35 1.23 1.23 0 0 0-.46.09 1.71 1.71 0 0 0-.43.25 1.76 1.76 0 0 0-.35.38 1.59 1.59 0 0 0-.22.47V92h-.54v-5.81h.54v2.61a1.88 1.88 0 0 1 .69-.74 1.77 1.77 0 0 1 1-.27 1.28 1.28 0 0 1 .61.13 1.13 1.13 0 0 1 .41.37 1.61 1.61 0 0 1 .23.57 3.47 3.47 0 0 1 .07.73zm2.94.11a2 2 0 0 1-.83-.17 2.06 2.06 0 0 1-.65-.47 2.12 2.12 0 0 1-.43-.69A2.26 2.26 0 0 1 74 90a2.23 2.23 0 0 1 .16-.83 2.18 2.18 0 0 1 .43-.69 2.12 2.12 0 0 1 .65-.47 1.92 1.92 0 0 1 .82-.18 2 2 0 0 1 .83.18 2.11 2.11 0 0 1 .66.47 2.18 2.18 0 0 1 .43.69 2.3 2.3 0 0 1 0 1.66 2.12 2.12 0 0 1-.43.69 2 2 0 0 1-.66.47 2 2 0 0 1-.8.12zM74.57 90a1.74 1.74 0 0 0 .12.65 1.77 1.77 0 0 0 .32.53 1.46 1.46 0 0 0 .48.36 1.37 1.37 0 0 0 .59.13 1.35 1.35 0 0 0 .59-.13 1.57 1.57 0 0 0 .48-.36 1.74 1.74 0 0 0 .33-.53 1.84 1.84 0 0 0 0-1.31 1.71 1.71 0 0 0-.33-.54 1.56 1.56 0 0 0-.48-.36 1.35 1.35 0 0 0-.59-.13 1.32 1.32 0 0 0-.58.13 1.54 1.54 0 0 0-.48.36 1.74 1.74 0 0 0-.33.54 1.8 1.8 0 0 0-.12.66zm5.8 2.11a1.17 1.17 0 0 1-1-.45 2.26 2.26 0 0 1-.37-1.35v-2.45h.54v2.35q0 1.42 1 1.42a1.43 1.43 0 0 0 .47-.08 1.46 1.46 0 0 0 .43-.23 1.9 1.9 0 0 0 .35-.36 1.81 1.81 0 0 0 .25-.47v-2.63h.54v3.46c0 .15.06.22.19.22V92h-.24a.43.43 0 0 1-.31-.14.48.48 0 0 1-.12-.34v-.48a1.93 1.93 0 0 1-.74.76 2 2 0 0 1-.99.31zm3.48-5.92h.54v4.9a.5.5 0 0 0 .13.36.48.48 0 0 0 .36.13h.21l.22-.06.1.44A1.83 1.83 0 0 1 85 92a2.2 2.2 0 0 1-.38 0 .81.81 0 0 1-.59-.21.8.8 0 0 1-.22-.6zm3.86 5.92a1.81 1.81 0 0 1-.8-.18 2 2 0 0 1-.63-.48 2.19 2.19 0 0 1-.41-.68 2.26 2.26 0 0 1-.15-.81 2.44 2.44 0 0 1 .14-.84 2.24 2.24 0 0 1 .4-.69 1.88 1.88 0 0 1 .6-.47 1.71 1.71 0 0 1 .76-.17 1.63 1.63 0 0 1 .94.28 2.08 2.08 0 0 1 .64.67v-2.55h.54v5.14c0 .15.06.22.19.22V92h-.19a.5.5 0 0 1-.34-.12.38.38 0 0 1-.14-.3v-.41a1.82 1.82 0 0 1-.67.65 1.76 1.76 0 0 1-.88.29zm.12-.48a1.28 1.28 0 0 0 .43-.08 1.72 1.72 0 0 0 .43-.22A1.45 1.45 0 0 0 89 91a.88.88 0 0 0 .17-.4v-1.29a1.41 1.41 0 0 0-.23-.4 1.87 1.87 0 0 0-.35-.33 1.63 1.63 0 0 0-.42-.22 1.31 1.31 0 0 0-1 .06 1.55 1.55 0 0 0-.47.38 1.7 1.7 0 0 0-.3.54 1.92 1.92 0 0 0-.1.62 1.74 1.74 0 0 0 .45 1.17 1.59 1.59 0 0 0 .49.36 1.4 1.4 0 0 0 .59.14zm8.69.37H96v-2.3a2 2 0 0 0-.22-1.08.75.75 0 0 0-.68-.34 1.39 1.39 0 0 0-.48.09 1.62 1.62 0 0 0-.44.25 1.91 1.91 0 0 0-.36.38 1.49 1.49 0 0 0-.23.48V92H93v-4.14h.5v.94a2 2 0 0 1 .73-.74 2 2 0 0 1 1-.28 1.23 1.23 0 0 1 .58.13 1 1 0 0 1 .38.36 1.65 1.65 0 0 1 .21.57 4 4 0 0 1 .06.74zm2.93.11a2 2 0 0 1-.83-.17 2.06 2.06 0 0 1-.65-.47 2.12 2.12 0 0 1-.43-.69 2.26 2.26 0 0 1-.15-.82 2.23 2.23 0 0 1 .16-.83 2.18 2.18 0 0 1 .43-.69 2.12 2.12 0 0 1 .65-.47 1.92 1.92 0 0 1 .82-.18 2 2 0 0 1 .83.18 2.11 2.11 0 0 1 .66.47 2.18 2.18 0 0 1 .43.69 2.3 2.3 0 0 1 0 1.66 2.12 2.12 0 0 1-.43.69 2 2 0 0 1-.66.47 2 2 0 0 1-.83.16zM97.94 90a1.74 1.74 0 0 0 .12.65 1.77 1.77 0 0 0 .32.53 1.46 1.46 0 0 0 .48.36 1.37 1.37 0 0 0 .59.13 1.35 1.35 0 0 0 .59-.13 1.57 1.57 0 0 0 .48-.36 1.74 1.74 0 0 0 .33-.53 1.84 1.84 0 0 0 0-1.31 1.71 1.71 0 0 0-.33-.54 1.56 1.56 0 0 0-.48-.36 1.35 1.35 0 0 0-.59-.13 1.32 1.32 0 0 0-.58.13 1.54 1.54 0 0 0-.48.36 1.74 1.74 0 0 0-.33.54 1.8 1.8 0 0 0-.12.66zm6.44 1.83l-.14.06-.24.11-.27.07a1.54 1.54 0 0 1-.32 0 1.16 1.16 0 0 1-.34 0 .78.78 0 0 1-.28-.15.72.72 0 0 1-.19-.25.8.8 0 0 1-.07-.35v-3H102v-.43h.58v-1.44h.54v1.41h1v.43h-1v2.83a.43.43 0 0 0 .16.34.56.56 0 0 0 .34.11 1 1 0 0 0 .41-.08l.22-.11zm4.72 0l-.14.06-.21.08-.27.07a1.54 1.54 0 0 1-.32 0 1.16 1.16 0 0 1-.34 0 .78.78 0 0 1-.28-.15.72.72 0 0 1-.19-.25.8.8 0 0 1-.07-.35v-3h-.58v-.43h.58v-1.41h.54v1.41h1v.43h-1v2.83a.43.43 0 0 0 .16.34.56.56 0 0 0 .34.11 1 1 0 0 0 .41-.08l.22-.11zm2.35.28a2 2 0 0 1-.83-.17 2.06 2.06 0 0 1-.65-.47 2.12 2.12 0 0 1-.43-.69 2.26 2.26 0 0 1-.15-.82 2.23 2.23 0 0 1 .16-.83 2.18 2.18 0 0 1 .43-.69 2.12 2.12 0 0 1 .65-.47 1.92 1.92 0 0 1 .82-.18 2 2 0 0 1 .83.18 2.11 2.11 0 0 1 .66.47 2.18 2.18 0 0 1 .43.69 2.3 2.3 0 0 1 0 1.66 2.12 2.12 0 0 1-.43.69 2 2 0 0 1-.66.47 2 2 0 0 1-.83.16zM109.94 90a1.74 1.74 0 0 0 .12.65 1.77 1.77 0 0 0 .32.53 1.46 1.46 0 0 0 .48.36 1.37 1.37 0 0 0 .59.13 1.35 1.35 0 0 0 .59-.13 1.57 1.57 0 0 0 .48-.36 1.74 1.74 0 0 0 .33-.53 1.84 1.84 0 0 0 0-1.31 1.71 1.71 0 0 0-.33-.54 1.56 1.56 0 0 0-.48-.36 1.35 1.35 0 0 0-.59-.13 1.32 1.32 0 0 0-.58.13 1.54 1.54 0 0 0-.48.36 1.74 1.74 0 0 0-.33.54 1.8 1.8 0 0 0-.12.66zm6.62 2.11a1.64 1.64 0 0 1-.93-.27 2.12 2.12 0 0 1-.65-.68v2.57h-.54v-5.87h.49v.81a2 2 0 0 1 .66-.64 1.7 1.7 0 0 1 .89-.24 1.75 1.75 0 0 1 .79.18 2 2 0 0 1 .62.48 2.23 2.23 0 0 1 .41.69 2.27 2.27 0 0 1 .15.81 2.52 2.52 0 0 1-.14.83 2.12 2.12 0 0 1-.39.69 1.87 1.87 0 0 1-.6.47 1.71 1.71 0 0 1-.76.17zm-.15-.48a1.31 1.31 0 0 0 .61-.14 1.52 1.52 0 0 0 .47-.38 1.71 1.71 0 0 0 .3-.54 1.88 1.88 0 0 0 .1-.62 1.72 1.72 0 0 0-.12-.64 1.77 1.77 0 0 0-.33-.54 1.57 1.57 0 0 0-.49-.37 1.4 1.4 0 0 0-.61-.14 1.24 1.24 0 0 0-.44.08 1.8 1.8 0 0 0-.42.22 1.53 1.53 0 0 0-.34.33.88.88 0 0 0-.17.4v1.28a1.89 1.89 0 0 0 .24.42 1.7 1.7 0 0 0 .34.33 1.57 1.57 0 0 0 .4.22 1.27 1.27 0 0 0 .46.09zm6.31.48a1.17 1.17 0 0 1-1-.45 2.26 2.26 0 0 1-.33-1.35v-2.45h.54v2.35q0 1.42 1 1.42a1.43 1.43 0 0 0 .47-.08 1.46 1.46 0 0 0 .43-.23 1.9 1.9 0 0 0 .35-.36 1.81 1.81 0 0 0 .25-.47v-2.63h.54v3.46c0 .15.06.22.19.22V92h-.24a.43.43 0 0 1-.31-.14.48.48 0 0 1-.12-.34v-.48a1.93 1.93 0 0 1-.74.76 2 2 0 0 1-1.03.31zm5.57 0a1.64 1.64 0 0 1-.93-.27 2.12 2.12 0 0 1-.65-.68v2.57h-.54v-5.87h.49v.81a2 2 0 0 1 .66-.64 1.7 1.7 0 0 1 .89-.24 1.75 1.75 0 0 1 .79.21 2 2 0 0 1 .62.48 2.23 2.23 0 0 1 .41.69 2.27 2.27 0 0 1 .15.81 2.52 2.52 0 0 1-.14.83 2.12 2.12 0 0 1-.39.69 1.87 1.87 0 0 1-.6.47 1.71 1.71 0 0 1-.76.14zm-.15-.48a1.31 1.31 0 0 0 .61-.14 1.52 1.52 0 0 0 .47-.38 1.71 1.71 0 0 0 .3-.54 1.88 1.88 0 0 0 .1-.62 1.72 1.72 0 0 0-.12-.64 1.77 1.77 0 0 0-.33-.54 1.57 1.57 0 0 0-.49-.37 1.4 1.4 0 0 0-.61-.14 1.24 1.24 0 0 0-.44.08 1.8 1.8 0 0 0-.42.22 1.53 1.53 0 0 0-.34.33.88.88 0 0 0-.17.4v1.28a1.89 1.89 0 0 0 .3.43 1.7 1.7 0 0 0 .34.33 1.57 1.57 0 0 0 .4.22 1.27 1.27 0 0 0 .4.08zm11.2.37h-.54v-2.3a2 2 0 0 0-.23-1.07.78.78 0 0 0-.69-.34 1.17 1.17 0 0 0-.45.09 1.39 1.39 0 0 0-.39.25 1.72 1.72 0 0 0-.32.38 1.87 1.87 0 0 0-.21.48V92H136v-2.3a2 2 0 0 0-.22-1.08.77.77 0 0 0-.69-.34 1.23 1.23 0 0 0-.84.33 1.83 1.83 0 0 0-.53.86V92h-.54v-4.14h.5v.94a2 2 0 0 1 .67-.75 1.66 1.66 0 0 1 .92-.27 1.19 1.19 0 0 1 .84.3 1.29 1.29 0 0 1 .39.78 1.78 1.78 0 0 1 1.61-1.07 1.27 1.27 0 0 1 .6.13 1 1 0 0 1 .39.36 1.71 1.71 0 0 1 .22.57 3.69 3.69 0 0 1 .07.74zm2.93.11a2 2 0 0 1-.83-.17 2.06 2.06 0 0 1-.65-.47 2.12 2.12 0 0 1-.43-.69 2.26 2.26 0 0 1-.15-.82 2.23 2.23 0 0 1 .16-.83 2.18 2.18 0 0 1 .43-.69 2.12 2.12 0 0 1 .65-.47 1.92 1.92 0 0 1 .82-.18 2 2 0 0 1 .83.18 2.11 2.11 0 0 1 .66.47 2.18 2.18 0 0 1 .43.69 2.3 2.3 0 0 1 0 1.66 2.12 2.12 0 0 1-.43.69 2 2 0 0 1-.66.47 2 2 0 0 1-.83.16zM140.76 90a1.74 1.74 0 0 0 .12.65 1.77 1.77 0 0 0 .32.53 1.46 1.46 0 0 0 .48.36 1.37 1.37 0 0 0 .59.13 1.35 1.35 0 0 0 .59-.13 1.57 1.57 0 0 0 .48-.36 1.74 1.74 0 0 0 .33-.53 1.84 1.84 0 0 0 0-1.31 1.71 1.71 0 0 0-.33-.54 1.56 1.56 0 0 0-.48-.36 1.35 1.35 0 0 0-.59-.13 1.32 1.32 0 0 0-.58.13 1.54 1.54 0 0 0-.48.36 1.74 1.74 0 0 0-.33.54 1.8 1.8 0 0 0-.12.66zm6.57-1.66a1.71 1.71 0 0 0-1 .3 1.53 1.53 0 0 0-.58.79V92h-.54v-4.14h.51v1a1.9 1.9 0 0 1 .62-.75 1.45 1.45 0 0 1 .84-.27h.1zm2.32 3.77a2 2 0 0 1-.84-.17 2.06 2.06 0 0 1-.66-.47 2.18 2.18 0 0 1-.44-.69 2.25 2.25 0 0 1-.16-.84 2.2 2.2 0 0 1 .16-.83 2.14 2.14 0 0 1 .43-.68 2.05 2.05 0 0 1 .66-.46 2.11 2.11 0 0 1 1.67 0 2 2 0 0 1 .65.47 2.19 2.19 0 0 1 .58 1.5v.13a.35.35 0 0 1 0 .09h-3.57a1.76 1.76 0 0 0 .16.62 1.71 1.71 0 0 0 .34.49 1.52 1.52 0 0 0 .48.32 1.43 1.43 0 0 0 .57.12 1.49 1.49 0 0 0 .4-.06 1.68 1.68 0 0 0 .37-.15 1.37 1.37 0 0 0 .3-.24 1 1 0 0 0 .21-.31l.47.13a1.38 1.38 0 0 1-.27.42 1.93 1.93 0 0 1-.41.33 2 2 0 0 1-.51.22 2.21 2.21 0 0 1-.59.06zm1.54-2.38a1.67 1.67 0 0 0-.16-.61 1.66 1.66 0 0 0-.34-.48 1.48 1.48 0 0 0-1-.42 1.5 1.5 0 0 0-.58.11 1.47 1.47 0 0 0-.48.31 1.52 1.52 0 0 0-.33.48 1.81 1.81 0 0 0-.15.61zm5.4 2.1l-.14.06-.21.08-.24.03a1.54 1.54 0 0 1-.32 0 1.16 1.16 0 0 1-.34 0 .78.78 0 0 1-.28-.15.72.72 0 0 1-.19-.25.8.8 0 0 1-.07-.35v-3h-.58v-.43h.58v-1.37h.54v1.41h1v.43h-1v2.83a.43.43 0 0 0 .16.34.56.56 0 0 0 .34.11 1 1 0 0 0 .41-.08l.22-.11zm4.18.17h-.54v-2.3a1.88 1.88 0 0 0-.24-1.06.81.81 0 0 0-.72-.35 1.23 1.23 0 0 0-.46.09 1.71 1.71 0 0 0-.43.25 1.76 1.76 0 0 0-.38.37 1.59 1.59 0 0 0-.22.47V92h-.54v-5.81h.54v2.61a1.88 1.88 0 0 1 .69-.74 1.77 1.77 0 0 1 1-.27 1.28 1.28 0 0 1 .61.13 1.13 1.13 0 0 1 .41.37 1.61 1.61 0 0 1 .23.57 3.47 3.47 0 0 1 .07.73zm2.23.11a1.48 1.48 0 0 1-.55-.1 1.4 1.4 0 0 1-.44-.28 1.24 1.24 0 0 1-.4-.92 1 1 0 0 1 .13-.5 1.21 1.21 0 0 1 .36-.4 1.76 1.76 0 0 1 .55-.26 2.53 2.53 0 0 1 .7-.09 3.87 3.87 0 0 1 .65.06 2.8 2.8 0 0 1 .58.16v-.38a1.21 1.21 0 0 0-.31-.88 1.14 1.14 0 0 0-.86-.32 1.84 1.84 0 0 0-.66.13 3.17 3.17 0 0 0-.68.37l-.19-.36a2.82 2.82 0 0 1 1.57-.54 1.68 1.68 0 0 1 1.23.44 1.62 1.62 0 0 1 .45 1.22v1.88c0 .15.07.22.2.22V92h-.21a.47.47 0 0 1-.32-.1.39.39 0 0 1-.12-.29v-.33a1.88 1.88 0 0 1-.72.58 2.22 2.22 0 0 1-.96.25zm.13-.42a1.89 1.89 0 0 0 .78-.16 1.28 1.28 0 0 0 .54-.42.49.49 0 0 0 .11-.16.4.4 0 0 0 0-.16v-.68A3.42 3.42 0 0 0 164 90a3.17 3.17 0 0 0-.6-.06 1.66 1.66 0 0 0-.94.24.73.73 0 0 0-.36.63.86.86 0 0 0 .08.36.92.92 0 0 0 .21.29 1 1 0 0 0 .32.2 1.07 1.07 0 0 0 .4.03zm6.67.31h-.54v-2.3a2 2 0 0 0-.22-1.08.75.75 0 0 0-.68-.34 1.39 1.39 0 0 0-.48.09 1.62 1.62 0 0 0-.44.25 1.91 1.91 0 0 0-.36.38 1.49 1.49 0 0 0-.23.48V92h-.54v-4.14h.5v.94a2 2 0 0 1 .73-.74 2 2 0 0 1 1-.28 1.23 1.23 0 0 1 .58.13 1 1 0 0 1 .38.36 1.65 1.65 0 0 1 .21.57 4 4 0 0 1 .06.74zm3.87-4.61V92h-.56v-5.65h.43l3.76 4.73v-4.72h.56V92h-.49zm5.25 4.61a3.21 3.21 0 0 1 0-.55 1.91 1.91 0 0 1 .19-.55 2 2 0 0 1 .4-.52 2.93 2.93 0 0 1 .69-.48l.48-.24a3.22 3.22 0 0 0 .46-.26 1.48 1.48 0 0 0 .35-.32.68.68 0 0 0 .14-.42.71.71 0 0 0-.07-.3.8.8 0 0 0-.2-.26 1 1 0 0 0-.33-.19 1.34 1.34 0 0 0-.46-.07 1.37 1.37 0 0 0-.47.08 1.72 1.72 0 0 0-.36.18 1.58 1.58 0 0 0-.27.22l-.17.19-.36-.39.18-.18a2 2 0 0 1 .36-.26 2.85 2.85 0 0 1 .52-.23 2.07 2.07 0 0 1 .66-.1 2 2 0 0 1 .66.1 1.44 1.44 0 0 1 .49.28 1.21 1.21 0 0 1 .3.4 1.14 1.14 0 0 1 .1.48 1.08 1.08 0 0 1-.14.57 1.6 1.6 0 0 1-.36.42 2.48 2.48 0 0 1-.45.3l-.43.21a5.16 5.16 0 0 0-.5.25 2.65 2.65 0 0 0-.44.31 1.56 1.56 0 0 0-.32.38.88.88 0 0 0-.12.46h2.85V92zm6.08-2.47a2 2 0 0 1 .73.13 1.8 1.8 0 0 1 .59.37 1.73 1.73 0 0 1 .4.57 1.82 1.82 0 0 1 .14.73 1.87 1.87 0 0 1-.16.77 1.76 1.76 0 0 1-.42.59 1.94 1.94 0 0 1-.63.38 2.23 2.23 0 0 1-1.35.06 1.94 1.94 0 0 1-.51-.22 2.09 2.09 0 0 1-.42-.34 1.76 1.76 0 0 1-.31-.45l.36-.27a1.76 1.76 0 0 0 .61.63 1.59 1.59 0 0 0 .85.24 1.49 1.49 0 0 0 .55-.1 1.35 1.35 0 0 0 .45-.28 1.3 1.3 0 0 0 .3-.44 1.42 1.42 0 0 0 .11-.56 1.37 1.37 0 0 0-.1-.54 1.25 1.25 0 0 0-.29-.42 1.31 1.31 0 0 0-.43-.27 1.48 1.48 0 0 0-.54-.1 1.58 1.58 0 0 0-.71.16 1.37 1.37 0 0 0-.54.48h-.5v-.22l.08-.4.1-.52.11-.57q.14-.67.3-1.5h2.74V88h-2.34l-.39 2a1.44 1.44 0 0 1 .51-.35 1.7 1.7 0 0 1 .71-.12zm6.56.15a3 3 0 0 1-.15 1 2.44 2.44 0 0 1-.42.77 1.91 1.91 0 0 1-.64.5 1.87 1.87 0 0 1-1.6 0 1.9 1.9 0 0 1-.64-.5 2.43 2.43 0 0 1-.42-.77 3.19 3.19 0 0 1 0-1.94 2.41 2.41 0 0 1 .42-.77 1.94 1.94 0 0 1 .64-.51 1.83 1.83 0 0 1 1.6 0 2 2 0 0 1 .64.51 2.42 2.42 0 0 1 .42.77 3 3 0 0 1 .15.94zm-.55 0a2.66 2.66 0 0 0-.11-.78 1.91 1.91 0 0 0-.3-.6 1.38 1.38 0 0 0-.46-.39 1.26 1.26 0 0 0-.59-.14 1.27 1.27 0 0 0-.6.14 1.38 1.38 0 0 0-.46.39 1.92 1.92 0 0 0-.3.6 2.9 2.9 0 0 0 0 1.57 1.92 1.92 0 0 0 .3.6 1.32 1.32 0 0 0 .46.39 1.3 1.3 0 0 0 .6.14 1.28 1.28 0 0 0 .59-.14 1.32 1.32 0 0 0 .46-.39 1.91 1.91 0 0 0 .3-.6 2.66 2.66 0 0 0 .1-.79zm5.44 0a3 3 0 0 1-.15 1 2.44 2.44 0 0 1-.42.77 1.91 1.91 0 0 1-.64.5 1.87 1.87 0 0 1-1.6 0 1.9 1.9 0 0 1-.64-.5 2.43 2.43 0 0 1-.42-.77 3.19 3.19 0 0 1 0-1.94 2.41 2.41 0 0 1 .42-.77 1.94 1.94 0 0 1 .64-.51 1.83 1.83 0 0 1 1.6 0 2 2 0 0 1 .64.51 2.42 2.42 0 0 1 .42.77 3 3 0 0 1 .15.94zm-.55 0a2.66 2.66 0 0 0-.11-.78 1.91 1.91 0 0 0-.3-.6 1.38 1.38 0 0 0-.46-.39 1.26 1.26 0 0 0-.59-.14 1.27 1.27 0 0 0-.6.14 1.38 1.38 0 0 0-.46.39 1.92 1.92 0 0 0-.3.6 2.9 2.9 0 0 0 0 1.57 1.92 1.92 0 0 0 .3.6 1.32 1.32 0 0 0 .46.39 1.3 1.3 0 0 0 .6.14 1.28 1.28 0 0 0 .59-.14 1.32 1.32 0 0 0 .46-.39 1.91 1.91 0 0 0 .3-.6 2.66 2.66 0 0 0 .11-.79zm4.68 2.43A1.48 1.48 0 0 1 200 92a1.4 1.4 0 0 1-.44-.28 1.24 1.24 0 0 1-.4-.92 1 1 0 0 1 .13-.5 1.21 1.21 0 0 1 .36-.4 1.76 1.76 0 0 1 .55-.26 2.53 2.53 0 0 1 .7-.09 3.87 3.87 0 0 1 .65.06 2.8 2.8 0 0 1 .58.16v-.37a1.21 1.21 0 0 0-.31-.88 1.14 1.14 0 0 0-.86-.32 1.84 1.84 0 0 0-.66.13 3.17 3.17 0 0 0-.68.37l-.19-.36a2.82 2.82 0 0 1 1.57-.54 1.68 1.68 0 0 1 1.23.44 1.62 1.62 0 0 1 .45 1.22v1.88c0 .15.07.22.2.22V92h-.21a.47.47 0 0 1-.32-.1.39.39 0 0 1-.12-.29v-.33a1.88 1.88 0 0 1-.72.58 2.22 2.22 0 0 1-.93.25zm.13-.42a1.89 1.89 0 0 0 .78-.16 1.28 1.28 0 0 0 .54-.42.49.49 0 0 0 .11-.16.4.4 0 0 0 0-.16v-.68a3.42 3.42 0 0 0-.56-.16 3.17 3.17 0 0 0-.6-.06 1.66 1.66 0 0 0-.94.24.73.73 0 0 0-.36.63.86.86 0 0 0 .08.36.92.92 0 0 0 .21.29 1 1 0 0 0 .32.2 1.07 1.07 0 0 0 .42.08zm3.18-4.69v-.8h.54v.8zm0 5v-4.14h.54V92zm3.83-3.66a1.71 1.71 0 0 0-1 .3 1.53 1.53 0 0 0-.58.79V92h-.54v-4.14h.51v1a1.9 1.9 0 0 1 .62-.75 1.45 1.45 0 0 1 .84-.27h.1zm2.72 3.49l-.14.06-.21.08-.27.07a1.54 1.54 0 0 1-.32 0 1.16 1.16 0 0 1-.34 0 .78.78 0 0 1-.28-.15.72.72 0 0 1-.19-.25.8.8 0 0 1-.07-.35v-3H208v-.43h.58v-1.41h.54v1.41h1v.43h-1v2.83a.43.43 0 0 0 .16.34.56.56 0 0 0 .34.11 1 1 0 0 0 .41-.08l.22-.11zm.68-4.83v-.8h.54v.8zm0 5v-4.14h.54V92zm7.95 0h-.54v-2.3a2 2 0 0 0-.23-1.07.78.78 0 0 0-.69-.34 1.17 1.17 0 0 0-.45.09 1.39 1.39 0 0 0-.39.25 1.72 1.72 0 0 0-.32.38 1.87 1.87 0 0 0-.21.48V92h-.54v-2.3a2 2 0 0 0-.22-1.08.77.77 0 0 0-.69-.34 1.23 1.23 0 0 0-.84.33 1.83 1.83 0 0 0-.53.86V92h-.54v-4.14h.5v.94a2 2 0 0 1 .67-.75 1.66 1.66 0 0 1 .92-.27 1.19 1.19 0 0 1 .84.3 1.29 1.29 0 0 1 .39.78 1.78 1.78 0 0 1 1.61-1.07 1.27 1.27 0 0 1 .6.13 1 1 0 0 1 .39.36 1.71 1.71 0 0 1 .22.57 3.69 3.69 0 0 1 .07.74zm2.93.11a2 2 0 0 1-.84-.17 2.06 2.06 0 0 1-.66-.47 2.18 2.18 0 0 1-.44-.69 2.25 2.25 0 0 1-.16-.84 2.2 2.2 0 0 1 .16-.83 2.14 2.14 0 0 1 .43-.68 2.05 2.05 0 0 1 .66-.46 2.11 2.11 0 0 1 1.67 0 2 2 0 0 1 .65.47 2.19 2.19 0 0 1 .58 1.5v.13a.35.35 0 0 1 0 .09h-3.55a1.76 1.76 0 0 0 .16.62 1.71 1.71 0 0 0 .34.49 1.52 1.52 0 0 0 .48.32 1.43 1.43 0 0 0 .57.12 1.49 1.49 0 0 0 .4-.06 1.68 1.68 0 0 0 .37-.15 1.37 1.37 0 0 0 .3-.24 1 1 0 0 0 .21-.31l.47.13a1.38 1.38 0 0 1-.27.42 1.93 1.93 0 0 1-.41.33 2 2 0 0 1-.51.22 2.21 2.21 0 0 1-.61.06zm1.54-2.38a1.67 1.67 0 0 0-.16-.61 1.66 1.66 0 0 0-.34-.48 1.48 1.48 0 0 0-1-.42 1.5 1.5 0 0 0-.58.11 1.47 1.47 0 0 0-.48.31 1.52 1.52 0 0 0-.33.48 1.81 1.81 0 0 0-.15.61zm3.62 2.27v-3.71h-.58v-.43h.58v-.11a2 2 0 0 1 .33-1.2 1.06 1.06 0 0 1 .9-.44 1.58 1.58 0 0 1 .48.07 1.38 1.38 0 0 1 .4.19l-.17.39a.82.82 0 0 0-.28-.14 1.2 1.2 0 0 0-.33 0 .66.66 0 0 0-.58.3 1.53 1.53 0 0 0-.2.86v.13h1.15v.43h-1.16V92zm4 .11a2 2 0 0 1-.83-.17 2.06 2.06 0 0 1-.65-.47 2.12 2.12 0 0 1-.43-.69 2.26 2.26 0 0 1-.15-.82 2.23 2.23 0 0 1 .16-.83 2.18 2.18 0 0 1 .43-.69 2.12 2.12 0 0 1 .65-.47 1.92 1.92 0 0 1 .82-.18 2 2 0 0 1 .84.21 2.11 2.11 0 0 1 .66.47 2.18 2.18 0 0 1 .43.69 2.3 2.3 0 0 1 0 1.66 2.12 2.12 0 0 1-.43.69 2 2 0 0 1-.66.47 2 2 0 0 1-.84.13zM229.65 90a1.74 1.74 0 0 0 .12.65 1.77 1.77 0 0 0 .32.53 1.46 1.46 0 0 0 .48.36 1.37 1.37 0 0 0 .59.13 1.35 1.35 0 0 0 .59-.13 1.57 1.57 0 0 0 .48-.36 1.74 1.74 0 0 0 .33-.53 1.84 1.84 0 0 0 0-1.31 1.71 1.71 0 0 0-.33-.54 1.56 1.56 0 0 0-.48-.36 1.35 1.35 0 0 0-.59-.13 1.32 1.32 0 0 0-.58.13 1.54 1.54 0 0 0-.48.36 1.74 1.74 0 0 0-.33.54 1.8 1.8 0 0 0-.12.66zm6.58-1.66a1.71 1.71 0 0 0-1 .3 1.53 1.53 0 0 0-.58.79V92h-.54v-4.14h.51v1a1.9 1.9 0 0 1 .62-.75 1.45 1.45 0 0 1 .84-.27h.1zm4.57 3.49l-.14.06-.21.08-.27.07a1.54 1.54 0 0 1-.32 0 1.16 1.16 0 0 1-.34 0 .78.78 0 0 1-.28-.15.72.72 0 0 1-.19-.25.8.8 0 0 1-.07-.35v-3h-.58v-.43h.6v-1.41h.54v1.41h1v.43h-1v2.83a.43.43 0 0 0 .16.34.56.56 0 0 0 .34.11 1 1 0 0 0 .41-.08l.22-.11zm4.2.17h-.54v-2.3a1.88 1.88 0 0 0-.24-1.06.81.81 0 0 0-.72-.35 1.23 1.23 0 0 0-.46.09 1.71 1.71 0 0 0-.43.25 1.76 1.76 0 0 0-.35.38 1.59 1.59 0 0 0-.22.47V92h-.54v-5.81h.5v2.61a1.88 1.88 0 0 1 .69-.74 1.77 1.77 0 0 1 1-.27 1.28 1.28 0 0 1 .61.13 1.13 1.13 0 0 1 .41.37 1.61 1.61 0 0 1 .23.57 3.47 3.47 0 0 1 .07.73zm1.15-5v-.8h.54v.8zm0 5v-4.14h.54V92zm3.13.11a2.9 2.9 0 0 1-1-.16 2.28 2.28 0 0 1-.8-.46l.25-.37a2.69 2.69 0 0 0 .72.43 2.09 2.09 0 0 0 .78.14 1.41 1.41 0 0 0 .8-.2.66.66 0 0 0 .3-.58.5.5 0 0 0-.08-.29.69.69 0 0 0-.24-.2 1.88 1.88 0 0 0-.39-.16l-.55-.14-.62-.18a1.87 1.87 0 0 1-.44-.2.72.72 0 0 1-.26-.28.9.9 0 0 1-.08-.41 1.19 1.19 0 0 1 .12-.55 1.12 1.12 0 0 1 .34-.4 1.53 1.53 0 0 1 .5-.24 2.24 2.24 0 0 1 .6-.08 2.33 2.33 0 0 1 .87.16 1.71 1.71 0 0 1 .63.41l-.26.32a1.47 1.47 0 0 0-.56-.36 2 2 0 0 0-.69-.12 1.72 1.72 0 0 0-.4 0 1 1 0 0 0-.32.14.69.69 0 0 0-.22.24.72.72 0 0 0-.08.35.57.57 0 0 0 .06.27.48.48 0 0 0 .18.18 1.54 1.54 0 0 0 .32.14l.48.12.7.19a2.2 2.2 0 0 1 .51.22.88.88 0 0 1 .31.31.9.9 0 0 1 .1.45 1.09 1.09 0 0 1-.44.91 1.91 1.91 0 0 1-1.14.4zm-222.75 9.6a1.64 1.64 0 0 1-.93-.27 2.12 2.12 0 0 1-.65-.68v2.57h-.54v-5.87h.49v.81a2 2 0 0 1 .66-.64 1.7 1.7 0 0 1 .89-.24 1.75 1.75 0 0 1 .79.18 2 2 0 0 1 .62.48 2.23 2.23 0 0 1 .41.69 2.27 2.27 0 0 1 .15.81 2.52 2.52 0 0 1-.14.83 2.12 2.12 0 0 1-.39.69 1.87 1.87 0 0 1-.6.47 1.71 1.71 0 0 1-.76.17zm-.15-.48a1.31 1.31 0 0 0 .61-.14 1.52 1.52 0 0 0 .47-.38 1.71 1.71 0 0 0 .3-.54 1.88 1.88 0 0 0 .1-.62 1.72 1.72 0 0 0-.12-.64 1.77 1.77 0 0 0-.33-.54 1.57 1.57 0 0 0-.49-.37 1.4 1.4 0 0 0-.61-.14 1.24 1.24 0 0 0-.44.08 1.8 1.8 0 0 0-.42.22 1.53 1.53 0 0 0-.34.33.88.88 0 0 0-.17.4v1.28a1.89 1.89 0 0 0 .24.42 1.7 1.7 0 0 0 .34.33 1.57 1.57 0 0 0 .4.22 1.27 1.27 0 0 0 .46.09zm6.47.4h-.55V99.3a1.88 1.88 0 0 0-.24-1.06.81.81 0 0 0-.72-.35 1.23 1.23 0 0 0-.46.09 1.71 1.71 0 0 0-.43.25 1.76 1.76 0 0 0-.35.38 1.59 1.59 0 0 0-.22.47v2.55h-.54v-5.84h.54v2.61a1.88 1.88 0 0 1 .69-.74 1.77 1.77 0 0 1 1-.27 1.28 1.28 0 0 1 .61.13 1.13 1.13 0 0 1 .41.37 1.61 1.61 0 0 1 .23.57 3.47 3.47 0 0 1 .07.73zm2.93.08a2 2 0 0 1-.83-.17 2.06 2.06 0 0 1-.65-.47 2.12 2.12 0 0 1-.43-.69 2.26 2.26 0 0 1-.15-.82 2.23 2.23 0 0 1 .16-.83 2.18 2.18 0 0 1 .43-.69 2.12 2.12 0 0 1 .65-.47 1.92 1.92 0 0 1 .82-.18 2 2 0 0 1 .83.18 2.11 2.11 0 0 1 .66.47 2.18 2.18 0 0 1 .43.69 2.3 2.3 0 0 1 0 1.66 2.12 2.12 0 0 1-.43.69 2 2 0 0 1-.66.47 2 2 0 0 1-.83.16zm-1.51-2.14a1.74 1.74 0 0 0 .12.65 1.77 1.77 0 0 0 .32.53 1.46 1.46 0 0 0 .48.36 1.37 1.37 0 0 0 .59.13 1.35 1.35 0 0 0 .59-.13 1.57 1.57 0 0 0 .48-.36 1.74 1.74 0 0 0 .33-.53 1.84 1.84 0 0 0 0-1.31 1.71 1.71 0 0 0-.33-.54 1.56 1.56 0 0 0-.48-.36 1.35 1.35 0 0 0-.59-.13 1.32 1.32 0 0 0-.58.13 1.54 1.54 0 0 0-.48.36 1.74 1.74 0 0 0-.33.54 1.8 1.8 0 0 0-.12.65zm8 2.06h-.54V99.3a2 2 0 0 0-.22-1.08.75.75 0 0 0-.68-.34 1.39 1.39 0 0 0-.48.09 1.62 1.62 0 0 0-.44.25 1.91 1.91 0 0 0-.36.38 1.49 1.49 0 0 0-.23.48v2.55h-.54v-4.17h.5v.94a2 2 0 0 1 .73-.74 2 2 0 0 1 1-.28 1.23 1.23 0 0 1 .58.13 1 1 0 0 1 .38.36 1.65 1.65 0 0 1 .21.57 4 4 0 0 1 .06.74zm2.96.08a2 2 0 0 1-.84-.17 2.06 2.06 0 0 1-.66-.47 2.18 2.18 0 0 1-.44-.69 2.25 2.25 0 0 1-.16-.84 2.2 2.2 0 0 1 .16-.83 2.14 2.14 0 0 1 .43-.68 2.05 2.05 0 0 1 .66-.46 2.11 2.11 0 0 1 1.67 0 2 2 0 0 1 .65.47 2.19 2.19 0 0 1 .58 1.5v.13a.35.35 0 0 1 0 .09h-3.57a1.76 1.76 0 0 0 .16.62 1.71 1.71 0 0 0 .34.49 1.52 1.52 0 0 0 .48.32 1.43 1.43 0 0 0 .57.12 1.49 1.49 0 0 0 .4-.06 1.68 1.68 0 0 0 .37-.15 1.37 1.37 0 0 0 .3-.24 1 1 0 0 0 .21-.31l.47.13a1.38 1.38 0 0 1-.27.42 1.93 1.93 0 0 1-.41.33 2 2 0 0 1-.51.22 2.21 2.21 0 0 1-.59.06zm1.54-2.38a1.67 1.67 0 0 0-.16-.61 1.66 1.66 0 0 0-.34-.48 1.48 1.48 0 0 0-1-.42 1.5 1.5 0 0 0-.58.11 1.47 1.47 0 0 0-.48.31 1.52 1.52 0 0 0-.33.48 1.81 1.81 0 0 0-.15.61zm6.9 2.3h-.54V99.3a2 2 0 0 0-.22-1.08.75.75 0 0 0-.68-.34 1.39 1.39 0 0 0-.48.09 1.62 1.62 0 0 0-.44.25 1.91 1.91 0 0 0-.36.38 1.49 1.49 0 0 0-.23.48v2.55h-.54v-4.17h.5v.94a2 2 0 0 1 .73-.74 2 2 0 0 1 1-.28 1.23 1.23 0 0 1 .58.13 1 1 0 0 1 .38.36 1.65 1.65 0 0 1 .21.57 4 4 0 0 1 .06.74zm2.46.08a1.17 1.17 0 0 1-1-.45 2.26 2.26 0 0 1-.33-1.35v-2.45h.54v2.35q0 1.42 1 1.42a1.43 1.43 0 0 0 .47-.08 1.46 1.46 0 0 0 .43-.23 1.9 1.9 0 0 0 .35-.36 1.81 1.81 0 0 0 .25-.47v-2.63h.54v3.46c0 .15.06.22.19.22v.48h-.27a.43.43 0 0 1-.31-.14.48.48 0 0 1-.12-.34v-.48a1.93 1.93 0 0 1-.74.76 2 2 0 0 1-1 .29zm9.65-.08h-.54V99.3a2 2 0 0 0-.24-1.07.78.78 0 0 0-.69-.34 1.17 1.17 0 0 0-.45.09 1.39 1.39 0 0 0-.39.25 1.72 1.72 0 0 0-.32.38 1.87 1.87 0 0 0-.21.48v2.54h-.54V99.3a2 2 0 0 0-.22-1.08.77.77 0 0 0-.69-.34 1.23 1.23 0 0 0-.84.33 1.83 1.83 0 0 0-.53.86v2.55h-.54v-4.16h.5v.94a2 2 0 0 1 .67-.75 1.66 1.66 0 0 1 .92-.27 1.19 1.19 0 0 1 .84.3 1.29 1.29 0 0 1 .39.78 1.78 1.78 0 0 1 1.61-1.07 1.27 1.27 0 0 1 .6.13 1 1 0 0 1 .39.36 1.71 1.71 0 0 1 .22.57 3.69 3.69 0 0 1 .07.74zm3.22.08a1.73 1.73 0 0 1-.91-.25 1.83 1.83 0 0 1-.64-.64v.81h-.49v-5.84h.54v2.54a2.38 2.38 0 0 1 .67-.68 1.62 1.62 0 0 1 .91-.26 1.66 1.66 0 0 1 .79.18 1.84 1.84 0 0 1 .59.49 2.32 2.32 0 0 1 .38.7 2.46 2.46 0 0 1 .13.8 2.27 2.27 0 0 1-.15.83 2.18 2.18 0 0 1-.42.68 2 2 0 0 1-.63.46 1.81 1.81 0 0 1-.77.18zm-.13-.48a1.4 1.4 0 0 0 .63-.14 1.53 1.53 0 0 0 .49-.38 1.81 1.81 0 0 0 .32-.54 1.71 1.71 0 0 0 .12-.62 1.88 1.88 0 0 0-.11-.63 1.77 1.77 0 0 0-.3-.54 1.48 1.48 0 0 0-.47-.38 1.32 1.32 0 0 0-.6-.14 1.26 1.26 0 0 0-.46.08 1.56 1.56 0 0 0-.4.23 1.89 1.89 0 0 0-.33.33 2.13 2.13 0 0 0-.24.4v1.3a.89.89 0 0 0 .17.4 1.45 1.45 0 0 0 .34.32 1.74 1.74 0 0 0 .42.22 1.3 1.3 0 0 0 .4.09zm4.8.48a2 2 0 0 1-.84-.17 2.06 2.06 0 0 1-.66-.47 2.18 2.18 0 0 1-.44-.69 2.25 2.25 0 0 1-.16-.84 2.2 2.2 0 0 1 .16-.83 2.14 2.14 0 0 1 .43-.68 2.05 2.05 0 0 1 .66-.46 2.11 2.11 0 0 1 1.67 0 2 2 0 0 1 .65.47 2.19 2.19 0 0 1 .58 1.5v.13a.35.35 0 0 1 0 .09h-3.57a1.76 1.76 0 0 0 .16.62 1.71 1.71 0 0 0 .34.49 1.52 1.52 0 0 0 .48.32 1.43 1.43 0 0 0 .57.12 1.49 1.49 0 0 0 .4-.06 1.68 1.68 0 0 0 .37-.15 1.37 1.37 0 0 0 .3-.24 1 1 0 0 0 .21-.31l.47.13a1.38 1.38 0 0 1-.27.42 1.93 1.93 0 0 1-.41.33 2 2 0 0 1-.51.22 2.21 2.21 0 0 1-.59.06zm1.54-2.38a1.67 1.67 0 0 0-.16-.61 1.66 1.66 0 0 0-.34-.48 1.48 1.48 0 0 0-1-.42 1.5 1.5 0 0 0-.58.11 1.47 1.47 0 0 0-.48.31 1.52 1.52 0 0 0-.33.48 1.81 1.81 0 0 0-.15.61zm3.44-1.39a1.71 1.71 0 0 0-1 .3 1.53 1.53 0 0 0-.58.79v2.59h-.54v-4.16h.51v1a1.9 1.9 0 0 1 .62-.75 1.45 1.45 0 0 1 .84-.27h.1zm.28 3.69v-.78h.47v.78z"/><path class="cls-3" d="M25.28 49.37h232.5v1.27H25.28z"/><path class="cls-4" d="M30.31 17h-2.78v7.1h-.77V17H24v-.68h6.31zm2.19 7.22a2.71 2.71 0 0 1-1.14-.22 2.81 2.81 0 0 1-.89-.64 2.88 2.88 0 0 1-.59-.94 3.1 3.1 0 0 1-.21-1.13 3.06 3.06 0 0 1 .21-1.14 3 3 0 0 1 .59-.94 2.87 2.87 0 0 1 .89-.65 2.62 2.62 0 0 1 1.13-.24 2.66 2.66 0 0 1 1.13.24 2.85 2.85 0 0 1 .9.65 3 3 0 0 1 .59.94 3.06 3.06 0 0 1 .21 1.14 3.1 3.1 0 0 1-.21 1.13 2.91 2.91 0 0 1-.59.94 2.79 2.79 0 0 1-.9.64 2.75 2.75 0 0 1-1.12.22zm-2.07-2.94a2.37 2.37 0 0 0 .17.89 2.43 2.43 0 0 0 .44.72 2 2 0 0 0 .66.49 1.89 1.89 0 0 0 .81.18 1.85 1.85 0 0 0 .81-.18 2.15 2.15 0 0 0 .66-.49 2.35 2.35 0 0 0 .45-.73 2.53 2.53 0 0 0 0-1.79 2.34 2.34 0 0 0-.45-.73 2.13 2.13 0 0 0-.66-.49 1.84 1.84 0 0 0-.82-.15 1.81 1.81 0 0 0-.8.18 2.11 2.11 0 0 0-.66.5 2.39 2.39 0 0 0-.45.74 2.45 2.45 0 0 0-.16.86zm9.07 2.94a2.26 2.26 0 0 1-1.28-.37 2.92 2.92 0 0 1-.89-.93v3.52h-.75v-8h.67v1.11a2.77 2.77 0 0 1 .91-.87 2.33 2.33 0 0 1 1.22-.33 2.38 2.38 0 0 1 1.08.25 2.78 2.78 0 0 1 .86.66 3.06 3.06 0 0 1 .56.95 3.12 3.12 0 0 1 .2 1.11 3.46 3.46 0 0 1-.19 1.14 2.91 2.91 0 0 1-.53.94 2.55 2.55 0 0 1-.82.64 2.33 2.33 0 0 1-1.04.18zm-.21-.66a1.79 1.79 0 0 0 .84-.2 2.1 2.1 0 0 0 .65-.52 2.33 2.33 0 0 0 .41-.73 2.59 2.59 0 0 0 .14-.85 2.37 2.37 0 0 0-.16-.88 2.44 2.44 0 0 0-.45-.73 2.15 2.15 0 0 0-.67-.5 1.92 1.92 0 0 0-.84-.19 1.74 1.74 0 0 0-.6.12 2.47 2.47 0 0 0-.58.31 2.06 2.06 0 0 0-.46.45 1.21 1.21 0 0 0-.24.54v1.75a2.65 2.65 0 0 0 .33.57 2.36 2.36 0 0 0 .46.46 2.21 2.21 0 0 0 .55.3 1.77 1.77 0 0 0 .62.1zm8.64.66a1.6 1.6 0 0 1-1.39-.62 3.1 3.1 0 0 1-.46-1.85V18.4h.75v3.22q0 1.94 1.33 1.94a2 2 0 0 0 .65-.11 2.05 2.05 0 0 0 .59-.32 2.57 2.57 0 0 0 .48-.49 2.46 2.46 0 0 0 .34-.65V18.4H51v4.75c0 .21.09.31.26.31v.66h-.36a.59.59 0 0 1-.43-.19.66.66 0 0 1-.17-.47v-.66a2.65 2.65 0 0 1-1 1 2.7 2.7 0 0 1-1.37.42zm7.64 0a2.26 2.26 0 0 1-1.28-.37 2.92 2.92 0 0 1-.89-.93v3.52h-.75v-8h.67v1.11a2.77 2.77 0 0 1 .91-.87 2.33 2.33 0 0 1 1.22-.33 2.38 2.38 0 0 1 1.08.25 2.78 2.78 0 0 1 .86.66 3.06 3.06 0 0 1 .56.95 3.12 3.12 0 0 1 .2 1.11A3.46 3.46 0 0 1 58 22.4a2.91 2.91 0 0 1-.53.94 2.55 2.55 0 0 1-.82.64 2.33 2.33 0 0 1-1.08.24zm-.21-.66a1.79 1.79 0 0 0 .84-.2 2.1 2.1 0 0 0 .65-.52 2.33 2.33 0 0 0 .41-.73 2.59 2.59 0 0 0 .14-.85 2.37 2.37 0 0 0-.16-.88 2.44 2.44 0 0 0-.45-.73 2.15 2.15 0 0 0-.67-.5 1.92 1.92 0 0 0-.84-.19 1.74 1.74 0 0 0-.6.12 2.47 2.47 0 0 0-.58.31 2.06 2.06 0 0 0-.46.45 1.21 1.21 0 0 0-.24.54v1.75a2.65 2.65 0 0 0 .33.57 2.36 2.36 0 0 0 .46.46 2.21 2.21 0 0 0 .55.3 1.77 1.77 0 0 0 .62.1zm6.89-7.45H63v6.71a.69.69 0 0 0 .17.5.65.65 0 0 0 .49.18h.29l.31-.09.13.6a2.42 2.42 0 0 1-.51.14 2.91 2.91 0 0 1-.52.05 1.11 1.11 0 0 1-.81-.29 1.09 1.09 0 0 1-.3-.82zm2.94 1.09v-1.1h.75v1.1zm0 6.91V18.4h.75v5.71zm10.89 0h-.75v-3.19a2.67 2.67 0 0 0-.33-1.47 1.06 1.06 0 0 0-.94-.47 1.6 1.6 0 0 0-.62.12 1.92 1.92 0 0 0-.54.34 2.33 2.33 0 0 0-.43.52 2.55 2.55 0 0 0-.29.66v3.49h-.75v-3.19a2.75 2.75 0 0 0-.31-1.48 1.06 1.06 0 0 0-.92-.44 1.68 1.68 0 0 0-1.15.45 2.51 2.51 0 0 0-.72 1.18v3.5h-.75V18.4h.68v1.29a2.7 2.7 0 0 1 .92-1 2.28 2.28 0 0 1 1.26-.37 1.63 1.63 0 0 1 1.16.41 1.77 1.77 0 0 1 .53 1.06 2.44 2.44 0 0 1 2.2-1.47 1.74 1.74 0 0 1 .82.18 1.37 1.37 0 0 1 .54.5 2.32 2.32 0 0 1 .3.78 5 5 0 0 1 .09 1zm1.58-6.91v-1.1h.75v1.1zm0 6.91V18.4h.75v5.71zm5.13-.28l-.19.09-.3.08-.37.1a2.11 2.11 0 0 1-.44 0 1.59 1.59 0 0 1-.46-.07 1.06 1.06 0 0 1-.38-.2 1 1 0 0 1-.26-.34 1.11 1.11 0 0 1-.1-.48V19h-.79v-.6h.79v-1.93H81v1.93h1.32v.6H81v3.88a.59.59 0 0 0 .22.47.77.77 0 0 0 .47.15 1.41 1.41 0 0 0 .56-.1l.31-.15z"/></g></g></svg>