<svg xmlns="http://www.w3.org/2000/svg" viewBox="0 0 163.64 161.74"><defs><style>.cls-1{fill:#fff;stroke:#d2d2d2}.cls-1,.cls-8{stroke-miterlimit:10}.cls-2{fill:#3a85c6}.cls-3{fill:#f3f3f3}.cls-4{fill:#ddd}.cls-5{font-size:16.39px;font-family:Raleway-Regular,Raleway}.cls-5,.cls-6{fill:#898989}.cls-7{fill:#f5bb18}.cls-8{fill:none;stroke:#fff;stroke-width:.5px}</style></defs><title>signup</title><g id="Layer_2" data-name="Layer 2"><g id="Layer_1-2" data-name="Layer 1"><rect class="cls-1" x=".5" y="3.79" width="157.45" height="157.45" rx="7" ry="7"/><rect class="cls-2" x="22.45" y="109.15" width="113.55" height="17.56" rx="7.5" ry="7.5"/><path class="cls-3" d="M46.26 117.52a3.55 3.55 0 0 1 .21-1.19 3.3 3.3 0 0 1 .61-1.06 3.14 3.14 0 0 1 1-.76 3 3 0 0 1 1.34-.29 2.78 2.78 0 0 1 1.52.4 2.45 2.45 0 0 1 .93 1l-.52.32a2 2 0 0 0-.39-.55 2.15 2.15 0 0 0-.49-.37 2.09 2.09 0 0 0-.54-.2 2.64 2.64 0 0 0-.55-.06 2.23 2.23 0 0 0-1.06.24 2.44 2.44 0 0 0-.77.64 2.76 2.76 0 0 0-.47.88 3.22 3.22 0 0 0-.16 1 3 3 0 0 0 .19 1.06 3 3 0 0 0 .52.89 2.52 2.52 0 0 0 .79.62 2.16 2.16 0 0 0 1 .23 2.48 2.48 0 0 0 .58-.07 2.17 2.17 0 0 0 .57-.22 2.37 2.37 0 0 0 .51-.38 2 2 0 0 0 .39-.56l.54.28a2 2 0 0 1-.45.66 3 3 0 0 1-.65.48 3.22 3.22 0 0 1-.75.3 3.13 3.13 0 0 1-.78.1 2.67 2.67 0 0 1-1.25-.3 3.3 3.3 0 0 1-1-.78 3.63 3.63 0 0 1-.64-1.1 3.54 3.54 0 0 1-.23-1.21zm9.17-.95a2 2 0 0 0-1.12.36 1.79 1.79 0 0 0-.67.93v3H53V116h.6v1.17a2.21 2.21 0 0 1 .73-.88 1.7 1.7 0 0 1 1-.32h.12zm2.71 4.43a2.35 2.35 0 0 1-1-.2 2.4 2.4 0 0 1-.77-.55 2.56 2.56 0 0 1-.51-.81 2.63 2.63 0 0 1-.18-1 2.58 2.58 0 0 1 .18-1 2.5 2.5 0 0 1 .51-.8 2.4 2.4 0 0 1 .77-.54 2.46 2.46 0 0 1 2 0 2.32 2.32 0 0 1 .76.55 2.58 2.58 0 0 1 .67 1.75v.15a.39.39 0 0 1 0 .1h-4.2a2.05 2.05 0 0 0 .18.73 2 2 0 0 0 .4.58 1.77 1.77 0 0 0 .56.38 1.66 1.66 0 0 0 .67.14 1.72 1.72 0 0 0 .47-.07 1.9 1.9 0 0 0 .43-.18 1.61 1.61 0 0 0 .36-.28 1.18 1.18 0 0 0 .24-.36l.55.15a1.62 1.62 0 0 1-.32.49 2.23 2.23 0 0 1-.48.38 2.35 2.35 0 0 1-.6.25 2.63 2.63 0 0 1-.69.14zm1.8-2.79a2 2 0 0 0-.58-1.27 1.75 1.75 0 0 0-.55-.37 1.73 1.73 0 0 0-.67-.13 1.76 1.76 0 0 0-.67.13 1.73 1.73 0 0 0-.56.37 1.8 1.8 0 0 0-.38.56 2.13 2.13 0 0 0-.17.71zm2.82 2.79a1.72 1.72 0 0 1-.64-.12 1.62 1.62 0 0 1-.52-.32 1.45 1.45 0 0 1-.46-1.08 1.2 1.2 0 0 1 .15-.59 1.42 1.42 0 0 1 .42-.47 2.06 2.06 0 0 1 .65-.3 3 3 0 0 1 .82-.11 4.48 4.48 0 0 1 .76.07 3.32 3.32 0 0 1 .68.19v-.44a1.42 1.42 0 0 0-.37-1 1.34 1.34 0 0 0-1-.38 2.15 2.15 0 0 0-.77.15 3.69 3.69 0 0 0-.8.43l-.22-.42a3.29 3.29 0 0 1 1.84-.64 2 2 0 0 1 1.44.52 1.91 1.91 0 0 1 .52 1.42v2.2c0 .17.08.26.23.26v.56h-.24a.55.55 0 0 1-.38-.12.45.45 0 0 1-.15-.34v-.38a2.22 2.22 0 0 1-.85.67 2.6 2.6 0 0 1-1.11.24zm.15-.49a2.2 2.2 0 0 0 .91-.19 1.48 1.48 0 0 0 .63-.5.58.58 0 0 0 .13-.18.46.46 0 0 0 0-.18v-.8a3.94 3.94 0 0 0-.66-.19 3.75 3.75 0 0 0-.7-.07 1.94 1.94 0 0 0-1.1.28.85.85 0 0 0-.42.74 1 1 0 0 0 .09.42 1.06 1.06 0 0 0 .24.34 1.15 1.15 0 0 0 .37.23 1.26 1.26 0 0 0 .51.08zm6.03.14l-.16.08-.25.09-.32.08a1.78 1.78 0 0 1-.37 0 1.37 1.37 0 0 1-.39-.06.91.91 0 0 1-.33-.17.86.86 0 0 1-.22-.29 1 1 0 0 1-.08-.41v-3.49h-.67V116h.67v-1.65h.64V116h1.12v.51h-1.14v3.31a.5.5 0 0 0 .19.4.66.66 0 0 0 .4.13 1.19 1.19 0 0 0 .48-.09l.26-.13zm2.78.35a2.35 2.35 0 0 1-1-.2 2.4 2.4 0 0 1-.77-.55 2.56 2.56 0 0 1-.51-.81 2.63 2.63 0 0 1-.18-1 2.58 2.58 0 0 1 .18-1 2.5 2.5 0 0 1 .51-.8 2.4 2.4 0 0 1 .77-.54 2.46 2.46 0 0 1 2 0 2.32 2.32 0 0 1 .76.55 2.58 2.58 0 0 1 .67 1.75v.15a.39.39 0 0 1 0 .1h-4.21a2.05 2.05 0 0 0 .18.73 2 2 0 0 0 .4.58 1.77 1.77 0 0 0 .56.38 1.66 1.66 0 0 0 .67.14 1.72 1.72 0 0 0 .47-.07 1.9 1.9 0 0 0 .43-.18A1.61 1.61 0 0 0 73 120a1.18 1.18 0 0 0 .24-.36l.55.15a1.62 1.62 0 0 1-.32.49 2.23 2.23 0 0 1-.48.38 2.35 2.35 0 0 1-.6.25 2.63 2.63 0 0 1-.67.09zm1.8-2.79a2 2 0 0 0-.58-1.27 1.75 1.75 0 0 0-.55-.37 1.73 1.73 0 0 0-.67-.13 1.76 1.76 0 0 0-.67.13 1.73 1.73 0 0 0-.56.37 1.8 1.8 0 0 0-.38.56 2.13 2.13 0 0 0-.17.71zm5.88-3.97h.6l2.76 6.65H82l-.86-2.08h-3l-.85 2.08h-.7zm1.6 4.05L79.67 115l-1.36 3.29zm2.07.14a2.67 2.67 0 0 1 .18-1 2.44 2.44 0 0 1 .5-.8 2.35 2.35 0 0 1 .77-.54 2.45 2.45 0 0 1 1-.2 2.28 2.28 0 0 1 1.21.31 2 2 0 0 1 .78.85l-.62.2a1.48 1.48 0 0 0-.58-.58 1.62 1.62 0 0 0-.82-.21 1.64 1.64 0 0 0-.7.15 1.8 1.8 0 0 0-.56.41 1.88 1.88 0 0 0-.37.61 2.17 2.17 0 0 0-.14.78 2.14 2.14 0 0 0 .14.78 2 2 0 0 0 .38.63 1.83 1.83 0 0 0 .57.42 1.57 1.57 0 0 0 .69.16 1.67 1.67 0 0 0 .46-.07 1.75 1.75 0 0 0 .43-.18 1.51 1.51 0 0 0 .34-.27.87.87 0 0 0 .2-.32l.63.19a1.6 1.6 0 0 1-.3.48 2.08 2.08 0 0 1-.46.38 2.29 2.29 0 0 1-.59.25 2.54 2.54 0 0 1-.67.09 2.37 2.37 0 0 1-1.76-.75 2.56 2.56 0 0 1-.51-.81 2.63 2.63 0 0 1-.2-.96zm5.1 0a2.67 2.67 0 0 1 .18-1 2.44 2.44 0 0 1 .5-.8 2.35 2.35 0 0 1 .77-.54 2.45 2.45 0 0 1 1-.2 2.28 2.28 0 0 1 1.21.31 2 2 0 0 1 .78.85l-.62.2a1.48 1.48 0 0 0-.58-.58 1.62 1.62 0 0 0-.82-.21 1.64 1.64 0 0 0-.7.15 1.8 1.8 0 0 0-.56.41 1.88 1.88 0 0 0-.37.61 2.17 2.17 0 0 0-.14.78 2.14 2.14 0 0 0 .14.78 2 2 0 0 0 .38.63 1.83 1.83 0 0 0 .57.42 1.57 1.57 0 0 0 .69.16 1.67 1.67 0 0 0 .46-.07 1.75 1.75 0 0 0 .43-.18 1.51 1.51 0 0 0 .34-.27.87.87 0 0 0 .2-.32l.63.19a1.6 1.6 0 0 1-.3.48 2.08 2.08 0 0 1-.46.38 2.29 2.29 0 0 1-.59.25 2.54 2.54 0 0 1-.67.09 2.37 2.37 0 0 1-1.76-.75 2.56 2.56 0 0 1-.51-.81 2.63 2.63 0 0 1-.2-.96zm7.51 2.57a2.32 2.32 0 0 1-1-.2 2.41 2.41 0 0 1-.76-.55 2.5 2.5 0 0 1-.5-.81 2.64 2.64 0 0 1-.18-1 2.61 2.61 0 0 1 .18-1 2.56 2.56 0 0 1 .51-.81 2.47 2.47 0 0 1 .76-.55 2.26 2.26 0 0 1 1-.21 2.29 2.29 0 0 1 1 .21 2.46 2.46 0 0 1 .77.55 2.57 2.57 0 0 1 .51.81 2.61 2.61 0 0 1 .18 1 2.64 2.64 0 0 1-.18 1 2.5 2.5 0 0 1-.5.81 2.39 2.39 0 0 1-.77.55 2.35 2.35 0 0 1-1.02.2zm-1.77-2.51a2 2 0 0 0 .14.76 2.07 2.07 0 0 0 .38.62 1.7 1.7 0 0 0 .56.42 1.62 1.62 0 0 0 .69.15 1.57 1.57 0 0 0 .69-.16 1.82 1.82 0 0 0 .57-.42 2 2 0 0 0 .38-.62 2.16 2.16 0 0 0 0-1.53 2 2 0 0 0-.38-.63 1.82 1.82 0 0 0-.57-.42 1.58 1.58 0 0 0-.69-.15 1.55 1.55 0 0 0-.68.15 1.83 1.83 0 0 0-.56.43 2.07 2.07 0 0 0-.38.63 2.11 2.11 0 0 0-.15.75zm6.79 2.51a1.37 1.37 0 0 1-1.19-.53 2.66 2.66 0 0 1-.39-1.58V116h.64v2.75q0 1.66 1.13 1.66a1.68 1.68 0 0 0 .55-.09 1.75 1.75 0 0 0 .5-.27 2.22 2.22 0 0 0 .41-.42 2.12 2.12 0 0 0 .29-.55V116h.64v4.05c0 .17.08.26.23.26v.56h-.28a.51.51 0 0 1-.37-.16.56.56 0 0 1-.14-.4v-.56a2.27 2.27 0 0 1-.87.89 2.31 2.31 0 0 1-1.15.36zm8.14-.11h-.64v-2.73a2.37 2.37 0 0 0-.26-1.26.88.88 0 0 0-.79-.39 1.61 1.61 0 0 0-.56.1 1.89 1.89 0 0 0-.52.29 2.23 2.23 0 0 0-.43.44 1.74 1.74 0 0 0-.27.56v3h-.64V116h.58v1.1a2.3 2.3 0 0 1 .86-.86 2.35 2.35 0 0 1 1.21-.33 1.44 1.44 0 0 1 .68.15 1.16 1.16 0 0 1 .45.42 2 2 0 0 1 .24.67 4.69 4.69 0 0 1 .07.87zm3.65-.24l-.16.08-.25.09-.32.08a1.78 1.78 0 0 1-.37 0 1.37 1.37 0 0 1-.39-.06.91.91 0 0 1-.33-.17.86.86 0 0 1-.22-.29 1 1 0 0 1-.08-.41v-3.49h-.67V116h.67v-1.65h.63V116h1.12v.51H111v3.31a.5.5 0 0 0 .19.4.66.66 0 0 0 .4.13 1.19 1.19 0 0 0 .48-.09l.26-.13z"/><rect class="cls-4" x="23.03" y="71.69" width="113.55" height="17.56" rx="7.5" ry="7.5"/><text class="cls-5" transform="translate(33.21 81.09)">...........</text><rect class="cls-4" x="21.86" y="44.77" width="113.55" height="17.56" rx="7.5" ry="7.5"/><path class="cls-6" d="M36 56.6a2.35 2.35 0 0 1-1-.2 2.4 2.4 0 0 1-.77-.55 2.56 2.56 0 0 1-.51-.81 2.63 2.63 0 0 1-.18-1 2.58 2.58 0 0 1 .18-1 2.5 2.5 0 0 1 .51-.8 2.4 2.4 0 0 1 .77-.54 2.46 2.46 0 0 1 2 0 2.32 2.32 0 0 1 .76.55 2.58 2.58 0 0 1 .67 1.75v.15a.39.39 0 0 1 0 .1h-4.19a2.05 2.05 0 0 0 .18.73 2 2 0 0 0 .4.58 1.77 1.77 0 0 0 .56.38 1.66 1.66 0 0 0 .67.14 1.72 1.72 0 0 0 .47-.07 1.9 1.9 0 0 0 .43-.18 1.61 1.61 0 0 0 .36-.28 1.18 1.18 0 0 0 .24-.36l.55.15a1.62 1.62 0 0 1-.32.49 2.23 2.23 0 0 1-.48.38 2.35 2.35 0 0 1-.6.25 2.63 2.63 0 0 1-.7.14zm1.8-2.79a2 2 0 0 0-.58-1.27 1.75 1.75 0 0 0-.55-.37A1.73 1.73 0 0 0 36 52a1.76 1.76 0 0 0-.67.13 1.73 1.73 0 0 0-.56.37 1.8 1.8 0 0 0-.38.56 2.13 2.13 0 0 0-.17.71zm8.87 2.69H46v-2.72a2.28 2.28 0 0 0-.27-1.25.91.91 0 0 0-.81-.4 1.36 1.36 0 0 0-.53.1 1.62 1.62 0 0 0-.46.29 2 2 0 0 0-.37.44 2.15 2.15 0 0 0-.24.57v3h-.64v-2.75a2.34 2.34 0 0 0-.26-1.26.9.9 0 0 0-.81-.39 1.44 1.44 0 0 0-1 .38 2.14 2.14 0 0 0-.62 1v3h-.64v-4.88H40v1.1a2.31 2.31 0 0 1 .79-.87 2 2 0 0 1 1.08-.31 1.39 1.39 0 0 1 1 .35 1.51 1.51 0 0 1 .45.91 2.08 2.08 0 0 1 1.88-1.26 1.49 1.49 0 0 1 .7.15 1.18 1.18 0 0 1 .46.43 2 2 0 0 1 .25.67 4.32 4.32 0 0 1 .08.87zm2.57.1a1.72 1.72 0 0 1-.64-.12 1.62 1.62 0 0 1-.52-.32 1.45 1.45 0 0 1-.46-1.08 1.2 1.2 0 0 1 .15-.59 1.42 1.42 0 0 1 .42-.47 2.06 2.06 0 0 1 .65-.3 3 3 0 0 1 .82-.11 4.48 4.48 0 0 1 .76.07 3.32 3.32 0 0 1 .68.19v-.44a1.42 1.42 0 0 0-.37-1 1.34 1.34 0 0 0-1-.38 2.15 2.15 0 0 0-.77.15 3.69 3.69 0 0 0-.8.43l-.22-.42a3.29 3.29 0 0 1 1.84-.64 2 2 0 0 1 1.44.52 1.91 1.91 0 0 1 .52 1.42v2.2c0 .17.08.26.23.26v.56h-.24a.55.55 0 0 1-.38-.12.45.45 0 0 1-.15-.34v-.38a2.22 2.22 0 0 1-.85.67 2.6 2.6 0 0 1-1.11.24zm.15-.49a2.2 2.2 0 0 0 .91-.19 1.48 1.48 0 0 0 .63-.5.58.58 0 0 0 .13-.18.46.46 0 0 0 0-.18v-.8a3.94 3.94 0 0 0-.66-.19 3.75 3.75 0 0 0-.7-.07 1.94 1.94 0 0 0-1.1.28.85.85 0 0 0-.42.74 1 1 0 0 0 .09.42 1.06 1.06 0 0 0 .24.34 1.15 1.15 0 0 0 .37.23 1.26 1.26 0 0 0 .51.1zm3.73-5.5v-.94h.64v.94zm0 5.9v-4.88h.64v4.87zm2.07-6.84h.64v5.73a.59.59 0 0 0 .15.43.56.56 0 0 0 .42.15h.24l.26-.08.11.52a2.11 2.11 0 0 1-.44.12 2.54 2.54 0 0 1-.44 0 .94.94 0 0 1-.69-.25.93.93 0 0 1-.25-.7zm5.72 1.19a3.37 3.37 0 0 1 1.31.26 3.3 3.3 0 0 1 1.09.73A3.48 3.48 0 0 1 64 53a3.75 3.75 0 0 1 .27 1.45v.35a3.77 3.77 0 0 1-.06.46 3.5 3.5 0 0 1-.14.5 1.78 1.78 0 0 1-.24.46 1.16 1.16 0 0 1-.37.33 1.1 1.1 0 0 1-.54.13.89.89 0 0 1-.38-.07.58.58 0 0 1-.23-.19.81.81 0 0 1-.12-.28 2.53 2.53 0 0 1-.06-.32 2.31 2.31 0 0 1-.67.47 2.09 2.09 0 0 1-.91.2 1.44 1.44 0 0 1-1-.35 1.19 1.19 0 0 1-.37-.9 1.1 1.1 0 0 1 .15-.6 1.18 1.18 0 0 1 .4-.39 1.78 1.78 0 0 1 .56-.21 3.23 3.23 0 0 1 .62-.06 2.88 2.88 0 0 1 .72.08l.47.14a3.38 3.38 0 0 0-.05-.61 1.26 1.26 0 0 0-.18-.47.9.9 0 0 0-.36-.31 1.27 1.27 0 0 0-.57-.11 2.12 2.12 0 0 0-.7.12 2.21 2.21 0 0 0-.61.32l-.17-.37a3.16 3.16 0 0 1 .72-.36 2.5 2.5 0 0 1 .82-.13 1.66 1.66 0 0 1 .82.17 1.22 1.22 0 0 1 .46.45 1.62 1.62 0 0 1 .2.62 5.51 5.51 0 0 1 0 .68v1.59a1 1 0 0 0 .07.29.44.44 0 0 0 .15.19.43.43 0 0 0 .26.07.62.62 0 0 0 .48-.2 1.51 1.51 0 0 0 .3-.49 2.63 2.63 0 0 0 .15-.62 4.68 4.68 0 0 0 0-.58 3.4 3.4 0 0 0-.23-1.26 3.16 3.16 0 0 0-.65-1 3.11 3.11 0 0 0-1-.69 2.94 2.94 0 0 0-1.22-.25 3.07 3.07 0 0 0-1.2.24A3.08 3.08 0 0 0 58 53.08a3.21 3.21 0 0 0-.25 1.27A3.35 3.35 0 0 0 58 55.6a3.24 3.24 0 0 0 .64 1 3 3 0 0 0 1 .68 3 3 0 0 0 1.23.25 2.81 2.81 0 0 0 .74-.09 4 4 0 0 0 .69-.26l.12.3a3.8 3.8 0 0 1-.78.28 3.42 3.42 0 0 1-2.11-.17 3.31 3.31 0 0 1-1.08-.74 3.47 3.47 0 0 1-.73-1.12 3.65 3.65 0 0 1-.27-1.41 3.5 3.5 0 0 1 .29-1.44 3.4 3.4 0 0 1 1.88-1.81 3.5 3.5 0 0 1 1.29-.21zm.57 5a1 1 0 0 0 .5-.44 1.3 1.3 0 0 0 .11-.51v-.37l-.44-.11a3 3 0 0 0-1.24-.05 1.28 1.28 0 0 0-.41.15.83.83 0 0 0-.29.27.75.75 0 0 0-.11.42.79.79 0 0 0 .28.63 1.08 1.08 0 0 0 .72.24 1.78 1.78 0 0 0 .46-.06 2.37 2.37 0 0 0 .42-.18zM65.71 58H66a.65.65 0 0 0 .27 0 .5.5 0 0 0 .19-.21 3.47 3.47 0 0 0 .21-.46q.12-.3.33-.81l-2.13-4.88h.66l1.81 4.29 1.66-4.3h.61l-2.53 6.29a1.15 1.15 0 0 1-.34.47 1 1 0 0 1-.65.2h-.39zm6.7-1.4a2.32 2.32 0 0 1-1-.2 2.41 2.41 0 0 1-.76-.55 2.5 2.5 0 0 1-.5-.81 2.64 2.64 0 0 1-.18-1 2.61 2.61 0 0 1 .18-1 2.56 2.56 0 0 1 .51-.81 2.47 2.47 0 0 1 .76-.55 2.26 2.26 0 0 1 1-.21 2.29 2.29 0 0 1 1 .21 2.46 2.46 0 0 1 .77.55 2.57 2.57 0 0 1 .51.81 2.61 2.61 0 0 1 .18 1 2.64 2.64 0 0 1-.18 1 2.5 2.5 0 0 1-.5.81 2.39 2.39 0 0 1-.77.55 2.35 2.35 0 0 1-1.02.2zm-1.77-2.51a2 2 0 0 0 .14.76 2.07 2.07 0 0 0 .38.62 1.7 1.7 0 0 0 .56.42 1.62 1.62 0 0 0 .69.15 1.57 1.57 0 0 0 .69-.16 1.82 1.82 0 0 0 .57-.42 2 2 0 0 0 .38-.62 2.16 2.16 0 0 0 0-1.53 2 2 0 0 0-.38-.63 1.82 1.82 0 0 0-.57-.42 1.58 1.58 0 0 0-.69-.15 1.55 1.55 0 0 0-.68.15 1.83 1.83 0 0 0-.56.43 2.07 2.07 0 0 0-.38.63 2.11 2.11 0 0 0-.15.77zm6.79 2.51a1.37 1.37 0 0 1-1.19-.53 2.66 2.66 0 0 1-.39-1.58v-2.86h.64v2.75q0 1.66 1.13 1.66a1.68 1.68 0 0 0 .55-.09 1.75 1.75 0 0 0 .5-.27 2.22 2.22 0 0 0 .41-.42 2.12 2.12 0 0 0 .29-.55v-3.08H80v4.05c0 .17.08.26.23.26v.56H80a.51.51 0 0 1-.37-.16.56.56 0 0 1-.14-.4v-.54a2.27 2.27 0 0 1-.87.89 2.31 2.31 0 0 1-1.19.31zm6.47-4.41a2 2 0 0 0-1.12.36 1.79 1.79 0 0 0-.67.93v3h-.64v-4.85h.6v1.17a2.21 2.21 0 0 1 .73-.88 1.7 1.7 0 0 1 1-.32h.12zm2.47 4.41a3.39 3.39 0 0 1-1.11-.19 2.68 2.68 0 0 1-.94-.54l.29-.43a3.17 3.17 0 0 0 .84.51 2.46 2.46 0 0 0 .91.17 1.65 1.65 0 0 0 .94-.24.77.77 0 0 0 .35-.68.59.59 0 0 0-.09-.34.81.81 0 0 0-.28-.24 2.15 2.15 0 0 0-.46-.18l-.64-.16q-.42-.1-.73-.21a2.19 2.19 0 0 1-.51-.23.84.84 0 0 1-.3-.32 1.06 1.06 0 0 1-.1-.48 1.38 1.38 0 0 1 .15-.65 1.32 1.32 0 0 1 .39-.46 1.8 1.8 0 0 1 .58-.28 2.63 2.63 0 0 1 .71-.09 2.75 2.75 0 0 1 1 .18 2 2 0 0 1 .74.48l-.31.38a1.71 1.71 0 0 0-.66-.42 2.39 2.39 0 0 0-.81-.14 2 2 0 0 0-.47.05 1.14 1.14 0 0 0-.38.16.81.81 0 0 0-.26.29.84.84 0 0 0-.09.41.67.67 0 0 0 .07.32.56.56 0 0 0 .22.21 1.79 1.79 0 0 0 .38.16l.56.14.82.22a2.61 2.61 0 0 1 .59.26 1 1 0 0 1 .36.37 1.05 1.05 0 0 1 .12.52 1.27 1.27 0 0 1-.52 1.07 2.22 2.22 0 0 1-1.36.38zm2.85-.1v-.92h.55v.92zm1.53-2.45a2.67 2.67 0 0 1 .18-1 2.44 2.44 0 0 1 .5-.8 2.35 2.35 0 0 1 .77-.54 2.45 2.45 0 0 1 1-.2 2.28 2.28 0 0 1 1.21.31 2 2 0 0 1 .78.85l-.62.2a1.48 1.48 0 0 0-.58-.58 1.62 1.62 0 0 0-.82-.21 1.64 1.64 0 0 0-.7.15 1.8 1.8 0 0 0-.56.41 1.88 1.88 0 0 0-.37.61 2.17 2.17 0 0 0-.14.78 2.14 2.14 0 0 0 .14.78 2 2 0 0 0 .38.63 1.83 1.83 0 0 0 .57.42 1.57 1.57 0 0 0 .69.16 1.67 1.67 0 0 0 .46-.07 1.75 1.75 0 0 0 .43-.18 1.51 1.51 0 0 0 .34-.27.87.87 0 0 0 .2-.32l.63.19a1.6 1.6 0 0 1-.3.48 2.08 2.08 0 0 1-.46.38 2.29 2.29 0 0 1-.59.25 2.54 2.54 0 0 1-.67.09 2.37 2.37 0 0 1-1.76-.75 2.56 2.56 0 0 1-.51-.81 2.63 2.63 0 0 1-.2-.96zm7.51 2.55a2.32 2.32 0 0 1-1-.2 2.41 2.41 0 0 1-.76-.55A2.5 2.5 0 0 1 96 55a2.64 2.64 0 0 1-.18-1 2.61 2.61 0 0 1 .18-1 2.56 2.56 0 0 1 .51-.81 2.47 2.47 0 0 1 .76-.55 2.26 2.26 0 0 1 1-.21 2.29 2.29 0 0 1 1 .21 2.46 2.46 0 0 1 .77.55 2.57 2.57 0 0 1 .51.81 2.61 2.61 0 0 1 .18 1 2.64 2.64 0 0 1-.18 1 2.5 2.5 0 0 1-.5.81 2.39 2.39 0 0 1-.77.55 2.35 2.35 0 0 1-1.02.24zm-1.77-2.51a2 2 0 0 0 .14.76 2.07 2.07 0 0 0 .38.62 1.7 1.7 0 0 0 .56.42 1.62 1.62 0 0 0 .69.15 1.57 1.57 0 0 0 .69-.16 1.82 1.82 0 0 0 .57-.42 2 2 0 0 0 .38-.62 2.16 2.16 0 0 0 0-1.53 2 2 0 0 0-.38-.63 1.82 1.82 0 0 0-.57-.42 1.58 1.58 0 0 0-.69-.15 1.55 1.55 0 0 0-.68.15 1.83 1.83 0 0 0-.56.43 2.07 2.07 0 0 0-.38.63 2.11 2.11 0 0 0-.15.77zM109 56.5h-.64v-2.72a2.28 2.28 0 0 0-.27-1.25.91.91 0 0 0-.81-.4 1.36 1.36 0 0 0-.53.1 1.62 1.62 0 0 0-.46.29 2 2 0 0 0-.37.44 2.15 2.15 0 0 0-.24.57v3h-.64v-2.75a2.34 2.34 0 0 0-.26-1.26.9.9 0 0 0-.81-.39 1.44 1.44 0 0 0-1 .38 2.14 2.14 0 0 0-.62 1v3h-.64v-4.88h.58v1.1a2.31 2.31 0 0 1 .79-.87 2 2 0 0 1 1.08-.31 1.39 1.39 0 0 1 1 .35 1.51 1.51 0 0 1 .45.91 2.08 2.08 0 0 1 1.88-1.26 1.49 1.49 0 0 1 .7.15 1.18 1.18 0 0 1 .46.43 2 2 0 0 1 .25.67 4.32 4.32 0 0 1 .08.87z"/><circle class="cls-7" cx="156.48" cy="7.16" r="7.16" transform="rotate(-58 156.483 7.157)"/><path class="cls-8" d="M154.14 4.82l4.68 4.69m0-4.69l-4.68 4.69"/></g></g></svg>