<?xml version="1.0" encoding="utf-8"?>
<!-- Generator: Adobe Illustrator 21.0.0, SVG Export Plug-In . SVG Version: 6.00 Build 0)  -->
<svg version="1.1" id="Layer_1" xmlns="http://www.w3.org/2000/svg" xmlns:xlink="http://www.w3.org/1999/xlink" x="0px" y="0px"
	 viewBox="0 0 388.8 231.5" style="enable-background:new 0 0 388.8 231.5;" xml:space="preserve">
<style type="text/css">
	.st0{fill:#6D6E6E;}
	.st1{fill:#FFFFFF;stroke:#D2D2D2;stroke-miterlimit:10;}
	.st2{fill:#3A85C6;}
	.st3{fill:#F3F3F3;}
	.st4{fill:#DDDDDD;}
	.st5{fill:#898989;}
	.st6{font-family:'Raleway-Regular';}
	.st7{font-size:16.39px;}
	.st8{fill:#F5BB18;}
	.st9{fill:none;stroke:#FFFFFF;stroke-width:0.5;stroke-miterlimit:10;}
	.st10{opacity:0.5;}
	.st11{fill:#B4B4B4;}
	.st12{enable-background:new    ;}
	.st13{fill:#FFFFFF;}
</style>
<title>signup-lg</title>
<g>
	<path class="st0" d="M301.8,40.7c-1.2,0-2.4-0.2-3.5-0.6c-1-0.4-2-1-2.8-1.7l1.8-2.3c0.2,0.3,0.4,0.5,0.7,0.7
		c0.3,0.3,0.7,0.5,1.1,0.7c0.5,0.2,1,0.4,1.5,0.5c0.6,0.2,1.2,0.2,1.8,0.2c0.9,0.1,1.9-0.2,2.6-0.7c0.6-0.4,0.9-1.2,0.9-1.9
		c0-0.3-0.1-0.6-0.3-0.9c-0.2-0.3-0.5-0.5-0.8-0.7c-0.4-0.2-0.8-0.4-1.2-0.5L302,33c-1.1-0.3-2-0.7-2.9-1.4c-0.7-0.6-1-1.4-1-2.3
		s0.2-1.8,0.6-2.6c0.4-0.7,0.9-1.4,1.6-1.9s1.4-0.9,2.3-1.2c0.9-0.3,1.8-0.4,2.7-0.4c1,0,2,0.2,3,0.5c0.8,0.3,1.5,0.8,2.2,1.4
		l-1.7,2.2c-0.1-0.2-0.3-0.4-0.5-0.6c-0.3-0.2-0.6-0.4-0.9-0.6c-0.4-0.2-0.8-0.3-1.3-0.4s-0.9-0.2-1.4-0.2c-1-0.1-1.9,0.2-2.7,0.8
		c-0.6,0.5-0.9,1.2-0.9,2c0,0.3,0.1,0.6,0.2,0.8c0.2,0.2,0.4,0.4,0.6,0.6c0.3,0.2,0.7,0.3,1.1,0.5c0.4,0.1,0.9,0.3,1.5,0.4
		c0.6,0.2,1.2,0.4,1.8,0.6c0.5,0.2,1,0.5,1.4,0.8c0.4,0.3,0.7,0.7,0.9,1.1c0.2,0.5,0.3,1,0.3,1.5c0,0.9-0.2,1.8-0.6,2.6
		c-0.4,0.7-0.9,1.3-1.6,1.8s-1.5,0.9-2.3,1.1C303.5,40.6,302.6,40.7,301.8,40.7z"/>
	<path class="st0" d="M314.1,23.5h2.7l-3.6,17h-2.7L314.1,23.5z"/>
	<path class="st0" d="M328.7,38.5c-1.4,1.3-3.2,2.1-5.1,2.2c-0.9,0-1.7-0.2-2.5-0.6c-0.7-0.4-1.4-0.9-1.9-1.5
		c-0.5-0.7-0.9-1.4-1.2-2.3c-0.3-0.9-0.4-1.8-0.4-2.7c0-1.3,0.3-2.6,0.8-3.8c0.5-1.2,1.3-2.3,2.2-3.3c0.9-0.9,2-1.7,3.1-2.3
		c1.1-0.6,2.4-0.8,3.7-0.8c1.3-0.1,2.6,0.3,3.7,1c0.9,0.7,1.5,1.6,1.8,2.7l-2.4,1.5c-0.2-0.8-0.7-1.6-1.4-2.1
		c-0.7-0.5-1.5-0.7-2.4-0.7s-1.7,0.2-2.5,0.6s-1.5,1-2,1.7c-0.6,0.7-1.1,1.5-1.4,2.4s-0.5,1.8-0.5,2.8c0,0.6,0.1,1.3,0.3,1.9
		c0.2,0.6,0.4,1.1,0.8,1.5c0.3,0.4,0.8,0.8,1.3,1c0.5,0.3,1.1,0.4,1.7,0.4c1.9-0.1,3.7-1,5-2.5l0.4-1.8h-3.4l0.4-2h5.6l-1.8,8.6
		h-2.3L328.7,38.5z"/>
	<path class="st0" d="M337.1,23.5h2.1l6.5,12.3l2.6-12.3h2.7l-3.6,17h-2.2l-6.4-12l-2.5,12h-2.7L337.1,23.5z"/>
	<path class="st0" d="M363.7,40.7c-0.9,0-1.8-0.1-2.6-0.4c-0.7-0.3-1.2-0.7-1.7-1.2c-0.4-0.5-0.8-1.1-1-1.8s-0.3-1.5-0.3-2.2
		c0-0.9,0.1-1.9,0.3-2.8l1.8-8.6h2.7l-1.9,8.6c-0.2,0.8-0.3,1.5-0.3,2.3c0,0.5,0.1,1,0.2,1.5c0.1,0.4,0.3,0.8,0.5,1.2
		c0.3,0.3,0.6,0.6,1,0.8c0.5,0.2,1,0.3,1.5,0.3c0.8,0,1.5-0.2,2.2-0.5c0.6-0.4,1.1-0.8,1.6-1.4c0.5-0.6,0.8-1.2,1.1-1.9
		c0.3-0.7,0.5-1.5,0.7-2.2l1.8-8.6h2.7l-1.9,8.6c-0.2,1.1-0.6,2.2-1.1,3.3c-0.5,1-1.1,1.9-1.8,2.7C368.1,39.8,365.9,40.7,363.7,40.7
		L363.7,40.7z"/>
	<path class="st0" d="M378,23.5h6.8c0.6,0,1.2,0.1,1.7,0.4c0.5,0.2,0.9,0.6,1.3,1c0.3,0.4,0.6,0.9,0.8,1.5c0.2,0.6,0.3,1.1,0.3,1.7
		c0,0.8-0.2,1.6-0.5,2.3c-0.3,0.8-0.8,1.5-1.4,2.1c-0.6,0.6-1.2,1.1-2,1.5c-0.7,0.4-1.6,0.6-2.4,0.6h-4.2l-1.3,6h-2.7L378,23.5z
		 M382.9,32.2c0.4,0,0.8-0.1,1.2-0.3c0.4-0.2,0.7-0.5,1-0.9s0.5-0.8,0.7-1.3s0.3-1,0.3-1.5c0-0.6-0.2-1.3-0.5-1.8
		c-0.3-0.4-0.8-0.7-1.4-0.7h-3.9l-1.4,6.4L382.9,32.2L382.9,32.2z"/>
	<path class="st1" d="M232.6,73.5h143.5c3.9,0,7,3.1,7,7V224c0,3.9-3.1,7-7,7H232.6c-3.9,0-7-3.1-7-7V80.5
		C225.6,76.7,228.8,73.5,232.6,73.5z"/>
	<path class="st2" d="M255.1,178.9h98.6c4.1,0,7.5,3.4,7.5,7.5v2.6c0,4.1-3.4,7.5-7.5,7.5h-98.6c-4.1,0-7.5-3.4-7.5-7.5v-2.6
		C247.6,182.3,250.9,178.9,255.1,178.9z"/>
	<path class="st3" d="M271.4,187.3c0-0.4,0.1-0.8,0.2-1.2s0.3-0.7,0.6-1.1c0.3-0.3,0.6-0.6,1-0.8s0.9-0.3,1.3-0.3
		c0.5,0,1.1,0.1,1.5,0.4c0.4,0.2,0.7,0.6,0.9,1l-0.5,0.3c-0.1-0.2-0.2-0.4-0.4-0.6c-0.1-0.1-0.3-0.3-0.5-0.4
		c-0.2-0.1-0.4-0.2-0.5-0.2c-0.2,0-0.4-0.1-0.5-0.1c-0.4,0-0.7,0.1-1.1,0.2c-0.3,0.2-0.6,0.4-0.8,0.6c-0.2,0.3-0.4,0.6-0.5,0.9
		c-0.1,0.3-0.2,0.7-0.2,1c0,0.4,0.1,0.7,0.2,1.1c0.1,0.3,0.3,0.6,0.5,0.9c0.2,0.3,0.5,0.5,0.8,0.6c0.3,0.2,0.7,0.2,1,0.2
		c0.2,0,0.4,0,0.6-0.1c0.2,0,0.4-0.1,0.6-0.2c0.2-0.1,0.4-0.2,0.5-0.4c0.2-0.2,0.3-0.4,0.4-0.6l0.5,0.3c-0.1,0.2-0.3,0.5-0.5,0.7
		s-0.4,0.4-0.6,0.5s-0.5,0.2-0.8,0.3s-0.5,0.1-0.8,0.1c-0.4,0-0.9-0.1-1.3-0.3s-0.7-0.5-1-0.8s-0.5-0.7-0.6-1.1
		C271.5,188.1,271.4,187.7,271.4,187.3z"/>
	<path class="st3" d="M280.5,186.3c-0.4,0-0.8,0.1-1.1,0.4c-0.3,0.2-0.6,0.6-0.7,0.9v3h-0.6v-4.9h0.6v1.2c0.2-0.4,0.4-0.7,0.7-0.9
		c0.3-0.2,0.6-0.3,1-0.3h0.1V186.3z"/>
	<path class="st3" d="M283.3,190.7c-0.3,0-0.7-0.1-1-0.2c-0.3-0.1-0.6-0.3-0.8-0.6c-0.2-0.2-0.4-0.5-0.5-0.8s-0.2-0.7-0.2-1
		s0.1-0.7,0.2-1s0.3-0.6,0.5-0.8s0.5-0.4,0.8-0.5c0.6-0.3,1.4-0.3,2,0c0.3,0.1,0.5,0.3,0.8,0.6c0.2,0.2,0.4,0.5,0.5,0.8
		s0.2,0.7,0.2,1v0.1v0.1h-4.2c0,0.3,0.1,0.5,0.2,0.7s0.2,0.4,0.4,0.6c0.2,0.2,0.4,0.3,0.6,0.4c0.2,0.1,0.4,0.1,0.7,0.1
		c0.2,0,0.3,0,0.5-0.1c0.2,0,0.3-0.1,0.4-0.2c0.1-0.1,0.3-0.2,0.4-0.3s0.2-0.2,0.2-0.4l0.5,0.1c-0.1,0.2-0.2,0.3-0.3,0.5
		c-0.1,0.1-0.3,0.3-0.5,0.4c-0.2,0.1-0.4,0.2-0.6,0.3C283.8,190.7,283.5,190.7,283.3,190.7z M285.1,187.9c0-0.2-0.1-0.5-0.2-0.7
		s-0.2-0.4-0.4-0.6c-0.2-0.2-0.3-0.3-0.5-0.4c-0.2-0.1-0.4-0.1-0.7-0.1c-0.2,0-0.5,0-0.7,0.1s-0.4,0.2-0.6,0.4s-0.3,0.4-0.4,0.6
		c-0.1,0.2-0.2,0.5-0.2,0.7H285.1z"/>
	<path class="st3" d="M287.9,190.7c-0.2,0-0.4,0-0.6-0.1s-0.4-0.2-0.5-0.3c-0.3-0.3-0.5-0.7-0.5-1.1c0-0.2,0.1-0.4,0.1-0.6
		c0.1-0.2,0.2-0.3,0.4-0.5c0.2-0.1,0.4-0.2,0.6-0.3c0.3-0.1,0.5-0.1,0.8-0.1s0.5,0,0.8,0.1c0.2,0,0.5,0.1,0.7,0.2v-0.4
		c0-0.4-0.1-0.7-0.4-1s-0.6-0.4-1-0.4c-0.3,0-0.5,0.1-0.8,0.1c-0.3,0.1-0.6,0.3-0.8,0.4l-0.2-0.4c0.5-0.4,1.2-0.6,1.8-0.6
		c0.5,0,1,0.2,1.4,0.5c0.4,0.4,0.5,0.9,0.5,1.4v2.2c0,0.2,0.1,0.3,0.2,0.3v0.6h-0.2c-0.1,0-0.3,0-0.4-0.1s-0.1-0.2-0.1-0.3v-0.4
		c-0.2,0.3-0.5,0.5-0.9,0.7C288.7,190.7,288.3,190.7,287.9,190.7z M288,190.2c0.3,0,0.6-0.1,0.9-0.2c0.3-0.1,0.5-0.3,0.6-0.5
		c0.1-0.1,0.1-0.1,0.1-0.2c0-0.1,0-0.1,0-0.2v-0.8c-0.2-0.1-0.4-0.1-0.7-0.2c-0.2,0-0.5-0.1-0.7-0.1c-0.4,0-0.8,0.1-1.1,0.3
		c-0.3,0.2-0.4,0.4-0.4,0.7c0,0.1,0,0.3,0.1,0.4c0.1,0.1,0.1,0.2,0.2,0.3s0.2,0.2,0.4,0.2C287.7,190.2,287.8,190.2,288,190.2
		L288,190.2z"/>
	<path class="st3" d="M294.1,190.4l-0.2,0.1l-0.3,0.1l-0.3,0.1c-0.1,0-0.2,0-0.4,0c-0.1,0-0.3,0-0.4-0.1c-0.1,0-0.2-0.1-0.3-0.2
		c-0.1-0.1-0.2-0.2-0.2-0.3c-0.1-0.1-0.1-0.3-0.1-0.4v-3.5h-0.7v-0.5h0.7v-1.6h0.6v1.6h1.1v0.5h-1.1v3.3c0,0.2,0.1,0.3,0.2,0.4
		c0.1,0.1,0.3,0.1,0.4,0.1c0.2,0,0.3,0,0.5-0.1l0.3-0.1L294.1,190.4z"/>
	<path class="st3" d="M296.9,190.7c-0.3,0-0.7-0.1-1-0.2c-0.3-0.1-0.6-0.3-0.8-0.6c-0.2-0.2-0.4-0.5-0.5-0.8s-0.2-0.7-0.2-1
		s0.1-0.7,0.2-1s0.3-0.6,0.5-0.8s0.5-0.4,0.8-0.5c0.6-0.3,1.4-0.3,2,0c0.3,0.1,0.5,0.3,0.8,0.6c0.4,0.5,0.7,1.1,0.7,1.8v0.1v0.1
		h-4.2c0,0.3,0.1,0.5,0.2,0.7s0.2,0.4,0.4,0.6c0.2,0.2,0.4,0.3,0.6,0.4c0.2,0.1,0.4,0.1,0.7,0.1c0.2,0,0.3,0,0.5-0.1
		c0.2,0,0.3-0.1,0.4-0.2c0.1-0.1,0.3-0.2,0.4-0.3s0.2-0.2,0.2-0.4l0.5,0.1c-0.1,0.2-0.2,0.3-0.3,0.5c-0.1,0.1-0.3,0.3-0.5,0.4
		c-0.2,0.1-0.4,0.2-0.6,0.3C297.3,190.7,297.1,190.7,296.9,190.7z M298.6,187.9c0-0.5-0.2-0.9-0.6-1.3c-0.2-0.2-0.3-0.3-0.5-0.4
		c-0.2-0.1-0.4-0.1-0.7-0.1c-0.5,0-0.9,0.2-1.2,0.5c-0.2,0.2-0.3,0.4-0.4,0.6c-0.1,0.2-0.2,0.5-0.2,0.7H298.6z"/>
	<path class="st3" d="M304.5,184h0.5l2.8,6.6h-0.7l-0.9-2.1h-3l-0.9,2.1h-0.7L304.5,184z M306.1,188.1l-1.3-3.3l-1.4,3.3H306.1z"/>
	<path class="st3" d="M308.2,188.2c0-0.3,0.1-0.7,0.2-1s0.3-0.6,0.5-0.8s0.5-0.4,0.8-0.5s0.7-0.2,1-0.2c0.4,0,0.8,0.1,1.2,0.3
		c0.3,0.2,0.6,0.5,0.8,0.9L312,187c-0.1-0.2-0.3-0.4-0.6-0.6c-0.5-0.3-1-0.3-1.5-0.1c-0.2,0.1-0.4,0.2-0.6,0.4s-0.3,0.4-0.4,0.6
		c-0.1,0.2-0.1,0.5-0.1,0.8s0,0.5,0.1,0.8c0.1,0.2,0.2,0.4,0.4,0.6c0.2,0.2,0.4,0.3,0.6,0.4c0.2,0.1,0.5,0.2,0.7,0.2s0.3,0,0.5-0.1
		c0.2,0,0.3-0.1,0.4-0.2c0.1-0.1,0.2-0.2,0.3-0.3c0.1-0.1,0.2-0.2,0.2-0.3l0.6,0.2c-0.1,0.2-0.2,0.3-0.3,0.5
		c-0.1,0.1-0.3,0.3-0.5,0.4c-0.2,0.1-0.4,0.2-0.6,0.3s-0.4,0.1-0.7,0.1c-0.7,0-1.3-0.3-1.8-0.8c-0.2-0.2-0.4-0.5-0.5-0.8
		C308.3,188.8,308.2,188.5,308.2,188.2z"/>
	<path class="st3" d="M313.3,188.2c0-0.3,0.1-0.7,0.2-1s0.3-0.6,0.5-0.8s0.5-0.4,0.8-0.5s0.7-0.2,1-0.2c0.4,0,0.8,0.1,1.2,0.3
		c0.3,0.2,0.6,0.5,0.8,0.9l-0.6,0.2c-0.1-0.2-0.3-0.4-0.6-0.6c-0.2-0.1-0.5-0.2-0.8-0.2c-0.2,0-0.5,0-0.7,0.1s-0.4,0.2-0.6,0.4
		s-0.3,0.4-0.4,0.6c-0.2,0.5-0.2,1,0,1.6c0.1,0.2,0.2,0.4,0.4,0.6c0.2,0.2,0.4,0.3,0.6,0.4c0.2,0.1,0.5,0.2,0.7,0.2s0.3,0,0.5-0.1
		c0.2,0,0.3-0.1,0.4-0.2c0.1-0.1,0.2-0.2,0.3-0.3c0.1-0.1,0.2-0.2,0.2-0.3l0.6,0.2c-0.1,0.2-0.2,0.3-0.3,0.5
		c-0.1,0.1-0.3,0.3-0.5,0.4c-0.2,0.1-0.4,0.2-0.6,0.3s-0.4,0.1-0.7,0.1c-0.7,0-1.3-0.2-1.8-0.7c-0.2-0.2-0.4-0.5-0.5-0.8
		C313.4,188.9,313.3,188.5,313.3,188.2z"/>
	<path class="st3" d="M320.8,190.7c-0.3,0-0.7-0.1-1-0.2c-0.3-0.1-0.5-0.3-0.8-0.6c-0.2-0.2-0.4-0.5-0.5-0.8c-0.2-0.6-0.2-1.3,0-1.9
		c0.1-0.3,0.3-0.6,0.5-0.8s0.5-0.4,0.8-0.6c0.3-0.1,0.7-0.2,1-0.2s0.7,0.1,1,0.2c0.3,0.1,0.6,0.3,0.8,0.6c0.2,0.2,0.4,0.5,0.5,0.8
		s0.2,0.7,0.2,1s-0.1,0.7-0.2,1s-0.3,0.6-0.5,0.8s-0.5,0.4-0.8,0.6C321.5,190.7,321.1,190.8,320.8,190.7z M319,188.2
		c0,0.3,0,0.5,0.1,0.8c0.1,0.2,0.2,0.4,0.4,0.6c0.2,0.2,0.3,0.3,0.6,0.4c0.2,0.1,0.5,0.2,0.7,0.1c0.2,0,0.5-0.1,0.7-0.2
		c0.2-0.1,0.4-0.2,0.6-0.4s0.3-0.4,0.4-0.6c0.2-0.5,0.2-1,0-1.5c-0.1-0.2-0.2-0.4-0.4-0.6c-0.2-0.2-0.4-0.3-0.6-0.4
		c-0.2-0.1-0.5-0.2-0.7-0.1c-0.2,0-0.5,0-0.7,0.1s-0.4,0.3-0.6,0.4c-0.2,0.2-0.3,0.4-0.4,0.6C319.1,187.7,319,188,319,188.2z"/>
	<path class="st3" d="M325.8,190.7c-0.5,0-0.9-0.2-1.2-0.5c-0.3-0.5-0.4-1-0.4-1.6v-2.9h0.6v2.8c0,1.1,0.4,1.7,1.1,1.7
		c0.2,0,0.4,0,0.5-0.1c0.2-0.1,0.3-0.2,0.5-0.3s0.3-0.3,0.4-0.4c0.1-0.2,0.2-0.4,0.3-0.6v-3.1h0.6v4.1c0,0.2,0.1,0.3,0.2,0.3v0.6
		h-0.2h-0.1c-0.1,0-0.3-0.1-0.4-0.2c-0.1-0.1-0.1-0.3-0.1-0.4v-0.6c-0.2,0.4-0.5,0.7-0.9,0.9C326.6,190.6,326.2,190.7,325.8,190.7z"
		/>
	<path class="st3" d="M334,190.6h-0.6v-2.7c0-0.4-0.1-0.9-0.3-1.3c-0.2-0.3-0.5-0.4-0.8-0.4c-0.2,0-0.4,0-0.6,0.1s-0.4,0.2-0.5,0.3
		c-0.2,0.1-0.3,0.3-0.4,0.4c-0.1,0.2-0.2,0.4-0.3,0.6v3h-0.6v-4.9h0.6v1.1c0.2-0.4,0.5-0.7,0.9-0.9s0.8-0.3,1.2-0.3
		c0.2,0,0.5,0,0.7,0.1s0.3,0.2,0.5,0.4c0.1,0.2,0.2,0.4,0.2,0.7c0.1,0.3,0.1,0.6,0.1,0.9L334,190.6z"/>
	<path class="st3" d="M337.6,190.4l-0.2,0.1l-0.3,0.1l-0.3,0.1c-0.1,0-0.2,0-0.4,0c-0.1,0-0.3,0-0.4-0.1c-0.1,0-0.2-0.1-0.3-0.2
		c-0.1-0.1-0.2-0.2-0.2-0.3c-0.1-0.1-0.1-0.3-0.1-0.4v-3.5h-0.7v-0.5h0.7v-1.6h0.6v1.6h1.1v0.5H336v3.3c0,0.2,0.1,0.3,0.2,0.4
		c0.1,0.1,0.3,0.1,0.4,0.1c0.2,0,0.3,0,0.5-0.1l0.3-0.1L337.6,190.4z"/>
	<path class="st4" d="M255.7,141.4h98.6c4.1,0,7.5,3.4,7.5,7.5v2.6c0,4.1-3.4,7.5-7.5,7.5h-98.6c-4.1,0-7.5-3.4-7.5-7.5v-2.6
		C248.2,144.8,251.5,141.4,255.7,141.4z"/>
	<text transform="matrix(1 0 0 1 258.34 150.85)" class="st5 st6 st7">...........</text>
	<path class="st4" d="M254.5,114.5H353c4.1,0,7.5,3.4,7.5,7.5v2.6c0,4.1-3.4,7.5-7.5,7.5h-98.6c-4.1,0-7.5-3.4-7.5-7.5V122
		C247,117.9,250.3,114.5,254.5,114.5z"/>
	<path class="st5" d="M261.1,126.4c-0.3,0-0.7-0.1-1-0.2s-0.6-0.3-0.8-0.6c-0.2-0.2-0.4-0.5-0.5-0.8s-0.2-0.7-0.2-1s0.1-0.7,0.2-1
		s0.3-0.6,0.5-0.8c0.2-0.2,0.5-0.4,0.8-0.5c0.6-0.3,1.4-0.3,2,0c0.3,0.1,0.5,0.3,0.8,0.6c0.4,0.5,0.7,1.1,0.7,1.8v0.2v0.1h-4.2
		c0,0.3,0.1,0.5,0.2,0.7s0.2,0.4,0.4,0.6c0.2,0.2,0.4,0.3,0.6,0.4s0.4,0.1,0.7,0.1c0.2,0,0.3,0,0.5-0.1c0.2,0,0.3-0.1,0.4-0.2
		s0.3-0.2,0.4-0.3c0.1-0.1,0.2-0.2,0.2-0.4l0.5,0.2c-0.1,0.2-0.2,0.3-0.3,0.5c-0.1,0.1-0.3,0.3-0.5,0.4s-0.4,0.2-0.6,0.3
		C261.6,126.4,261.4,126.4,261.1,126.4z M262.9,123.6c0-0.5-0.2-0.9-0.6-1.3c-0.2-0.2-0.3-0.3-0.5-0.4s-0.4-0.1-0.7-0.1
		c-0.5,0-0.9,0.2-1.2,0.5c-0.2,0.2-0.3,0.4-0.4,0.6s-0.2,0.5-0.2,0.7C259.3,123.6,262.9,123.6,262.9,123.6z"/>
	<path class="st5" d="M271.8,126.3h-0.6v-2.7c0-0.4-0.1-0.9-0.3-1.3c-0.2-0.3-0.5-0.4-0.8-0.4c-0.2,0-0.4,0-0.5,0.1
		c-0.2,0.1-0.3,0.2-0.5,0.3c-0.1,0.1-0.3,0.3-0.4,0.4c-0.1,0.2-0.2,0.4-0.2,0.6v3h-0.6v-2.7c0-0.4-0.1-0.9-0.3-1.3
		c-0.2-0.3-0.5-0.4-0.8-0.4c-0.4,0-0.7,0.1-1,0.4s-0.5,0.6-0.6,1v3h-0.6v-4.9h0.6v1.1c0.2-0.4,0.5-0.7,0.8-0.9
		c0.3-0.2,0.7-0.3,1.1-0.3s0.7,0.1,1,0.3c0.3,0.2,0.4,0.6,0.5,0.9c0.3-0.8,1.1-1.2,1.9-1.3c0.2,0,0.5,0,0.7,0.2
		c0.2,0.1,0.3,0.2,0.5,0.4c0.1,0.2,0.2,0.4,0.3,0.7c0.1,0.3,0.1,0.6,0.1,0.9L271.8,126.3z"/>
	<path class="st5" d="M274.4,126.4c-0.2,0-0.4,0-0.6-0.1s-0.4-0.2-0.5-0.3c-0.3-0.3-0.5-0.7-0.5-1.1c0-0.2,0.1-0.4,0.1-0.6
		c0.1-0.2,0.2-0.3,0.4-0.5c0.2-0.1,0.4-0.2,0.6-0.3c0.3-0.1,0.5-0.1,0.8-0.1s0.5,0,0.8,0.1c0.2,0,0.5,0.1,0.7,0.2v-0.4
		c0-0.4-0.1-0.7-0.4-1s-0.6-0.4-1-0.4c-0.3,0-0.5,0.1-0.8,0.2s-0.6,0.3-0.8,0.4l-0.2-0.4c0.5-0.4,1.2-0.6,1.8-0.6
		c0.5,0,1,0.2,1.4,0.5c0.4,0.4,0.5,0.9,0.5,1.4v2.2c0,0.2,0.1,0.3,0.2,0.3v0.6h-0.2c-0.1,0-0.3,0-0.4-0.1s-0.1-0.2-0.1-0.3v-0.4
		c-0.2,0.3-0.5,0.5-0.9,0.7C275.1,126.3,274.8,126.4,274.4,126.4z M274.5,125.9c0.3,0,0.6-0.1,0.9-0.2s0.5-0.3,0.6-0.5
		c0.1-0.1,0.1-0.1,0.1-0.2s0-0.1,0-0.2V124c-0.2-0.1-0.4-0.1-0.7-0.2c-0.2,0-0.5-0.1-0.7-0.1c-0.4,0-0.8,0.1-1.1,0.3
		c-0.3,0.2-0.4,0.4-0.4,0.7c0,0.1,0,0.3,0.1,0.4s0.1,0.2,0.2,0.3c0.1,0.1,0.2,0.2,0.4,0.2C274.2,125.8,274.3,125.9,274.5,125.9z"/>
	<path class="st5" d="M278.3,120.4v-0.9h0.6v0.9H278.3z M278.3,126.3v-4.9h0.6v4.9H278.3z"/>
	<path class="st5" d="M280.3,119.4h0.7v5.7c0,0.2,0,0.3,0.1,0.4s0.3,0.2,0.4,0.2h0.2l0.3-0.1l0.1,0.5c-0.1,0.1-0.3,0.1-0.4,0.1
		s-0.3,0-0.4,0c-0.3,0-0.5-0.1-0.7-0.3c-0.2-0.2-0.3-0.4-0.3-0.7L280.3,119.4z"/>
	<path class="st5" d="M286,120.6c0.4,0,0.9,0.1,1.3,0.3c0.4,0.2,0.8,0.4,1.1,0.7c0.3,0.3,0.6,0.7,0.7,1.1c0.2,0.5,0.3,1,0.3,1.4
		c0,0.1,0,0.2,0,0.3c0,0.2,0,0.3-0.1,0.5c0,0.2-0.1,0.3-0.1,0.5c-0.1,0.2-0.1,0.3-0.2,0.5c-0.1,0.1-0.2,0.2-0.4,0.3
		c-0.2,0.1-0.4,0.1-0.5,0.1s-0.3,0-0.4-0.1c-0.1,0-0.2-0.1-0.2-0.2c-0.1-0.1-0.1-0.2-0.1-0.3c0-0.1,0-0.2-0.1-0.3
		c-0.2,0.2-0.4,0.4-0.7,0.5c-0.3,0.1-0.6,0.2-0.9,0.2c-0.4,0-0.7-0.1-1-0.3c-0.2-0.2-0.4-0.6-0.4-0.9c0-0.2,0-0.4,0.1-0.6
		s0.2-0.3,0.4-0.4c0.2-0.1,0.4-0.2,0.6-0.2s0.4-0.1,0.6-0.1s0.5,0,0.7,0.1l0.5,0.1c0-0.2,0-0.4,0-0.6s-0.1-0.3-0.2-0.5
		c-0.1-0.1-0.2-0.2-0.4-0.3c-0.2-0.1-0.4-0.1-0.6-0.1s-0.5,0-0.7,0.1s-0.4,0.2-0.6,0.3l-0.2-0.4c0.2-0.2,0.5-0.3,0.7-0.4
		c0.3-0.1,0.5-0.1,0.8-0.1s0.6,0,0.8,0.2c0.2,0.1,0.4,0.3,0.5,0.4c0.1,0.2,0.2,0.4,0.2,0.6s0,0.5,0,0.7v1.2c0,0.1,0,0.3,0,0.4
		s0,0.2,0.1,0.3c0.1,0.2,0.2,0.3,0.4,0.3c0.2,0,0.4-0.1,0.5-0.2s0.2-0.3,0.3-0.5c0.1-0.2,0.1-0.4,0.1-0.6s0-0.4,0-0.6
		c0-0.4-0.1-0.9-0.2-1.3c-0.2-0.4-0.4-0.7-0.6-1c-0.3-0.3-0.6-0.5-1-0.7s-0.8-0.3-1.2-0.3c-0.4,0-0.8,0.1-1.2,0.2
		c-0.8,0.3-1.4,0.9-1.7,1.7c-0.2,0.4-0.3,0.8-0.3,1.3c0,0.4,0.1,0.9,0.2,1.3s0.4,0.7,0.6,1c0.3,0.3,0.6,0.5,1,0.7s0.8,0.3,1.2,0.3
		c0.2,0,0.5,0,0.7-0.1s0.5-0.2,0.7-0.3l0.1,0.3c-0.2,0.1-0.5,0.2-0.8,0.3c-0.7,0.2-1.4,0.1-2.1-0.2c-0.4-0.2-0.8-0.4-1.1-0.7
		c-0.3-0.3-0.6-0.7-0.7-1.1c-0.2-0.4-0.3-0.9-0.3-1.4s0.1-1,0.3-1.4c0.2-0.4,0.4-0.8,0.8-1.1c0.3-0.3,0.7-0.5,1.1-0.7
		C285.1,120.7,285.5,120.6,286,120.6z M286.6,125.6c0.2-0.1,0.4-0.2,0.5-0.4c0.1-0.2,0.1-0.3,0.1-0.5v-0.4l-0.4-0.1
		c-0.2-0.1-0.5-0.1-0.8-0.1c-0.2,0-0.3,0-0.5,0c-0.1,0-0.3,0.1-0.4,0.2s-0.2,0.2-0.3,0.3c-0.1,0.1-0.1,0.3-0.1,0.4
		c0,0.2,0.1,0.5,0.3,0.6c0.2,0.2,0.5,0.2,0.7,0.2s0.3,0,0.5-0.1C286.3,125.7,286.5,125.7,286.6,125.6L286.6,125.6z"/>
	<path class="st5" d="M290.8,127.8h0.3c0.1,0,0.2,0,0.3,0c0.1-0.1,0.1-0.1,0.2-0.2s0.2-0.3,0.2-0.5c0.1-0.2,0.2-0.5,0.3-0.8
		l-2.1-4.9h0.7l1.8,4.3l1.7-4.3h0.6l-2.5,6.3c-0.1,0.2-0.2,0.3-0.3,0.5c-0.2,0.1-0.4,0.2-0.6,0.2H291h-0.2V127.8z"/>
	<path class="st5" d="M297.5,126.4c-0.3,0-0.7-0.1-1-0.2s-0.5-0.3-0.8-0.6c-0.2-0.2-0.4-0.5-0.5-0.8s-0.2-0.7-0.2-1s0.1-0.7,0.2-1
		s0.3-0.6,0.5-0.8c0.2-0.2,0.5-0.4,0.8-0.6c0.3-0.1,0.7-0.2,1-0.2s0.7,0.1,1,0.2s0.6,0.3,0.8,0.6c0.2,0.2,0.4,0.5,0.5,0.8
		s0.2,0.7,0.2,1s-0.1,0.7-0.2,1s-0.3,0.6-0.5,0.8c-0.2,0.2-0.5,0.4-0.8,0.6C298.2,126.3,297.9,126.4,297.5,126.4z M295.8,123.8
		c0,0.3,0,0.5,0.1,0.8c0.1,0.2,0.2,0.4,0.4,0.6c0.2,0.2,0.3,0.3,0.6,0.4c0.2,0.1,0.5,0.2,0.7,0.2s0.5-0.1,0.7-0.2s0.4-0.2,0.6-0.4
		c0.2-0.2,0.3-0.4,0.4-0.6c0.2-0.5,0.2-1,0-1.5c-0.1-0.2-0.2-0.4-0.4-0.6c-0.2-0.2-0.4-0.3-0.6-0.4s-0.5-0.2-0.7-0.2s-0.5,0-0.7,0.2
		c-0.2,0.1-0.4,0.3-0.6,0.4c-0.2,0.2-0.3,0.4-0.4,0.6S295.8,123.6,295.8,123.8L295.8,123.8z"/>
	<path class="st5" d="M302.6,126.4c-0.5,0-0.9-0.2-1.2-0.5c-0.3-0.5-0.4-1-0.4-1.6v-2.9h0.6v2.8c0,1.1,0.4,1.7,1.1,1.7
		c0.2,0,0.4,0,0.5-0.1c0.2-0.1,0.3-0.2,0.5-0.3c0.2-0.1,0.3-0.3,0.4-0.4c0.1-0.2,0.2-0.4,0.3-0.6v-3.1h0.6v4.1
		c0,0.2,0.1,0.3,0.2,0.3v0.6H305h-0.1c-0.1,0-0.3-0.1-0.4-0.2s-0.1-0.3-0.1-0.4v-0.6c-0.2,0.4-0.5,0.7-0.9,0.9
		C303.4,126.2,303,126.4,302.6,126.4z"/>
	<path class="st5" d="M309,121.9c-0.4,0-0.8,0.1-1.1,0.4c-0.3,0.2-0.6,0.6-0.7,0.9v3h-0.6v-4.9h0.6v1.2c0.2-0.4,0.4-0.7,0.7-0.9
		c0.3-0.2,0.6-0.3,1-0.3h0.1V121.9z"/>
	<path class="st5" d="M311.5,126.4c-0.4,0-0.8-0.1-1.1-0.2c-0.3-0.1-0.7-0.3-0.9-0.5l0.3-0.4c0.3,0.2,0.5,0.4,0.8,0.5
		s0.6,0.2,0.9,0.2s0.7-0.1,0.9-0.2c0.2-0.1,0.4-0.4,0.4-0.7c0-0.1,0-0.2-0.1-0.3c-0.1-0.1-0.2-0.2-0.3-0.2c-0.1-0.1-0.3-0.1-0.5-0.2
		l-0.6-0.2c-0.3-0.1-0.5-0.1-0.7-0.2s-0.4-0.1-0.5-0.2s-0.2-0.2-0.3-0.3c-0.1-0.1-0.1-0.3-0.1-0.5s0-0.4,0.1-0.7
		c0.1-0.2,0.2-0.3,0.4-0.5c0.2-0.1,0.4-0.2,0.6-0.3c0.2-0.1,0.5-0.1,0.7-0.1c0.3,0,0.7,0.1,1,0.2s0.5,0.3,0.7,0.5l-0.3,0.4
		c-0.2-0.2-0.4-0.3-0.7-0.4c-0.3-0.1-0.5-0.1-0.8-0.1c-0.2,0-0.3,0-0.5,0.1c-0.1,0-0.3,0.1-0.4,0.2s-0.2,0.2-0.3,0.3
		c-0.1,0.1-0.1,0.3-0.1,0.4s0,0.2,0.1,0.3c0.1,0.1,0.1,0.2,0.2,0.2c0.1,0.1,0.2,0.1,0.4,0.2l0.6,0.1l0.8,0.2
		c0.2,0.1,0.4,0.1,0.6,0.3c0.2,0.1,0.3,0.2,0.4,0.4c0.1,0.2,0.1,0.3,0.1,0.5c0,0.4-0.2,0.8-0.5,1.1
		C312.5,126.3,312,126.4,311.5,126.4z"/>
	<path class="st5" d="M314.4,126.3v-0.9h0.5v0.9H314.4z"/>
	<path class="st5" d="M315.9,123.8c0-0.3,0.1-0.7,0.2-1s0.3-0.6,0.5-0.8c0.2-0.2,0.5-0.4,0.8-0.5s0.7-0.2,1-0.2
		c0.4,0,0.8,0.1,1.2,0.3c0.3,0.2,0.6,0.5,0.8,0.8l-0.6,0.2c-0.1-0.2-0.3-0.4-0.6-0.6c-0.3-0.1-0.5-0.2-0.8-0.2c-0.2,0-0.5,0-0.7,0.2
		c-0.2,0.1-0.4,0.2-0.6,0.4c-0.2,0.2-0.3,0.4-0.4,0.6c-0.2,0.5-0.2,1,0,1.6c0.1,0.2,0.2,0.4,0.4,0.6c0.2,0.2,0.4,0.3,0.6,0.4
		s0.5,0.2,0.7,0.2s0.3,0,0.5-0.1c0.2,0,0.3-0.1,0.4-0.2s0.2-0.2,0.3-0.3c0.1-0.1,0.2-0.2,0.2-0.3l0.6,0.2c-0.1,0.2-0.2,0.3-0.3,0.5
		c-0.1,0.1-0.3,0.3-0.5,0.4s-0.4,0.2-0.6,0.3c-0.2,0.1-0.4,0.1-0.7,0.1c-0.7,0-1.3-0.3-1.8-0.8c-0.2-0.2-0.4-0.5-0.5-0.8
		C315.9,124.5,315.9,124.1,315.9,123.8z"/>
	<path class="st5" d="M323.4,126.4c-0.3,0-0.7-0.1-1-0.2s-0.5-0.3-0.8-0.6c-0.2-0.2-0.4-0.5-0.5-0.8c-0.2-0.6-0.2-1.3,0-1.9
		c0.1-0.3,0.3-0.6,0.5-0.8c0.2-0.2,0.5-0.4,0.8-0.6c0.3-0.1,0.7-0.2,1-0.2s0.7,0.1,1,0.2s0.6,0.3,0.8,0.6c0.2,0.2,0.4,0.5,0.5,0.8
		s0.2,0.7,0.2,1s-0.1,0.7-0.2,1s-0.3,0.6-0.5,0.8c-0.2,0.2-0.5,0.4-0.8,0.6C324.1,126.3,323.7,126.4,323.4,126.4z M321.6,123.8
		c0,0.3,0,0.5,0.1,0.8c0.1,0.2,0.2,0.4,0.4,0.6c0.2,0.2,0.3,0.3,0.6,0.4c0.2,0.1,0.5,0.2,0.7,0.2s0.5-0.1,0.7-0.2s0.4-0.2,0.6-0.4
		c0.2-0.2,0.3-0.4,0.4-0.6c0.2-0.5,0.2-1,0-1.5c-0.1-0.2-0.2-0.4-0.4-0.6c-0.2-0.2-0.4-0.3-0.6-0.4s-0.5-0.2-0.7-0.2s-0.5,0-0.7,0.2
		c-0.2,0.1-0.4,0.3-0.6,0.4c-0.2,0.2-0.3,0.4-0.4,0.6C321.7,123.3,321.6,123.6,321.6,123.8L321.6,123.8z"/>
	<path class="st5" d="M334.1,126.3h-0.6v-2.7c0-0.4-0.1-0.9-0.3-1.3c-0.2-0.3-0.5-0.4-0.8-0.4c-0.2,0-0.4,0-0.5,0.1
		c-0.2,0.1-0.3,0.2-0.5,0.3c-0.1,0.1-0.3,0.3-0.4,0.4c-0.1,0.2-0.2,0.4-0.2,0.6v3h-0.6v-2.7c0-0.4-0.1-0.9-0.3-1.3
		c-0.2-0.3-0.5-0.4-0.8-0.4c-0.4,0-0.7,0.1-1,0.4s-0.5,0.6-0.6,1v3h-0.6v-4.9h0.6v1.1c0.2-0.4,0.5-0.7,0.8-0.9
		c0.3-0.2,0.7-0.3,1.1-0.3s0.7,0.1,1,0.3c0.3,0.2,0.4,0.6,0.5,0.9c0.3-0.8,1.1-1.2,1.9-1.3c0.2,0,0.5,0,0.7,0.2
		c0.2,0.1,0.3,0.2,0.5,0.4c0.1,0.2,0.2,0.4,0.3,0.7c0.1,0.3,0.1,0.6,0.1,0.9L334.1,126.3z"/>
	<ellipse transform="matrix(0.5299 -0.848 0.848 0.5299 114.1124 359.7496)" class="st8" cx="381.6" cy="76.9" rx="7.2" ry="7.2"/>
	<line class="st9" x1="379.3" y1="74.6" x2="384" y2="79.3"/>
	<line class="st9" x1="384" y1="74.6" x2="379.3" y2="79.3"/>
	<g id="line" class="st10">
		<rect id="line2" x="59" y="32.3" class="st11" width="146" height="1.4"/>
	</g>
	<ellipse transform="matrix(0.5299 -0.848 0.848 0.5299 -11.3452 39.5383)" class="st11" cx="30" cy="30" rx="30" ry="30"/>
	<g class="st12">
		<path class="st13" d="M33.8,21.3H36l-2.9,16.6h-2.7l2.3-13l-6,3.6l-1-2.2L33.8,21.3z"/>
	</g>
</g>
</svg>
