<svg xmlns="http://www.w3.org/2000/svg" viewBox="0 0 319.28 114"><defs><style>.cls-1{fill:#fff}.cls-2{fill:#4e4e4e}.cls-3{fill:#ccc}.cls-4{fill:url(#linear-gradient)}.cls-5{fill:#f5bb18}.cls-6{font-size:8px;fill:#b4b4b4;font-family:Raleway-Regular,Raleway}.cls-7{fill:#898989}</style><linearGradient id="linear-gradient" x1="25.28" y1="50" x2="167.78" y2="50" gradientUnits="userSpaceOnUse"><stop offset="0" stop-color="#3a85c6"/><stop offset=".12" stop-color="#3f86c1"/><stop offset=".27" stop-color="#4e8bb3"/><stop offset=".43" stop-color="#66929d"/><stop offset=".6" stop-color="#899c7d"/><stop offset=".78" stop-color="#b5a854"/><stop offset=".96" stop-color="#e9b823"/><stop offset="1" stop-color="#f5bb18"/></linearGradient></defs><title>thresh2</title><g id="Layer_2" data-name="Layer 2"><g id="Layer_1-2" data-name="Layer 1"><rect class="cls-1" width="319.28" height="114" rx="7" ry="7"/><path class="cls-2" d="M28.13 87.39h.53l.8 2 .81-2h.54l-1 2.42 1.09 2.57 2.06-5h.61L31.15 93h-.5l-1.19-2.81-1.2 2.81h-.49l-2.4-5.68H26l2.06 5 1.08-2.57zM37.75 93h-.54v-2.3a1.87 1.87 0 0 0-.21-1.06.81.81 0 0 0-.72-.35 1.24 1.24 0 0 0-.46.09 1.7 1.7 0 0 0-.43.25A1.75 1.75 0 0 0 35 90a1.59 1.59 0 0 0-.22.47V93h-.54v-5.81h.54v2.61a1.88 1.88 0 0 1 .69-.74 1.77 1.77 0 0 1 1-.27 1.28 1.28 0 0 1 .61.13 1.14 1.14 0 0 1 .41.37 1.63 1.63 0 0 1 .23.57 3.47 3.47 0 0 1 .07.73zm2.96.11a2 2 0 0 1-.84-.17 2.07 2.07 0 0 1-.66-.47 2.17 2.17 0 0 1-.44-.69 2.24 2.24 0 0 1-.16-.84 2.19 2.19 0 0 1 .16-.83 2.13 2.13 0 0 1 .43-.68 2.06 2.06 0 0 1 .66-.46 2 2 0 0 1 2.32.47 2.2 2.2 0 0 1 .58 1.5v.13a.35.35 0 0 1 0 .09h-3.57a1.75 1.75 0 0 0 .16.62 1.71 1.71 0 0 0 .34.49 1.52 1.52 0 0 0 .48.32 1.43 1.43 0 0 0 .57.12 1.49 1.49 0 0 0 .4-.06 1.67 1.67 0 0 0 .37-.15 1.37 1.37 0 0 0 .3-.24 1 1 0 0 0 .21-.31l.47.13a1.38 1.38 0 0 1-.27.42 1.92 1.92 0 0 1-.41.33 2 2 0 0 1-.51.22 2.21 2.21 0 0 1-.59.06zm1.54-2.38a1.67 1.67 0 0 0-.49-1.09 1.48 1.48 0 0 0-1-.42 1.5 1.5 0 0 0-.58.11 1.47 1.47 0 0 0-.48.31 1.54 1.54 0 0 0-.33.48 1.8 1.8 0 0 0-.15.61zM47.11 93h-.54v-2.3a2 2 0 0 0-.22-1.08.75.75 0 0 0-.68-.34 1.38 1.38 0 0 0-.48.09 1.62 1.62 0 0 0-.44.25 1.93 1.93 0 0 0-.36.38 1.5 1.5 0 0 0-.23.48V93h-.54v-4.14h.5v.94a2 2 0 0 1 .73-.74 2 2 0 0 1 1-.28 1.23 1.23 0 0 1 .58.13 1 1 0 0 1 .38.36 1.65 1.65 0 0 1 .21.57 4 4 0 0 1 .06.74zm2.96.11a2 2 0 0 1-.84-.17 2 2 0 0 1-.66-.47 2.19 2.19 0 0 1-.44-.69 2.26 2.26 0 0 1-.16-.84 2.21 2.21 0 0 1 .16-.83 2.14 2.14 0 0 1 .43-.68 2 2 0 0 1 .66-.46 2.11 2.11 0 0 1 1.67 0 2 2 0 0 1 .65.47 2.18 2.18 0 0 1 .42.68 2.21 2.21 0 0 1 .15.82v.13a.35.35 0 0 1 0 .09h-3.56a1.77 1.77 0 0 0 .16.62 1.71 1.71 0 0 0 .34.49 1.52 1.52 0 0 0 .48.32 1.43 1.43 0 0 0 .57.12 1.49 1.49 0 0 0 .4-.06 1.7 1.7 0 0 0 .37-.15 1.37 1.37 0 0 0 .3-.24 1 1 0 0 0 .21-.31l.47.13a1.38 1.38 0 0 1-.27.42 1.93 1.93 0 0 1-.41.33 2 2 0 0 1-.51.22 2.22 2.22 0 0 1-.59.06zm1.54-2.38a1.69 1.69 0 0 0-.16-.61 1.66 1.66 0 0 0-.34-.48 1.51 1.51 0 0 0-1.62-.31 1.47 1.47 0 0 0-.48.31 1.5 1.5 0 0 0-.33.48 1.82 1.82 0 0 0-.15.61zM54.1 93l-1.7-4.17h.6l1.43 3.66 1.44-3.66h.53L54.67 93zm4.67.11a2 2 0 0 1-.84-.17 2.07 2.07 0 0 1-.66-.47 2.17 2.17 0 0 1-.44-.69 2.24 2.24 0 0 1-.16-.84 2.19 2.19 0 0 1 .16-.83 2.13 2.13 0 0 1 .43-.68 2.06 2.06 0 0 1 .66-.46 2 2 0 0 1 2.32.47 2.2 2.2 0 0 1 .58 1.5v.13a.35.35 0 0 1 0 .09h-3.57a1.75 1.75 0 0 0 .16.62 1.71 1.71 0 0 0 .34.49 1.52 1.52 0 0 0 .48.32 1.43 1.43 0 0 0 .57.12 1.49 1.49 0 0 0 .4-.06 1.67 1.67 0 0 0 .37-.15 1.37 1.37 0 0 0 .3-.24 1 1 0 0 0 .21-.31l.47.13a1.38 1.38 0 0 1-.27.42 1.92 1.92 0 0 1-.41.33 2 2 0 0 1-.51.22 2.21 2.21 0 0 1-.59.06zm1.54-2.38a1.67 1.67 0 0 0-.49-1.09 1.48 1.48 0 0 0-1-.42 1.5 1.5 0 0 0-.58.11 1.47 1.47 0 0 0-.48.31 1.54 1.54 0 0 0-.33.48 1.8 1.8 0 0 0-.15.61zm3.44-1.39a1.71 1.71 0 0 0-1 .3 1.52 1.52 0 0 0-.58.79V93h-.54v-4.14h.51v1a1.89 1.89 0 0 1 .62-.75 1.44 1.44 0 0 1 .84-.27h.1zm3.62 3.77a1.48 1.48 0 0 1-.55-.1 1.4 1.4 0 0 1-.44-.28 1.24 1.24 0 0 1-.4-.92 1 1 0 0 1 .13-.5 1.22 1.22 0 0 1 .36-.4 1.76 1.76 0 0 1 .55-.26 2.53 2.53 0 0 1 .7-.09 3.87 3.87 0 0 1 .65.06 2.8 2.8 0 0 1 .58.16v-.38a1.21 1.21 0 0 0-.31-.88 1.14 1.14 0 0 0-.86-.32 1.84 1.84 0 0 0-.66.13 3.17 3.17 0 0 0-.68.37l-.19-.36a2.82 2.82 0 0 1 1.57-.54 1.68 1.68 0 0 1 1.23.44 1.62 1.62 0 0 1 .45 1.22v1.88c0 .15.07.22.2.22V93h-.21a.47.47 0 0 1-.32-.1.39.39 0 0 1-.12-.29v-.33a1.89 1.89 0 0 1-.72.58 2.22 2.22 0 0 1-.96.25zm.13-.42a1.89 1.89 0 0 0 .78-.16 1.28 1.28 0 0 0 .54-.42.48.48 0 0 0 .11-.16.39.39 0 0 0 0-.16v-.68a3.4 3.4 0 0 0-.53-.11 3.17 3.17 0 0 0-.6-.06 1.65 1.65 0 0 0-.94.24.73.73 0 0 0-.36.63.86.86 0 0 0 .08.36.92.92 0 0 0 .21.29 1 1 0 0 0 .32.2 1.07 1.07 0 0 0 .39.03zM70.69 88v-.8h.54v.8zm0 5v-4.14h.54V93zm3.82-3.66a1.71 1.71 0 0 0-1 .3 1.52 1.52 0 0 0-.58.79V93h-.54v-4.14h.51v1a1.89 1.89 0 0 1 .62-.75 1.44 1.44 0 0 1 .84-.27h.1zm2.73 3.49l-.14.06-.21.08-.27.07a1.54 1.54 0 0 1-.32 0A1.16 1.16 0 0 1 76 93a.78.78 0 0 1-.28-.15.72.72 0 0 1-.19-.25.81.81 0 0 1-.07-.35v-3h-.58v-.43h.58v-1.37H76v1.41h1v.43h-1v2.83a.43.43 0 0 0 .16.34.56.56 0 0 0 .34.11 1 1 0 0 0 .41-.08l.22-.11zm.68-4.83v-.8h.54v.8zm0 5v-4.14h.54V93zm7.94 0h-.54v-2.3a2 2 0 0 0-.23-1.07.78.78 0 0 0-.69-.34 1.17 1.17 0 0 0-.45.09 1.4 1.4 0 0 0-.39.25 1.72 1.72 0 0 0-.32.38 1.9 1.9 0 0 0-.21.48V93h-.54v-2.3a2 2 0 0 0-.22-1.08.77.77 0 0 0-.69-.34 1.23 1.23 0 0 0-.84.33 1.83 1.83 0 0 0-.53.86V93h-.54v-4.14h.5v.94a2 2 0 0 1 .67-.75 1.66 1.66 0 0 1 .92-.27 1.19 1.19 0 0 1 .84.3 1.29 1.29 0 0 1 .39.78 1.78 1.78 0 0 1 1.61-1.07 1.27 1.27 0 0 1 .6.13 1 1 0 0 1 .39.36 1.72 1.72 0 0 1 .22.57 3.72 3.72 0 0 1 .07.74zm2.95.11a2 2 0 0 1-.84-.17 2.07 2.07 0 0 1-.66-.47 2.17 2.17 0 0 1-.44-.69 2.24 2.24 0 0 1-.16-.84 2.19 2.19 0 0 1 .16-.83 2.13 2.13 0 0 1 .43-.68A2.06 2.06 0 0 1 88 89a2 2 0 0 1 2.32.47 2.2 2.2 0 0 1 .58 1.5v.13a.35.35 0 0 1 0 .09h-3.61a1.75 1.75 0 0 0 .16.62 1.71 1.71 0 0 0 .34.49 1.52 1.52 0 0 0 .48.32 1.43 1.43 0 0 0 .57.12 1.49 1.49 0 0 0 .4-.06 1.67 1.67 0 0 0 .37-.15 1.37 1.37 0 0 0 .3-.24 1 1 0 0 0 .21-.31l.47.13a1.38 1.38 0 0 1-.27.42 1.92 1.92 0 0 1-.41.33 2 2 0 0 1-.51.22 2.21 2.21 0 0 1-.59.03zm1.54-2.38a1.67 1.67 0 0 0-.49-1.09 1.48 1.48 0 0 0-1-.42 1.5 1.5 0 0 0-.58.11 1.47 1.47 0 0 0-.48.31 1.54 1.54 0 0 0-.33.48 1.8 1.8 0 0 0-.15.61zm3.4-2.73v-.8h.54v.8zm0 5v-4.14h.54V93zm3.13.11a2.91 2.91 0 0 1-1-.16 2.27 2.27 0 0 1-.8-.46l.25-.37a2.68 2.68 0 0 0 .72.43 2.09 2.09 0 0 0 .78.14 1.41 1.41 0 0 0 .8-.2.66.66 0 0 0 .3-.58.5.5 0 0 0-.08-.29.69.69 0 0 0-.24-.2 1.9 1.9 0 0 0-.39-.16l-.55-.14-.62-.18a1.87 1.87 0 0 1-.44-.2.72.72 0 0 1-.26-.28.9.9 0 0 1-.08-.41 1.2 1.2 0 0 1 .12-.55 1.13 1.13 0 0 1 .34-.4 1.53 1.53 0 0 1 .5-.24 2.24 2.24 0 0 1 .6-.08 2.33 2.33 0 0 1 .87.16 1.72 1.72 0 0 1 .63.41l-.26.32a1.47 1.47 0 0 0-.56-.36 2 2 0 0 0-.69-.12 1.71 1.71 0 0 0-.4 0 1 1 0 0 0-.32.14.68.68 0 0 0-.22.24.72.72 0 0 0-.08.35.58.58 0 0 0 .06.27.48.48 0 0 0 .18.18 1.55 1.55 0 0 0 .32.14l.48.12.7.19a2.21 2.21 0 0 1 .51.22.88.88 0 0 1 .31.31.9.9 0 0 1 .1.45 1.09 1.09 0 0 1-.44.91 1.9 1.9 0 0 1-1.14.4zm4.57-5.92h.55v4.9a.5.5 0 0 0 .13.36.48.48 0 0 0 .36.13h.21l.22-.06.1.44a1.83 1.83 0 0 1-.37.1 2.2 2.2 0 0 1-.38 0 .81.81 0 0 1-.59-.21.79.79 0 0 1-.22-.6zm3.93 5.92a2 2 0 0 1-.83-.17 2.06 2.06 0 0 1-.65-.47 2.13 2.13 0 0 1-.43-.69 2.25 2.25 0 0 1-.15-.82 2.22 2.22 0 0 1 .16-.83 2.18 2.18 0 0 1 .43-.69 2.12 2.12 0 0 1 .65-.47 1.92 1.92 0 0 1 .82-.18 2 2 0 0 1 .83.18 2.1 2.1 0 0 1 .66.47 2.18 2.18 0 0 1 .43.69 2.3 2.3 0 0 1 0 1.66 2.13 2.13 0 0 1-.43.69 2.05 2.05 0 0 1-.66.47 2 2 0 0 1-.83.16zM103.87 91a1.74 1.74 0 0 0 .12.65 1.78 1.78 0 0 0 .32.53 1.46 1.46 0 0 0 .48.36 1.37 1.37 0 0 0 .59.13 1.35 1.35 0 0 0 .59-.13 1.59 1.59 0 0 0 .48-.36 1.74 1.74 0 0 0 .33-.53 1.84 1.84 0 0 0 0-1.31 1.71 1.71 0 0 0-.33-.54 1.57 1.57 0 0 0-.48-.36 1.35 1.35 0 0 0-.59-.13 1.32 1.32 0 0 0-.58.13 1.54 1.54 0 0 0-.48.36 1.74 1.74 0 0 0-.33.54 1.8 1.8 0 0 0-.12.66zm9.59-2.14h.54L112.2 93h-.45l-.9-2.13L110 93h-.45l-1.79-4.17h.53l1.52 3.61.79-1.9-.71-1.7h.46l.54 1.36.54-1.36h.46l-.71 1.7.79 1.9zm2.9 4.25a2 2 0 0 1-.84-.17 2.07 2.07 0 0 1-.66-.47 2.17 2.17 0 0 1-.44-.69 2.24 2.24 0 0 1-.16-.84 2.19 2.19 0 0 1 .16-.83 2.13 2.13 0 0 1 .43-.68 2.06 2.06 0 0 1 .66-.46 2 2 0 0 1 2.32.47 2.2 2.2 0 0 1 .58 1.5v.13a.35.35 0 0 1 0 .09h-3.57a1.75 1.75 0 0 0 .16.62 1.71 1.71 0 0 0 .34.49 1.52 1.52 0 0 0 .48.32 1.43 1.43 0 0 0 .57.12 1.49 1.49 0 0 0 .4-.06 1.67 1.67 0 0 0 .37-.15 1.37 1.37 0 0 0 .3-.24 1 1 0 0 0 .21-.31l.47.13a1.38 1.38 0 0 1-.27.42 1.92 1.92 0 0 1-.41.33 2 2 0 0 1-.51.22 2.21 2.21 0 0 1-.59.06zm1.54-2.38a1.67 1.67 0 0 0-.49-1.09 1.48 1.48 0 0 0-1-.42 1.5 1.5 0 0 0-.58.11 1.47 1.47 0 0 0-.48.31 1.54 1.54 0 0 0-.33.48 1.8 1.8 0 0 0-.15.61zm3.44-1.39a1.71 1.71 0 0 0-1 .3 1.54 1.54 0 0 0-.58.79V93h-.54v-4.14h.51v1a1.91 1.91 0 0 1 .62-.75 1.45 1.45 0 0 1 .84-.27h.1zm4.58 3.49l-.14.06-.21.08-.27.07a1.54 1.54 0 0 1-.32 0 1.16 1.16 0 0 1-.34 0 .78.78 0 0 1-.28-.15.72.72 0 0 1-.19-.25.81.81 0 0 1-.07-.35v-3h-.58v-.43h.58v-1.41h.54v1.41h1v.43h-1v2.83a.43.43 0 0 0 .16.34.56.56 0 0 0 .34.11 1 1 0 0 0 .41-.08l.22-.11zm4.18.17h-.54v-2.3a1.87 1.87 0 0 0-.24-1.06.81.81 0 0 0-.72-.35 1.24 1.24 0 0 0-.46.09 1.7 1.7 0 0 0-.43.25 1.75 1.75 0 0 0-.35.38 1.59 1.59 0 0 0-.22.47V93h-.54v-5.81h.54v2.61a1.88 1.88 0 0 1 .69-.74 1.77 1.77 0 0 1 1-.27 1.28 1.28 0 0 1 .61.13 1.14 1.14 0 0 1 .41.37 1.63 1.63 0 0 1 .23.57 3.47 3.47 0 0 1 .07.73zm2.21.11a1.48 1.48 0 0 1-.55-.1 1.39 1.39 0 0 1-.44-.28 1.23 1.23 0 0 1-.29-.41 1.24 1.24 0 0 1-.1-.51 1 1 0 0 1 .13-.5 1.21 1.21 0 0 1 .36-.4 1.76 1.76 0 0 1 .55-.26 2.53 2.53 0 0 1 .7-.09 3.87 3.87 0 0 1 .65.06 2.81 2.81 0 0 1 .58.16v-.38a1.21 1.21 0 0 0-.31-.88 1.14 1.14 0 0 0-.86-.32 1.84 1.84 0 0 0-.66.13 3.18 3.18 0 0 0-.68.37l-.19-.36a2.81 2.81 0 0 1 1.57-.54 1.69 1.69 0 0 1 1.23.44 1.62 1.62 0 0 1 .45 1.22v1.88c0 .15.07.22.2.22V93h-.21a.47.47 0 0 1-.32-.1.39.39 0 0 1-.12-.29v-.33a1.88 1.88 0 0 1-.72.58 2.22 2.22 0 0 1-.97.25zm.13-.42a1.88 1.88 0 0 0 .78-.16 1.28 1.28 0 0 0 .54-.42.5.5 0 0 0 .11-.16.41.41 0 0 0 0-.16v-.68a3.43 3.43 0 0 0-.56-.16 3.17 3.17 0 0 0-.6-.06 1.66 1.66 0 0 0-.94.24.73.73 0 0 0-.36.63.86.86 0 0 0 .08.36.92.92 0 0 0 .21.29 1 1 0 0 0 .32.2 1.07 1.07 0 0 0 .42.08zm6.68.31h-.54v-2.3a2 2 0 0 0-.22-1.08.75.75 0 0 0-.68-.34 1.39 1.39 0 0 0-.48.09 1.61 1.61 0 0 0-.44.25 1.9 1.9 0 0 0-.36.38 1.48 1.48 0 0 0-.23.48V93h-.54v-4.14h.5v.94a2 2 0 0 1 .73-.74 2 2 0 0 1 1-.28 1.24 1.24 0 0 1 .58.13 1 1 0 0 1 .38.36 1.67 1.67 0 0 1 .21.57 4 4 0 0 1 .06.74zm3.88-4.61V93h-.56v-5.65h.43l3.76 4.73v-4.72h.56V93h-.49zm8.15 4.14V93h-2.71v-.5h1.14v-3.39a.91.91 0 0 1-.22.21 2.78 2.78 0 0 1-.34.21 2.68 2.68 0 0 1-.39.16 1.17 1.17 0 0 1-.35.06v-.53a1 1 0 0 0 .4-.1 2.92 2.92 0 0 0 .42-.24 3.49 3.49 0 0 0 .33-.26.68.68 0 0 0 .15-.16h.56v4.07zm4.63-1.85a3 3 0 0 1-.15 1 2.44 2.44 0 0 1-.42.77 1.91 1.91 0 0 1-.64.5 1.87 1.87 0 0 1-1.6 0 1.91 1.91 0 0 1-.64-.5 2.44 2.44 0 0 1-.42-.77 3.18 3.18 0 0 1 0-1.94 2.42 2.42 0 0 1 .42-.77 2 2 0 0 1 .64-.51 1.83 1.83 0 0 1 1.6 0 2 2 0 0 1 .64.51 2.42 2.42 0 0 1 .42.77 3 3 0 0 1 .15.94zm-.55 0a2.66 2.66 0 0 0-.11-.78 1.92 1.92 0 0 0-.3-.6 1.38 1.38 0 0 0-.46-.39 1.26 1.26 0 0 0-.59-.14 1.28 1.28 0 0 0-.6.14 1.38 1.38 0 0 0-.46.39 1.92 1.92 0 0 0-.3.6 2.89 2.89 0 0 0 0 1.57 1.92 1.92 0 0 0 .3.6 1.32 1.32 0 0 0 .46.39 1.3 1.3 0 0 0 .6.14 1.28 1.28 0 0 0 .59-.14 1.32 1.32 0 0 0 .46-.39 1.92 1.92 0 0 0 .3-.6 2.66 2.66 0 0 0 .11-.79zm5.45 0a3 3 0 0 1-.15 1 2.44 2.44 0 0 1-.42.77 1.91 1.91 0 0 1-.64.5 1.87 1.87 0 0 1-1.6 0 1.91 1.91 0 0 1-.64-.5 2.44 2.44 0 0 1-.42-.77 3.18 3.18 0 0 1 0-1.94 2.42 2.42 0 0 1 .42-.77 2 2 0 0 1 .64-.51 1.83 1.83 0 0 1 1.6 0 2 2 0 0 1 .64.51 2.42 2.42 0 0 1 .42.77 3 3 0 0 1 .15.94zm-.55 0a2.66 2.66 0 0 0-.11-.78 1.92 1.92 0 0 0-.3-.6 1.38 1.38 0 0 0-.46-.39 1.26 1.26 0 0 0-.59-.14 1.28 1.28 0 0 0-.6.14 1.38 1.38 0 0 0-.46.39 1.92 1.92 0 0 0-.3.6 2.89 2.89 0 0 0 0 1.57 1.92 1.92 0 0 0 .3.6 1.32 1.32 0 0 0 .46.39 1.3 1.3 0 0 0 .6.14 1.28 1.28 0 0 0 .59-.14 1.32 1.32 0 0 0 .46-.39 1.92 1.92 0 0 0 .3-.6 2.66 2.66 0 0 0 .1-.79zm1.67 3l.14-.67h-.18v-.76h.53V93l-.2.67zm5.88-.57a1.64 1.64 0 0 1-.93-.27 2.11 2.11 0 0 1-.65-.68v2.57h-.54v-5.87h.44v.81a2 2 0 0 1 .66-.64 1.7 1.7 0 0 1 .89-.24 1.75 1.75 0 0 1 .79.18 2 2 0 0 1 .62.48 2.23 2.23 0 0 1 .41.69 2.27 2.27 0 0 1 .15.81 2.52 2.52 0 0 1-.14.83 2.12 2.12 0 0 1-.39.69 1.88 1.88 0 0 1-.6.47 1.71 1.71 0 0 1-.71.17zm-.15-.48a1.3 1.3 0 0 0 .61-.14 1.52 1.52 0 0 0 .47-.38 1.72 1.72 0 0 0 .3-.54 1.88 1.88 0 0 0 .1-.62 1.72 1.72 0 0 0-.12-.64 1.78 1.78 0 0 0-.33-.54 1.58 1.58 0 0 0-.49-.37 1.4 1.4 0 0 0-.61-.14 1.24 1.24 0 0 0-.44.08 1.8 1.8 0 0 0-.42.22 1.55 1.55 0 0 0-.34.33.89.89 0 0 0-.17.4v1.28a1.93 1.93 0 0 0 .24.42 1.72 1.72 0 0 0 .34.33 1.56 1.56 0 0 0 .4.22 1.27 1.27 0 0 0 .46.09zm2.99-5.44h.54v4.9a.5.5 0 0 0 .13.36.48.48 0 0 0 .36.13h.21l.22-.06.1.44a1.83 1.83 0 0 1-.37.1 2.2 2.2 0 0 1-.38 0 .81.81 0 0 1-.59-.21.79.79 0 0 1-.22-.6zm3.95 5.92a2 2 0 0 1-.84-.17 2.07 2.07 0 0 1-.66-.47 2.17 2.17 0 0 1-.44-.69 2.24 2.24 0 0 1-.16-.84 2.19 2.19 0 0 1 .16-.83 2.13 2.13 0 0 1 .43-.68 2.06 2.06 0 0 1 .66-.46 2 2 0 0 1 2.32.47 2.2 2.2 0 0 1 .58 1.5v.13a.35.35 0 0 1 0 .09h-3.57a1.75 1.75 0 0 0 .16.62 1.71 1.71 0 0 0 .34.49 1.52 1.52 0 0 0 .48.32 1.43 1.43 0 0 0 .57.12 1.49 1.49 0 0 0 .4-.06 1.67 1.67 0 0 0 .37-.15 1.37 1.37 0 0 0 .3-.24 1 1 0 0 0 .21-.31l.47.13a1.38 1.38 0 0 1-.27.42 1.92 1.92 0 0 1-.41.33 2 2 0 0 1-.51.22 2.21 2.21 0 0 1-.59.06zm1.53-2.39a1.67 1.67 0 0 0-.49-1.09 1.48 1.48 0 0 0-1-.42 1.5 1.5 0 0 0-.58.11 1.47 1.47 0 0 0-.48.31 1.54 1.54 0 0 0-.33.48 1.8 1.8 0 0 0-.15.61zm2.41 2.39a1.48 1.48 0 0 1-.55-.1 1.39 1.39 0 0 1-.44-.28 1.23 1.23 0 0 1-.29-.41 1.24 1.24 0 0 1-.1-.51 1 1 0 0 1 .13-.5 1.21 1.21 0 0 1 .36-.4 1.76 1.76 0 0 1 .55-.26 2.53 2.53 0 0 1 .7-.09 3.87 3.87 0 0 1 .65.06 2.81 2.81 0 0 1 .58.16v-.38a1.21 1.21 0 0 0-.31-.88 1.14 1.14 0 0 0-.86-.32 1.84 1.84 0 0 0-.66.13 3.18 3.18 0 0 0-.68.37l-.19-.36a2.81 2.81 0 0 1 1.57-.54 1.69 1.69 0 0 1 1.23.44 1.62 1.62 0 0 1 .45 1.22v1.88c0 .15.07.22.2.22V93h-.21a.47.47 0 0 1-.32-.1.39.39 0 0 1-.12-.29v-.33a1.88 1.88 0 0 1-.72.58 2.22 2.22 0 0 1-.97.25zm.13-.42a1.88 1.88 0 0 0 .78-.16 1.28 1.28 0 0 0 .54-.42.5.5 0 0 0 .14-.11.41.41 0 0 0 0-.16v-.68a3.43 3.43 0 0 0-.56-.16 3.17 3.17 0 0 0-.6-.06 1.66 1.66 0 0 0-.94.24.73.73 0 0 0-.36.63.86.86 0 0 0 .08.36.92.92 0 0 0 .21.29 1 1 0 0 0 .32.2 1.07 1.07 0 0 0 .39.03zm4.57.42a2.9 2.9 0 0 1-1-.16 2.28 2.28 0 0 1-.8-.46l.25-.37a2.71 2.71 0 0 0 .72.43 2.09 2.09 0 0 0 .78.14 1.41 1.41 0 0 0 .8-.2.66.66 0 0 0 .3-.58.51.51 0 0 0-.08-.29.69.69 0 0 0-.24-.2 1.86 1.86 0 0 0-.39-.16l-.55-.14-.62-.18a1.86 1.86 0 0 1-.44-.2.72.72 0 0 1-.26-.28.9.9 0 0 1-.08-.41 1.18 1.18 0 0 1 .12-.55 1.12 1.12 0 0 1 .34-.4 1.53 1.53 0 0 1 .5-.24 2.24 2.24 0 0 1 .6-.08 2.33 2.33 0 0 1 .87.16 1.7 1.7 0 0 1 .63.41l-.26.32a1.46 1.46 0 0 0-.56-.36 2 2 0 0 0-.69-.12 1.73 1.73 0 0 0-.4 0 1 1 0 0 0-.32.14.7.7 0 0 0-.22.24.73.73 0 0 0-.08.35.56.56 0 0 0 .06.27.48.48 0 0 0 .18.18 1.54 1.54 0 0 0 .32.14l.48.12.7.19a2.19 2.19 0 0 1 .51.22.88.88 0 0 1 .31.31.9.9 0 0 1 .1.45 1.09 1.09 0 0 1-.44.91 1.91 1.91 0 0 1-1.14.4zm4.31 0a2 2 0 0 1-.84-.17 2.07 2.07 0 0 1-.66-.47 2.17 2.17 0 0 1-.44-.69 2.24 2.24 0 0 1-.16-.84 2.19 2.19 0 0 1 .16-.83 2.13 2.13 0 0 1 .43-.68 2.06 2.06 0 0 1 .66-.46 2 2 0 0 1 2.32.47 2.2 2.2 0 0 1 .58 1.5v.13a.35.35 0 0 1 0 .09h-3.57a1.75 1.75 0 0 0 .16.62 1.71 1.71 0 0 0 .34.49 1.52 1.52 0 0 0 .48.32 1.43 1.43 0 0 0 .57.12 1.49 1.49 0 0 0 .4-.06 1.67 1.67 0 0 0 .37-.15 1.37 1.37 0 0 0 .3-.24 1 1 0 0 0 .21-.31l.47.13a1.38 1.38 0 0 1-.27.42 1.92 1.92 0 0 1-.41.33 2 2 0 0 1-.52.17 2.21 2.21 0 0 1-.58.11zm1.58-2.39a1.67 1.67 0 0 0-.49-1.09 1.48 1.48 0 0 0-1-.42 1.5 1.5 0 0 0-.58.11 1.47 1.47 0 0 0-.48.31 1.54 1.54 0 0 0-.33.48 1.8 1.8 0 0 0-.15.61zm5.36 2.11l-.14.06-.22.11-.27.07a1.54 1.54 0 0 1-.32 0 1.16 1.16 0 0 1-.34 0 .78.78 0 0 1-.28-.15.72.72 0 0 1-.19-.25.81.81 0 0 1-.07-.35v-3H192v-.43h.58v-1.44h.54v1.41h1v.43h-1v2.83a.43.43 0 0 0 .16.34.56.56 0 0 0 .34.11 1 1 0 0 0 .41-.08l.22-.11zm2.35.28a2 2 0 0 1-.83-.17 2.05 2.05 0 0 1-.65-.47 2.12 2.12 0 0 1-.43-.69 2.27 2.27 0 0 1-.15-.82 2.24 2.24 0 0 1 .16-.83 2.18 2.18 0 0 1 .43-.69 2.11 2.11 0 0 1 .65-.47 1.92 1.92 0 0 1 .82-.18 2 2 0 0 1 .83.18 2.11 2.11 0 0 1 .66.47 2.18 2.18 0 0 1 .43.69 2.22 2.22 0 0 1 .16.83 2.25 2.25 0 0 1-.15.82 2.11 2.11 0 0 1-.43.69 2 2 0 0 1-.66.47 2 2 0 0 1-.84.17zM195.2 91a1.74 1.74 0 0 0 .12.65 1.76 1.76 0 0 0 .32.53 1.47 1.47 0 0 0 .48.36 1.37 1.37 0 0 0 .59.13 1.35 1.35 0 0 0 .59-.13 1.56 1.56 0 0 0 .48-.36 1.73 1.73 0 0 0 .33-.53 1.84 1.84 0 0 0 0-1.31 1.7 1.7 0 0 0-.33-.54 1.55 1.55 0 0 0-.48-.36 1.35 1.35 0 0 0-.59-.13 1.32 1.32 0 0 0-.58.13 1.54 1.54 0 0 0-.48.36 1.74 1.74 0 0 0-.33.54 1.8 1.8 0 0 0-.12.66zm6.62 2.11a1.64 1.64 0 0 1-.93-.27 2.12 2.12 0 0 1-.65-.68v2.57h-.54v-5.87h.49v.81a2 2 0 0 1 .66-.64 1.71 1.71 0 0 1 .89-.24 1.75 1.75 0 0 1 .79.18 2 2 0 0 1 .62.48 2.23 2.23 0 0 1 .41.69 2.27 2.27 0 0 1 .15.81 2.52 2.52 0 0 1-.14.83 2.13 2.13 0 0 1-.39.69 1.87 1.87 0 0 1-.6.47 1.71 1.71 0 0 1-.76.17zm-.15-.48a1.31 1.31 0 0 0 .61-.14 1.52 1.52 0 0 0 .47-.38 1.7 1.7 0 0 0 .3-.54 1.88 1.88 0 0 0 .1-.62 1.72 1.72 0 0 0-.12-.64 1.76 1.76 0 0 0-.33-.54 1.57 1.57 0 0 0-.49-.37 1.4 1.4 0 0 0-.61-.14 1.25 1.25 0 0 0-.44.08 1.79 1.79 0 0 0-.42.22 1.51 1.51 0 0 0-.34.33.87.87 0 0 0-.17.4v1.28a1.85 1.85 0 0 0 .24.42 1.69 1.69 0 0 0 .34.33 1.57 1.57 0 0 0 .4.22 1.28 1.28 0 0 0 .46.09zm5-4.63v-.8h.54v.8zm0 5v-4.14h.54V93zm3.74-.17l-.14.06-.21.08-.27.07a1.54 1.54 0 0 1-.32 0 1.15 1.15 0 0 1-.34 0 .78.78 0 0 1-.28-.15.72.72 0 0 1-.19-.25.8.8 0 0 1-.07-.35v-3H208v-.43h.58v-1.41h.54v1.41h1v.43h-1v2.83a.43.43 0 0 0 .16.34.56.56 0 0 0 .34.11 1 1 0 0 0 .41-.08l.22-.11zm4.03.28a1.17 1.17 0 0 1-1-.45 2.26 2.26 0 0 1-.33-1.35v-2.45h.54v2.35q0 1.42 1 1.42a1.42 1.42 0 0 0 .47-.08 1.46 1.46 0 0 0 .43-.23 1.89 1.89 0 0 0 .35-.36 1.79 1.79 0 0 0 .25-.47v-2.63h.54v3.46c0 .15.06.22.19.22V93h-.24a.43.43 0 0 1-.31-.14.49.49 0 0 1-.12-.34v-.48a1.93 1.93 0 0 1-.74.76 2 2 0 0 1-1.03.31zm5.56 0a1.64 1.64 0 0 1-.93-.27 2.12 2.12 0 0 1-.65-.68v2.57h-.54v-5.87h.49v.81A2 2 0 0 1 219 89a1.71 1.71 0 0 1 .89-.24 1.75 1.75 0 0 1 .79.18 2 2 0 0 1 .62.48 2.23 2.23 0 0 1 .41.69 2.27 2.27 0 0 1 .15.81 2.52 2.52 0 0 1-.14.83 2.13 2.13 0 0 1-.39.69 1.87 1.87 0 0 1-.6.47 1.71 1.71 0 0 1-.73.2zm-.15-.48a1.31 1.31 0 0 0 .61-.14 1.52 1.52 0 0 0 .47-.38 1.7 1.7 0 0 0 .3-.54 1.88 1.88 0 0 0 .1-.62 1.72 1.72 0 0 0-.12-.64 1.76 1.76 0 0 0-.33-.54 1.57 1.57 0 0 0-.49-.37 1.4 1.4 0 0 0-.61-.14 1.25 1.25 0 0 0-.44.08 1.79 1.79 0 0 0-.42.22 1.51 1.51 0 0 0-.34.33.87.87 0 0 0-.17.4v1.28a1.85 1.85 0 0 0 .24.42 1.69 1.69 0 0 0 .34.33 1.57 1.57 0 0 0 .4.22 1.28 1.28 0 0 0 .47.09zm2.89.37v-.78h.47V93z"/><path class="cls-3" d="M132.28 49.37h149.5v1.27h-149.5z"/><path class="cls-4" d="M25.28 49.37h142.5v1.27H25.28z"/><circle class="cls-5" cx="169.78" cy="50" r="6"/><text class="cls-6" transform="translate(162.23 66.33)">100</text><path class="cls-7" d="M30.8 17.78a2.37 2.37 0 0 0-.88-.6 3.2 3.2 0 0 0-1.24-.18 2.35 2.35 0 0 0-1.5.39 1.3 1.3 0 0 0-.47 1.06 1.16 1.16 0 0 0 .13.58 1.09 1.09 0 0 0 .39.39 2.74 2.74 0 0 0 .67.29q.41.12 1 .24a10.21 10.21 0 0 1 1.12.3 3.21 3.21 0 0 1 .85.41 1.71 1.71 0 0 1 .54.6 1.86 1.86 0 0 1 .19.88 2 2 0 0 1-.21.93 1.86 1.86 0 0 1-.58.66 2.61 2.61 0 0 1-.89.39 4.75 4.75 0 0 1-1.13.13A4.64 4.64 0 0 1 25.63 23l.38-.62a3 3 0 0 0 .5.42 3.59 3.59 0 0 0 .65.35 4.09 4.09 0 0 0 .76.23 4.31 4.31 0 0 0 .86.08 2.68 2.68 0 0 0 1.45-.33 1.12 1.12 0 0 0 .52-1 1.16 1.16 0 0 0-.15-.61 1.28 1.28 0 0 0-.44-.43 3.18 3.18 0 0 0-.73-.31q-.44-.13-1-.26t-1.07-.3a2.88 2.88 0 0 1-.78-.38 1.49 1.49 0 0 1-.48-.55 1.79 1.79 0 0 1-.16-.79 2.18 2.18 0 0 1 .2-1 1.88 1.88 0 0 1 .58-.7 2.72 2.72 0 0 1 .88-.43 4 4 0 0 1 1.12-.15 3.82 3.82 0 0 1 1.39.24 3.73 3.73 0 0 1 1.1.66zm4.42 6.44a2.75 2.75 0 0 1-1.15-.22 2.82 2.82 0 0 1-.9-.65 3 3 0 0 1-.6-.95 3.09 3.09 0 0 1-.21-1.15 3 3 0 0 1 .21-1.13 3 3 0 0 1 .59-.93 2.81 2.81 0 0 1 .9-.64 2.78 2.78 0 0 1 3.18.64 3 3 0 0 1 .79 2v.18a.46.46 0 0 1 0 .12h-4.89a2.39 2.39 0 0 0 .21.85 2.3 2.3 0 0 0 .47.67 2.09 2.09 0 0 0 .65.44 2 2 0 0 0 .78.16 2 2 0 0 0 .55-.08 2.21 2.21 0 0 0 .5-.21 1.87 1.87 0 0 0 .42-.32 1.38 1.38 0 0 0 .29-.42l.65.18a1.9 1.9 0 0 1-.37.58 2.61 2.61 0 0 1-.56.45 2.73 2.73 0 0 1-.7.3 3 3 0 0 1-.81.13zm2.1-3.22a2.3 2.3 0 0 0-.21-.84 2.28 2.28 0 0 0-.46-.65A2 2 0 0 0 36 19a2 2 0 0 0-.78-.15 2.05 2.05 0 0 0-1.44.58 2.11 2.11 0 0 0-.45.66 2.51 2.51 0 0 0-.2.83zm4.56 2.83l-.19.09-.29.08-.37.1a2.11 2.11 0 0 1-.44 0 1.59 1.59 0 0 1-.46-.07 1.06 1.06 0 0 1-.38-.2 1 1 0 0 1-.26-.34 1.11 1.11 0 0 1-.1-.48V19h-.79v-.6h.79v-1.93h.75v1.93h1.32v.6h-1.33v3.88a.59.59 0 0 0 .22.47.77.77 0 0 0 .47.15 1.41 1.41 0 0 0 .56-.1l.31-.15zm6.47 0l-.19.09-.29.11-.37.1a2.11 2.11 0 0 1-.44 0 1.59 1.59 0 0 1-.46-.07 1.06 1.06 0 0 1-.38-.2 1 1 0 0 1-.26-.34 1.11 1.11 0 0 1-.1-.48V19h-.79v-.6h.79v-1.93h.75v1.93h1.32v.6H46.6v3.88a.59.59 0 0 0 .22.47.77.77 0 0 0 .47.15 1.41 1.41 0 0 0 .56-.1l.31-.15zm5.73.28h-.75v-3.19a2.58 2.58 0 0 0-.33-1.46 1.12 1.12 0 0 0-1-.46 1.67 1.67 0 0 0-.63.13 2.31 2.31 0 0 0-.59.35 2.35 2.35 0 0 0-.48.51 2.16 2.16 0 0 0-.3.65v3.5h-.75v-8H50v3.58a2.59 2.59 0 0 1 .94-1 2.43 2.43 0 0 1 1.3-.37 1.76 1.76 0 0 1 .83.18 1.55 1.55 0 0 1 .56.5 2.2 2.2 0 0 1 .32.78 4.7 4.7 0 0 1 .1 1zm4.44-5.05a2.36 2.36 0 0 0-1.32.42 2.1 2.1 0 0 0-.79 1.08v3.55h-.75V18.4h.7v1.37a2.59 2.59 0 0 1 .86-1 2 2 0 0 1 1.15-.37h.14zm3.18 5.16a2.75 2.75 0 0 1-1.14-.22 2.82 2.82 0 0 1-.9-.65 3 3 0 0 1-.6-.95 3.09 3.09 0 0 1-.21-1.15 3 3 0 0 1 .21-1.13 3 3 0 0 1 .59-.93 2.81 2.81 0 0 1 .9-.64 2.78 2.78 0 0 1 3.18.64 3 3 0 0 1 .79 2v.18a.46.46 0 0 1 0 .12h-4.9a2.39 2.39 0 0 0 .21.85 2.3 2.3 0 0 0 .47.67 2.09 2.09 0 0 0 .65.44 2 2 0 0 0 .78.16 2 2 0 0 0 .55-.08 2.21 2.21 0 0 0 .5-.21 1.87 1.87 0 0 0 .42-.32 1.38 1.38 0 0 0 .29-.42l.65.18a1.9 1.9 0 0 1-.37.58 2.61 2.61 0 0 1-.56.45 2.73 2.73 0 0 1-.7.3 3 3 0 0 1-.81.13zM63.81 21a2.3 2.3 0 0 0-.21-.84 2.28 2.28 0 0 0-.46-.65 2 2 0 0 0-.65-.43 2 2 0 0 0-.78-.15 2.05 2.05 0 0 0-1.44.58 2.11 2.11 0 0 0-.45.66 2.51 2.51 0 0 0-.2.83zm3.76 3.22a4 4 0 0 1-1.3-.22 3.14 3.14 0 0 1-1.1-.64l.34-.5a3.72 3.72 0 0 0 1 .59 2.89 2.89 0 0 0 1.07.2 1.93 1.93 0 0 0 1.1-.28.9.9 0 0 0 .41-.79.69.69 0 0 0-.11-.4.94.94 0 0 0-.32-.28 2.46 2.46 0 0 0-.54-.21l-.75-.19c-.33-.08-.61-.16-.85-.24a2.6 2.6 0 0 1-.6-.27 1 1 0 0 1-.35-.38 1.23 1.23 0 0 1-.12-.57 1.62 1.62 0 0 1 .17-.76 1.54 1.54 0 0 1 .46-.54 2.1 2.1 0 0 1 .68-.32 3.07 3.07 0 0 1 .83-.11 3.2 3.2 0 0 1 1.19.21 2.37 2.37 0 0 1 .87.56l-.36.44a2 2 0 0 0-.77-.49 2.77 2.77 0 0 0-.95-.17 2.36 2.36 0 0 0-.55.06 1.32 1.32 0 0 0-.44.19.93.93 0 0 0-.3.33 1 1 0 0 0-.11.48.79.79 0 0 0 .08.37.65.65 0 0 0 .25.25 2 2 0 0 0 .44.19l.65.17q.55.13 1 .26a3 3 0 0 1 .7.31 1.13 1.13 0 0 1 .56 1 1.49 1.49 0 0 1-.6 1.25 2.61 2.61 0 0 1-1.68.5zm8.24-.11h-.75v-3.19a2.58 2.58 0 0 0-.33-1.46 1.12 1.12 0 0 0-1-.48 1.67 1.67 0 0 0-.63.13 2.31 2.31 0 0 0-.59.35 2.35 2.35 0 0 0-.48.51 2.16 2.16 0 0 0-.3.65v3.5H71v-8h.75v3.58a2.59 2.59 0 0 1 .94-1 2.43 2.43 0 0 1 1.31-.4 1.76 1.76 0 0 1 .83.18 1.55 1.55 0 0 1 .56.5 2.2 2.2 0 0 1 .32.78 4.7 4.7 0 0 1 .1 1zm4.02.11a2.71 2.71 0 0 1-1.14-.22 2.81 2.81 0 0 1-.89-.64 2.88 2.88 0 0 1-.59-.94 3.1 3.1 0 0 1-.21-1.15 3.06 3.06 0 0 1 .21-1.14 3 3 0 0 1 .59-.94 2.87 2.87 0 0 1 .89-.65 2.62 2.62 0 0 1 1.13-.24 2.66 2.66 0 0 1 1.13.24 2.85 2.85 0 0 1 .9.65 3 3 0 0 1 .59.94 3.06 3.06 0 0 1 .21 1.14 3.1 3.1 0 0 1-.21 1.13 2.91 2.91 0 0 1-.59.94A2.79 2.79 0 0 1 81 24a2.75 2.75 0 0 1-1.17.22zm-2.07-2.94a2.37 2.37 0 0 0 .17.89 2.43 2.43 0 0 0 .44.72 2 2 0 0 0 .66.49 1.89 1.89 0 0 0 .81.18 1.85 1.85 0 0 0 .81-.18 2.15 2.15 0 0 0 .66-.49 2.35 2.35 0 0 0 .45-.73 2.53 2.53 0 0 0 0-1.79 2.34 2.34 0 0 0-.45-.73 2.13 2.13 0 0 0-.66-.49 1.84 1.84 0 0 0-.81-.18 1.81 1.81 0 0 0-.8.18 2.11 2.11 0 0 0-.66.5 2.39 2.39 0 0 0-.45.74 2.45 2.45 0 0 0-.17.89zM84 16.11h.75v6.71a.69.69 0 0 0 .17.5.65.65 0 0 0 .49.18h.29l.31-.09.13.6a2.42 2.42 0 0 1-.51.14 2.91 2.91 0 0 1-.52.05 1.11 1.11 0 0 1-.81-.29 1.09 1.09 0 0 1-.3-.82zm5.25 8.11a2.47 2.47 0 0 1-1.1-.25 2.8 2.8 0 0 1-.87-.65 3 3 0 0 1-.56-.94 3.08 3.08 0 0 1-.2-1.11 3.32 3.32 0 0 1 .2-1.15 3.06 3.06 0 0 1 .54-.95 2.55 2.55 0 0 1 .82-.64 2.33 2.33 0 0 1 1-.24 2.24 2.24 0 0 1 1.28.38 2.87 2.87 0 0 1 .88.92v-3.48H92v7c0 .21.09.31.26.31v.66H92a.68.68 0 0 1-.46-.17.53.53 0 0 1-.2-.41V23a2.5 2.5 0 0 1-.92.89 2.42 2.42 0 0 1-1.17.33zm.16-.66a1.8 1.8 0 0 0 .59-.11 2.41 2.41 0 0 0 .59-.3 2 2 0 0 0 .47-.45 1.22 1.22 0 0 0 .24-.55v-1.77a2 2 0 0 0-.32-.55 2.57 2.57 0 0 0-.48-.46 2.25 2.25 0 0 0-.58-.31 1.79 1.79 0 0 0-.6-.11 1.76 1.76 0 0 0-.83.2 2.11 2.11 0 0 0-.64.52 2.3 2.3 0 0 0-.41.74 2.61 2.61 0 0 0-.14.86 2.39 2.39 0 0 0 .61 1.61 2.16 2.16 0 0 0 .67.5 1.91 1.91 0 0 0 .83.18z"/></g></g></svg>