<?xml version="1.0" encoding="utf-8"?>
<!-- Generator: Adobe Illustrator 21.0.0, SVG Export Plug-In . SVG Version: 6.00 Build 0)  -->
<svg version="1.1" id="Layer_1" xmlns="http://www.w3.org/2000/svg" xmlns:xlink="http://www.w3.org/1999/xlink" x="0px" y="0px"
	 viewBox="0 0 483.5 386" style="enable-background:new 0 0 483.5 386;" xml:space="preserve">
<style type="text/css">
	.st0{fill:#B4B4B4;}
	.st1{enable-background:new    ;}
	.st2{fill:#FFFFFF;}
	.st3{fill:#3A85C6;}
	.st4{fill:#F3F3F3;}
	.st5{fill:#FFFFFF;stroke:#B4B4B4;stroke-width:0.5;}
	.st6{fill:#898989;}
	.st7{fill:#818181;}
	.st8{fill:#6D6E6E;}
	.st9{fill:#4E4E4E;}
	.st10{fill:#CCCCCC;}
	.st11{fill:url(#SVGID_1_);}
	.st12{fill:#F5BB18;}
	.st13{font-family:'Raleway-Regular';}
	.st14{font-size:8px;}
	.st15{opacity:0.5;}
</style>
<title>threshold-lg_2</title>
<g>
	<ellipse transform="matrix(0.5299 -0.848 0.848 0.5299 -11.3452 39.5383)" class="st0" cx="30" cy="30" rx="30" ry="30"/>
	<g class="st1">
		<path class="st2" d="M36.5,36.1l-0.3,2H23.8l0.2-1.3c0.2-1,0.6-1.8,1.2-2.6s1.4-1.4,2.2-1.9c0.9-0.6,1.8-1.1,2.7-1.5
			c1-0.5,1.9-0.9,2.7-1.4c0.8-0.5,1.6-1,2.2-1.5c0.6-0.5,1-1.2,1.1-1.9c0.1-0.5,0-0.8-0.2-1.1c-0.2-0.3-0.5-0.6-0.9-0.7
			c-0.4-0.2-0.8-0.3-1.3-0.4c-0.5-0.1-0.9-0.1-1.3-0.1c-0.4,0-0.8,0-1.2,0.1c-0.5,0-0.9,0.1-1.4,0.2c-0.5,0.1-1,0.2-1.5,0.3
			c-0.5,0.1-0.9,0.3-1.3,0.4l-0.3-2c0.8-0.3,1.7-0.6,2.7-0.8c1-0.2,2.1-0.3,3.2-0.3h0.2c0.6,0,1.3,0.1,2,0.2
			c0.7,0.1,1.4,0.4,1.9,0.7s1,0.8,1.3,1.4c0.3,0.6,0.4,1.3,0.2,2.2c-0.2,0.9-0.5,1.7-1.1,2.4c-0.6,0.7-1.3,1.3-2.1,1.9
			s-1.7,1.1-2.7,1.6c-0.9,0.5-1.8,1-2.7,1.4c-0.8,0.5-1.6,0.9-2.2,1.4c-0.6,0.5-1,1-1.2,1.5H36.5z"/>
	</g>
	<path class="st3" d="M171.6,141.8h117.9c4.1,0,7.5,3.4,7.5,7.5v5.6c0,4.1-3.4,7.5-7.5,7.5H171.6c-4.1,0-7.5-3.4-7.5-7.5v-5.6
		C164.1,145.2,167.4,141.8,171.6,141.8z"/>
	<path class="st4" d="M184.5,147.8h0.6l3.2,7.8h-0.8l-1-2.4H183l-1,2.4h-0.8L184.5,147.8z M186.4,152.5l-1.6-3.9l-1.6,3.9H186.4z"/>
	<path class="st4" d="M191.6,155.7c-0.4,0-0.8-0.1-1.1-0.3s-0.6-0.4-0.9-0.6c-0.2-0.3-0.4-0.6-0.6-0.9c-0.1-0.4-0.2-0.7-0.2-1.1
		c0-0.4,0.1-0.8,0.2-1.1c0.1-0.3,0.3-0.7,0.5-0.9c0.2-0.3,0.5-0.5,0.8-0.6c0.3-0.2,0.7-0.2,1-0.2c0.5,0,0.9,0.1,1.3,0.4
		c0.4,0.2,0.7,0.6,0.9,0.9v-3.5h0.8v7c0,0.2,0.1,0.3,0.3,0.3v0.7h-0.3c-0.2,0-0.3-0.1-0.5-0.2c-0.1-0.1-0.2-0.3-0.2-0.4v-0.6
		c-0.2,0.4-0.5,0.7-0.9,0.9C192.4,155.5,192,155.7,191.6,155.7z M191.7,155c0.2,0,0.4,0,0.6-0.1c0.2-0.1,0.4-0.2,0.6-0.3
		c0.2-0.1,0.3-0.3,0.5-0.4c0.1-0.2,0.2-0.3,0.2-0.6v-1.8c-0.1-0.2-0.2-0.4-0.3-0.6c-0.1-0.2-0.3-0.3-0.5-0.5
		c-0.2-0.1-0.4-0.2-0.6-0.3c-0.2-0.1-0.4-0.1-0.6-0.1c-0.3,0-0.6,0.1-0.8,0.2c-0.2,0.1-0.5,0.3-0.6,0.5c-0.2,0.2-0.3,0.5-0.4,0.7
		c-0.1,0.3-0.1,0.6-0.1,0.9c0,0.6,0.2,1.2,0.6,1.6c0.2,0.2,0.4,0.4,0.7,0.5C191.1,155,191.4,155,191.7,155L191.7,155z"/>
	<path class="st4" d="M198.4,155.7c-0.4,0-0.8-0.1-1.1-0.3s-0.6-0.4-0.9-0.6c-0.2-0.3-0.4-0.6-0.6-0.9c-0.1-0.4-0.2-0.7-0.2-1.1
		c0-0.4,0.1-0.8,0.2-1.1c0.1-0.3,0.3-0.7,0.5-0.9c0.2-0.3,0.5-0.5,0.8-0.6c0.3-0.2,0.7-0.2,1-0.2c0.5,0,0.9,0.1,1.3,0.4
		c0.4,0.2,0.7,0.6,0.9,0.9v-3.5h0.8v7c0,0.2,0.1,0.3,0.3,0.3v0.7h-0.3c-0.2,0-0.3-0.1-0.5-0.2c-0.1-0.1-0.2-0.3-0.2-0.4v-0.6
		c-0.2,0.4-0.5,0.7-0.9,0.9C199.2,155.5,198.8,155.7,198.4,155.7z M198.5,155c0.2,0,0.4,0,0.6-0.1c0.2-0.1,0.4-0.2,0.6-0.3
		c0.2-0.1,0.3-0.3,0.5-0.4c0.1-0.2,0.2-0.3,0.2-0.6v-1.8c-0.1-0.2-0.2-0.4-0.3-0.6c-0.1-0.2-0.3-0.3-0.5-0.5
		c-0.2-0.1-0.4-0.2-0.6-0.3c-0.2-0.1-0.4-0.1-0.6-0.1c-0.3,0-0.6,0.1-0.8,0.2c-0.2,0.1-0.5,0.3-0.6,0.5c-0.2,0.2-0.3,0.5-0.4,0.7
		c-0.1,0.3-0.1,0.6-0.1,0.9c0,0.6,0.2,1.2,0.6,1.6c0.2,0.2,0.4,0.4,0.7,0.5C198,155,198.3,155,198.5,155L198.5,155z"/>
	<path class="st4" d="M208.6,155.7c-0.5,0-0.9-0.1-1.3-0.4c-0.4-0.2-0.7-0.6-0.9-0.9v3.5h-0.8v-8h0.7v1.1c0.2-0.4,0.5-0.7,0.9-0.9
		s0.8-0.3,1.2-0.3s0.7,0.1,1.1,0.3c0.3,0.2,0.6,0.4,0.9,0.7c0.2,0.3,0.4,0.6,0.6,0.9c0.1,0.4,0.2,0.7,0.2,1.1c0,0.4-0.1,0.8-0.2,1.1
		c-0.1,0.3-0.3,0.7-0.5,0.9c-0.2,0.3-0.5,0.5-0.8,0.6C209.3,155.6,208.9,155.7,208.6,155.7z M208.3,155c0.3,0,0.6-0.1,0.8-0.2
		c0.2-0.1,0.5-0.3,0.6-0.5c0.2-0.2,0.3-0.5,0.4-0.7c0.1-0.3,0.1-0.6,0.1-0.9c0-0.3-0.1-0.6-0.2-0.9c-0.1-0.3-0.3-0.5-0.4-0.7
		c-0.2-0.2-0.4-0.4-0.7-0.5s-0.5-0.2-0.8-0.2c-0.2,0-0.4,0-0.6,0.1c-0.2,0.1-0.4,0.2-0.6,0.3c-0.2,0.1-0.3,0.3-0.5,0.4
		c-0.1,0.2-0.2,0.3-0.2,0.5v1.8c0.1,0.2,0.2,0.4,0.3,0.6c0.1,0.2,0.3,0.3,0.5,0.5c0.2,0.1,0.4,0.2,0.6,0.3
		C207.9,155,208.1,155,208.3,155L208.3,155z"/>
	<path class="st4" d="M217.2,155.6h-0.8v-3.2c0-0.5-0.1-1-0.3-1.5c-0.2-0.3-0.6-0.5-1-0.5c-0.2,0-0.4,0-0.6,0.1
		c-0.2,0.1-0.4,0.2-0.6,0.4c-0.2,0.1-0.3,0.3-0.5,0.5c-0.1,0.2-0.2,0.4-0.3,0.6v3.5h-0.8v-8h0.8v3.6c0.2-0.4,0.5-0.8,0.9-1
		s0.8-0.4,1.3-0.4c0.3,0,0.6,0.1,0.8,0.2c0.2,0.1,0.4,0.3,0.6,0.5c0.2,0.2,0.3,0.5,0.3,0.8c0.1,0.3,0.1,0.7,0.1,1L217.2,155.6z"/>
	<path class="st4" d="M221.2,155.7c-0.4,0-0.8-0.1-1.1-0.2c-0.3-0.2-0.6-0.4-0.9-0.6c-0.3-0.3-0.5-0.6-0.6-0.9
		c-0.1-0.4-0.2-0.7-0.2-1.1c0-0.4,0.1-0.8,0.2-1.1c0.1-0.3,0.3-0.7,0.6-0.9c0.3-0.3,0.6-0.5,0.9-0.6c0.4-0.2,0.7-0.2,1.1-0.2
		c0.4,0,0.8,0.1,1.1,0.2c0.3,0.2,0.6,0.4,0.9,0.6c0.3,0.3,0.5,0.6,0.6,0.9c0.1,0.4,0.2,0.8,0.2,1.1c0,0.4-0.1,0.8-0.2,1.1
		c-0.1,0.3-0.3,0.7-0.6,0.9c-0.3,0.3-0.6,0.5-0.9,0.6C222,155.6,221.6,155.7,221.2,155.7z M219.2,152.8c0,0.3,0.1,0.6,0.2,0.9
		c0.1,0.3,0.3,0.5,0.4,0.7c0.2,0.2,0.4,0.4,0.7,0.5s0.5,0.2,0.8,0.2s0.6-0.1,0.8-0.2c0.2-0.1,0.5-0.3,0.7-0.5s0.3-0.5,0.4-0.7
		c0.2-0.6,0.2-1.2,0-1.8c-0.1-0.3-0.3-0.5-0.4-0.7c-0.2-0.2-0.4-0.4-0.7-0.5s-0.5-0.2-0.8-0.2s-0.6,0.1-0.8,0.2
		c-0.3,0.1-0.5,0.3-0.7,0.5s-0.3,0.5-0.4,0.7C219.2,152.2,219.2,152.5,219.2,152.8L219.2,152.8z"/>
	<path class="st4" d="M230.1,155.6h-0.8v-3.2c0-0.5-0.1-1-0.3-1.5c-0.2-0.3-0.6-0.5-0.9-0.5c-0.2,0-0.4,0-0.7,0.1
		c-0.2,0.1-0.4,0.2-0.6,0.3c-0.2,0.1-0.4,0.3-0.5,0.5s-0.3,0.4-0.3,0.6v3.5h-0.8v-5.7h0.7v1.3c0.2-0.4,0.6-0.8,1-1
		c0.4-0.3,0.9-0.4,1.4-0.4c0.3,0,0.6,0.1,0.8,0.2c0.2,0.1,0.4,0.3,0.5,0.5s0.2,0.5,0.3,0.8s0.1,0.7,0.1,1L230.1,155.6z"/>
	<path class="st4" d="M234.2,155.7c-0.4,0-0.8-0.1-1.1-0.2c-0.3-0.2-0.6-0.4-0.9-0.6c-0.3-0.3-0.5-0.6-0.6-0.9
		c-0.1-0.4-0.2-0.8-0.2-1.1c0-0.4,0.1-0.8,0.2-1.1c0.1-0.3,0.3-0.7,0.6-0.9c0.3-0.3,0.6-0.5,0.9-0.6c1.1-0.5,2.4-0.2,3.2,0.6
		c0.5,0.5,0.8,1.3,0.8,2v0.2v0.1h-4.9c0,0.3,0.1,0.6,0.2,0.9c0.1,0.2,0.3,0.5,0.5,0.7s0.4,0.3,0.6,0.4c0.2,0.1,0.5,0.2,0.8,0.2
		c0.2,0,0.4,0,0.6-0.1c0.2,0,0.3-0.1,0.5-0.2c0.2-0.1,0.3-0.2,0.4-0.3c0.1-0.1,0.2-0.3,0.3-0.4l0.6,0.2c-0.1,0.2-0.2,0.4-0.4,0.6
		c-0.2,0.2-0.4,0.3-0.6,0.4c-0.2,0.1-0.5,0.2-0.7,0.3C234.7,155.6,234.4,155.7,234.2,155.7z M236.3,152.4c0-0.3-0.1-0.6-0.2-0.8
		c-0.1-0.2-0.3-0.5-0.5-0.6c-0.2-0.2-0.4-0.3-0.6-0.4c-0.2-0.1-0.5-0.2-0.8-0.1c-0.5,0-1.1,0.2-1.4,0.6c-0.2,0.2-0.3,0.4-0.4,0.7
		c-0.1,0.3-0.2,0.5-0.2,0.8L236.3,152.4z"/>
	<path class="st4" d="M245.7,155.6H245v-3.2c0-0.5-0.1-1-0.3-1.5c-0.2-0.3-0.6-0.5-0.9-0.5c-0.2,0-0.4,0-0.7,0.1
		c-0.2,0.1-0.4,0.2-0.6,0.3c-0.2,0.1-0.4,0.3-0.5,0.5s-0.3,0.4-0.3,0.6v3.5h-0.8v-5.7h0.7v1.3c0.2-0.4,0.6-0.8,1-1
		c0.4-0.3,0.9-0.4,1.4-0.4c0.3,0,0.6,0.1,0.8,0.2c0.2,0.1,0.4,0.3,0.5,0.5s0.2,0.5,0.3,0.8s0.1,0.7,0.1,1V155.6z"/>
	<path class="st4" d="M249.1,155.7c-0.5,0-1.1-0.2-1.4-0.6c-0.3-0.6-0.5-1.2-0.5-1.9v-3.4h0.7v3.2c0,1.3,0.4,1.9,1.3,1.9
		c0.2,0,0.4,0,0.6-0.1c0.2-0.1,0.4-0.2,0.6-0.3c0.2-0.1,0.3-0.3,0.5-0.5c0.1-0.2,0.3-0.4,0.3-0.6v-3.6h0.8v4.8
		c0,0.2,0.1,0.3,0.3,0.3v0.7h-0.2H252c-0.2,0-0.3-0.1-0.4-0.2c-0.1-0.1-0.2-0.3-0.2-0.5v-0.7c-0.2,0.4-0.6,0.8-1,1
		C250.1,155.5,249.6,155.7,249.1,155.7z"/>
	<path class="st4" d="M262.3,155.6h-0.8v-3.2c0-0.5-0.1-1-0.3-1.5c-0.2-0.3-0.6-0.5-0.9-0.5c-0.2,0-0.4,0-0.6,0.1s-0.4,0.2-0.5,0.3
		c-0.2,0.2-0.3,0.3-0.4,0.5s-0.2,0.4-0.3,0.7v3.5h-0.8v-3.2c0-0.5-0.1-1-0.3-1.5c-0.2-0.3-0.6-0.5-0.9-0.5c-0.4,0-0.8,0.2-1.1,0.4
		c-0.3,0.3-0.6,0.7-0.7,1.2v3.5h-0.8v-5.7h0.7v1.3c0.2-0.4,0.5-0.8,0.9-1s0.8-0.4,1.3-0.4c0.4,0,0.8,0.1,1.2,0.4
		c0.3,0.3,0.5,0.7,0.5,1.1c0.4-0.9,1.2-1.5,2.2-1.5c0.3,0,0.6,0.1,0.8,0.2c0.2,0.1,0.4,0.3,0.5,0.5s0.2,0.5,0.3,0.8
		c0.1,0.3,0.1,0.7,0.1,1L262.3,155.6z"/>
	<path class="st4" d="M266.7,155.7c-0.4,0-0.9-0.1-1.2-0.3c-0.4-0.2-0.7-0.5-0.9-0.9v1.1h-0.7v-8h0.8v3.5c0.2-0.4,0.6-0.7,0.9-0.9
		c0.4-0.2,0.8-0.4,1.3-0.4c0.4,0,0.7,0.1,1.1,0.3c0.3,0.2,0.6,0.4,0.8,0.7c0.2,0.3,0.4,0.6,0.5,1s0.2,0.7,0.2,1.1
		c0,0.4-0.1,0.8-0.2,1.1s-0.3,0.7-0.6,0.9c-0.2,0.3-0.5,0.5-0.9,0.6C267.4,155.7,267.1,155.7,266.7,155.7z M266.5,155
		c0.3,0,0.6-0.1,0.9-0.2c0.3-0.1,0.5-0.3,0.7-0.5s0.3-0.5,0.4-0.7c0.1-0.3,0.2-0.6,0.2-0.9c0-0.3-0.1-0.6-0.1-0.9
		c-0.1-0.3-0.2-0.5-0.4-0.7c-0.2-0.2-0.4-0.4-0.6-0.5c-0.3-0.1-0.5-0.2-0.8-0.2c-0.2,0-0.4,0-0.6,0.1s-0.4,0.2-0.5,0.3
		c-0.2,0.1-0.3,0.3-0.5,0.5c-0.1,0.2-0.2,0.3-0.3,0.5v1.8c0,0.2,0.1,0.4,0.2,0.6c0.1,0.2,0.3,0.3,0.5,0.4c0.2,0.1,0.4,0.2,0.6,0.3
		C266.1,155,266.3,155,266.5,155L266.5,155z"/>
	<path class="st4" d="M273.1,155.7c-0.4,0-0.8-0.1-1.1-0.2c-0.3-0.2-0.6-0.4-0.9-0.6c-0.3-0.3-0.5-0.6-0.6-0.9
		c-0.1-0.4-0.2-0.8-0.2-1.1c0-0.4,0.1-0.8,0.2-1.1s0.3-0.7,0.6-0.9c0.3-0.3,0.6-0.5,0.9-0.6c1.1-0.5,2.4-0.2,3.2,0.6
		c0.5,0.5,0.8,1.3,0.8,2v0.2v0.1h-4.9c0,0.3,0.1,0.6,0.2,0.9c0.1,0.2,0.3,0.5,0.5,0.7s0.4,0.3,0.6,0.4c0.2,0.1,0.5,0.2,0.8,0.2
		c0.2,0,0.4,0,0.5-0.1c0.2,0,0.3-0.1,0.5-0.2c0.2-0.1,0.3-0.2,0.4-0.3s0.2-0.3,0.3-0.4l0.6,0.2c-0.1,0.2-0.2,0.4-0.4,0.6
		c-0.2,0.2-0.4,0.3-0.6,0.4c-0.2,0.1-0.5,0.2-0.7,0.3C273.7,155.6,273.4,155.7,273.1,155.7z M275.2,152.4c0-0.3-0.1-0.6-0.2-0.8
		s-0.3-0.5-0.5-0.6c-0.2-0.2-0.4-0.3-0.6-0.4c-0.2-0.1-0.5-0.2-0.8-0.1c-0.5,0-1.1,0.2-1.4,0.6c-0.2,0.2-0.3,0.4-0.5,0.7
		c-0.1,0.3-0.2,0.5-0.2,0.8L275.2,152.4z"/>
	<path class="st4" d="M280,150.5c-0.5,0-0.9,0.2-1.3,0.4c-0.4,0.3-0.7,0.6-0.8,1.1v3.6h-0.8v-5.7h0.7v1.4c0.2-0.4,0.5-0.7,0.9-1
		c0.3-0.2,0.7-0.4,1.1-0.4h0.2L280,150.5L280,150.5z"/>
	<path class="st5" d="M171.6,98h117.9c4.1,0,7.5,3.4,7.5,7.5v8.3c0,4.1-3.4,7.5-7.5,7.5H171.6c-4.1,0-7.5-3.4-7.5-7.5v-8.3
		C164.1,101.4,167.4,98,171.6,98z"/>
	<path class="st6" d="M181.5,113.1v-7.8h3.2c0.3,0,0.6,0.1,0.9,0.2c0.3,0.1,0.5,0.3,0.7,0.6c0.2,0.2,0.4,0.5,0.5,0.8
		s0.2,0.6,0.2,0.9s-0.1,0.6-0.2,0.9c-0.1,0.3-0.3,0.6-0.5,0.8c-0.2,0.2-0.4,0.4-0.7,0.6c-0.3,0.1-0.6,0.2-0.9,0.2h-2.5v2.9
		L181.5,113.1L181.5,113.1z M182.3,109.6h2.5c0.2,0,0.4,0,0.6-0.2c0.2-0.1,0.3-0.2,0.5-0.4c0.1-0.2,0.2-0.4,0.3-0.6s0.1-0.4,0.1-0.7
		c0-0.5-0.2-0.9-0.5-1.3c-0.1-0.2-0.3-0.3-0.5-0.4s-0.4-0.1-0.6-0.1h-2.4L182.3,109.6z"/>
	<path class="st6" d="M193,113.1h-0.8v-3.2c0-0.5-0.1-1-0.3-1.5c-0.2-0.3-0.6-0.5-1-0.5c-0.2,0-0.4,0-0.6,0.1
		c-0.2,0.1-0.4,0.2-0.6,0.3c-0.2,0.1-0.3,0.3-0.5,0.5c-0.1,0.2-0.2,0.4-0.3,0.7v3.5h-0.8v-8h0.8v3.6c0.2-0.4,0.5-0.8,0.9-1
		s0.8-0.4,1.3-0.4c0.3,0,0.6,0.1,0.8,0.2s0.4,0.3,0.6,0.5c0.2,0.2,0.3,0.5,0.3,0.8c0.1,0.3,0.1,0.7,0.1,1L193,113.1z"/>
	<path class="st6" d="M197,113.2c-0.4,0-0.8-0.1-1.1-0.2c-0.3-0.2-0.6-0.4-0.9-0.6c-0.3-0.3-0.5-0.6-0.6-0.9
		c-0.1-0.4-0.2-0.7-0.2-1.1s0.1-0.8,0.2-1.1c0.1-0.3,0.3-0.7,0.6-0.9c0.3-0.3,0.6-0.5,0.9-0.7c0.4-0.2,0.7-0.2,1.1-0.2
		c0.4,0,0.8,0.1,1.1,0.2c0.3,0.2,0.6,0.4,0.9,0.7c0.3,0.3,0.5,0.6,0.6,0.9c0.1,0.4,0.2,0.8,0.2,1.1c0,0.4-0.1,0.8-0.2,1.1
		c-0.1,0.3-0.3,0.7-0.6,0.9c-0.3,0.3-0.6,0.5-0.9,0.6C197.8,113.1,197.4,113.2,197,113.2z M195,110.3c0,0.3,0.1,0.6,0.2,0.9
		c0.1,0.3,0.3,0.5,0.4,0.7c0.2,0.2,0.4,0.4,0.7,0.5s0.5,0.2,0.8,0.2s0.6-0.1,0.8-0.2s0.5-0.3,0.7-0.5s0.3-0.5,0.4-0.7
		c0.2-0.6,0.2-1.2,0-1.8c-0.1-0.3-0.3-0.5-0.4-0.7c-0.2-0.2-0.4-0.4-0.7-0.5s-0.6-0.2-0.9-0.1c-0.3,0-0.6,0.1-0.8,0.2
		c-0.3,0.1-0.5,0.3-0.7,0.5s-0.3,0.5-0.4,0.7C195,109.7,195,110,195,110.3z"/>
	<path class="st6" d="M205.9,113.1h-0.8v-3.2c0-0.5-0.1-1-0.3-1.5c-0.2-0.3-0.6-0.5-0.9-0.5c-0.2,0-0.4,0-0.7,0.1
		c-0.2,0.1-0.4,0.2-0.6,0.3c-0.2,0.1-0.4,0.3-0.5,0.5s-0.3,0.4-0.3,0.7v3.5H201v-5.7h0.7v1.3c0.2-0.4,0.6-0.8,1-1
		c0.4-0.3,0.9-0.4,1.4-0.4c0.3,0,0.6,0.1,0.8,0.2s0.4,0.3,0.5,0.5s0.2,0.5,0.3,0.8s0.1,0.7,0.1,1L205.9,113.1z"/>
	<path class="st6" d="M210,113.2c-0.4,0-0.8-0.1-1.1-0.2c-0.3-0.2-0.6-0.4-0.9-0.7c-0.3-0.3-0.5-0.6-0.6-0.9
		c-0.1-0.4-0.2-0.8-0.2-1.2c0-0.4,0.1-0.8,0.2-1.1c0.1-0.3,0.3-0.7,0.6-0.9c0.3-0.3,0.6-0.5,0.9-0.6c1.1-0.5,2.4-0.2,3.2,0.6
		c0.5,0.5,0.8,1.3,0.8,2v0.2v0.1H208c0,0.3,0.1,0.6,0.2,0.8c0.1,0.2,0.3,0.5,0.5,0.7s0.4,0.3,0.6,0.4c0.2,0.1,0.5,0.2,0.8,0.2
		c0.2,0,0.4,0,0.6-0.1c0.2,0,0.3-0.1,0.5-0.2s0.3-0.2,0.4-0.3c0.1-0.1,0.2-0.3,0.3-0.4l0.6,0.2c-0.1,0.2-0.2,0.4-0.4,0.6
		s-0.4,0.3-0.6,0.4c-0.2,0.1-0.5,0.2-0.7,0.3C210.5,113.2,210.3,113.2,210,113.2z M212.1,109.9c0-0.3-0.1-0.6-0.2-0.8
		c-0.1-0.2-0.3-0.5-0.5-0.7s-0.4-0.3-0.6-0.4c-0.2-0.1-0.5-0.2-0.8-0.2c-0.5,0-1.1,0.2-1.4,0.6c-0.2,0.2-0.3,0.4-0.4,0.7
		c-0.1,0.3-0.2,0.5-0.2,0.8H212.1z"/>
	<path class="st6" d="M221.5,113.1h-0.8v-3.2c0-0.5-0.1-1-0.3-1.5c-0.2-0.3-0.6-0.5-0.9-0.5c-0.2,0-0.4,0-0.7,0.1
		c-0.2,0.1-0.4,0.2-0.6,0.3c-0.2,0.1-0.4,0.3-0.5,0.5s-0.3,0.4-0.3,0.7v3.5h-0.8v-5.7h0.7v1.3c0.2-0.4,0.6-0.8,1-1
		c0.4-0.3,0.9-0.4,1.4-0.4c0.3,0,0.6,0.1,0.8,0.2s0.4,0.3,0.5,0.5s0.2,0.5,0.3,0.8s0.1,0.7,0.1,1L221.5,113.1z"/>
	<path class="st6" d="M224.9,113.2c-0.5,0-1.1-0.2-1.4-0.6c-0.3-0.6-0.5-1.2-0.5-1.8v-3.3h0.8v3.2c0,1.3,0.4,1.9,1.3,1.9
		c0.2,0,0.4,0,0.6-0.1c0.2-0.1,0.4-0.2,0.6-0.3c0.2-0.1,0.3-0.3,0.5-0.5c0.1-0.2,0.3-0.4,0.3-0.7v-3.6h0.8v4.8
		c0,0.2,0.1,0.3,0.3,0.3v0.7H228h-0.1c-0.2,0-0.3-0.1-0.4-0.2c-0.1-0.1-0.2-0.3-0.2-0.5v-0.7c-0.2,0.4-0.6,0.8-1,1
		C225.9,113.1,225.4,113.2,224.9,113.2z"/>
	<path class="st6" d="M238.1,113.1h-0.8v-3.2c0-0.5-0.1-1-0.3-1.5c-0.2-0.3-0.6-0.5-0.9-0.5c-0.2,0-0.4,0-0.6,0.1
		c-0.2,0.1-0.4,0.2-0.5,0.3c-0.2,0.2-0.3,0.3-0.4,0.5c-0.1,0.2-0.2,0.4-0.3,0.7v3.5h-0.8v-3.2c0-0.5-0.1-1-0.3-1.5
		c-0.2-0.3-0.6-0.5-0.9-0.5c-0.4,0-0.8,0.2-1.1,0.4c-0.3,0.3-0.6,0.7-0.7,1.2v3.5h-0.8v-5.7h0.7v1.3c0.2-0.4,0.5-0.8,0.9-1
		s0.8-0.4,1.3-0.4c0.4,0,0.8,0.1,1.2,0.4c0.3,0.3,0.5,0.7,0.5,1.1c0.4-0.9,1.2-1.5,2.2-1.5c0.3,0,0.6,0.1,0.8,0.2s0.4,0.3,0.5,0.5
		s0.2,0.5,0.3,0.8s0.1,0.7,0.1,1L238.1,113.1z"/>
	<path class="st6" d="M242.5,113.2c-0.4,0-0.9-0.1-1.2-0.3c-0.4-0.2-0.7-0.5-0.9-0.9v1.1h-0.7v-8h0.8v3.5c0.2-0.4,0.6-0.7,0.9-0.9
		c0.4-0.2,0.8-0.4,1.3-0.4c0.4,0,0.7,0.1,1.1,0.3c0.3,0.2,0.6,0.4,0.8,0.7c0.2,0.3,0.4,0.6,0.5,1s0.2,0.7,0.2,1.1s-0.1,0.8-0.2,1.1
		c-0.1,0.3-0.3,0.7-0.6,0.9c-0.2,0.3-0.5,0.5-0.9,0.6C243.2,113.2,242.9,113.2,242.5,113.2z M242.3,112.6c0.3,0,0.6-0.1,0.9-0.2
		c0.3-0.1,0.5-0.3,0.7-0.5s0.3-0.5,0.4-0.7c0.1-0.3,0.2-0.6,0.2-0.8c0-0.3-0.1-0.6-0.1-0.9c-0.1-0.3-0.2-0.5-0.4-0.7
		s-0.4-0.4-0.6-0.5c-0.3-0.1-0.5-0.2-0.8-0.2c-0.2,0-0.4,0-0.6,0.1c-0.2,0.1-0.4,0.2-0.6,0.3c-0.2,0.1-0.3,0.3-0.4,0.5
		c-0.1,0.2-0.2,0.3-0.3,0.5v1.8c0,0.2,0.1,0.4,0.2,0.6c0.1,0.2,0.3,0.3,0.5,0.4s0.4,0.2,0.6,0.3
		C241.9,112.5,242.1,112.6,242.3,112.6L242.3,112.6z"/>
	<path class="st6" d="M248.9,113.2c-0.4,0-0.8-0.1-1.1-0.2c-0.3-0.2-0.6-0.4-0.9-0.7c-0.3-0.3-0.5-0.6-0.6-0.9
		c-0.1-0.4-0.2-0.8-0.2-1.2c0-0.4,0.1-0.8,0.2-1.1c0.1-0.3,0.3-0.7,0.6-0.9c0.3-0.3,0.6-0.5,0.9-0.6c1.1-0.5,2.4-0.2,3.2,0.6
		c0.5,0.5,0.8,1.3,0.8,2v0.2v0.1h-4.9c0,0.3,0.1,0.6,0.2,0.8c0.1,0.2,0.3,0.5,0.5,0.7s0.4,0.3,0.6,0.4c0.2,0.1,0.5,0.2,0.8,0.2
		c0.2,0,0.4,0,0.6-0.1c0.2,0,0.3-0.1,0.5-0.2s0.3-0.2,0.4-0.3c0.1-0.1,0.2-0.3,0.3-0.4l0.6,0.2c-0.1,0.2-0.2,0.4-0.4,0.6
		s-0.4,0.3-0.6,0.4c-0.2,0.1-0.5,0.2-0.7,0.3C249.5,113.2,249.2,113.2,248.9,113.2z M251,110c0-0.3-0.1-0.6-0.2-0.8
		c-0.1-0.2-0.3-0.5-0.5-0.7s-0.4-0.3-0.6-0.4c-0.2-0.1-0.5-0.2-0.8-0.2c-0.5,0-1.1,0.2-1.4,0.6c-0.2,0.2-0.3,0.4-0.4,0.7
		c-0.1,0.3-0.2,0.5-0.2,0.8H251z"/>
	<path class="st6" d="M255.8,108.1c-0.5,0-0.9,0.2-1.3,0.4c-0.4,0.3-0.7,0.6-0.8,1.1v3.6h-0.8v-5.7h0.7v1.4c0.2-0.4,0.5-0.7,0.9-1
		c0.3-0.2,0.7-0.4,1.1-0.4h0.1L255.8,108.1z"/>
	<path class="st7" d="M171.1,210.1c-0.3-0.3-0.7-0.6-1.1-0.8c-0.5-0.2-1.1-0.3-1.6-0.3c-0.7-0.1-1.4,0.1-1.9,0.5
		c-0.4,0.3-0.6,0.8-0.6,1.4c0,0.3,0,0.5,0.2,0.7c0.1,0.2,0.3,0.4,0.5,0.5c0.3,0.2,0.6,0.3,0.9,0.4c0.4,0.1,0.8,0.2,1.2,0.3
		c0.5,0.1,1,0.2,1.4,0.4c0.4,0.1,0.7,0.3,1.1,0.5c0.3,0.2,0.5,0.5,0.7,0.8s0.3,0.7,0.2,1.1c0,0.4-0.1,0.8-0.3,1.2
		c-0.2,0.3-0.4,0.6-0.7,0.8s-0.7,0.4-1.1,0.5c-0.5,0.1-1,0.2-1.4,0.2c-1.5,0-2.9-0.5-4-1.4l0.5-0.8c0.2,0.2,0.4,0.4,0.6,0.5
		c0.3,0.2,0.5,0.3,0.8,0.4c0.3,0.1,0.7,0.2,1,0.3c0.4,0.1,0.7,0.1,1.1,0.1c0.6,0,1.3-0.1,1.9-0.4c0.4-0.3,0.7-0.8,0.7-1.3
		c0-0.3-0.1-0.5-0.2-0.8c-0.1-0.2-0.3-0.4-0.6-0.6c-0.3-0.2-0.6-0.3-0.9-0.4c-0.4-0.1-0.8-0.2-1.3-0.3s-0.9-0.2-1.4-0.4
		c-0.4-0.1-0.7-0.3-1-0.5s-0.5-0.4-0.6-0.7s-0.2-0.7-0.2-1c0-0.4,0.1-0.8,0.3-1.2s0.4-0.7,0.7-0.9s0.7-0.4,1.1-0.6
		c0.5-0.1,0.9-0.2,1.4-0.2c0.6,0,1.2,0.1,1.8,0.3c0.5,0.2,1,0.5,1.4,0.9L171.1,210.1z"/>
	<path class="st7" d="M176.8,218.4c-0.5,0-1-0.1-1.5-0.3c-0.4-0.2-0.8-0.5-1.1-0.8c-0.3-0.4-0.6-0.8-0.8-1.2c-0.2-0.5-0.3-1-0.3-1.5
		s0.1-1,0.3-1.4s0.4-0.8,0.8-1.2c0.3-0.3,0.7-0.6,1.2-0.8c0.9-0.4,2-0.4,2.9,0c0.4,0.2,0.8,0.5,1.1,0.8c0.7,0.7,1,1.7,1,2.6v0.2v0.1
		h-6.2c0,0.4,0.1,0.7,0.3,1.1c0.1,0.3,0.4,0.6,0.6,0.9c0.2,0.2,0.5,0.4,0.8,0.6c0.3,0.1,0.7,0.2,1,0.2c0.2,0,0.5,0,0.7-0.1
		s0.4-0.2,0.6-0.3c0.2-0.1,0.4-0.2,0.5-0.4c0.2-0.2,0.3-0.3,0.4-0.5l0.8,0.2c-0.1,0.3-0.3,0.5-0.5,0.7s-0.4,0.4-0.7,0.6
		c-0.3,0.2-0.6,0.3-0.9,0.4C177.5,218.3,177.1,218.4,176.8,218.4z M179.5,214.2c0-0.4-0.1-0.7-0.3-1.1c-0.1-0.3-0.3-0.6-0.6-0.8
		c-0.2-0.2-0.5-0.4-0.8-0.6c-0.3-0.1-0.7-0.2-1-0.2s-0.7,0.1-1,0.2c-0.3,0.1-0.6,0.3-0.8,0.6c-0.2,0.2-0.4,0.5-0.6,0.8
		c-0.1,0.3-0.2,0.7-0.3,1.1H179.5z"/>
	<path class="st7" d="M185.3,217.9l-0.2,0.1l-0.4,0.1l-0.5,0.1c-0.2,0-0.4,0.1-0.6,0.1c-0.2,0-0.4,0-0.6-0.1
		c-0.2-0.1-0.3-0.1-0.5-0.3c-0.1-0.1-0.3-0.3-0.3-0.4c-0.1-0.2-0.1-0.4-0.1-0.6v-5.2h-1v-0.8h1v-2.5h1v2.5h1.7v0.8h-1.7v5
		c0,0.2,0.1,0.4,0.3,0.6c0.2,0.1,0.4,0.2,0.6,0.2c0.2,0,0.5,0,0.7-0.1c0.1-0.1,0.3-0.1,0.4-0.2L185.3,217.9z"/>
	<path class="st7" d="M193.6,217.9l-0.2,0.1l-0.4,0.1l-0.5,0.1c-0.2,0-0.4,0.1-0.6,0.1c-0.2,0-0.4,0-0.6-0.1
		c-0.2-0.1-0.3-0.1-0.5-0.3c-0.1-0.1-0.3-0.3-0.3-0.4c-0.1-0.2-0.1-0.4-0.1-0.6v-5.2h-1v-0.8h1v-2.5h1v2.5h1.6v0.8h-1.7v5
		c0,0.2,0.1,0.4,0.3,0.6c0.2,0.1,0.4,0.2,0.6,0.2c0.2,0,0.5,0,0.7-0.1c0.1-0.1,0.3-0.1,0.4-0.2L193.6,217.9z"/>
	<path class="st7" d="M200.9,218.2h-1v-4.1c0-0.6-0.1-1.3-0.4-1.9c-0.3-0.4-0.8-0.6-1.3-0.6c-0.3,0-0.5,0.1-0.8,0.2
		c-0.3,0.1-0.5,0.3-0.8,0.4c-0.2,0.2-0.4,0.4-0.6,0.7c-0.2,0.3-0.3,0.5-0.4,0.8v4.5h-1V208h1v4.6c0.3-0.5,0.7-1,1.2-1.3
		s1.1-0.5,1.7-0.5c0.4,0,0.7,0.1,1.1,0.2c0.3,0.2,0.5,0.4,0.7,0.6c0.2,0.3,0.3,0.6,0.4,1c0.1,0.4,0.1,0.8,0.1,1.3L200.9,218.2z"/>
	<path class="st7" d="M206.1,218.4c-0.5,0-1-0.1-1.5-0.3c-0.4-0.2-0.8-0.5-1.1-0.8c-0.3-0.4-0.6-0.8-0.8-1.2c-0.2-0.5-0.3-1-0.3-1.5
		s0.1-1,0.3-1.4s0.4-0.8,0.8-1.2c0.3-0.3,0.7-0.6,1.2-0.8c0.9-0.4,2-0.4,2.9,0c0.4,0.2,0.8,0.5,1.1,0.8c0.7,0.7,1,1.7,1,2.6v0.2v0.1
		h-6.3c0,0.4,0.1,0.7,0.3,1.1c0.1,0.3,0.4,0.6,0.6,0.9c0.2,0.2,0.5,0.4,0.8,0.6c0.3,0.1,0.7,0.2,1,0.2c0.2,0,0.5,0,0.7-0.1
		s0.4-0.2,0.6-0.3c0.2-0.1,0.4-0.2,0.5-0.4c0.2-0.2,0.3-0.3,0.4-0.5l0.8,0.2c-0.1,0.3-0.3,0.5-0.5,0.7s-0.4,0.4-0.7,0.6
		c-0.3,0.2-0.6,0.3-0.9,0.4C206.7,218.3,206.4,218.4,206.1,218.4z M208.8,214.2c0-0.4-0.1-0.7-0.3-1.1c-0.1-0.3-0.3-0.6-0.6-0.8
		c-0.2-0.2-0.5-0.4-0.8-0.6c-0.3-0.1-0.7-0.2-1-0.2s-0.7,0.1-1,0.2c-0.3,0.1-0.6,0.3-0.8,0.6c-0.2,0.2-0.4,0.5-0.6,0.8
		c-0.1,0.3-0.2,0.7-0.3,1.1H208.8z"/>
	<path class="st7" d="M216.5,218.4c-0.3,0-0.7,0-1-0.2c-0.3-0.1-0.5-0.3-0.8-0.5c-0.4-0.4-0.7-1-0.7-1.6c0-0.3,0.1-0.6,0.2-0.9
		c0.2-0.3,0.4-0.5,0.6-0.7c0.3-0.2,0.6-0.4,1-0.5s0.8-0.2,1.2-0.2s0.8,0,1.1,0.1s0.7,0.2,1,0.3v-0.7c0-0.6-0.2-1.1-0.5-1.5
		c-0.4-0.4-0.9-0.6-1.5-0.6c-0.4,0-0.8,0.1-1.1,0.2c-0.4,0.2-0.8,0.4-1.2,0.6l-0.3-0.6c0.8-0.6,1.7-1,2.7-1c0.8,0,1.6,0.2,2.2,0.8
		c0.5,0.6,0.8,1.3,0.8,2.1v3.4c0,0.3,0.1,0.4,0.4,0.4v0.8h-0.4c-0.2,0-0.4-0.1-0.6-0.2c-0.1-0.1-0.2-0.3-0.2-0.5V217
		c-0.3,0.4-0.8,0.8-1.3,1C217.7,218.2,217.1,218.4,216.5,218.4z M216.8,217.6c0.5,0,0.9-0.1,1.4-0.3c0.4-0.2,0.7-0.4,0.9-0.7
		c0.1-0.1,0.1-0.2,0.2-0.3c0-0.1,0.1-0.2,0.1-0.3v-1.2c-0.3-0.1-0.7-0.2-1-0.3s-0.7-0.1-1-0.1c-0.6,0-1.1,0.1-1.6,0.4
		c-0.4,0.2-0.7,0.6-0.7,1.1c0,0.2,0,0.4,0.1,0.6c0.1,0.2,0.2,0.4,0.4,0.5s0.3,0.3,0.6,0.3C216.3,217.6,216.5,217.6,216.8,217.6z"/>
	<path class="st7" d="M233.2,218.2h-1v-4.1c0-0.7-0.1-1.3-0.4-1.9c-0.3-0.4-0.7-0.6-1.2-0.6c-0.3,0-0.5,0-0.8,0.1s-0.5,0.2-0.7,0.4
		s-0.4,0.4-0.6,0.7c-0.2,0.3-0.3,0.6-0.4,0.9v4.4h-1V214c0.1-0.7-0.1-1.3-0.4-1.9c-0.3-0.4-0.7-0.6-1.2-0.6s-1.1,0.2-1.5,0.6
		c-0.4,0.4-0.8,0.9-0.9,1.5v4.5h-1v-7.3h0.9v1.6c0.3-0.5,0.7-1,1.2-1.3s1-0.5,1.6-0.5c0.5,0,1.1,0.2,1.5,0.5
		c0.4,0.4,0.6,0.8,0.7,1.4c0.5-1.2,1.7-1.9,3-1.9c0.3,0,0.7,0.1,1,0.2c0.3,0.1,0.5,0.4,0.7,0.6c0.2,0.3,0.3,0.6,0.4,1
		c0.1,0.4,0.1,0.9,0.1,1.3L233.2,218.2z"/>
	<path class="st7" d="M238.3,218.4c-0.5,0-1-0.1-1.5-0.3c-0.4-0.2-0.8-0.5-1.1-0.8c-0.3-0.4-0.5-0.8-0.7-1.2
		c-0.2-0.5-0.3-0.9-0.3-1.4s0.1-1,0.3-1.5c0.2-0.4,0.4-0.9,0.8-1.2c0.3-0.3,0.7-0.6,1.1-0.8c0.5-0.2,0.9-0.3,1.4-0.3s1,0.1,1.4,0.3
		s0.8,0.5,1.1,0.8s0.6,0.8,0.8,1.2c0.2,0.5,0.3,1,0.3,1.5s-0.1,1-0.3,1.4s-0.4,0.9-0.8,1.2c-0.3,0.3-0.7,0.6-1.1,0.8
		C239.3,218.2,238.8,218.4,238.3,218.4z M235.7,214.6c0,0.4,0.1,0.8,0.2,1.1c0.1,0.3,0.3,0.6,0.6,0.9c0.2,0.3,0.5,0.5,0.8,0.6
		s0.7,0.2,1,0.2s0.7-0.1,1-0.2c0.3-0.2,0.6-0.4,0.9-0.6c0.2-0.3,0.4-0.6,0.6-0.9c0.3-0.7,0.3-1.6,0-2.3c-0.1-0.3-0.3-0.7-0.6-0.9
		c-0.2-0.3-0.5-0.5-0.9-0.6c-0.3-0.1-0.7-0.2-1-0.2s-0.7,0.1-1,0.2c-0.3,0.2-0.6,0.4-0.8,0.6c-0.2,0.3-0.4,0.6-0.6,0.9
		C235.7,213.8,235.7,214.2,235.7,214.6L235.7,214.6z"/>
	<path class="st7" d="M245.8,218.4c-0.7,0-1.3-0.2-1.8-0.8c-0.4-0.7-0.6-1.5-0.6-2.4v-4.3h1v4.1c0,1.7,0.6,2.5,1.7,2.5
		c0.3,0,0.6,0,0.8-0.1c0.3-0.1,0.5-0.2,0.8-0.4c0.2-0.2,0.4-0.4,0.6-0.6c0.2-0.3,0.3-0.5,0.4-0.8V211h1v6.1c0,0.3,0.1,0.4,0.3,0.4
		v0.8h-0.3h-0.1c-0.2,0-0.4-0.1-0.5-0.2c-0.1-0.2-0.2-0.4-0.2-0.6v-0.8c-0.3,0.6-0.7,1-1.3,1.3C247.1,218.2,246.5,218.4,245.8,218.4
		z"/>
	<path class="st7" d="M258,218.2h-1v-4.1c0.1-0.7-0.1-1.3-0.4-1.9c-0.3-0.4-0.7-0.6-1.2-0.6c-0.3,0-0.6,0.1-0.8,0.1
		c-0.3,0.1-0.5,0.2-0.8,0.4c-0.2,0.2-0.5,0.4-0.6,0.7c-0.2,0.3-0.3,0.5-0.4,0.8v4.5h-1v-7.3h0.9v1.6c0.3-0.5,0.7-1,1.3-1.3
		c0.5-0.3,1.2-0.5,1.8-0.5c0.3,0,0.7,0.1,1,0.2c0.3,0.1,0.5,0.4,0.7,0.6c0.2,0.3,0.3,0.6,0.4,1s0.2,0.9,0.2,1.4v4.4H258z"/>
	<path class="st7" d="M263.4,217.9l-0.2,0.1l-0.4,0.1l-0.5,0.1c-0.2,0-0.4,0.1-0.6,0.1s-0.4,0-0.6-0.1s-0.3-0.1-0.5-0.3
		c-0.1-0.1-0.3-0.3-0.3-0.4c-0.1-0.2-0.1-0.4-0.1-0.6v-5.2h-1v-0.8h1v-2.5h1v2.5h1.7v0.8h-1.7v5c0,0.2,0.1,0.4,0.3,0.6
		c0.2,0.1,0.4,0.2,0.6,0.2s0.5,0,0.7-0.1c0.1-0.1,0.3-0.1,0.4-0.2L263.4,217.9z"/>
	<path class="st7" d="M268.2,220.5h0.2h0.2c0.1,0,0.3,0,0.4-0.1s0.2-0.2,0.3-0.3c0.1-0.2,0.2-0.5,0.3-0.7c0.1-0.3,0.3-0.7,0.5-1.2
		l-3.1-7.3h1l2.7,6.4l2.5-6.4h0.9l-3.8,9.4c-0.1,0.3-0.3,0.5-0.5,0.7c-0.3,0.2-0.6,0.3-1,0.3h-0.3h-0.3L268.2,220.5z"/>
	<path class="st7" d="M278.3,218.4c-0.5,0-1-0.1-1.5-0.3c-0.4-0.2-0.8-0.5-1.1-0.8c-0.3-0.3-0.6-0.8-0.8-1.2
		c-0.2-0.5-0.3-0.9-0.3-1.4s0.1-1,0.3-1.5c0.2-0.4,0.4-0.9,0.8-1.2c0.3-0.3,0.7-0.6,1.1-0.8c0.5-0.2,0.9-0.3,1.4-0.3s1,0.1,1.5,0.3
		c0.4,0.2,0.8,0.5,1.1,0.8c0.3,0.3,0.6,0.8,0.8,1.2c0.2,0.5,0.3,1,0.3,1.5s-0.1,1-0.3,1.4c-0.2,0.4-0.4,0.9-0.8,1.2
		c-0.3,0.3-0.7,0.6-1.1,0.8C279.2,218.3,278.7,218.4,278.3,218.4z M275.6,214.6c0,0.4,0.1,0.8,0.2,1.1s0.3,0.6,0.6,0.9
		c0.2,0.3,0.5,0.5,0.8,0.6s0.7,0.2,1,0.2s0.7-0.1,1-0.2c0.3-0.2,0.6-0.4,0.9-0.6c0.2-0.3,0.4-0.6,0.6-0.9c0.3-0.7,0.3-1.6,0-2.3
		c-0.1-0.3-0.3-0.7-0.6-0.9c-0.2-0.3-0.5-0.5-0.9-0.6c-0.3-0.1-0.7-0.2-1-0.2s-0.7,0.1-1,0.2c-0.3,0.2-0.6,0.4-0.8,0.6
		c-0.2,0.3-0.4,0.6-0.6,0.9C275.7,213.8,275.6,214.2,275.6,214.6z"/>
	<path class="st7" d="M285.8,218.4c-0.7,0-1.3-0.2-1.8-0.8c-0.4-0.7-0.6-1.5-0.6-2.4v-4.3h1v4.1c0,1.7,0.6,2.5,1.7,2.5
		c0.3,0,0.6,0,0.8-0.1c0.3-0.1,0.5-0.2,0.8-0.4c0.2-0.2,0.4-0.4,0.6-0.6c0.2-0.3,0.3-0.5,0.4-0.8V211h1v6.1c0,0.3,0.1,0.4,0.3,0.4
		v0.8h-0.3h-0.1c-0.2,0-0.5-0.1-0.7-0.2c-0.1-0.2-0.2-0.4-0.2-0.6v-0.8c-0.3,0.6-0.7,1-1.3,1.3C287,218.2,286.4,218.4,285.8,218.4z"
		/>
	<path class="st7" d="M295.4,211.8c-0.6,0-1.2,0.2-1.7,0.5s-0.8,0.8-1,1.4v4.5h-1v-7.3h0.9v1.8c0.2-0.5,0.6-1,1.1-1.3
		c0.4-0.3,0.9-0.5,1.5-0.5h0.2V211.8z"/>
	<path class="st7" d="M301.8,218.4c-0.3,0-0.7,0-1-0.2c-0.3-0.1-0.5-0.3-0.8-0.5c-0.4-0.4-0.7-1-0.7-1.6c0-0.3,0.1-0.6,0.2-0.9
		c0.2-0.3,0.4-0.5,0.6-0.7c0.3-0.2,0.6-0.4,1-0.5s0.8-0.2,1.2-0.2c0.4,0,0.8,0,1.1,0.1c0.3,0.1,0.7,0.2,1,0.3v-0.7
		c0-0.6-0.2-1.1-0.5-1.5c-0.4-0.4-0.9-0.6-1.5-0.6c-0.4,0-0.8,0.1-1.1,0.2c-0.4,0.2-0.8,0.4-1.2,0.6l-0.3-0.6c0.8-0.6,1.7-1,2.7-1
		c0.8,0,1.6,0.2,2.2,0.8c0.5,0.6,0.8,1.3,0.8,2.1v3.4c0,0.3,0.1,0.4,0.4,0.4v0.8c-0.1,0-0.2,0-0.4,0c-0.2,0-0.4-0.1-0.6-0.2
		c-0.1-0.1-0.2-0.3-0.2-0.5V217c-0.3,0.4-0.8,0.8-1.3,1C302.9,218.2,302.3,218.4,301.8,218.4z M302,217.6c0.5,0,0.9-0.1,1.4-0.3
		c0.4-0.2,0.7-0.4,0.9-0.7c0.1-0.1,0.1-0.2,0.2-0.3c0-0.1,0.1-0.2,0.1-0.3v-1.2c-0.3-0.1-0.7-0.2-1-0.3s-0.7-0.1-1-0.1
		c-0.6,0-1.1,0.1-1.6,0.4c-0.4,0.2-0.6,0.7-0.6,1.1c0,0.2,0,0.4,0.1,0.6c0.1,0.2,0.2,0.4,0.4,0.5c0.2,0.1,0.3,0.3,0.5,0.3
		C301.5,217.6,301.8,217.6,302,217.6L302,217.6z"/>
	<path class="st7" d="M307.6,209.4V208h1v1.4H307.6z M307.6,218.2v-7.3h1v7.3H307.6z"/>
	<path class="st7" d="M314.3,211.8c-0.6,0-1.2,0.2-1.7,0.5s-0.8,0.8-1,1.4v4.5h-1v-7.3h0.9v1.8c0.2-0.5,0.6-1,1.1-1.3
		c0.4-0.3,0.9-0.5,1.5-0.5h0.2V211.8z"/>
	<path class="st7" d="M319,217.9l-0.2,0.1l-0.4,0.1l-0.5,0.1c-0.2,0-0.4,0.1-0.6,0.1s-0.4,0-0.6-0.1s-0.3-0.1-0.5-0.3
		c-0.1-0.1-0.3-0.3-0.3-0.4c-0.1-0.2-0.1-0.4-0.1-0.6v-5.2h-1v-0.8h1v-2.5h1v2.5h1.7v0.8h-1.7v5c0,0.2,0.1,0.4,0.3,0.6
		c0.2,0.1,0.4,0.2,0.6,0.2s0.5,0,0.7-0.1c0.1-0.1,0.3-0.1,0.4-0.2L319,217.9z"/>
	<path class="st7" d="M320.2,209.4V208h1v1.4H320.2z M320.2,218.2v-7.3h1v7.3H320.2z"/>
	<path class="st7" d="M334.1,218.2h-1v-4.1c0-0.7-0.1-1.3-0.4-1.9c-0.3-0.4-0.7-0.6-1.2-0.6c-0.3,0-0.5,0-0.8,0.1s-0.5,0.2-0.7,0.4
		s-0.4,0.4-0.5,0.7c-0.2,0.3-0.3,0.6-0.4,0.9v4.4h-1V214c0-0.7-0.1-1.3-0.4-1.9c-0.3-0.4-0.7-0.6-1.2-0.6s-1.1,0.2-1.5,0.6
		c-0.4,0.4-0.8,0.9-0.9,1.5v4.5h-1v-7.3h0.9v1.6c0.3-0.5,0.7-1,1.2-1.3s1-0.5,1.6-0.5c0.5,0,1.1,0.2,1.5,0.5
		c0.4,0.4,0.6,0.8,0.7,1.4c0.5-1.1,1.6-1.9,2.8-1.9c0.3,0,0.7,0.1,1,0.2c0.3,0.1,0.5,0.4,0.7,0.6c0.2,0.3,0.3,0.6,0.4,1
		s0.1,0.9,0.1,1.3L334.1,218.2z"/>
	<path class="st7" d="M339.3,218.4c-0.5,0-1-0.1-1.5-0.3c-0.4-0.2-0.8-0.5-1.2-0.8c-0.3-0.4-0.6-0.8-0.8-1.2c-0.2-0.5-0.3-1-0.3-1.5
		s0.1-1,0.3-1.4c0.2-0.4,0.4-0.8,0.8-1.2c0.3-0.3,0.7-0.6,1.1-0.8c0.9-0.4,2-0.4,2.9,0c0.4,0.2,0.8,0.5,1.1,0.8c0.7,0.7,1,1.7,1,2.6
		v0.2v0.1h-6.2c0,0.4,0.1,0.7,0.3,1.1c0.1,0.3,0.3,0.6,0.6,0.9c0.2,0.2,0.5,0.4,0.8,0.6c0.3,0.1,0.7,0.2,1,0.2c0.2,0,0.5,0,0.7-0.1
		s0.4-0.2,0.6-0.3s0.4-0.2,0.5-0.4c0.2-0.2,0.3-0.3,0.4-0.5l0.8,0.2c-0.1,0.3-0.3,0.5-0.5,0.7s-0.4,0.4-0.7,0.6
		c-0.3,0.2-0.6,0.3-0.9,0.4C340,218.3,339.6,218.4,339.3,218.4z M342,214.2c0-0.7-0.3-1.4-0.9-1.9c-0.5-0.5-1.1-0.7-1.8-0.7
		c-0.3,0-0.7,0.1-1,0.2c-0.3,0.1-0.6,0.3-0.8,0.6c-0.2,0.2-0.4,0.5-0.6,0.8c-0.1,0.3-0.2,0.7-0.3,1.1L342,214.2z"/>
	<path class="st7" d="M356.7,210.9h0.9l-3.1,7.3h-0.8l-1.6-3.7l-1.5,3.7h-0.8l-3.1-7.3h0.9l2.7,6.3l1.4-3.3l-1.3-3h0.8l1,2.4l1-2.4
		h0.8l-1.3,3l1.4,3.3L356.7,210.9z"/>
	<path class="st7" d="M361.8,218.4c-0.5,0-1-0.1-1.5-0.3c-0.4-0.2-0.8-0.5-1.1-0.8c-0.3-0.3-0.6-0.8-0.8-1.2
		c-0.2-0.5-0.3-0.9-0.3-1.4s0.1-1,0.3-1.5c0.2-0.4,0.4-0.9,0.8-1.2c0.3-0.3,0.7-0.6,1.1-0.8c0.5-0.2,0.9-0.3,1.4-0.3s1,0.1,1.5,0.3
		c0.4,0.2,0.8,0.5,1.1,0.8c0.3,0.3,0.6,0.8,0.8,1.2c0.2,0.5,0.3,1,0.3,1.5s-0.1,1-0.3,1.4c-0.2,0.4-0.4,0.9-0.8,1.2
		c-0.3,0.3-0.7,0.6-1.1,0.8C362.8,218.3,362.3,218.4,361.8,218.4z M359.1,214.6c0,0.4,0.1,0.8,0.2,1.1s0.3,0.6,0.6,0.9
		c0.2,0.3,0.5,0.5,0.8,0.6s0.7,0.2,1,0.2s0.7-0.1,1-0.2c0.3-0.2,0.6-0.4,0.9-0.6c0.2-0.3,0.4-0.6,0.6-0.9c0.3-0.7,0.3-1.6,0-2.3
		c-0.1-0.3-0.3-0.7-0.6-0.9c-0.2-0.3-0.5-0.5-0.9-0.6c-0.3-0.1-0.7-0.2-1-0.2s-0.7,0.1-1,0.2c-0.3,0.2-0.6,0.4-0.8,0.6
		c-0.2,0.3-0.4,0.6-0.6,0.9C359.2,213.8,359.1,214.2,359.1,214.6z"/>
	<path class="st7" d="M369.3,218.4c-0.7,0-1.3-0.2-1.8-0.8c-0.4-0.7-0.6-1.5-0.6-2.4v-4.3h1v4.1c0,1.7,0.6,2.5,1.7,2.5
		c0.3,0,0.6,0,0.8-0.1c0.3-0.1,0.5-0.2,0.8-0.4c0.2-0.2,0.4-0.4,0.6-0.6c0.2-0.3,0.3-0.5,0.4-0.8V211h1v6.1c0,0.3,0.1,0.4,0.3,0.4
		v0.8h-0.3h-0.1c-0.2,0-0.4-0.1-0.5-0.2c-0.1-0.2-0.2-0.4-0.2-0.6v-0.8c-0.3,0.6-0.7,1-1.3,1.3C370.6,218.2,369.9,218.4,369.3,218.4
		z"/>
	<path class="st7" d="M375.4,208h1v8.6c0,0.2,0.1,0.5,0.2,0.6c0.2,0.2,0.4,0.2,0.6,0.2c0.1,0,0.2,0,0.4,0c0.1,0,0.3-0.1,0.4-0.1
		l0.2,0.8c-0.2,0.1-0.4,0.1-0.6,0.2c-0.2,0-0.4,0.1-0.7,0.1c-0.4,0-0.7-0.1-1-0.4c-0.3-0.3-0.4-0.6-0.4-1L375.4,208z"/>
	<path class="st7" d="M382.1,218.4c-0.5,0-1-0.1-1.4-0.3s-0.8-0.5-1.1-0.8c-0.3-0.4-0.6-0.8-0.7-1.2c-0.2-0.5-0.3-0.9-0.3-1.4
		s0.1-1,0.3-1.5c0.2-0.4,0.4-0.9,0.7-1.2c0.3-0.3,0.6-0.6,1-0.8s0.9-0.3,1.3-0.3c0.6,0,1.2,0.2,1.6,0.5c0.5,0.3,0.8,0.7,1.1,1.2V208
		h1v9c0,0.3,0.1,0.4,0.3,0.4v0.8c-0.1,0-0.2,0-0.3,0c-0.2,0-0.4-0.1-0.6-0.2c-0.2-0.1-0.3-0.3-0.3-0.5v-0.7
		c-0.3,0.5-0.7,0.9-1.2,1.1C383.2,218.2,382.7,218.4,382.1,218.4z M382.3,217.5c0.3,0,0.5-0.1,0.8-0.1c0.3-0.1,0.5-0.2,0.8-0.4
		c0.2-0.2,0.4-0.3,0.6-0.6c0.2-0.2,0.3-0.5,0.3-0.7v-2.3c-0.1-0.3-0.2-0.5-0.4-0.7c-0.2-0.2-0.4-0.4-0.6-0.6
		c-0.2-0.2-0.5-0.3-0.7-0.4c-0.2-0.1-0.5-0.1-0.8-0.1c-0.4,0-0.7,0.1-1.1,0.3c-0.3,0.2-0.6,0.4-0.8,0.7c-0.2,0.3-0.4,0.6-0.5,0.9
		c-0.1,0.4-0.2,0.7-0.2,1.1c0,0.4,0.1,0.8,0.2,1.1s0.3,0.7,0.6,0.9c0.2,0.3,0.5,0.5,0.9,0.6C381.6,217.5,381.9,217.5,382.3,217.5
		L382.3,217.5z"/>
	<path class="st7" d="M395,211.8c-0.6,0-1.2,0.2-1.7,0.5s-0.8,0.8-1,1.4v4.5h-1v-7.3h0.9v1.8c0.2-0.5,0.6-1,1.1-1.3
		c0.4-0.3,0.9-0.5,1.5-0.5h0.2V211.8z"/>
	<path class="st7" d="M399.1,218.4c-0.5,0-1-0.1-1.5-0.3c-0.4-0.2-0.8-0.5-1.2-0.8c-0.3-0.4-0.6-0.8-0.8-1.2c-0.2-0.5-0.3-1-0.3-1.5
		s0.1-1,0.3-1.4c0.2-0.4,0.4-0.8,0.8-1.2c0.3-0.3,0.7-0.6,1.1-0.8c0.9-0.4,2-0.4,2.9,0c0.4,0.2,0.8,0.5,1.1,0.8c0.7,0.7,1,1.7,1,2.6
		v0.2v0.1h-6.2c0,0.4,0.1,0.7,0.3,1.1c0.1,0.3,0.3,0.6,0.6,0.9c0.2,0.2,0.5,0.4,0.8,0.6c0.3,0.1,0.7,0.2,1,0.2c0.2,0,0.5,0,0.7-0.1
		s0.4-0.2,0.6-0.3s0.4-0.2,0.5-0.4c0.2-0.2,0.3-0.3,0.4-0.5l0.8,0.2c-0.1,0.3-0.3,0.5-0.5,0.7s-0.4,0.4-0.7,0.6
		c-0.3,0.2-0.6,0.3-0.9,0.4C399.8,218.3,399.4,218.4,399.1,218.4z M401.8,214.2c0-0.7-0.3-1.4-0.9-1.9c-0.5-0.5-1.1-0.7-1.8-0.7
		c-0.3,0-0.7,0.1-1,0.2c-0.3,0.1-0.6,0.3-0.8,0.6c-0.2,0.2-0.4,0.5-0.6,0.8c-0.1,0.3-0.2,0.7-0.3,1.1L401.8,214.2z"/>
	<path class="st7" d="M406,218.4c-0.3,0-0.7,0-1-0.2c-0.3-0.1-0.5-0.3-0.8-0.5c-0.2-0.2-0.4-0.4-0.5-0.7s-0.2-0.6-0.2-0.9
		c0-0.3,0.1-0.6,0.2-0.9c0.2-0.3,0.4-0.5,0.6-0.7c0.3-0.2,0.6-0.4,1-0.5s0.8-0.2,1.2-0.2c0.4,0,0.8,0,1.1,0.1c0.3,0.1,0.7,0.2,1,0.3
		v-0.7c0-0.6-0.2-1.1-0.5-1.5c-0.4-0.4-0.9-0.6-1.5-0.6c-0.4,0-0.8,0.1-1.1,0.2c-0.4,0.2-0.8,0.4-1.2,0.6l-0.3-0.6
		c0.8-0.6,1.7-1,2.7-1c0.8,0,1.6,0.2,2.2,0.8c0.5,0.6,0.8,1.3,0.8,2.1v3.4c0,0.3,0.1,0.4,0.4,0.4v0.8h-0.4c-0.2,0-0.4-0.1-0.6-0.2
		c-0.1-0.1-0.2-0.3-0.2-0.5V217c-0.3,0.4-0.8,0.8-1.3,1C407.1,218.2,406.6,218.3,406,218.4z M406.2,217.6c0.5,0,0.9-0.1,1.4-0.3
		c0.4-0.2,0.7-0.4,1-0.7c0.1-0.1,0.1-0.2,0.2-0.3c0-0.1,0.1-0.2,0.1-0.3v-1.2c-0.3-0.1-0.7-0.2-1-0.3s-0.7-0.1-1-0.1
		c-0.6,0-1.1,0.1-1.6,0.4c-0.4,0.2-0.6,0.7-0.6,1.1c0,0.2,0,0.4,0.1,0.6c0.1,0.2,0.2,0.4,0.4,0.5c0.2,0.1,0.3,0.3,0.5,0.3
		C405.8,217.6,406,217.6,406.2,217.6z"/>
	<path class="st7" d="M411.3,214.5c0-0.5,0.1-1,0.3-1.5c0.2-0.4,0.4-0.9,0.8-1.2c0.3-0.3,0.7-0.6,1.1-0.8c0.5-0.2,1-0.3,1.5-0.3
		c0.6,0,1.3,0.1,1.8,0.5c0.5,0.3,0.9,0.7,1.2,1.3l-0.9,0.3c-0.2-0.4-0.5-0.7-0.9-0.9s-0.8-0.3-1.2-0.3c-0.3,0-0.7,0.1-1,0.2
		c-0.3,0.1-0.6,0.4-0.8,0.6c-0.2,0.3-0.4,0.6-0.6,0.9c-0.3,0.7-0.3,1.6,0,2.3c0.1,0.3,0.3,0.7,0.6,0.9c0.2,0.3,0.5,0.5,0.9,0.6
		c0.3,0.1,0.7,0.2,1,0.2c0.2,0,0.5,0,0.7-0.1s0.4-0.2,0.6-0.3s0.4-0.2,0.5-0.4c0.1-0.1,0.2-0.3,0.3-0.5l0.9,0.3
		c-0.1,0.3-0.3,0.5-0.5,0.7s-0.4,0.4-0.7,0.6c-0.3,0.2-0.6,0.3-0.9,0.4c-0.3,0.1-0.7,0.1-1,0.1c-1,0-2-0.4-2.6-1.1
		c-0.3-0.4-0.6-0.8-0.8-1.2C411.4,215.5,411.3,215.1,411.3,214.5z"/>
	<path class="st7" d="M425.6,218.2h-1v-4.1c0-0.6-0.1-1.3-0.4-1.9c-0.3-0.4-0.8-0.6-1.3-0.6c-0.3,0-0.5,0.1-0.8,0.2
		c-0.6,0.2-1,0.6-1.4,1.1c-0.2,0.3-0.3,0.5-0.4,0.8v4.5h-1V208h1v4.6c0.3-0.5,0.7-1,1.2-1.3s1.1-0.5,1.7-0.5c0.4,0,0.7,0.1,1.1,0.2
		c0.3,0.2,0.5,0.4,0.7,0.6c0.2,0.3,0.3,0.6,0.4,1s0.1,0.8,0.1,1.3L425.6,218.2z"/>
	<path class="st7" d="M427.8,219.3l0.2-1.2h-0.3v-1.3h0.9v1.3l-0.4,1.2H427.8z"/>
	<path class="st7" d="M437.9,218.4c-0.6,0-1.1-0.1-1.6-0.4c-0.5-0.3-0.9-0.7-1.1-1.1v1.4h-0.9V208h1v4.4c0.3-0.5,0.7-0.9,1.2-1.2
		s1-0.5,1.6-0.5c0.5,0,1,0.1,1.4,0.3s0.7,0.5,1,0.9s0.5,0.8,0.7,1.2s0.2,0.9,0.2,1.4s-0.1,1-0.3,1.5c-0.2,0.4-0.4,0.8-0.7,1.2
		c-0.3,0.3-0.7,0.6-1.1,0.8C438.9,218.3,438.4,218.4,437.9,218.4z M437.7,217.5c0.4,0,0.8-0.1,1.1-0.3c0.3-0.2,0.6-0.4,0.9-0.7
		c0.2-0.3,0.4-0.6,0.6-0.9c0.1-0.3,0.2-0.7,0.2-1.1c0-0.4-0.1-0.8-0.2-1.1s-0.3-0.7-0.5-0.9c-0.2-0.3-0.5-0.5-0.8-0.7
		s-0.7-0.3-1.1-0.3c-0.3,0-0.6,0-0.8,0.1c-0.3,0.1-0.5,0.2-0.7,0.4s-0.4,0.4-0.6,0.6c-0.2,0.2-0.3,0.4-0.4,0.7v2.3
		c0,0.3,0.1,0.5,0.3,0.7c0.2,0.2,0.4,0.4,0.6,0.6c0.2,0.2,0.5,0.3,0.7,0.4C437.2,217.5,437.4,217.5,437.7,217.5L437.7,217.5z"/>
	<path class="st7" d="M446.1,218.4c-0.5,0-1-0.1-1.5-0.3c-0.4-0.2-0.8-0.5-1.1-0.8c-0.3-0.4-0.6-0.8-0.8-1.2c-0.2-0.5-0.3-1-0.3-1.5
		s0.1-1,0.3-1.4c0.2-0.4,0.4-0.8,0.8-1.2c0.3-0.3,0.7-0.6,1.2-0.8c0.9-0.4,2-0.4,2.9,0c0.4,0.2,0.8,0.5,1.1,0.8c0.7,0.7,1,1.7,1,2.6
		v0.2v0.1h-6.2c0,0.4,0.1,0.7,0.3,1.1c0.1,0.3,0.4,0.6,0.6,0.9c0.2,0.2,0.5,0.4,0.8,0.6c0.3,0.1,0.7,0.2,1,0.2c0.2,0,0.5,0,0.7-0.1
		s0.4-0.2,0.6-0.3s0.4-0.2,0.5-0.4c0.2-0.2,0.3-0.3,0.4-0.5l0.8,0.2c-0.1,0.3-0.3,0.5-0.5,0.7s-0.4,0.4-0.7,0.6
		c-0.3,0.2-0.6,0.3-0.9,0.4C446.8,218.3,446.5,218.4,446.1,218.4z M448.8,214.2c0-0.4-0.1-0.7-0.3-1.1c-0.1-0.3-0.3-0.6-0.6-0.8
		c-0.5-0.5-1.1-0.7-1.8-0.7c-0.3,0-0.7,0.1-1,0.2c-0.3,0.1-0.6,0.3-0.8,0.6c-0.2,0.2-0.4,0.5-0.6,0.8c-0.1,0.3-0.2,0.7-0.3,1.1
		L448.8,214.2z"/>
	<path class="st7" d="M451.5,218.2v-6.5h-1v-0.8h1v-0.2c0-0.7,0.2-1.5,0.6-2.1c0.4-0.5,1-0.8,1.6-0.8c0.3,0,0.6,0,0.8,0.1
		c0.3,0.1,0.5,0.2,0.7,0.3l-0.3,0.7c-0.1-0.1-0.3-0.2-0.5-0.2c-0.2-0.1-0.4-0.1-0.6-0.1c-0.4,0-0.8,0.2-1,0.5
		c-0.3,0.5-0.4,1-0.4,1.5v0.2h2v0.8h-2v6.5L451.5,218.2z"/>
	<path class="st7" d="M458.5,218.4c-0.5,0-1-0.1-1.5-0.3c-0.4-0.2-0.8-0.5-1.1-0.8c-0.3-0.3-0.6-0.8-0.8-1.2
		c-0.2-0.5-0.3-0.9-0.3-1.4s0.1-1,0.3-1.5c0.2-0.4,0.4-0.9,0.8-1.2c0.3-0.3,0.7-0.6,1.1-0.8c0.5-0.2,0.9-0.3,1.4-0.3s1,0.1,1.5,0.3
		c0.4,0.2,0.8,0.5,1.1,0.8c0.3,0.3,0.6,0.8,0.8,1.2c0.2,0.5,0.3,1,0.3,1.5s-0.1,1-0.3,1.4c-0.2,0.4-0.4,0.9-0.8,1.2
		c-0.3,0.3-0.7,0.6-1.1,0.8C459.5,218.3,459,218.4,458.5,218.4z M455.9,214.6c0,0.4,0.1,0.8,0.2,1.1s0.3,0.6,0.6,0.9
		c0.2,0.3,0.5,0.5,0.8,0.6s0.7,0.2,1,0.2s0.7-0.1,1-0.2c0.3-0.2,0.6-0.4,0.9-0.6c0.2-0.3,0.4-0.6,0.6-0.9c0.3-0.7,0.3-1.6,0-2.3
		c-0.1-0.3-0.3-0.7-0.6-0.9c-0.2-0.3-0.5-0.5-0.9-0.6c-0.3-0.1-0.7-0.2-1-0.2s-0.7,0.1-1,0.2c-0.3,0.2-0.6,0.4-0.8,0.6
		c-0.2,0.3-0.4,0.6-0.6,0.9C455.9,213.8,455.9,214.2,455.9,214.6L455.9,214.6z"/>
	<path class="st7" d="M467.4,211.8c-0.6,0-1.2,0.2-1.7,0.5s-0.8,0.8-1,1.4v4.5h-1v-7.3h0.9v1.8c0.2-0.5,0.6-1,1.1-1.3
		c0.4-0.3,0.9-0.5,1.5-0.5h0.2V211.8z"/>
	<path class="st7" d="M471.4,218.4c-0.5,0-1-0.1-1.5-0.3c-0.4-0.2-0.8-0.5-1.1-0.8c-0.4-0.4-0.6-0.8-0.8-1.2c-0.2-0.5-0.3-1-0.3-1.5
		s0.1-1,0.3-1.4c0.2-0.4,0.4-0.8,0.8-1.2c0.3-0.3,0.7-0.6,1.2-0.8c0.9-0.4,2-0.4,2.9,0c0.4,0.2,0.8,0.5,1.1,0.8c0.7,0.7,1,1.7,1,2.6
		v0.2v0.1h-6.2c0,0.4,0.1,0.8,0.3,1.1c0.1,0.3,0.4,0.6,0.6,0.9c0.2,0.2,0.5,0.4,0.8,0.6c0.3,0.1,0.7,0.2,1,0.2c0.2,0,0.5,0,0.7-0.1
		s0.4-0.2,0.6-0.3s0.4-0.2,0.5-0.4c0.2-0.2,0.3-0.3,0.4-0.5l0.8,0.2c-0.1,0.3-0.3,0.5-0.5,0.7s-0.4,0.4-0.7,0.6
		c-0.3,0.2-0.6,0.3-0.9,0.4C472.1,218.3,471.8,218.4,471.4,218.4z M474.1,214.2c0-0.4-0.1-0.7-0.3-1.1c-0.1-0.3-0.3-0.6-0.6-0.8
		c-0.2-0.2-0.5-0.4-0.8-0.6c-0.3-0.1-0.7-0.2-1-0.2s-0.7,0.1-1,0.2c-0.3,0.1-0.6,0.3-0.8,0.6c-0.2,0.2-0.4,0.5-0.6,0.8
		c-0.1,0.3-0.2,0.7-0.3,1.1H474.1z"/>
	<path class="st7" d="M167,242.4c-0.3,0-0.7,0-1-0.2c-0.3-0.1-0.5-0.3-0.8-0.5c-0.2-0.2-0.4-0.4-0.5-0.7s-0.2-0.6-0.2-0.9
		c0-0.3,0.1-0.6,0.2-0.9c0.2-0.3,0.4-0.5,0.6-0.7c0.3-0.2,0.6-0.4,1-0.5s0.8-0.2,1.2-0.2s0.8,0,1.1,0.1s0.7,0.2,1,0.3v-0.7
		c0-0.6-0.2-1.1-0.6-1.5c-0.4-0.4-0.9-0.6-1.5-0.6c-0.4,0-0.8,0.1-1.1,0.2c-0.4,0.2-0.8,0.4-1.2,0.6l-0.3-0.6c0.8-0.6,1.7-1,2.7-1
		c0.8,0,1.6,0.2,2.2,0.8c0.5,0.6,0.8,1.3,0.8,2.1v3.4c0,0.3,0.1,0.4,0.4,0.4v0.8h-0.4c-0.2,0-0.4-0.1-0.6-0.2
		c-0.1-0.1-0.2-0.3-0.2-0.5V241c-0.3,0.4-0.8,0.8-1.3,1C168.1,242.2,167.6,242.3,167,242.4z M167.2,241.6c0.5,0,0.9-0.1,1.4-0.3
		c0.4-0.2,0.7-0.4,0.9-0.7c0.1-0.1,0.1-0.2,0.2-0.3c0-0.1,0.1-0.2,0.1-0.3v-1.2c-0.3-0.1-0.7-0.2-1-0.3s-0.7-0.1-1-0.1
		c-0.6,0-1.1,0.1-1.6,0.4c-0.4,0.2-0.6,0.7-0.6,1.1c0,0.2,0,0.4,0.1,0.6c0.1,0.2,0.2,0.4,0.4,0.5s0.3,0.3,0.6,0.3
		C166.8,241.6,167,241.6,167.2,241.6L167.2,241.6z"/>
	<path class="st7" d="M178.9,242.2h-1v-4.1c0.1-0.7-0.1-1.3-0.4-1.9c-0.3-0.4-0.7-0.6-1.2-0.6c-0.3,0-0.6,0.1-0.8,0.1
		c-0.3,0.1-0.5,0.2-0.8,0.4c-0.2,0.2-0.5,0.4-0.6,0.7c-0.2,0.3-0.3,0.5-0.4,0.8v4.5h-1v-7.3h0.9v1.6c0.3-0.5,0.7-1,1.3-1.3
		c0.5-0.3,1.2-0.5,1.8-0.5c0.3,0,0.7,0.1,1,0.2c0.3,0.1,0.5,0.4,0.7,0.6c0.2,0.3,0.3,0.6,0.4,1c0.1,0.4,0.1,0.9,0.1,1.3V242.2z"/>
	<path class="st7" d="M186.3,242.4c-0.3,0-0.7,0-1-0.2c-0.3-0.1-0.5-0.3-0.8-0.5c-0.4-0.4-0.7-1-0.7-1.6c0-0.3,0.1-0.6,0.2-0.9
		c0.2-0.3,0.4-0.5,0.6-0.7c0.3-0.2,0.6-0.4,1-0.5s0.8-0.2,1.2-0.2s0.8,0,1.1,0.1s0.7,0.2,1,0.3v-0.7c0-0.6-0.2-1.1-0.5-1.5
		c-0.4-0.4-0.9-0.6-1.5-0.6c-0.4,0-0.8,0.1-1.1,0.2c-0.4,0.2-0.8,0.4-1.2,0.6l-0.3-0.6c0.8-0.6,1.7-1,2.7-1c0.8,0,1.6,0.2,2.2,0.8
		c0.5,0.6,0.8,1.3,0.8,2.1v3.4c0,0.3,0.1,0.4,0.4,0.4v0.8H190c-0.2,0-0.4-0.1-0.6-0.2c-0.1-0.1-0.2-0.3-0.2-0.5V241
		c-0.3,0.4-0.8,0.8-1.3,1C187.5,242.2,186.9,242.4,186.3,242.4z M186.6,241.6c0.5,0,0.9-0.1,1.4-0.3c0.4-0.2,0.7-0.4,0.9-0.7
		c0.1-0.1,0.1-0.2,0.2-0.3c0-0.1,0.1-0.2,0.1-0.3v-1.2c-0.3-0.1-0.7-0.2-1-0.3s-0.7-0.1-1-0.1c-0.6,0-1.1,0.1-1.6,0.4
		c-0.4,0.2-0.6,0.7-0.6,1.1c0,0.2,0,0.4,0.1,0.6c0.1,0.2,0.2,0.4,0.4,0.5s0.3,0.3,0.6,0.3C186.1,241.6,186.3,241.6,186.6,241.6z"/>
	<path class="st7" d="M194.4,242.4c-0.7,0-1.3-0.2-1.8-0.8c-0.4-0.7-0.6-1.5-0.6-2.4v-4.3h1v4.1c0,1.7,0.6,2.5,1.7,2.5
		c0.3,0,0.6,0,0.8-0.1c0.3-0.1,0.5-0.2,0.8-0.4c0.2-0.2,0.4-0.4,0.6-0.6c0.2-0.3,0.3-0.5,0.4-0.8V235h1v6.1c0,0.3,0.1,0.4,0.3,0.4
		v0.8h-0.3h-0.1c-0.2,0-0.4-0.1-0.5-0.2c-0.1-0.2-0.2-0.4-0.2-0.6v-0.8c-0.3,0.6-0.7,1-1.3,1.3C195.7,242.2,195.1,242.4,194.4,242.4
		z"/>
	<path class="st7" d="M203.9,241.9l-0.2,0.1l-0.4,0.1l-0.5,0.1c-0.2,0-0.4,0.1-0.6,0.1c-0.2,0-0.4,0-0.6-0.1
		c-0.2-0.1-0.3-0.1-0.5-0.3c-0.1-0.1-0.3-0.3-0.3-0.4c-0.1-0.2-0.1-0.4-0.1-0.6v-5.2h-1v-0.8h1v-2.5h1v2.5h1.7v0.8h-1.7v5
		c0,0.2,0.1,0.4,0.3,0.6c0.2,0.1,0.4,0.2,0.6,0.2c0.2,0,0.5,0,0.7-0.1c0.1-0.1,0.3-0.1,0.4-0.2L203.9,241.9z"/>
	<path class="st7" d="M208.1,242.4c-0.5,0-1-0.1-1.5-0.3c-0.4-0.2-0.8-0.5-1.1-0.8s-0.6-0.8-0.8-1.2c-0.2-0.5-0.3-0.9-0.3-1.4
		s0.1-1,0.3-1.5c0.2-0.4,0.4-0.9,0.8-1.2c0.3-0.3,0.7-0.6,1.1-0.8c0.5-0.2,0.9-0.3,1.4-0.3s1,0.1,1.4,0.3s0.8,0.5,1.1,0.8
		s0.6,0.8,0.8,1.2c0.2,0.5,0.3,1,0.3,1.5s-0.1,1-0.3,1.4s-0.4,0.9-0.8,1.2c-0.3,0.3-0.7,0.6-1.1,0.8
		C209.1,242.3,208.6,242.4,208.1,242.4z M205.4,238.6c0,0.4,0.1,0.8,0.2,1.1c0.1,0.3,0.3,0.6,0.6,0.9c0.2,0.3,0.5,0.5,0.8,0.6
		s0.7,0.2,1,0.2s0.7-0.1,1-0.2c0.3-0.2,0.6-0.4,0.9-0.6c0.2-0.3,0.4-0.6,0.6-0.9c0.3-0.7,0.3-1.6,0-2.3c-0.1-0.3-0.3-0.7-0.6-0.9
		c-0.2-0.3-0.5-0.5-0.9-0.6c-0.3-0.1-0.7-0.2-1-0.2s-0.7,0.1-1,0.2c-0.3,0.2-0.6,0.4-0.8,0.6c-0.2,0.3-0.4,0.6-0.6,0.9
		C205.5,237.8,205.4,238.2,205.4,238.6L205.4,238.6z"/>
	<path class="st7" d="M224.1,242.2h-1v-4.1c0-0.7-0.1-1.3-0.4-1.9c-0.3-0.4-0.7-0.6-1.2-0.6c-0.3,0-0.5,0-0.8,0.1s-0.5,0.2-0.7,0.4
		s-0.4,0.4-0.6,0.7c-0.2,0.3-0.3,0.6-0.4,0.9v4.4h-1V238c0-0.7-0.1-1.3-0.4-1.9c-0.3-0.4-0.7-0.6-1.2-0.6s-1.1,0.2-1.5,0.6
		c-0.4,0.4-0.8,0.9-0.9,1.5v4.5h-1v-7.3h0.9v1.6c0.3-0.5,0.7-1,1.2-1.3s1-0.5,1.6-0.5c0.5,0,1.1,0.2,1.5,0.5
		c0.4,0.4,0.6,0.8,0.7,1.4c0.5-1.1,1.6-1.9,2.8-1.9c0.3,0,0.7,0.1,1,0.2c0.3,0.1,0.5,0.4,0.7,0.6c0.2,0.3,0.3,0.6,0.4,1
		c0.1,0.4,0.1,0.9,0.1,1.3L224.1,242.2z"/>
	<path class="st7" d="M228,242.4c-0.3,0-0.7,0-1-0.2c-0.3-0.1-0.5-0.3-0.8-0.5c-0.2-0.2-0.4-0.4-0.5-0.7s-0.2-0.6-0.2-0.9
		c0-0.3,0.1-0.6,0.2-0.9c0.2-0.3,0.4-0.5,0.6-0.7c0.3-0.2,0.6-0.4,1-0.5s0.8-0.2,1.2-0.2s0.8,0,1.1,0.1s0.7,0.2,1,0.3v-0.7
		c0-0.6-0.2-1.1-0.6-1.5c-0.4-0.4-0.9-0.6-1.5-0.6c-0.4,0-0.8,0.1-1.1,0.2c-0.4,0.2-0.8,0.4-1.2,0.6l-0.3-0.6c0.8-0.6,1.7-1,2.7-1
		c0.8,0,1.6,0.2,2.2,0.8c0.5,0.6,0.8,1.3,0.8,2.1v3.4c0,0.3,0.1,0.4,0.4,0.4v0.8h-0.4c-0.2,0-0.4-0.1-0.6-0.2
		c-0.1-0.1-0.2-0.3-0.2-0.5V241c-0.3,0.4-0.8,0.8-1.3,1C229.1,242.2,228.6,242.4,228,242.4z M228.2,241.6c0.5,0,0.9-0.1,1.4-0.3
		c0.4-0.2,0.7-0.4,0.9-0.7c0.1-0.1,0.1-0.2,0.2-0.3c0-0.1,0.1-0.2,0.1-0.3v-1.2c-0.3-0.1-0.7-0.2-1-0.3s-0.7-0.1-1-0.1
		c-0.6,0-1.1,0.1-1.6,0.4c-0.4,0.2-0.6,0.7-0.6,1.1c0,0.2,0,0.4,0.1,0.6c0.1,0.2,0.2,0.4,0.4,0.5s0.3,0.3,0.6,0.3
		C227.8,241.6,228,241.6,228.2,241.6L228.2,241.6z"/>
	<path class="st7" d="M237.2,241.9L237,242l-0.4,0.1l-0.5,0.1c-0.2,0-0.4,0.1-0.6,0.1c-0.2,0-0.4,0-0.6-0.1
		c-0.2-0.1-0.3-0.1-0.5-0.3c-0.1-0.1-0.3-0.3-0.3-0.4c-0.1-0.2-0.1-0.4-0.1-0.6v-5.2h-1v-0.8h1v-2.5h1v2.5h1.7v0.8H235v5
		c0,0.2,0.1,0.4,0.3,0.6c0.2,0.1,0.4,0.2,0.6,0.2c0.2,0,0.5,0,0.7-0.1c0.1-0.1,0.3-0.1,0.4-0.2L237.2,241.9z"/>
	<path class="st7" d="M238.4,233.4V232h1v1.4H238.4z M238.4,242.2v-7.3h1v7.3H238.4z"/>
	<path class="st7" d="M241,238.5c0-0.5,0.1-1,0.3-1.5c0.2-0.4,0.4-0.9,0.8-1.2c0.3-0.3,0.7-0.6,1.2-0.8s1-0.3,1.5-0.3
		c0.6,0,1.3,0.1,1.8,0.5c0.5,0.3,0.9,0.7,1.2,1.3l-0.9,0.3c-0.2-0.4-0.5-0.7-0.9-0.9s-0.8-0.3-1.2-0.3c-0.3,0-0.7,0.1-1,0.2
		c-0.3,0.1-0.6,0.4-0.8,0.6c-0.2,0.3-0.4,0.6-0.6,0.9c-0.1,0.4-0.2,0.8-0.2,1.2s0.1,0.8,0.2,1.2c0.1,0.3,0.3,0.7,0.6,0.9
		c0.2,0.3,0.5,0.5,0.9,0.6c0.3,0.1,0.7,0.2,1,0.2c0.2,0,0.5,0,0.7-0.1s0.4-0.2,0.6-0.3c0.2-0.1,0.4-0.2,0.5-0.4
		c0.1-0.1,0.2-0.3,0.3-0.5l0.9,0.3c-0.1,0.3-0.3,0.5-0.4,0.7c-0.2,0.2-0.4,0.4-0.7,0.6c-0.3,0.2-0.6,0.3-0.9,0.4
		c-0.3,0.1-0.7,0.1-1,0.1c-1,0-2-0.4-2.6-1.1c-0.3-0.4-0.6-0.8-0.8-1.2C241.1,239.5,241,239.1,241,238.5z"/>
	<path class="st7" d="M256.2,241.9L256,242l-0.4,0.1l-0.5,0.1c-0.2,0-0.4,0.1-0.6,0.1c-0.2,0-0.4,0-0.6-0.1
		c-0.2-0.1-0.3-0.1-0.5-0.3c-0.1-0.1-0.3-0.3-0.3-0.4c-0.1-0.2-0.1-0.4-0.1-0.6v-5.2h-1v-0.8h1v-2.5h1v2.5h1.7v0.8H254v5
		c0,0.2,0.1,0.4,0.3,0.6c0.2,0.1,0.4,0.2,0.6,0.2c0.2,0,0.5,0,0.7-0.1c0.1-0.1,0.3-0.1,0.4-0.2L256.2,241.9z"/>
	<path class="st7" d="M260.3,242.4c-0.5,0-1-0.1-1.5-0.3c-0.4-0.2-0.8-0.5-1.1-0.8c-0.3-0.4-0.6-0.8-0.7-1.2
		c-0.2-0.5-0.3-0.9-0.3-1.4s0.1-1,0.3-1.5c0.2-0.4,0.4-0.9,0.8-1.2c0.3-0.3,0.7-0.6,1.1-0.8c0.5-0.2,0.9-0.3,1.4-0.3s1,0.1,1.5,0.3
		c0.4,0.2,0.8,0.5,1.1,0.8c0.3,0.3,0.6,0.8,0.8,1.2c0.2,0.5,0.3,1,0.3,1.5s-0.1,1-0.3,1.4c-0.2,0.4-0.4,0.9-0.8,1.2
		c-0.3,0.3-0.7,0.6-1.1,0.8C261.3,242.2,260.8,242.4,260.3,242.4z M257.7,238.6c0,0.4,0.1,0.8,0.2,1.1s0.3,0.6,0.6,0.9
		c0.2,0.3,0.5,0.5,0.8,0.6s0.7,0.2,1,0.2s0.7-0.1,1-0.2c0.3-0.2,0.6-0.4,0.9-0.6c0.2-0.3,0.4-0.6,0.6-0.9c0.3-0.7,0.3-1.6,0-2.3
		c-0.1-0.3-0.3-0.7-0.6-0.9c-0.2-0.3-0.5-0.5-0.9-0.6c-0.3-0.1-0.7-0.2-1-0.2s-0.7,0.1-1,0.2c-0.3,0.2-0.6,0.4-0.8,0.6
		c-0.2,0.3-0.4,0.6-0.6,0.9C257.8,237.8,257.7,238.2,257.7,238.6L257.7,238.6z"/>
	<path class="st7" d="M269.3,242.4c-0.6,0-1.1-0.2-1.6-0.5s-0.9-0.7-1.1-1.2v4.5h-1v-10.3h0.9v1.4c0.3-0.5,0.7-0.8,1.2-1.1
		s1-0.4,1.5-0.4s1,0.1,1.4,0.3s0.8,0.5,1.1,0.8c0.3,0.4,0.6,0.8,0.7,1.2c0.2,0.5,0.3,0.9,0.3,1.4s-0.1,1-0.2,1.5
		c-0.1,0.4-0.4,0.8-0.7,1.2c-0.3,0.3-0.6,0.6-1,0.8C270.2,242.2,269.7,242.4,269.3,242.4z M269,241.5c0.4,0,0.7-0.1,1.1-0.3
		c0.3-0.2,0.6-0.4,0.8-0.7c0.2-0.3,0.4-0.6,0.5-0.9c0.1-0.3,0.2-0.7,0.2-1.1c0-0.4-0.1-0.8-0.2-1.1s-0.3-0.7-0.6-0.9
		c-0.2-0.3-0.5-0.5-0.9-0.6c-0.3-0.2-0.7-0.2-1.1-0.2c-0.3,0-0.5,0.1-0.8,0.1c-0.3,0.1-0.5,0.2-0.7,0.4s-0.4,0.4-0.6,0.6
		c-0.2,0.2-0.3,0.4-0.3,0.7v2.2c0.1,0.3,0.3,0.5,0.4,0.7c0.2,0.2,0.4,0.4,0.6,0.6c0.2,0.2,0.5,0.3,0.7,0.4
		C268.5,241.5,268.7,241.5,269,241.5L269,241.5z"/>
	<path class="st7" d="M276.5,242.4c-0.7,0-1.3-0.2-1.8-0.8c-0.4-0.7-0.6-1.5-0.6-2.4v-4.3h1v4.1c0,1.7,0.6,2.5,1.7,2.5
		c0.3,0,0.6,0,0.8-0.1c0.3-0.1,0.5-0.2,0.8-0.4c0.2-0.2,0.4-0.4,0.6-0.6c0.2-0.3,0.3-0.5,0.4-0.8V235h1v6.1c0,0.3,0.1,0.4,0.3,0.4
		v0.8h-0.3h-0.1c-0.2,0-0.4-0.1-0.5-0.2c-0.1-0.2-0.2-0.4-0.2-0.6v-0.8c-0.3,0.6-0.7,1-1.3,1.3C277.8,242.2,277.1,242.4,276.5,242.4
		z"/>
	<path class="st7" d="M286.2,242.4c-0.6,0-1.1-0.2-1.6-0.5s-0.9-0.7-1.1-1.2v4.5h-1v-10.3h0.9v1.4c0.3-0.5,0.7-0.8,1.2-1.1
		s1-0.4,1.5-0.4s1,0.1,1.4,0.3s0.8,0.5,1.1,0.8c0.3,0.4,0.6,0.8,0.7,1.2c0.2,0.5,0.3,0.9,0.3,1.4s-0.1,1-0.2,1.5
		c-0.1,0.4-0.4,0.8-0.7,1.2c-0.3,0.3-0.6,0.6-1,0.8C287.1,242.2,286.7,242.4,286.2,242.4z M286,241.5c0.4,0,0.7-0.1,1.1-0.3
		c0.3-0.2,0.6-0.4,0.8-0.7c0.2-0.3,0.4-0.6,0.5-0.9c0.1-0.3,0.2-0.7,0.2-1.1c0-0.4-0.1-0.8-0.2-1.1s-0.3-0.7-0.6-0.9
		c-0.2-0.3-0.5-0.5-0.9-0.6c-0.3-0.2-0.7-0.2-1.1-0.2c-0.3,0-0.5,0.1-0.8,0.1c-0.3,0.1-0.5,0.2-0.7,0.4s-0.4,0.3-0.6,0.6
		c-0.2,0.2-0.3,0.4-0.3,0.7v2.2c0.1,0.3,0.3,0.5,0.4,0.7c0.2,0.2,0.4,0.4,0.6,0.6c0.2,0.2,0.5,0.3,0.7,0.4
		C285.5,241.5,285.7,241.5,286,241.5L286,241.5z"/>
	<path class="st7" d="M297.8,242.4c-0.5,0-1-0.1-1.5-0.3c-0.4-0.2-0.8-0.5-1.1-0.8c-0.3-0.3-0.6-0.8-0.8-1.2
		c-0.2-0.5-0.3-0.9-0.3-1.4s0.1-1,0.3-1.5c0.2-0.4,0.4-0.9,0.8-1.2c0.3-0.3,0.7-0.6,1.1-0.8c0.5-0.2,0.9-0.3,1.4-0.3s1,0.1,1.5,0.3
		c0.4,0.2,0.8,0.5,1.1,0.8c0.3,0.3,0.6,0.8,0.8,1.2c0.2,0.5,0.3,1,0.3,1.5s-0.1,1-0.3,1.4c-0.2,0.4-0.4,0.9-0.8,1.2
		c-0.3,0.3-0.7,0.6-1.1,0.8C298.8,242.3,298.3,242.4,297.8,242.4z M295.2,238.6c0,0.4,0.1,0.8,0.2,1.1s0.3,0.6,0.6,0.9
		c0.2,0.3,0.5,0.5,0.8,0.6s0.7,0.2,1,0.2s0.7-0.1,1-0.2c0.3-0.2,0.6-0.4,0.9-0.6c0.2-0.3,0.4-0.6,0.6-0.9c0.3-0.7,0.3-1.6,0-2.3
		c-0.1-0.3-0.3-0.7-0.6-0.9c-0.2-0.3-0.5-0.5-0.9-0.6c-0.3-0.1-0.7-0.2-1-0.2s-0.7,0.1-1,0.2c-0.3,0.2-0.6,0.4-0.8,0.6
		c-0.2,0.3-0.4,0.6-0.6,0.9C295.3,237.8,295.2,238.2,295.2,238.6L295.2,238.6z"/>
	<path class="st7" d="M302.5,238.5c0-0.5,0.1-1,0.3-1.5c0.2-0.4,0.4-0.9,0.8-1.2c0.3-0.3,0.7-0.6,1.1-0.8c0.5-0.2,1-0.3,1.5-0.3
		c0.6,0,1.3,0.1,1.8,0.5c0.5,0.3,0.9,0.7,1.2,1.3l-0.9,0.3c-0.2-0.4-0.5-0.7-0.9-0.9s-0.8-0.3-1.2-0.3c-0.3,0-0.7,0.1-1,0.2
		c-0.3,0.1-0.6,0.4-0.8,0.6c-0.2,0.3-0.4,0.6-0.6,0.9c-0.3,0.7-0.3,1.6,0,2.3c0.1,0.3,0.3,0.7,0.6,0.9c0.2,0.3,0.5,0.5,0.9,0.6
		c0.3,0.1,0.7,0.2,1,0.2c0.2,0,0.5,0,0.7-0.1s0.4-0.2,0.6-0.3s0.4-0.2,0.5-0.4c0.1-0.1,0.2-0.3,0.3-0.5l0.9,0.3
		c-0.1,0.3-0.3,0.5-0.5,0.7s-0.4,0.4-0.7,0.6c-0.3,0.2-0.6,0.3-0.9,0.4c-0.3,0.1-0.7,0.1-1,0.1c-1,0-2-0.4-2.6-1.1
		c-0.3-0.4-0.6-0.8-0.8-1.2C302.7,239.5,302.6,239.1,302.5,238.5z"/>
	<path class="st7" d="M310.2,238.5c0-0.5,0.1-1,0.3-1.5c0.2-0.4,0.4-0.9,0.8-1.2c0.3-0.3,0.7-0.6,1.2-0.8s1-0.3,1.5-0.3
		c0.6,0,1.3,0.1,1.8,0.5c0.5,0.3,0.9,0.7,1.2,1.3l-0.9,0.3c-0.2-0.4-0.5-0.6-0.9-0.8s-0.8-0.3-1.2-0.3c-0.3,0-0.7,0.1-1,0.2
		c-0.3,0.1-0.6,0.4-0.8,0.6c-0.2,0.3-0.4,0.6-0.6,0.9c-0.1,0.4-0.2,0.8-0.2,1.2s0.1,0.8,0.2,1.2c0.1,0.3,0.3,0.7,0.6,0.9
		c0.2,0.3,0.5,0.5,0.9,0.6c0.3,0.1,0.7,0.2,1,0.2c0.2,0,0.5,0,0.7-0.1s0.4-0.2,0.6-0.3s0.4-0.2,0.5-0.4c0.1-0.1,0.2-0.3,0.3-0.5
		l0.9,0.3c-0.1,0.3-0.3,0.5-0.5,0.7s-0.4,0.4-0.7,0.6c-0.3,0.2-0.6,0.3-0.9,0.4c-0.3,0.1-0.7,0.1-1,0.1c-1,0-2-0.4-2.6-1.1
		c-0.3-0.4-0.6-0.8-0.8-1.2C310.3,239.6,310.2,239.1,310.2,238.5z"/>
	<path class="st7" d="M320.6,242.4c-0.7,0-1.3-0.2-1.8-0.8c-0.4-0.7-0.6-1.5-0.6-2.4v-4.3h1v4.1c0,1.7,0.6,2.5,1.7,2.5
		c0.3,0,0.6,0,0.8-0.1c0.3-0.1,0.5-0.2,0.8-0.4c0.2-0.2,0.4-0.4,0.6-0.6c0.2-0.3,0.3-0.5,0.4-0.8V235h1v6.1c0,0.3,0.1,0.4,0.3,0.4
		v0.8h-0.3h-0.1c-0.2,0-0.4-0.1-0.5-0.2c-0.1-0.2-0.2-0.4-0.2-0.6v-0.8c-0.3,0.6-0.7,1-1.3,1.3C321.9,242.2,321.3,242.4,320.6,242.4
		z"/>
	<path class="st7" d="M330.3,235.8c-0.6,0-1.2,0.2-1.7,0.5s-0.8,0.8-1,1.4v4.5h-1v-7.3h0.9v1.8c0.2-0.5,0.6-1,1.1-1.3
		c0.4-0.3,0.9-0.5,1.5-0.5h0.2V235.8z"/>
	<path class="st7" d="M334,242.4c-0.6,0-1.1-0.1-1.7-0.3c-0.5-0.2-1-0.4-1.4-0.8l0.4-0.6c0.4,0.3,0.8,0.6,1.3,0.8
		c0.4,0.2,0.9,0.3,1.4,0.3s1-0.1,1.4-0.4c0.3-0.2,0.5-0.6,0.5-1c0-0.2,0-0.4-0.1-0.5s-0.2-0.3-0.4-0.4c-0.2-0.1-0.5-0.2-0.7-0.3
		l-1-0.3c-0.4-0.1-0.8-0.2-1.1-0.3c-0.3-0.1-0.5-0.2-0.8-0.4c-0.2-0.1-0.3-0.3-0.5-0.5c-0.1-0.2-0.2-0.5-0.1-0.7
		c0-0.3,0.1-0.7,0.2-1s0.3-0.5,0.6-0.7c0.3-0.2,0.6-0.3,0.9-0.4c0.3-0.1,0.7-0.1,1.1-0.1c0.5,0,1,0.1,1.5,0.3
		c0.4,0.2,0.8,0.4,1.1,0.7l-0.5,0.6c-0.3-0.3-0.6-0.5-1-0.6s-0.8-0.2-1.2-0.2c-0.2,0-0.5,0-0.7,0.1c-0.2,0-0.4,0.1-0.6,0.3
		c-0.2,0.1-0.3,0.3-0.4,0.4c-0.1,0.2-0.1,0.4-0.1,0.6c0,0.2,0,0.3,0.1,0.5c0.1,0.1,0.2,0.2,0.3,0.3c0.2,0.1,0.4,0.2,0.6,0.2
		c0.2,0.1,0.5,0.1,0.8,0.2s0.9,0.2,1.2,0.3c0.3,0.1,0.6,0.2,0.9,0.4c0.2,0.1,0.4,0.3,0.5,0.6c0.1,0.2,0.2,0.5,0.2,0.8
		c0,0.6-0.3,1.2-0.8,1.6C335.4,242.2,334.7,242.4,334,242.4z"/>
	<path class="st7" d="M338.3,242.2v-1.4h0.8v1.4H338.3z"/>
	<path class="st8" d="M171.3,38.7c-1.2,0-2.4-0.2-3.5-0.6c-1-0.4-2-1-2.8-1.7l1.8-2.3c0.2,0.3,0.4,0.5,0.7,0.7
		c0.3,0.3,0.7,0.5,1.1,0.7c0.5,0.2,1,0.4,1.5,0.5c0.6,0.2,1.2,0.2,1.8,0.2c0.9,0.1,1.9-0.2,2.6-0.7c0.6-0.4,0.9-1.2,0.9-1.9
		c0-0.3-0.1-0.6-0.3-0.9c-0.2-0.3-0.5-0.5-0.8-0.7c-0.4-0.2-0.8-0.4-1.2-0.5l-1.6-0.5c-1.1-0.3-2-0.7-2.9-1.4c-0.7-0.6-1-1.4-1-2.3
		s0.2-1.8,0.6-2.6c0.4-0.7,0.9-1.4,1.6-1.9c0.7-0.5,1.4-0.9,2.3-1.2c0.9-0.3,1.8-0.4,2.7-0.4c1,0,2,0.2,3,0.5
		c0.8,0.3,1.5,0.8,2.2,1.4l-1.7,2.2c-0.1-0.2-0.3-0.4-0.5-0.6c-0.3-0.2-0.6-0.4-0.9-0.6c-0.4-0.2-0.8-0.3-1.2-0.4
		c-0.5-0.1-0.9-0.2-1.4-0.2c-1-0.1-1.9,0.2-2.7,0.8c-0.6,0.5-0.9,1.2-0.9,2c0,0.3,0.1,0.6,0.2,0.8c0.2,0.2,0.4,0.4,0.6,0.6
		c0.3,0.2,0.7,0.3,1.1,0.5c0.4,0.1,0.9,0.3,1.5,0.4c0.6,0.2,1.2,0.4,1.8,0.6c0.5,0.2,1,0.5,1.4,0.8s0.7,0.7,0.9,1.1
		c0.2,0.5,0.3,1,0.3,1.5c0,0.9-0.2,1.8-0.6,2.6c-0.4,0.7-0.9,1.3-1.6,1.8c-0.7,0.5-1.5,0.9-2.3,1C173.1,38.6,172.2,38.7,171.3,38.7z
		"/>
	<path class="st8" d="M183.6,21.5h10.9l-0.5,2.4h-8.2l-1,4.9h7.1l-0.5,2.3h-7.1l-1.1,5.2h8.4l-0.5,2.4H180L183.6,21.5z"/>
	<path class="st8" d="M200.8,23.9h-5.3l0.5-2.4h13.4l-0.5,2.4h-5.3l-3.1,14.7h-2.7L200.8,23.9z"/>
	<path class="st8" d="M219.6,23.9h-5.3l0.5-2.4h13.4l-0.5,2.4h-5.3l-3.1,14.7h-2.7L219.6,23.9z"/>
	<path class="st8" d="M230.5,21.5h2.7l-1.5,7.1h8l1.5-7.1h2.7l-3.6,17h-2.7l1.6-7.5h-8l-1.6,7.5h-2.7L230.5,21.5z"/>
	<path class="st8" d="M244,38.5l3.6-17h7.1c0.6,0,1.2,0.1,1.7,0.4c0.5,0.2,0.9,0.6,1.3,1c0.3,0.4,0.6,0.9,0.8,1.5
		c0.4,1.2,0.4,2.4-0.1,3.6c-0.2,0.6-0.5,1.2-0.9,1.7s-0.8,1-1.4,1.4c-0.5,0.4-1.1,0.7-1.7,0.9l2.4,6.5h-3l-2.2-5.9H248l-1.3,5.9H244
		z M252.8,30.2c0.4,0,0.8-0.1,1.2-0.3c0.4-0.2,0.7-0.5,1-0.9s0.5-0.8,0.7-1.2c0.2-0.5,0.3-0.9,0.3-1.4c0-0.6-0.2-1.3-0.5-1.8
		s-0.8-0.7-1.3-0.7H250l-1.4,6.4L252.8,30.2z"/>
	<path class="st8" d="M262.9,21.5h10.9l-0.5,2.4h-8.2l-1,4.9h7.1l-0.5,2.3h-7.1l-1.1,5.2h8.4l-0.5,2.4h-11.1L262.9,21.5z"/>
	<path class="st8" d="M278.4,38.7c-1.2,0-2.4-0.2-3.5-0.6c-1-0.4-2-1-2.8-1.7l1.8-2.3c0.2,0.3,0.4,0.5,0.7,0.7
		c0.3,0.3,0.7,0.5,1.1,0.7c0.5,0.2,1,0.4,1.5,0.5c0.6,0.2,1.2,0.2,1.8,0.2c0.9,0.1,1.9-0.2,2.6-0.7c0.6-0.4,0.9-1.2,0.9-1.9
		c0-0.3-0.1-0.6-0.3-0.9c-0.2-0.3-0.5-0.5-0.8-0.7c-0.4-0.2-0.8-0.4-1.2-0.5l-1.6-0.5c-1.1-0.3-2-0.7-2.9-1.4c-0.7-0.6-1-1.4-1-2.3
		s0.2-1.8,0.6-2.6c0.4-0.7,0.9-1.4,1.6-1.9s1.4-0.9,2.3-1.2c0.9-0.3,1.8-0.4,2.7-0.4c1,0,2,0.2,3,0.5c0.8,0.3,1.5,0.8,2.2,1.4
		l-1.7,2.2c-0.1-0.2-0.3-0.4-0.5-0.6c-0.3-0.2-0.6-0.4-0.9-0.6c-0.4-0.2-0.8-0.3-1.2-0.4c-0.5-0.1-0.9-0.2-1.4-0.2
		c-1-0.1-1.9,0.2-2.7,0.8c-0.6,0.5-0.9,1.2-0.9,2c0,0.3,0.1,0.6,0.2,0.8c0.2,0.2,0.4,0.4,0.6,0.6c0.3,0.2,0.7,0.3,1.1,0.5
		c0.4,0.1,0.9,0.3,1.5,0.4c0.6,0.2,1.2,0.4,1.8,0.6c0.5,0.2,1,0.5,1.4,0.8s0.7,0.7,0.9,1.1c0.2,0.5,0.3,1,0.3,1.5
		c0,0.9-0.2,1.8-0.6,2.6c-0.4,0.7-0.9,1.3-1.6,1.8s-1.5,0.9-2.4,1C280.1,38.6,279.2,38.7,278.4,38.7z"/>
	<path class="st8" d="M290.7,21.5h2.7l-1.5,7.1h8l1.5-7.1h2.6l-3.6,17h-2.7l1.6-7.5h-8l-1.6,7.5H287L290.7,21.5z"/>
	<path class="st8" d="M311,38.7c-0.9,0-1.8-0.2-2.6-0.6c-0.7-0.4-1.4-0.9-1.9-1.6c-0.5-0.7-0.9-1.4-1.2-2.2
		c-0.3-0.9-0.4-1.8-0.4-2.7c0-1.3,0.3-2.6,0.8-3.8c0.5-1.2,1.3-2.3,2.2-3.3c0.9-0.9,2-1.7,3.1-2.3c1.2-0.6,2.4-0.9,3.7-0.9
		c0.9,0,1.8,0.2,2.6,0.6c0.7,0.4,1.4,0.9,1.9,1.6s0.9,1.4,1.2,2.3c0.3,0.9,0.4,1.8,0.4,2.6c0,1.3-0.3,2.6-0.8,3.8
		c-0.5,1.2-1.3,2.3-2.2,3.3c-0.9,0.9-2,1.7-3.1,2.3C313.5,38.4,312.3,38.7,311,38.7z M311.5,36.2c0.9,0,1.8-0.2,2.6-0.7
		c0.8-0.5,1.5-1.1,2.1-1.8s1-1.6,1.4-2.4c0.3-0.9,0.5-1.8,0.5-2.7c0-0.6-0.1-1.2-0.3-1.9c-0.2-0.6-0.4-1.1-0.7-1.5
		c-0.3-0.4-0.7-0.8-1.2-1.1c-0.5-0.3-1.1-0.4-1.7-0.4c-0.9,0-1.8,0.2-2.6,0.7c-0.8,0.5-1.5,1.1-2.1,1.8c-0.6,0.7-1.1,1.6-1.4,2.4
		c-0.3,0.9-0.5,1.8-0.5,2.7c0,0.6,0.1,1.3,0.3,1.9c0.2,0.6,0.4,1.1,0.7,1.5c0.3,0.4,0.7,0.8,1.2,1.1S310.9,36.2,311.5,36.2
		L311.5,36.2z"/>
	<path class="st8" d="M325.2,21.5h2.7l-3.1,14.7h8.6l-0.5,2.4h-11.3L325.2,21.5z"/>
	<path class="st8" d="M338.7,21.5h5.8c1,0,1.9,0.1,2.8,0.5c0.8,0.3,1.4,0.8,2,1.4c0.5,0.6,0.9,1.3,1.2,2.1c0.3,0.8,0.4,1.7,0.4,2.6
		c0,1.4-0.2,2.8-0.8,4.2c-0.5,1.2-1.2,2.4-2.1,3.3c-0.9,0.9-2,1.7-3.2,2.2c-1.3,0.5-2.6,0.8-4,0.8H335L338.7,21.5z M341.3,36.2
		c1,0,1.9-0.2,2.8-0.6c0.8-0.4,1.5-1,2.1-1.7s1-1.6,1.3-2.5c0.3-0.9,0.5-1.9,0.5-2.9c0-0.6-0.1-1.3-0.3-1.9c-0.2-0.5-0.4-1-0.8-1.5
		c-0.3-0.4-0.8-0.8-1.3-1c-0.6-0.2-1.2-0.4-1.8-0.4h-3.1L338.1,36L341.3,36.2z"/>
	<path class="st7" d="M172,77.3v0.9h-6.7v-9.9h6.6v0.9h-5.6v3.6h4.9v0.8h-4.9v3.8L172,77.3z"/>
	<path class="st7" d="M179.7,78.2h-1v-4.1c0-0.7-0.1-1.3-0.4-1.9c-0.3-0.4-0.7-0.6-1.2-0.6c-0.3,0-0.6,0.1-0.8,0.2
		c-0.3,0.1-0.5,0.2-0.8,0.4c-0.2,0.2-0.5,0.4-0.6,0.7c-0.2,0.3-0.3,0.5-0.4,0.8v4.5h-1v-7.3h0.9v1.7c0.3-0.5,0.7-1,1.3-1.3
		c0.5-0.3,1.2-0.5,1.8-0.5c0.3,0,0.7,0.1,1,0.2s0.5,0.4,0.7,0.6c0.2,0.3,0.3,0.6,0.4,1c0.1,0.4,0.1,0.9,0.1,1.3V78.2z"/>
	<path class="st7" d="M185.2,77.9L185,78l-0.4,0.1l-0.5,0.1c-0.2,0-0.4,0.1-0.6,0.1c-0.2,0-0.4,0-0.6-0.1c-0.2-0.1-0.3-0.1-0.5-0.3
		c-0.1-0.1-0.3-0.3-0.3-0.4c-0.1-0.2-0.1-0.4-0.1-0.6v-5.2h-1v-0.8h1v-2.5h1v2.5h1.7v0.8H183v5c0,0.2,0.1,0.4,0.3,0.6
		c0.2,0.1,0.4,0.2,0.6,0.2c0.2,0,0.5,0,0.7-0.1c0.1-0.1,0.3-0.1,0.4-0.2L185.2,77.9z"/>
	<path class="st7" d="M189.3,78.4c-0.5,0-1-0.1-1.5-0.3c-0.4-0.2-0.8-0.5-1.1-0.8c-0.3-0.4-0.6-0.8-0.7-1.2c-0.2-0.5-0.3-1-0.3-1.5
		s0.1-1,0.3-1.4s0.4-0.8,0.8-1.2c0.3-0.3,0.7-0.6,1.2-0.8c0.9-0.4,2-0.4,2.9,0c0.4,0.2,0.8,0.5,1.1,0.8c0.7,0.7,1,1.7,1,2.6v0.2
		c0,0,0,0.1,0,0.2h-6.2c0,0.4,0.1,0.7,0.3,1.1c0.1,0.3,0.4,0.6,0.6,0.9c0.2,0.2,0.5,0.4,0.8,0.6c0.3,0.1,0.7,0.2,1,0.2
		c0.2,0,0.5,0,0.7-0.1s0.4-0.2,0.6-0.3c0.2-0.1,0.4-0.2,0.5-0.4c0.2-0.2,0.3-0.3,0.4-0.5l0.8,0.2c-0.1,0.3-0.3,0.5-0.5,0.7
		s-0.4,0.4-0.7,0.6s-0.6,0.3-0.9,0.4C190.1,78.3,189.7,78.4,189.3,78.4z M192,74.2c0-0.4-0.1-0.7-0.3-1.1c-0.1-0.3-0.3-0.6-0.6-0.8
		c-0.5-0.5-1.1-0.7-1.8-0.7c-0.3,0-0.7,0.1-1,0.2s-0.6,0.3-0.8,0.6c-0.2,0.2-0.4,0.5-0.6,0.8c-0.1,0.3-0.2,0.7-0.3,1.1L192,74.2z"/>
	<path class="st7" d="M198,71.8c-0.6,0-1.2,0.2-1.7,0.5s-0.8,0.8-1,1.4v4.5h-1v-7.3h0.9v1.8c0.2-0.5,0.6-1,1.1-1.3
		c0.4-0.3,0.9-0.5,1.5-0.5h0.2V71.8z"/>
	<path class="st7" d="M202.6,80.5h0.2h0.2c0.1,0,0.3,0,0.4-0.1c0.1-0.1,0.2-0.2,0.3-0.3c0.1-0.2,0.2-0.5,0.3-0.7
		c0.1-0.3,0.3-0.7,0.5-1.2l-3.2-7.3h1l2.7,6.4l2.5-6.4h0.9l-3.8,9.4c-0.1,0.3-0.3,0.5-0.5,0.7c-0.3,0.2-0.6,0.3-1,0.3h-0.3h-0.3
		v-0.8H202.6z"/>
	<path class="st7" d="M212.6,78.4c-0.5,0-1-0.1-1.5-0.3c-0.4-0.2-0.8-0.5-1.1-0.8s-0.6-0.8-0.8-1.2c-0.2-0.5-0.3-0.9-0.3-1.4
		s0.1-1,0.3-1.5c0.2-0.4,0.4-0.9,0.8-1.2c0.3-0.3,0.7-0.6,1.1-0.8c0.5-0.2,0.9-0.3,1.4-0.3s1,0.1,1.4,0.3c0.4,0.2,0.8,0.5,1.1,0.8
		s0.6,0.8,0.8,1.2c0.2,0.5,0.3,1,0.3,1.5s-0.1,1-0.2,1.4c-0.2,0.4-0.4,0.9-0.8,1.2c-0.3,0.3-0.7,0.6-1.1,0.8
		C213.6,78.2,213.1,78.4,212.6,78.4z M210,74.6c0,0.4,0.1,0.8,0.2,1.1c0.1,0.3,0.3,0.6,0.6,0.9c0.2,0.3,0.5,0.5,0.8,0.6
		s0.7,0.2,1,0.2s0.7-0.1,1-0.2c0.3-0.2,0.6-0.4,0.9-0.6c0.2-0.3,0.4-0.6,0.6-0.9c0.3-0.7,0.3-1.6,0-2.3c-0.1-0.3-0.3-0.7-0.6-0.9
		c-0.2-0.3-0.5-0.5-0.9-0.6c-0.3-0.1-0.7-0.2-1-0.2s-0.7,0.1-1,0.2c-0.3,0.2-0.6,0.4-0.8,0.6c-0.2,0.3-0.4,0.6-0.6,0.9
		C210.1,73.8,210,74.2,210,74.6z"/>
	<path class="st7" d="M220.1,78.4c-0.7,0-1.3-0.2-1.8-0.8c-0.4-0.7-0.6-1.5-0.6-2.4v-4.3h1V75c0,1.7,0.6,2.5,1.7,2.5
		c0.3,0,0.6,0,0.8-0.1c0.3-0.1,0.5-0.2,0.7-0.3c0.2-0.2,0.4-0.4,0.6-0.6c0.2-0.3,0.3-0.5,0.4-0.8v-4.6h1V77c0,0.3,0.1,0.4,0.3,0.4
		v0.8h-0.3h0.1c-0.2,0-0.4-0.1-0.6-0.2c-0.1-0.2-0.2-0.4-0.2-0.6v-0.8c-0.3,0.6-0.7,1-1.3,1.3C221.4,78.2,220.8,78.4,220.1,78.4z"/>
	<path class="st7" d="M229.8,71.8c-0.6,0-1.2,0.2-1.7,0.5s-0.8,0.8-1,1.4v4.5h-1v-7.3h0.9v1.8c0.2-0.5,0.6-1,1.1-1.3
		c0.4-0.3,0.9-0.5,1.5-0.5h0.2V71.8z"/>
	<path class="st7" d="M238,78.4c-0.6,0-1.1-0.2-1.6-0.5s-0.9-0.7-1.1-1.2v4.5h-1V70.9h0.9v1.4c0.3-0.5,0.7-0.8,1.2-1.1
		c0.5-0.3,1-0.4,1.6-0.4c0.5,0,1,0.1,1.4,0.3c0.4,0.2,0.8,0.5,1.1,0.8c0.3,0.4,0.6,0.8,0.7,1.2c0.2,0.5,0.3,0.9,0.3,1.4
		s-0.1,1-0.2,1.5c-0.1,0.4-0.4,0.8-0.7,1.2c-0.3,0.3-0.6,0.6-1,0.8C238.9,78.3,238.5,78.4,238,78.4z M237.7,77.5
		c0.4,0,0.7-0.1,1.1-0.3c0.3-0.2,0.6-0.4,0.8-0.7c0.2-0.3,0.4-0.6,0.5-0.9s0.2-0.7,0.2-1.1s-0.1-0.8-0.2-1.1
		c-0.1-0.3-0.3-0.7-0.6-0.9c-0.2-0.3-0.5-0.5-0.9-0.6c-0.3-0.2-0.7-0.2-1.1-0.2c-0.3,0-0.5,0.1-0.8,0.2s-0.5,0.2-0.7,0.4
		c-0.2,0.2-0.4,0.4-0.6,0.6c-0.2,0.2-0.3,0.4-0.3,0.7v2.2c0.1,0.3,0.3,0.5,0.4,0.7c0.2,0.2,0.4,0.4,0.6,0.6c0.2,0.2,0.5,0.3,0.7,0.4
		C237.2,77.5,237.5,77.5,237.7,77.5L237.7,77.5z"/>
	<path class="st7" d="M249.1,78.2h-1v-4.1c0-0.6-0.1-1.3-0.4-1.9c-0.3-0.4-0.8-0.6-1.3-0.6c-0.3,0-0.5,0.1-0.8,0.2s-0.5,0.3-0.8,0.4
		c-0.2,0.2-0.4,0.4-0.6,0.7c-0.2,0.3-0.3,0.5-0.4,0.8v4.5h-1V68h1v4.6c0.3-0.5,0.7-1,1.2-1.3s1.1-0.5,1.7-0.5c0.4,0,0.7,0.1,1.1,0.2
		c0.3,0.2,0.5,0.4,0.7,0.6c0.2,0.3,0.3,0.6,0.4,1c0.1,0.4,0.1,0.8,0.1,1.3L249.1,78.2z"/>
	<path class="st7" d="M254.2,78.4c-0.5,0-1-0.1-1.5-0.3c-0.4-0.2-0.8-0.5-1.1-0.8s-0.6-0.8-0.8-1.2c-0.2-0.5-0.3-0.9-0.3-1.4
		s0.1-1,0.3-1.5c0.2-0.4,0.4-0.9,0.8-1.2c0.3-0.3,0.7-0.6,1.1-0.8c0.5-0.2,0.9-0.3,1.4-0.3s1,0.1,1.4,0.3c0.4,0.2,0.8,0.5,1.1,0.8
		s0.6,0.8,0.8,1.2c0.2,0.5,0.3,1,0.3,1.5s-0.1,1-0.3,1.4c-0.2,0.4-0.4,0.9-0.8,1.2c-0.3,0.3-0.7,0.6-1.1,0.8
		C255.2,78.3,254.7,78.4,254.2,78.4z M251.6,74.6c0,0.4,0.1,0.8,0.2,1.1c0.1,0.3,0.3,0.6,0.6,0.9c0.2,0.3,0.5,0.5,0.8,0.6
		s0.7,0.2,1,0.2s0.7-0.1,1-0.2c0.3-0.2,0.6-0.4,0.9-0.6c0.2-0.3,0.4-0.6,0.6-0.9c0.3-0.7,0.3-1.6,0-2.3c-0.1-0.3-0.3-0.7-0.6-0.9
		c-0.2-0.3-0.5-0.5-0.9-0.6c-0.3-0.1-0.7-0.2-1-0.2s-0.7,0.1-1,0.2c-0.3,0.2-0.6,0.4-0.8,0.6c-0.2,0.3-0.4,0.6-0.6,0.9
		C251.6,73.8,251.5,74.2,251.6,74.6z"/>
	<path class="st7" d="M265.5,78.2h-1v-4.1c0-0.7-0.1-1.3-0.4-1.9c-0.3-0.4-0.7-0.6-1.2-0.6c-0.3,0-0.6,0.1-0.8,0.2
		c-0.3,0.1-0.5,0.2-0.8,0.4c-0.2,0.2-0.5,0.4-0.6,0.7c-0.2,0.2-0.3,0.5-0.4,0.8v4.5h-1v-7.3h0.9v1.7c0.3-0.5,0.7-1,1.3-1.3
		c0.5-0.3,1.2-0.5,1.8-0.5c0.3,0,0.7,0.1,1,0.2s0.5,0.4,0.7,0.6c0.2,0.3,0.3,0.6,0.4,1s0.1,0.9,0.1,1.3V78.2z"/>
	<path class="st7" d="M270.7,78.4c-0.5,0-1-0.1-1.5-0.3c-0.4-0.2-0.8-0.5-1.1-0.8c-0.3-0.4-0.6-0.8-0.8-1.2c-0.2-0.5-0.3-1-0.3-1.5
		s0.1-1,0.3-1.4c0.2-0.4,0.4-0.8,0.8-1.2c0.3-0.3,0.7-0.6,1.2-0.8c0.9-0.4,2-0.4,2.9,0c0.4,0.2,0.8,0.5,1.1,0.8c0.7,0.7,1,1.7,1,2.6
		v0.2c0,0,0,0.1,0,0.2h-6.2c0,0.4,0.1,0.7,0.3,1.1c0.1,0.3,0.4,0.6,0.6,0.9c0.2,0.2,0.5,0.4,0.8,0.6c0.3,0.1,0.7,0.2,1,0.2
		c0.2,0,0.5,0,0.7-0.1s0.4-0.2,0.6-0.3c0.2-0.1,0.4-0.2,0.5-0.4c0.2-0.2,0.3-0.3,0.4-0.5l0.8,0.2c-0.1,0.3-0.3,0.5-0.5,0.7
		s-0.4,0.4-0.7,0.6c-0.3,0.2-0.6,0.3-0.9,0.4C271.4,78.3,271.1,78.4,270.7,78.4z M273.4,74.2c0-0.4-0.1-0.7-0.3-1.1
		c-0.1-0.3-0.3-0.6-0.6-0.8c-0.2-0.2-0.5-0.4-0.8-0.6c-0.3-0.1-0.7-0.2-1-0.2s-0.7,0.1-1,0.2s-0.6,0.3-0.8,0.6
		c-0.2,0.2-0.4,0.5-0.6,0.8c-0.1,0.3-0.2,0.7-0.3,1.1H273.4z"/>
	<path class="st7" d="M285.5,78.2h-1v-4.1c0-0.7-0.1-1.3-0.4-1.9c-0.3-0.4-0.7-0.6-1.2-0.6c-0.3,0-0.6,0.1-0.8,0.2
		c-0.3,0.1-0.5,0.2-0.8,0.4c-0.2,0.2-0.5,0.4-0.6,0.7c-0.2,0.3-0.3,0.5-0.4,0.8v4.5h-1v-7.3h0.9v1.7c0.3-0.5,0.7-1,1.3-1.3
		c0.5-0.3,1.2-0.5,1.8-0.5c0.3,0,0.7,0.1,1,0.2s0.5,0.4,0.7,0.6c0.2,0.3,0.3,0.6,0.4,1s0.1,0.9,0.1,1.3V78.2z"/>
	<path class="st7" d="M289.8,78.4c-0.7,0-1.3-0.2-1.8-0.8c-0.4-0.7-0.6-1.5-0.6-2.4v-4.3h1V75c0,1.7,0.6,2.5,1.7,2.5
		c0.3,0,0.6,0,0.8-0.1c0.3-0.1,0.5-0.2,0.8-0.4c0.2-0.2,0.4-0.4,0.6-0.6c0.2-0.3,0.3-0.5,0.4-0.8v-4.5h1V77c0,0.3,0.1,0.4,0.3,0.4
		v0.8h-0.3h-0.1c-0.2,0-0.4-0.1-0.5-0.2c-0.1-0.2-0.2-0.4-0.2-0.6v-0.8c-0.3,0.6-0.7,1-1.3,1.3C291.1,78.2,290.5,78.4,289.8,78.4z"
		/>
	<path class="st7" d="M306.7,78.2h-1v-4.1c0-0.7-0.1-1.3-0.4-1.9c-0.3-0.4-0.7-0.6-1.2-0.6c-0.3,0-0.5,0-0.8,0.2
		c-0.3,0.1-0.5,0.2-0.7,0.4c-0.2,0.2-0.4,0.4-0.5,0.7c-0.2,0.3-0.3,0.6-0.4,0.8v4.4h-1V74c0.1-0.7-0.1-1.3-0.4-1.9
		c-0.3-0.4-0.7-0.6-1.2-0.6s-1.1,0.2-1.5,0.6s-0.8,0.9-0.9,1.5v4.5h-1v-7.3h0.9v1.7c0.3-0.5,0.7-1,1.2-1.3s1-0.5,1.6-0.5
		c0.5,0,1.1,0.2,1.5,0.5c0.4,0.4,0.6,0.8,0.7,1.4c0.5-1.1,1.6-1.9,2.8-1.9c0.3,0,0.7,0.1,1,0.2s0.5,0.4,0.7,0.6
		c0.2,0.3,0.3,0.6,0.4,1s0.1,0.9,0.1,1.3L306.7,78.2z"/>
	<path class="st7" d="M312.3,78.4c-0.6,0-1.1-0.1-1.6-0.4s-0.9-0.7-1.1-1.1v1.4h-0.9V68h1v4.4c0.3-0.5,0.7-0.9,1.2-1.2
		c0.5-0.3,1-0.5,1.6-0.5c0.5,0,1,0.1,1.4,0.3c0.4,0.2,0.7,0.5,1,0.9s0.5,0.8,0.7,1.2c0.2,0.4,0.2,0.9,0.2,1.4s-0.1,1-0.3,1.5
		c-0.2,0.4-0.4,0.8-0.7,1.2c-0.3,0.3-0.7,0.6-1.1,0.8C313.2,78.3,312.8,78.4,312.3,78.4z M312.1,77.5c0.4,0,0.8-0.1,1.1-0.3
		c0.3-0.2,0.6-0.4,0.9-0.7c0.2-0.3,0.4-0.6,0.6-0.9c0.1-0.3,0.2-0.7,0.2-1.1s-0.1-0.8-0.2-1.1c-0.1-0.3-0.3-0.7-0.5-0.9
		c-0.2-0.3-0.5-0.5-0.8-0.7s-0.7-0.3-1.1-0.3c-0.3,0-0.6,0-0.8,0.2c-0.3,0.1-0.5,0.2-0.7,0.4c-0.2,0.2-0.4,0.4-0.6,0.6
		s-0.3,0.4-0.4,0.7v2.3c0,0.3,0.1,0.5,0.3,0.7c0.2,0.2,0.4,0.4,0.6,0.6s0.5,0.3,0.7,0.4C311.5,77.5,311.8,77.5,312.1,77.5z"/>
	<path class="st7" d="M320.5,78.4c-0.5,0-1-0.1-1.5-0.3c-0.4-0.2-0.8-0.5-1.1-0.8c-0.3-0.4-0.6-0.8-0.8-1.2c-0.2-0.5-0.3-1-0.3-1.5
		s0.1-1,0.3-1.4c0.2-0.4,0.4-0.8,0.8-1.2c0.3-0.3,0.7-0.6,1.1-0.8c0.9-0.4,2-0.4,2.9,0c0.4,0.2,0.8,0.5,1.1,0.8c0.7,0.7,1,1.7,1,2.6
		v0.2c0,0,0,0.1,0,0.2h-6.2c0,0.4,0.1,0.7,0.3,1.1c0.1,0.3,0.4,0.6,0.6,0.9c0.2,0.2,0.5,0.4,0.8,0.6c0.3,0.1,0.7,0.2,1,0.2
		c0.2,0,0.5,0,0.7-0.1s0.4-0.2,0.6-0.3c0.2-0.1,0.4-0.2,0.5-0.4c0.2-0.2,0.3-0.3,0.4-0.5l0.8,0.2c-0.1,0.3-0.3,0.5-0.5,0.7
		s-0.4,0.4-0.7,0.6c-0.3,0.2-0.6,0.3-0.9,0.4C321.2,78.3,320.8,78.3,320.5,78.4z M323.2,74.2c0-0.4-0.1-0.7-0.3-1.1
		c-0.1-0.3-0.3-0.6-0.6-0.8c-0.5-0.5-1.1-0.7-1.8-0.7c-0.3,0-0.7,0.1-1,0.2s-0.6,0.3-0.8,0.6c-0.2,0.2-0.4,0.5-0.6,0.8
		c-0.1,0.3-0.2,0.7-0.3,1.1L323.2,74.2z"/>
	<path class="st7" d="M329.2,71.8c-0.6,0-1.2,0.2-1.7,0.5s-0.8,0.8-1,1.4v4.5h-1v-7.3h0.9v1.8c0.2-0.5,0.6-1,1.1-1.3
		c0.4-0.3,0.9-0.5,1.5-0.5h0.2V71.8z"/>
	<path class="st7" d="M336.8,78.4c-0.5,0-1-0.1-1.5-0.3c-0.4-0.2-0.8-0.5-1.1-0.8c-0.3-0.3-0.6-0.8-0.8-1.2
		c-0.2-0.5-0.3-0.9-0.3-1.4s0.1-1,0.3-1.5c0.2-0.4,0.4-0.9,0.8-1.2c0.3-0.3,0.7-0.6,1.1-0.8c0.5-0.2,0.9-0.3,1.4-0.3s1,0.1,1.5,0.3
		c0.4,0.2,0.8,0.5,1.1,0.8c0.3,0.3,0.6,0.8,0.8,1.2c0.2,0.5,0.3,1,0.3,1.5s-0.1,1-0.3,1.4c-0.2,0.4-0.4,0.9-0.8,1.2
		c-0.3,0.3-0.7,0.6-1.1,0.8S337.3,78.4,336.8,78.4z M334.2,74.6c0,0.4,0.1,0.8,0.2,1.1c0.1,0.3,0.3,0.6,0.6,0.9
		c0.2,0.3,0.5,0.5,0.8,0.6s0.7,0.2,1,0.2s0.7-0.1,1-0.2c0.3-0.2,0.6-0.4,0.9-0.6c0.2-0.3,0.4-0.6,0.6-0.9c0.3-0.7,0.3-1.6,0-2.3
		c-0.1-0.3-0.3-0.7-0.6-0.9c-0.2-0.3-0.5-0.5-0.9-0.6c-0.3-0.1-0.7-0.2-1-0.2s-0.7,0.1-1,0.2c-0.3,0.2-0.6,0.4-0.8,0.6
		c-0.2,0.3-0.4,0.6-0.6,0.9C334.2,73.8,334.2,74.2,334.2,74.6L334.2,74.6z"/>
	<path class="st7" d="M345.7,71.8c-0.6,0-1.2,0.2-1.7,0.5s-0.8,0.8-1,1.4v4.5h-1v-7.3h0.9v1.8c0.2-0.5,0.6-1,1.1-1.3
		c0.4-0.3,0.9-0.5,1.5-0.5h0.2V71.8z"/>
	<path class="st7" d="M353.9,78.4c-0.6,0-1.1-0.2-1.6-0.5s-0.9-0.7-1.1-1.2v4.5h-1V70.9h0.9v1.4c0.3-0.5,0.7-0.8,1.2-1.1
		c0.5-0.3,1-0.4,1.5-0.4s1,0.1,1.4,0.3c0.4,0.2,0.8,0.5,1.1,0.8c0.3,0.4,0.6,0.8,0.7,1.2c0.2,0.5,0.3,0.9,0.3,1.4s0,1-0.2,1.4
		c-0.1,0.4-0.4,0.8-0.7,1.2c-0.3,0.3-0.6,0.6-1,0.8C354.9,78.2,354.4,78.4,353.9,78.4z M353.7,77.5c0.4,0,0.7-0.1,1.1-0.3
		c0.3-0.2,0.6-0.4,0.8-0.7c0.2-0.3,0.4-0.6,0.5-0.9s0.2-0.7,0.2-1.1s-0.1-0.8-0.2-1.1c-0.1-0.3-0.3-0.7-0.6-0.9
		c-0.2-0.3-0.5-0.5-0.9-0.6c-0.3-0.2-0.7-0.2-1.1-0.2c-0.3,0-0.5,0.1-0.8,0.2s-0.5,0.2-0.7,0.4c-0.2,0.2-0.4,0.3-0.6,0.6
		c-0.2,0.2-0.3,0.4-0.3,0.7v2.2c0.1,0.3,0.3,0.5,0.4,0.7c0.2,0.2,0.4,0.4,0.6,0.6s0.5,0.3,0.7,0.4C353.1,77.5,353.4,77.5,353.7,77.5
		L353.7,77.5z"/>
	<path class="st7" d="M365,78.2h-1v-4.1c0-0.6-0.1-1.3-0.4-1.9c-0.3-0.4-0.8-0.6-1.3-0.6c-0.3,0-0.5,0.1-0.8,0.2s-0.5,0.3-0.8,0.4
		c-0.2,0.2-0.4,0.4-0.6,0.7c-0.2,0.3-0.3,0.5-0.4,0.8v4.5h-1V68h1v4.6c0.3-0.5,0.7-1,1.2-1.3s1.1-0.5,1.7-0.5c0.4,0,0.7,0.1,1.1,0.2
		c0.3,0.2,0.5,0.4,0.7,0.6c0.2,0.3,0.3,0.6,0.4,1s0.2,0.9,0.2,1.3L365,78.2L365,78.2z"/>
	<path class="st7" d="M370.1,78.4c-0.5,0-1-0.1-1.5-0.3c-0.4-0.2-0.8-0.5-1.1-0.8c-0.3-0.3-0.6-0.8-0.8-1.2
		c-0.2-0.5-0.3-0.9-0.3-1.4s0.1-1,0.3-1.5c0.2-0.4,0.4-0.9,0.8-1.2c0.3-0.3,0.7-0.6,1.1-0.8c0.5-0.2,0.9-0.3,1.4-0.3s1,0.1,1.5,0.3
		c0.4,0.2,0.8,0.5,1.1,0.8c0.3,0.3,0.6,0.8,0.8,1.2c0.2,0.5,0.3,1,0.3,1.5s-0.1,1-0.3,1.4c-0.2,0.4-0.4,0.9-0.8,1.2
		c-0.3,0.3-0.7,0.6-1.1,0.8S370.6,78.4,370.1,78.4z M367.5,74.6c0,0.4,0.1,0.8,0.2,1.1c0.1,0.3,0.3,0.6,0.6,0.9
		c0.2,0.3,0.5,0.5,0.8,0.6s0.7,0.2,1,0.2s0.7-0.1,1-0.2c0.3-0.2,0.6-0.4,0.9-0.6c0.2-0.3,0.4-0.6,0.6-0.9c0.3-0.7,0.3-1.6,0-2.3
		c-0.1-0.3-0.3-0.7-0.6-0.9c-0.2-0.3-0.5-0.5-0.9-0.6c-0.3-0.1-0.7-0.2-1-0.2s-0.7,0.1-1,0.2c-0.3,0.2-0.6,0.4-0.8,0.6
		c-0.2,0.3-0.4,0.6-0.6,0.9C367.5,73.8,367.4,74.2,367.5,74.6z"/>
	<path class="st7" d="M381.5,78.2h-1v-4.1c0.1-0.7-0.1-1.3-0.4-1.9c-0.3-0.4-0.7-0.6-1.2-0.6c-0.3,0-0.6,0.1-0.8,0.2
		c-0.3,0.1-0.5,0.2-0.8,0.4c-0.2,0.2-0.5,0.4-0.6,0.7c-0.2,0.2-0.3,0.5-0.4,0.8v4.5h-1v-7.3h0.9v1.7c0.3-0.5,0.7-1,1.3-1.3
		c0.5-0.3,1.2-0.5,1.8-0.5c0.3,0,0.7,0.1,1,0.2s0.5,0.4,0.7,0.6c0.2,0.3,0.3,0.6,0.4,1s0.1,0.9,0.1,1.3V78.2z"/>
	<path class="st7" d="M386.6,78.4c-0.5,0-1-0.1-1.5-0.3c-0.4-0.2-0.8-0.5-1.1-0.8c-0.3-0.4-0.6-0.8-0.8-1.2c-0.2-0.5-0.3-1-0.3-1.5
		s0.1-1,0.3-1.4c0.2-0.4,0.4-0.8,0.8-1.2c0.3-0.3,0.7-0.6,1.2-0.8c0.9-0.4,2-0.4,2.9,0c0.4,0.2,0.8,0.5,1.1,0.8c0.7,0.7,1,1.7,1,2.6
		v0.2c0,0,0,0.1,0,0.2H384c0,0.4,0.1,0.7,0.3,1.1c0.1,0.3,0.4,0.6,0.6,0.9c0.2,0.2,0.5,0.4,0.8,0.6c0.3,0.1,0.7,0.2,1,0.2
		c0.2,0,0.5,0,0.7-0.1s0.4-0.2,0.6-0.3c0.2-0.1,0.4-0.2,0.5-0.4c0.2-0.2,0.3-0.3,0.4-0.5l0.8,0.2c-0.1,0.3-0.3,0.5-0.5,0.7
		s-0.4,0.4-0.7,0.6c-0.3,0.2-0.6,0.3-0.9,0.4C387.3,78.3,387,78.4,386.6,78.4z M389.3,74.2c0-0.4-0.1-0.7-0.3-1.1
		c-0.1-0.3-0.3-0.6-0.6-0.8c-0.5-0.5-1.1-0.7-1.8-0.7c-0.3,0-0.7,0.1-1,0.2s-0.6,0.3-0.8,0.6c-0.2,0.2-0.4,0.5-0.6,0.8
		c-0.1,0.3-0.2,0.7-0.3,1.1L389.3,74.2z"/>
	<path class="st7" d="M401.4,78.2h-1v-4.1c0-0.7-0.1-1.3-0.4-1.9c-0.3-0.4-0.7-0.6-1.2-0.6c-0.3,0-0.6,0.1-0.8,0.2
		c-0.3,0.1-0.5,0.2-0.8,0.4c-0.2,0.2-0.5,0.4-0.6,0.7c-0.2,0.2-0.3,0.5-0.4,0.8v4.5h-1v-7.3h0.9v1.7c0.3-0.5,0.7-1,1.3-1.3
		c0.5-0.3,1.2-0.5,1.8-0.5c0.3,0,0.7,0.1,1,0.2s0.5,0.4,0.7,0.6c0.2,0.3,0.3,0.6,0.4,1s0.1,0.9,0.1,1.3V78.2z"/>
	<path class="st7" d="M405.7,78.4c-0.7,0-1.3-0.2-1.8-0.8c-0.4-0.7-0.6-1.5-0.6-2.4v-4.3h1V75c0,1.7,0.6,2.5,1.7,2.5
		c0.3,0,0.6,0,0.8-0.1c0.3-0.1,0.5-0.2,0.8-0.4c0.2-0.2,0.4-0.4,0.6-0.6c0.2-0.3,0.3-0.5,0.4-0.8v-4.5h1V77c0,0.3,0.1,0.4,0.3,0.4
		v0.8h-0.3h-0.1c-0.2,0-0.5-0.1-0.6-0.2c-0.1-0.2-0.2-0.4-0.2-0.6v-0.8c-0.3,0.6-0.7,1-1.3,1.3C407,78.2,406.3,78.4,405.7,78.4z"/>
	<path class="st7" d="M422.6,78.2h-1v-4.1c0-0.7-0.1-1.3-0.4-1.9c-0.3-0.4-0.7-0.6-1.2-0.6c-0.3,0-0.5,0-0.8,0.2
		c-0.3,0.1-0.5,0.2-0.7,0.4c-0.2,0.2-0.4,0.4-0.5,0.7c-0.2,0.3-0.3,0.6-0.4,0.8v4.4h-1V74c0.1-0.7-0.1-1.3-0.4-1.9
		c-0.3-0.4-0.7-0.6-1.2-0.6s-1.1,0.2-1.5,0.6s-0.8,0.9-0.9,1.5v4.5h-1v-7.3h0.9v1.7c0.3-0.5,0.7-1,1.2-1.3s1-0.5,1.6-0.5
		c0.5,0,1.1,0.2,1.5,0.5c0.4,0.4,0.6,0.8,0.7,1.4c0.5-1.1,1.6-1.9,2.8-1.9c0.3,0,0.7,0.1,1,0.2s0.5,0.4,0.7,0.6
		c0.2,0.3,0.3,0.6,0.4,1s0.1,0.9,0.1,1.3L422.6,78.2z"/>
	<path class="st7" d="M428.2,78.4c-0.6,0-1.1-0.1-1.6-0.4s-0.9-0.7-1.1-1.1v1.4h-0.9V68h1v4.4c0.3-0.5,0.7-0.9,1.2-1.2
		c0.5-0.3,1-0.5,1.6-0.5c0.5,0,1,0.1,1.4,0.3c0.4,0.2,0.7,0.5,1,0.9s0.5,0.8,0.7,1.2c0.2,0.4,0.2,0.9,0.2,1.4s-0.1,1-0.3,1.5
		c-0.2,0.4-0.4,0.8-0.7,1.2c-0.3,0.3-0.7,0.6-1.1,0.8C429.1,78.3,428.7,78.4,428.2,78.4z M428,77.5c0.4,0,0.8-0.1,1.1-0.3
		c0.3-0.2,0.6-0.4,0.9-0.7c0.2-0.3,0.4-0.6,0.6-0.9c0.1-0.3,0.2-0.7,0.2-1.1s-0.1-0.8-0.2-1.1c-0.1-0.3-0.3-0.7-0.5-0.9
		c-0.2-0.3-0.5-0.5-0.8-0.7s-0.7-0.3-1.1-0.3c-0.3,0-0.6,0-0.8,0.2c-0.3,0.1-0.5,0.2-0.7,0.4c-0.2,0.2-0.4,0.4-0.6,0.6
		s-0.3,0.4-0.4,0.7v2.3c0,0.3,0.1,0.5,0.3,0.7c0.2,0.2,0.4,0.4,0.6,0.6s0.5,0.3,0.7,0.4C427.4,77.5,427.7,77.5,428,77.5L428,77.5z"
		/>
	<path class="st7" d="M436.4,78.4c-0.5,0-1-0.1-1.5-0.3c-0.4-0.2-0.8-0.5-1.2-0.8c-0.3-0.4-0.6-0.8-0.8-1.2c-0.2-0.5-0.3-1-0.3-1.5
		s0.1-1,0.3-1.4c0.2-0.4,0.4-0.8,0.8-1.2c0.3-0.3,0.7-0.6,1.1-0.8c0.9-0.4,2-0.4,2.9,0c0.4,0.2,0.8,0.5,1.1,0.8c0.7,0.7,1,1.7,1,2.6
		v0.2c0,0,0,0.1,0,0.2h-6.2c0,0.4,0.1,0.7,0.3,1.1c0.1,0.3,0.3,0.6,0.6,0.9c0.2,0.2,0.5,0.4,0.8,0.6c0.3,0.1,0.7,0.2,1,0.2
		c0.2,0,0.5,0,0.7-0.1s0.4-0.2,0.6-0.3c0.2-0.1,0.4-0.2,0.5-0.4c0.2-0.2,0.3-0.3,0.4-0.5l0.8,0.2c-0.1,0.3-0.3,0.5-0.5,0.7
		s-0.4,0.4-0.7,0.6c-0.3,0.2-0.6,0.3-0.9,0.4C437.1,78.3,436.7,78.4,436.4,78.4z M439.1,74.2c0-0.7-0.3-1.4-0.9-1.9
		c-0.5-0.5-1.1-0.7-1.8-0.7c-0.3,0-0.7,0.1-1,0.2s-0.6,0.3-0.8,0.6c-0.2,0.2-0.4,0.5-0.6,0.8c-0.1,0.3-0.2,0.7-0.3,1.1L439.1,74.2z"
		/>
	<path class="st7" d="M445.1,71.8c-0.6,0-1.2,0.2-1.7,0.5s-0.8,0.8-1,1.4v4.5h-1v-7.3h0.9v1.8c0.2-0.5,0.6-1,1.1-1.3
		c0.4-0.3,0.9-0.5,1.5-0.5h0.2V71.8z"/>
	<path class="st7" d="M448.8,78.4c-0.6,0-1.1-0.1-1.7-0.3c-0.5-0.2-1-0.4-1.4-0.8l0.4-0.6c0.4,0.3,0.8,0.6,1.3,0.8
		c0.4,0.2,0.9,0.3,1.4,0.3s1-0.1,1.4-0.4c0.3-0.2,0.5-0.6,0.5-1c0-0.2,0-0.4-0.1-0.5s-0.2-0.3-0.4-0.4c-0.2-0.1-0.5-0.2-0.7-0.3
		l-1-0.3c-0.4-0.1-0.8-0.2-1.1-0.3c-0.3-0.1-0.5-0.2-0.8-0.3c-0.2-0.1-0.3-0.3-0.5-0.5c-0.1-0.2-0.2-0.5-0.1-0.7
		c0-0.3,0.1-0.7,0.2-1s0.3-0.5,0.6-0.7c0.3-0.2,0.6-0.3,0.9-0.4s0.7-0.1,1.1-0.1c0.5,0,1,0.1,1.5,0.3c0.4,0.2,0.8,0.4,1.1,0.7
		l-0.5,0.6c-0.3-0.3-0.6-0.5-1-0.6s-0.8-0.2-1.2-0.2c-0.2,0-0.5,0-0.7,0.1c-0.2,0-0.4,0.1-0.6,0.3c-0.2,0.1-0.3,0.3-0.4,0.4
		c-0.1,0.2-0.1,0.4-0.1,0.6s0,0.3,0.1,0.5c0.1,0.1,0.2,0.2,0.3,0.3c0.2,0.1,0.4,0.2,0.6,0.2c0.2,0.1,0.5,0.1,0.8,0.2
		s0.9,0.2,1.2,0.3c0.3,0.1,0.6,0.2,0.9,0.4c0.2,0.1,0.4,0.3,0.5,0.6c0.1,0.2,0.2,0.5,0.2,0.8c0,0.6-0.3,1.2-0.8,1.6
		C450.3,78.2,449.5,78.4,448.8,78.4z"/>
	<path class="st7" d="M453.1,78.2v-1.4h0.8v1.4H453.1z"/>
	<path class="st2" d="M171.2,272h305.3c3.9,0,7,3.1,7,7v100c0,3.9-3.1,7-7,7H171.2c-3.9,0-7-3.1-7-7V279
		C164.2,275.1,167.4,272,171.2,272z"/>
	<path class="st9" d="M192.4,359.4h0.5l0.8,2l0.8-2h0.5l-1,2.4l1.1,2.6l2.1-5h0.6l-2.4,5.6h-0.5l-1.2-2.8l-1.2,2.8H192l-2.4-5.7h0.6
		l2.1,5l1.1-2.6L192.4,359.4z"/>
	<path class="st9" d="M202,365h-0.5v-2.3c0-0.4-0.1-0.7-0.2-1.1c-0.2-0.2-0.4-0.4-0.7-0.4c-0.2,0-0.3,0-0.5,0.1s-0.3,0.1-0.4,0.3
		c-0.1,0.1-0.3,0.2-0.4,0.4c-0.1,0.1-0.2,0.3-0.2,0.5v2.5h-0.5v-5.8h0.5v2.6c0.2-0.3,0.4-0.6,0.7-0.7c0.3-0.2,0.6-0.3,1-0.3
		c0.2,0,0.4,0,0.6,0.1c0.2,0.1,0.3,0.2,0.4,0.4c0.1,0.2,0.2,0.4,0.2,0.6s0.1,0.5,0.1,0.7L202,365z"/>
	<path class="st9" d="M204.9,365.1c-0.3,0-0.6-0.1-0.8-0.2s-0.5-0.3-0.7-0.5s-0.3-0.4-0.4-0.7c-0.1-0.3-0.2-0.6-0.2-0.8
		c0-0.3,0.1-0.6,0.2-0.8c0.1-0.3,0.2-0.5,0.4-0.7s0.4-0.4,0.7-0.5c0.8-0.4,1.7-0.2,2.3,0.5c0.4,0.4,0.6,0.9,0.6,1.5v0.1v0.1h-3.6
		c0,0.2,0.1,0.4,0.2,0.6c0.1,0.2,0.2,0.3,0.3,0.5c0.1,0.1,0.3,0.2,0.5,0.3c0.2,0.1,0.4,0.1,0.6,0.1c0.1,0,0.3,0,0.4-0.1
		c0.1,0,0.3-0.1,0.4-0.1c0.1-0.1,0.2-0.1,0.3-0.2s0.2-0.2,0.2-0.3l0.5,0.1c-0.1,0.2-0.2,0.3-0.3,0.4s-0.3,0.2-0.4,0.3
		c-0.2,0.1-0.3,0.2-0.5,0.2C205.3,365.1,205.1,365.1,204.9,365.1z M206.5,362.7c0-0.2-0.1-0.4-0.2-0.6c-0.1-0.2-0.2-0.3-0.3-0.5
		c-0.1-0.1-0.3-0.2-0.5-0.3c-0.2-0.1-0.4-0.1-0.6-0.1c-0.2,0-0.4,0-0.6,0.1c-0.2,0.1-0.3,0.2-0.5,0.3c-0.1,0.1-0.3,0.3-0.3,0.5
		c-0.1,0.2-0.1,0.4-0.1,0.6H206.5z"/>
	<path class="st9" d="M211.3,365h-0.5v-2.3c0-0.4,0-0.7-0.2-1.1c-0.1-0.2-0.4-0.4-0.7-0.3c-0.2,0-0.3,0-0.5,0.1s-0.3,0.1-0.4,0.3
		c-0.1,0.1-0.3,0.2-0.4,0.4c-0.1,0.1-0.2,0.3-0.2,0.5v2.5h-0.5v-4.2h0.5v0.9c0.2-0.3,0.4-0.6,0.7-0.7c0.3-0.2,0.6-0.3,1-0.3
		c0.2,0,0.4,0,0.6,0.1c0.2,0.1,0.3,0.2,0.4,0.4c0.1,0.2,0.2,0.4,0.2,0.6s0.1,0.5,0.1,0.7L211.3,365z"/>
	<path class="st9" d="M214.3,365.1c-0.3,0-0.6-0.1-0.8-0.2s-0.5-0.3-0.7-0.5s-0.3-0.4-0.4-0.7c-0.1-0.3-0.2-0.6-0.2-0.8
		c0-0.3,0.1-0.6,0.2-0.8c0.1-0.3,0.2-0.5,0.4-0.7s0.4-0.4,0.7-0.5c0.5-0.2,1.1-0.2,1.7,0c0.2,0.1,0.5,0.3,0.6,0.5
		c0.2,0.2,0.3,0.4,0.4,0.7c0.1,0.3,0.2,0.5,0.1,0.8v0.1v0.1h-3.6c0,0.2,0.1,0.4,0.2,0.6c0.1,0.2,0.2,0.3,0.3,0.5
		c0.1,0.1,0.3,0.2,0.5,0.3c0.2,0.1,0.4,0.1,0.6,0.1c0.1,0,0.3,0,0.4-0.1c0.1,0,0.3-0.1,0.4-0.1c0.1-0.1,0.2-0.1,0.3-0.2
		s0.2-0.2,0.2-0.3l0.5,0.1c-0.1,0.2-0.2,0.3-0.3,0.4s-0.3,0.2-0.4,0.3c-0.2,0.1-0.3,0.2-0.5,0.2
		C214.7,365.1,214.5,365.1,214.3,365.1z M215.8,362.7c0-0.2-0.1-0.4-0.2-0.6c-0.1-0.2-0.2-0.3-0.3-0.5c-0.3-0.3-0.6-0.4-1-0.4
		c-0.2,0-0.4,0-0.6,0.1c-0.2,0.1-0.3,0.2-0.5,0.3c-0.1,0.1-0.3,0.3-0.3,0.5c-0.1,0.2-0.1,0.4-0.1,0.6H215.8z"/>
	<path class="st9" d="M218.3,365l-1.7-4.2h0.6l1.4,3.7l1.4-3.7h0.5l-1.7,4.2H218.3z"/>
	<path class="st9" d="M223,365.1c-0.3,0-0.6-0.1-0.8-0.2s-0.5-0.3-0.7-0.5s-0.3-0.4-0.4-0.7c-0.1-0.3-0.2-0.6-0.2-0.8
		c0-0.3,0.1-0.6,0.2-0.8c0.1-0.3,0.2-0.5,0.4-0.7s0.4-0.4,0.7-0.5c0.8-0.4,1.7-0.2,2.3,0.5c0.4,0.4,0.6,0.9,0.6,1.5v0.1v0.1h-3.6
		c0,0.2,0.1,0.4,0.2,0.6c0.1,0.2,0.2,0.3,0.3,0.5c0.1,0.1,0.3,0.2,0.5,0.3c0.2,0.1,0.4,0.1,0.6,0.1c0.1,0,0.3,0,0.4-0.1
		c0.1,0,0.3-0.1,0.4-0.1c0.1-0.1,0.2-0.1,0.3-0.2s0.2-0.2,0.2-0.3l0.5,0.1c-0.1,0.2-0.2,0.3-0.3,0.4s-0.3,0.2-0.4,0.3
		c-0.2,0.1-0.3,0.2-0.5,0.2C223.4,365.1,223.2,365.1,223,365.1z M224.5,362.7c0-0.4-0.2-0.8-0.5-1.1c-0.1-0.1-0.3-0.2-0.5-0.3
		c-0.2-0.1-0.4-0.1-0.6-0.1c-0.2,0-0.4,0-0.6,0.1c-0.2,0.1-0.3,0.2-0.5,0.3c-0.1,0.1-0.3,0.3-0.3,0.5c-0.1,0.2-0.1,0.4-0.1,0.6
		H224.5z"/>
	<path class="st9" d="M228,361.3c-0.4,0-0.7,0.1-1,0.3c-0.3,0.2-0.5,0.5-0.6,0.8v2.6h-0.5v-4.2h0.5v1c0.1-0.3,0.4-0.6,0.6-0.8
		c0.2-0.2,0.5-0.3,0.8-0.3h0.1L228,361.3z"/>
	<path class="st9" d="M231.6,365.1c-0.2,0-0.4,0-0.6-0.1c-0.2-0.1-0.3-0.2-0.4-0.3c-0.1-0.1-0.2-0.3-0.3-0.4
		c-0.1-0.2-0.1-0.3-0.1-0.5s0-0.3,0.1-0.5s0.2-0.3,0.4-0.4s0.4-0.2,0.6-0.3c0.2-0.1,0.5-0.1,0.7-0.1s0.4,0,0.6,0.1
		c0.2,0,0.4,0.1,0.6,0.2v-0.4c0-0.3-0.1-0.6-0.3-0.9c-0.2-0.2-0.5-0.3-0.9-0.3c-0.2,0-0.4,0-0.7,0.1c-0.2,0.1-0.5,0.2-0.7,0.4
		l-0.2-0.4c0.5-0.3,1-0.5,1.6-0.5c0.5,0,0.9,0.1,1.2,0.4s0.5,0.8,0.4,1.2v1.9c0,0.1,0.1,0.2,0.2,0.2v0.4h-0.2c-0.1,0-0.2,0-0.3-0.1
		s-0.1-0.2-0.1-0.3v-0.3c-0.2,0.3-0.4,0.4-0.7,0.6C232.3,365,231.9,365.1,231.6,365.1z M231.7,364.7c0.3,0,0.5-0.1,0.8-0.2
		c0.2-0.1,0.4-0.2,0.5-0.4c0,0,0.1-0.1,0.1-0.2s0-0.1,0-0.2V363c-0.2-0.1-0.4-0.1-0.6-0.2c-0.2,0-0.4-0.1-0.6-0.1
		c-0.3,0-0.7,0.1-0.9,0.2s-0.4,0.4-0.4,0.6c0,0.1,0,0.2,0.1,0.4c0.1,0.1,0.1,0.2,0.2,0.3c0.1,0.1,0.2,0.2,0.3,0.2
		C231.4,364.7,231.6,364.7,231.7,364.7L231.7,364.7z"/>
	<path class="st9" d="M234.9,360v-0.8h0.5v0.8H234.9z M234.9,365v-4.2h0.5v4.2H234.9z"/>
	<path class="st9" d="M238.7,361.3c-0.4,0-0.7,0.1-1,0.3c-0.3,0.2-0.5,0.5-0.6,0.8v2.6h-0.5v-4.2h0.5v1c0.1-0.3,0.4-0.6,0.6-0.8
		c0.2-0.2,0.5-0.3,0.8-0.3h0.1L238.7,361.3z"/>
	<path class="st9" d="M241.5,364.8l-0.1,0.1l-0.2,0.1l-0.3,0.1c-0.1,0-0.2,0-0.3,0s-0.2,0-0.3,0s-0.2-0.1-0.3-0.1
		c-0.1-0.1-0.1-0.2-0.2-0.3c0-0.1-0.1-0.2-0.1-0.4v-3h-0.6v-0.4h0.6v-1.4h0.5v1.4h1v0.4h-1v2.8c0,0.1,0.1,0.3,0.2,0.3
		c0.1,0.1,0.2,0.1,0.3,0.1s0.3,0,0.4-0.1l0.2-0.1L241.5,364.8z"/>
	<path class="st9" d="M242.1,360v-0.8h0.5v0.8H242.1z M242.1,365v-4.2h0.5v4.2H242.1z"/>
	<path class="st9" d="M250.1,365h-0.5v-2.3c0-0.4-0.1-0.7-0.2-1.1c-0.2-0.2-0.4-0.4-0.7-0.3c-0.2,0-0.3,0-0.4,0.1
		c-0.1,0.1-0.3,0.1-0.4,0.3c-0.1,0.1-0.2,0.2-0.3,0.4c-0.1,0.1-0.2,0.3-0.2,0.5v2.5h-0.5v-2.3c0-0.4,0-0.7-0.2-1.1
		c-0.2-0.2-0.4-0.4-0.7-0.3c-0.3,0-0.6,0.1-0.8,0.3c-0.3,0.2-0.4,0.5-0.5,0.9v2.5h-0.5v-4.2h0.5v0.9c0.2-0.3,0.4-0.6,0.7-0.8
		c0.3-0.2,0.6-0.3,0.9-0.3c0.3,0,0.6,0.1,0.8,0.3c0.2,0.2,0.4,0.5,0.4,0.8c0.3-0.6,0.9-1.1,1.6-1.1c0.2,0,0.4,0,0.6,0.1
		c0.2,0.1,0.3,0.2,0.4,0.4c0.1,0.2,0.2,0.4,0.2,0.6s0.1,0.5,0.1,0.7L250.1,365z"/>
	<path class="st9" d="M253,365.1c-0.3,0-0.6-0.1-0.8-0.2s-0.5-0.3-0.7-0.5s-0.3-0.4-0.4-0.7c-0.1-0.3-0.2-0.6-0.2-0.8
		c0-0.3,0.1-0.6,0.2-0.8c0.1-0.3,0.2-0.5,0.4-0.7s0.4-0.4,0.7-0.5c0.8-0.4,1.7-0.2,2.3,0.5c0.4,0.4,0.6,0.9,0.6,1.5v0.1v0.1h-3.6
		c0,0.2,0.1,0.4,0.2,0.6c0.1,0.2,0.2,0.3,0.3,0.5c0.1,0.1,0.3,0.2,0.5,0.3c0.2,0.1,0.4,0.1,0.6,0.1c0.1,0,0.3,0,0.4-0.1
		c0.1,0,0.3-0.1,0.4-0.1c0.1-0.1,0.2-0.1,0.3-0.2s0.2-0.2,0.2-0.3l0.5,0.1c-0.1,0.2-0.2,0.3-0.3,0.4s-0.3,0.2-0.4,0.3
		c-0.2,0.1-0.3,0.2-0.5,0.2C253.4,365.1,253.2,365.1,253,365.1z M254.5,362.7c0-0.2-0.1-0.4-0.2-0.6c-0.1-0.2-0.2-0.3-0.3-0.5
		c-0.1-0.1-0.3-0.2-0.5-0.3c-0.2-0.1-0.4-0.1-0.6-0.1c-0.2,0-0.4,0-0.6,0.1c-0.2,0.1-0.3,0.2-0.5,0.3c-0.1,0.1-0.3,0.3-0.3,0.5
		c-0.1,0.2-0.1,0.4-0.1,0.6H254.5z"/>
	<path class="st9" d="M258,360v-0.8h0.5v0.8H258z M258,365v-4.2h0.5v4.2H258z"/>
	<path class="st9" d="M261.1,365.1c-0.3,0-0.7,0-1-0.2c-0.3-0.1-0.6-0.3-0.8-0.5l0.3-0.4c0.2,0.2,0.5,0.3,0.7,0.4s0.5,0.1,0.8,0.1
		s0.6-0.1,0.8-0.2c0.2-0.1,0.3-0.3,0.3-0.6c0-0.1,0-0.2-0.1-0.3c-0.1-0.1-0.1-0.2-0.2-0.2c-0.1-0.1-0.3-0.1-0.4-0.2l-0.5-0.1
		l-0.6-0.2c-0.2,0-0.3-0.1-0.4-0.2s-0.2-0.2-0.3-0.3c-0.1-0.1-0.1-0.3-0.1-0.4c0-0.2,0-0.4,0.1-0.5c0.1-0.2,0.2-0.3,0.3-0.4
		c0.2-0.1,0.3-0.2,0.5-0.2c0.2-0.1,0.4-0.1,0.6-0.1c0.3,0,0.6,0.1,0.9,0.2c0.2,0.1,0.5,0.2,0.6,0.4l-0.3,0.3
		c-0.2-0.2-0.3-0.3-0.6-0.4c-0.2-0.1-0.5-0.1-0.7-0.1c-0.1,0-0.3,0-0.4,0s-0.2,0.1-0.3,0.1c-0.1,0.1-0.2,0.1-0.2,0.2
		c-0.1,0.1-0.1,0.2-0.1,0.4c0,0.1,0,0.2,0.1,0.3c0,0.1,0.1,0.1,0.2,0.2s0.2,0.1,0.3,0.1l0.5,0.1l0.7,0.2c0.2,0.1,0.3,0.1,0.5,0.2
		c0.1,0.1,0.2,0.2,0.3,0.3c0.1,0.1,0.1,0.3,0.1,0.5c0,0.4-0.2,0.7-0.4,0.9C261.9,365,261.5,365.1,261.1,365.1z"/>
	<path class="st9" d="M265.7,359.2h0.5v4.9c0,0.1,0,0.3,0.1,0.4s0.2,0.1,0.4,0.1h0.2l0.2-0.1l0.1,0.4c-0.1,0-0.2,0.1-0.4,0.1
		c-0.1,0-0.3,0-0.4,0c-0.2,0-0.4-0.1-0.6-0.2c-0.1-0.2-0.2-0.4-0.2-0.6L265.7,359.2z"/>
	<path class="st9" d="M269.6,365.1c-0.3,0-0.6-0.1-0.8-0.2c-0.2-0.1-0.5-0.3-0.6-0.5c-0.2-0.2-0.3-0.4-0.4-0.7
		c-0.1-0.3-0.2-0.5-0.1-0.8c0-0.3,0.1-0.6,0.2-0.8c0.1-0.3,0.2-0.5,0.4-0.7c0.2-0.2,0.4-0.4,0.6-0.5c0.3-0.1,0.5-0.2,0.8-0.2
		s0.6,0.1,0.8,0.2c0.2,0.1,0.5,0.3,0.7,0.5s0.3,0.4,0.4,0.7c0.2,0.5,0.2,1.1,0,1.7c-0.1,0.3-0.2,0.5-0.4,0.7
		c-0.2,0.2-0.4,0.4-0.7,0.5C270.2,365.1,269.9,365.1,269.6,365.1z M268.1,363c0,0.2,0,0.4,0.1,0.6s0.2,0.4,0.3,0.5
		c0.1,0.2,0.3,0.3,0.5,0.4s0.4,0.1,0.6,0.1s0.4,0,0.6-0.1s0.3-0.2,0.5-0.4c0.1-0.2,0.3-0.3,0.3-0.5c0.2-0.4,0.2-0.9,0-1.3
		c-0.1-0.2-0.2-0.4-0.3-0.5c-0.1-0.1-0.3-0.3-0.5-0.4s-0.4-0.1-0.6-0.1s-0.4,0-0.6,0.1s-0.3,0.2-0.5,0.4c-0.1,0.2-0.3,0.3-0.3,0.5
		C268.1,362.6,268.1,362.8,268.1,363z"/>
	<path class="st9" d="M277.7,360.9h0.5l-1.8,4.1H276l-0.9-2.1l-0.9,2.1h-0.5l-1.8-4.1h0.5l1.5,3.6l0.8-1.9l-0.7-1.7h0.5l0.5,1.4
		l0.5-1.4h0.5l-0.7,1.7l0.8,1.9L277.7,360.9z"/>
	<path class="st9" d="M280.6,365.1c-0.3,0-0.6-0.1-0.8-0.2c-0.2-0.1-0.5-0.3-0.7-0.5s-0.3-0.4-0.4-0.7c-0.1-0.3-0.2-0.6-0.2-0.8
		c0-0.3,0.1-0.6,0.2-0.8c0.1-0.3,0.2-0.5,0.4-0.7c0.2-0.2,0.4-0.4,0.7-0.5c0.5-0.2,1.1-0.2,1.7,0c0.2,0.1,0.5,0.3,0.6,0.5
		c0.2,0.2,0.3,0.4,0.4,0.7c0.1,0.3,0.2,0.5,0.1,0.8v0.1v0.1H279c0,0.2,0.1,0.4,0.2,0.6s0.2,0.3,0.3,0.5c0.1,0.1,0.3,0.2,0.5,0.3
		c0.2,0.1,0.4,0.1,0.6,0.1c0.1,0,0.3,0,0.4-0.1c0.1,0,0.3-0.1,0.4-0.1c0.1-0.1,0.2-0.1,0.3-0.2c0.1-0.1,0.2-0.2,0.2-0.3l0.5,0.1
		c-0.1,0.2-0.2,0.3-0.3,0.4c-0.1,0.1-0.3,0.2-0.4,0.3c-0.2,0.1-0.3,0.2-0.5,0.2C281,365.1,280.8,365.1,280.6,365.1z M282.1,362.7
		c0-0.2-0.1-0.4-0.2-0.6s-0.2-0.3-0.3-0.5c-0.3-0.3-0.6-0.4-1-0.4c-0.2,0-0.4,0-0.6,0.1s-0.3,0.2-0.5,0.3c-0.1,0.1-0.3,0.3-0.3,0.5
		c-0.1,0.2-0.1,0.4-0.1,0.6H282.1z"/>
	<path class="st9" d="M285.6,361.3c-0.4,0-0.7,0.1-1,0.3c-0.3,0.2-0.5,0.5-0.6,0.8v2.6h-0.5v-4.2h0.6v1c0.1-0.3,0.4-0.6,0.6-0.8
		c0.2-0.2,0.5-0.3,0.8-0.3h0.1V361.3z"/>
	<path class="st9" d="M290.1,364.8l-0.1,0.1l-0.2,0.1l-0.3,0.1c-0.1,0-0.2,0-0.3,0c-0.1,0-0.2,0-0.3,0c-0.1,0-0.2-0.1-0.3-0.1
		c-0.1-0.1-0.1-0.2-0.2-0.3c0-0.1-0.1-0.2-0.1-0.4v-3h-0.6v-0.4h0.6v-1.4h0.5v1.4h1v0.4h-1v2.8c0,0.1,0.1,0.3,0.2,0.3
		c0.1,0.1,0.2,0.1,0.3,0.1c0.1,0,0.3,0,0.4-0.1l0.2-0.1L290.1,364.8z"/>
	<path class="st9" d="M294.3,365h-0.5v-2.3c0-0.4-0.1-0.7-0.2-1.1c-0.2-0.2-0.4-0.4-0.7-0.4c-0.2,0-0.3,0-0.5,0.1s-0.3,0.1-0.4,0.3
		c-0.1,0.1-0.3,0.2-0.4,0.4c-0.1,0.1-0.2,0.3-0.2,0.5v2.5h-0.5v-5.8h0.5v2.6c0.2-0.3,0.4-0.6,0.7-0.7c0.3-0.2,0.6-0.3,1-0.3
		c0.2,0,0.4,0,0.6,0.1s0.3,0.2,0.4,0.4c0.1,0.2,0.2,0.4,0.2,0.6s0.1,0.5,0.1,0.7L294.3,365z"/>
	<path class="st9" d="M296.5,365.1c-0.2,0-0.4,0-0.5-0.1c-0.2-0.1-0.3-0.2-0.4-0.3c-0.3-0.2-0.4-0.6-0.4-0.9c0-0.2,0-0.3,0.1-0.5
		s0.2-0.3,0.4-0.4c0.2-0.1,0.4-0.2,0.5-0.3c0.2-0.1,0.5-0.1,0.7-0.1s0.4,0,0.6,0.1c0.2,0,0.4,0.1,0.6,0.2v-0.4
		c0-0.3-0.1-0.6-0.3-0.9c-0.2-0.2-0.5-0.3-0.9-0.3c-0.2,0-0.4,0-0.7,0.1c-0.2,0.1-0.5,0.2-0.7,0.4l-0.2-0.4c0.5-0.3,1-0.5,1.6-0.5
		c0.5,0,0.9,0.1,1.2,0.4c0.3,0.3,0.5,0.8,0.5,1.2v1.9c0,0.1,0.1,0.2,0.2,0.2v0.4h-0.2c-0.1,0-0.2,0-0.3-0.1
		c-0.1-0.1-0.1-0.2-0.1-0.3v-0.3c-0.2,0.2-0.4,0.4-0.7,0.6C297.2,365,296.9,365.1,296.5,365.1z M296.7,364.7c0.3,0,0.5-0.1,0.8-0.2
		c0.2-0.1,0.4-0.2,0.5-0.4c0,0,0.1-0.1,0.1-0.2s0-0.1,0-0.2V363c-0.2-0.1-0.4-0.1-0.6-0.2c-0.2,0-0.4-0.1-0.6-0.1
		c-0.3,0-0.7,0.1-0.9,0.2c-0.2,0.1-0.4,0.4-0.4,0.6c0,0.1,0,0.2,0.1,0.4c0.1,0.1,0.1,0.2,0.2,0.3c0.1,0.1,0.2,0.2,0.3,0.2
		C296.4,364.7,296.5,364.7,296.7,364.7L296.7,364.7z"/>
	<path class="st9" d="M303.4,365h-0.5v-2.3c0-0.4,0-0.7-0.2-1.1c-0.1-0.2-0.4-0.4-0.7-0.3c-0.2,0-0.3,0-0.5,0.1s-0.3,0.1-0.4,0.3
		c-0.1,0.1-0.3,0.2-0.4,0.4c-0.1,0.1-0.2,0.3-0.2,0.5v2.5H300v-4.2h0.5v0.9c0.2-0.3,0.4-0.6,0.7-0.7c0.3-0.2,0.6-0.3,1-0.3
		c0.2,0,0.4,0,0.6,0.1s0.3,0.2,0.4,0.4c0.1,0.2,0.2,0.4,0.2,0.6s0.1,0.5,0.1,0.7L303.4,365z"/>
	<path class="st9" d="M307.2,360.4v4.6h-0.6v-5.7h0.4l3.8,4.7v-4.7h0.6v5.7h-0.5L307.2,360.4z"/>
	<path class="st9" d="M315.4,364.5v0.5h-2.7v-0.5h1.1v-3.4c-0.1,0.1-0.1,0.2-0.2,0.2c-0.1,0.1-0.2,0.1-0.3,0.2
		c-0.1,0.1-0.3,0.1-0.4,0.2c-0.1,0-0.2,0.1-0.4,0.1v-0.5c0.1,0,0.3,0,0.4-0.1s0.3-0.1,0.4-0.2s0.2-0.2,0.3-0.3
		c0.1,0,0.1-0.1,0.1-0.2h0.6v4.1L315.4,364.5z"/>
	<path class="st9" d="M320,362.7c0,0.3,0,0.7-0.1,1s-0.2,0.5-0.4,0.8c-0.2,0.2-0.4,0.4-0.6,0.5c-0.5,0.2-1.1,0.2-1.6,0
		c-0.2-0.1-0.5-0.3-0.6-0.5c-0.2-0.2-0.3-0.5-0.4-0.8c-0.2-0.6-0.2-1.3,0-1.9c0.1-0.3,0.2-0.5,0.4-0.8c0.2-0.2,0.4-0.4,0.6-0.5
		c0.5-0.2,1.1-0.2,1.6,0c0.2,0.1,0.5,0.3,0.6,0.5c0.2,0.2,0.3,0.5,0.4,0.8C319.9,362,320,362.4,320,362.7z M319.5,362.7
		c0-0.3,0-0.5-0.1-0.8c-0.1-0.2-0.2-0.4-0.3-0.6c-0.1-0.2-0.3-0.3-0.5-0.4s-0.4-0.1-0.6-0.1s-0.4,0-0.6,0.1s-0.3,0.2-0.5,0.4
		c-0.1,0.2-0.2,0.4-0.3,0.6c-0.1,0.5-0.1,1.1,0,1.6c0.1,0.2,0.2,0.4,0.3,0.6c0.1,0.2,0.3,0.3,0.5,0.4s0.4,0.1,0.6,0.1s0.4,0,0.6-0.1
		s0.3-0.2,0.5-0.4c0.1-0.2,0.2-0.4,0.3-0.6C319.4,363.2,319.5,362.9,319.5,362.7z"/>
	<path class="st9" d="M324.9,362.7c0,0.3,0,0.7-0.1,1s-0.2,0.5-0.4,0.8c-0.2,0.2-0.4,0.4-0.6,0.5c-0.5,0.2-1.1,0.2-1.6,0
		c-0.2-0.1-0.5-0.3-0.6-0.5c-0.2-0.2-0.3-0.5-0.4-0.8c-0.2-0.6-0.2-1.3,0-1.9c0.1-0.3,0.2-0.5,0.4-0.8c0.2-0.2,0.4-0.4,0.6-0.5
		c0.5-0.2,1.1-0.2,1.6,0c0.2,0.1,0.5,0.3,0.6,0.5c0.2,0.2,0.3,0.5,0.4,0.8C324.8,362,324.9,362.4,324.9,362.7z M324.4,362.7
		c0-0.3,0-0.5-0.1-0.8c-0.1-0.2-0.2-0.4-0.3-0.6c-0.1-0.2-0.3-0.3-0.5-0.4s-0.4-0.1-0.6-0.1s-0.4,0-0.6,0.1s-0.3,0.2-0.5,0.4
		c-0.1,0.2-0.2,0.4-0.3,0.6c-0.1,0.5-0.1,1.1,0,1.6c0.1,0.2,0.2,0.4,0.3,0.6c0.1,0.2,0.3,0.3,0.5,0.4s0.4,0.1,0.6,0.1s0.4,0,0.6-0.1
		s0.3-0.2,0.5-0.4c0.1-0.2,0.2-0.4,0.3-0.6C324.3,363.2,324.4,362.9,324.4,362.7z"/>
	<path class="st9" d="M326,365.7l0.1-0.7H326v-0.8h0.5v0.8l-0.2,0.7H326z"/>
	<path class="st9" d="M331.9,365.1c-0.3,0-0.7-0.1-0.9-0.3c-0.3-0.2-0.5-0.4-0.6-0.7v2.6h-0.5v-5.9h0.5v0.8c0.2-0.3,0.4-0.5,0.7-0.6
		c0.3-0.2,0.6-0.2,0.9-0.2s0.5,0.1,0.8,0.2c0.2,0.1,0.4,0.3,0.6,0.5s0.3,0.4,0.4,0.7c0.1,0.3,0.1,0.5,0.1,0.8s0,0.6-0.1,0.8
		c-0.1,0.3-0.2,0.5-0.4,0.7c-0.2,0.2-0.4,0.4-0.6,0.5C332.4,365.1,332.2,365.1,331.9,365.1z M331.8,364.6c0.2,0,0.4,0,0.6-0.1
		s0.3-0.2,0.5-0.4c0.1-0.2,0.2-0.3,0.3-0.5c0.1-0.2,0.1-0.4,0.1-0.6s0-0.4-0.1-0.6s-0.2-0.4-0.3-0.5c-0.1-0.2-0.3-0.3-0.5-0.4
		s-0.4-0.1-0.6-0.1s-0.3,0-0.4,0.1s-0.3,0.1-0.4,0.2s-0.2,0.2-0.3,0.3c-0.1,0.1-0.1,0.3-0.2,0.4v1.3c0.1,0.1,0.1,0.3,0.2,0.4
		s0.2,0.2,0.3,0.3c0.1,0.1,0.3,0.2,0.4,0.2C331.4,364.6,331.6,364.6,331.8,364.6L331.8,364.6z"/>
	<path class="st9" d="M334.7,359.2h0.5v4.9c0,0.1,0,0.3,0.1,0.4s0.2,0.1,0.4,0.1h0.2l0.2-0.1l0.1,0.4c-0.1,0-0.2,0.1-0.4,0.1
		c-0.1,0-0.3,0-0.4,0c-0.4,0-0.8-0.3-0.8-0.7v-0.1L334.7,359.2L334.7,359.2z"/>
	<path class="st9" d="M338.7,365.1c-0.3,0-0.6-0.1-0.8-0.2c-0.2-0.1-0.5-0.3-0.7-0.5s-0.3-0.4-0.4-0.7c-0.1-0.3-0.2-0.6-0.2-0.8
		c0-0.3,0.1-0.6,0.2-0.8c0.1-0.3,0.2-0.5,0.4-0.7c0.2-0.2,0.4-0.4,0.7-0.5c0.5-0.2,1.1-0.2,1.7,0c0.2,0.1,0.5,0.3,0.6,0.5
		c0.2,0.2,0.3,0.4,0.4,0.7c0.1,0.3,0.2,0.5,0.1,0.8v0.1v0.1h-3.6c0,0.2,0.1,0.4,0.2,0.6s0.2,0.3,0.3,0.5c0.1,0.1,0.3,0.2,0.5,0.3
		c0.2,0.1,0.4,0.1,0.6,0.1c0.1,0,0.3,0,0.4-0.1c0.1,0,0.3-0.1,0.4-0.1c0.1-0.1,0.2-0.1,0.3-0.2c0.1-0.1,0.2-0.2,0.2-0.3l0.5,0.1
		c-0.1,0.2-0.2,0.3-0.3,0.4c-0.1,0.1-0.3,0.2-0.4,0.3c-0.2,0.1-0.3,0.2-0.5,0.2C339.1,365.1,338.9,365.1,338.7,365.1z M340.2,362.7
		c0-0.2-0.1-0.4-0.2-0.6s-0.2-0.3-0.3-0.5c-0.3-0.3-0.6-0.4-1-0.4c-0.2,0-0.4,0-0.6,0.1s-0.3,0.2-0.5,0.3c-0.1,0.1-0.3,0.3-0.3,0.5
		c-0.1,0.2-0.1,0.4-0.1,0.6H340.2z"/>
	<path class="st9" d="M342.6,365.1c-0.2,0-0.4,0-0.5-0.1c-0.2-0.1-0.3-0.2-0.4-0.3c-0.3-0.2-0.4-0.6-0.4-0.9c0-0.2,0-0.3,0.1-0.5
		s0.2-0.3,0.4-0.4c0.2-0.1,0.4-0.2,0.5-0.3c0.2-0.1,0.5-0.1,0.7-0.1s0.4,0,0.6,0.1c0.2,0,0.4,0.1,0.6,0.2v-0.4
		c0-0.3-0.1-0.6-0.3-0.9c-0.2-0.2-0.5-0.3-0.9-0.3c-0.2,0-0.4,0-0.7,0.1c-0.2,0.1-0.5,0.2-0.7,0.4l-0.2-0.4c0.5-0.3,1-0.5,1.6-0.5
		c0.5,0,0.9,0.1,1.2,0.4c0.3,0.3,0.5,0.8,0.5,1.2v1.9c0,0.1,0.1,0.2,0.2,0.2v0.4h-0.2c-0.1,0-0.2,0-0.3-0.1
		c-0.1-0.1-0.1-0.2-0.1-0.3v-0.3c-0.2,0.2-0.4,0.4-0.7,0.6C343.3,365,343,365.1,342.6,365.1z M342.8,364.7c0.3,0,0.5-0.1,0.8-0.2
		c0.2-0.1,0.4-0.2,0.5-0.4c0,0,0.1-0.1,0.1-0.2s0-0.1,0-0.2V363c-0.2-0.1-0.4-0.1-0.6-0.2c-0.2,0-0.4-0.1-0.6-0.1
		c-0.3,0-0.7,0.1-0.9,0.2c-0.2,0.1-0.4,0.4-0.4,0.6c0,0.1,0,0.2,0.1,0.4c0.1,0.1,0.1,0.2,0.2,0.3c0.1,0.1,0.2,0.2,0.3,0.2
		C342.5,364.7,342.6,364.7,342.8,364.7L342.8,364.7z"/>
	<path class="st9" d="M347.3,365.1c-0.3,0-0.7,0-1-0.2c-0.3-0.1-0.6-0.3-0.8-0.5l0.3-0.4c0.2,0.2,0.5,0.3,0.7,0.4s0.5,0.1,0.8,0.1
		s0.6-0.1,0.8-0.2c0.2-0.1,0.3-0.3,0.3-0.6c0-0.1,0-0.2-0.1-0.3c-0.1-0.1-0.1-0.2-0.2-0.2c-0.1-0.1-0.3-0.1-0.4-0.2l-0.5-0.1
		l-0.6-0.2c-0.2,0-0.3-0.1-0.4-0.2s-0.2-0.2-0.3-0.3c-0.1-0.1-0.1-0.3-0.1-0.4c0-0.2,0-0.4,0.1-0.5c0.1-0.2,0.2-0.3,0.3-0.4
		c0.2-0.1,0.3-0.2,0.5-0.2c0.2-0.1,0.4-0.1,0.6-0.1c0.3,0,0.6,0.1,0.9,0.2c0.2,0.1,0.5,0.2,0.6,0.4l-0.3,0.3
		c-0.2-0.2-0.3-0.3-0.6-0.4c-0.2-0.1-0.5-0.1-0.7-0.1c-0.1,0-0.3,0-0.4,0s-0.2,0.1-0.3,0.1c-0.1,0.1-0.2,0.1-0.2,0.2
		c-0.1,0.1-0.1,0.2-0.1,0.4c0,0.1,0,0.2,0.1,0.3c0,0.1,0.1,0.1,0.2,0.2s0.2,0.1,0.3,0.1l0.5,0.1l0.7,0.2c0.2,0.1,0.3,0.1,0.5,0.2
		c0.1,0.1,0.2,0.2,0.3,0.3c0.1,0.1,0.1,0.3,0.1,0.5c0,0.4-0.2,0.7-0.4,0.9C348.2,365,347.7,365.1,347.3,365.1z"/>
	<path class="st9" d="M351.6,365.1c-0.3,0-0.6-0.1-0.8-0.2c-0.2-0.1-0.5-0.3-0.7-0.5s-0.3-0.4-0.4-0.7c-0.1-0.3-0.2-0.6-0.2-0.8
		c0-0.3,0.1-0.6,0.2-0.8c0.1-0.3,0.2-0.5,0.4-0.7c0.2-0.2,0.4-0.4,0.7-0.5c0.5-0.2,1.1-0.2,1.7,0c0.2,0.1,0.5,0.3,0.6,0.5
		c0.4,0.4,0.6,0.9,0.6,1.5v0.1v0.1h-3.6c0,0.2,0.1,0.4,0.2,0.6s0.2,0.3,0.3,0.5c0.1,0.1,0.3,0.2,0.5,0.3c0.2,0.1,0.4,0.1,0.6,0.1
		c0.1,0,0.3,0,0.4-0.1c0.1,0,0.3-0.1,0.4-0.1c0.1-0.1,0.2-0.1,0.3-0.2c0.1-0.1,0.2-0.2,0.2-0.3l0.5,0.1c-0.1,0.2-0.2,0.3-0.3,0.4
		c-0.1,0.1-0.3,0.2-0.4,0.3c-0.2,0.1-0.3,0.2-0.5,0.2C352,365.1,351.8,365.1,351.6,365.1z M353.2,362.7c0-0.4-0.2-0.8-0.5-1.1
		c-0.3-0.3-0.6-0.4-1-0.4c-0.2,0-0.4,0-0.6,0.1s-0.3,0.2-0.5,0.3c-0.1,0.1-0.3,0.3-0.3,0.5c-0.1,0.2-0.1,0.4-0.1,0.6H353.2z"/>
	<path class="st9" d="M358.6,364.8l-0.1,0.1l-0.2,0.1h-0.2c-0.1,0-0.2,0-0.3,0c-0.1,0-0.2,0-0.3,0c-0.1,0-0.2-0.1-0.3-0.1
		c-0.1-0.1-0.1-0.2-0.2-0.3c0-0.1-0.1-0.2-0.1-0.4v-3h-0.6v-0.4h0.6v-1.4h0.5v1.4h1v0.4h-1v2.8c0,0.1,0.1,0.3,0.2,0.3
		c0.1,0.1,0.2,0.1,0.3,0.1c0.1,0,0.3,0,0.4-0.1l0.2-0.1L358.6,364.8z"/>
	<path class="st9" d="M360.9,365.1c-0.3,0-0.6-0.1-0.8-0.2c-0.2-0.1-0.5-0.3-0.6-0.5c-0.2-0.2-0.3-0.4-0.4-0.7
		c-0.1-0.3-0.2-0.5-0.1-0.8c0-0.3,0.1-0.6,0.2-0.8c0.1-0.3,0.2-0.5,0.4-0.7c0.2-0.2,0.4-0.4,0.6-0.5c0.3-0.1,0.5-0.2,0.8-0.2
		s0.6,0.1,0.8,0.2c0.2,0.1,0.5,0.3,0.7,0.5s0.3,0.4,0.4,0.7c0.1,0.3,0.2,0.5,0.2,0.8s0,0.6-0.1,0.8c-0.1,0.3-0.2,0.5-0.4,0.7
		c-0.2,0.2-0.4,0.4-0.7,0.5C361.5,365.1,361.2,365.1,360.9,365.1z M359.4,363c0,0.2,0,0.4,0.1,0.6s0.2,0.4,0.3,0.5
		c0.1,0.2,0.3,0.3,0.5,0.4s0.4,0.1,0.6,0.1s0.4,0,0.6-0.1s0.3-0.2,0.5-0.4c0.1-0.2,0.3-0.3,0.3-0.5c0.2-0.4,0.2-0.9,0-1.3
		c-0.1-0.2-0.2-0.4-0.3-0.5c-0.1-0.2-0.3-0.3-0.5-0.4s-0.4-0.1-0.6-0.1s-0.4,0-0.6,0.1s-0.3,0.2-0.5,0.4c-0.1,0.2-0.3,0.3-0.3,0.5
		C359.5,362.6,359.4,362.8,359.4,363z"/>
	<path class="st9" d="M366,365.1c-0.3,0-0.7-0.1-0.9-0.3c-0.3-0.2-0.5-0.4-0.6-0.7v2.6H364v-5.9h0.5v0.8c0.2-0.3,0.4-0.5,0.7-0.6
		c0.3-0.2,0.6-0.2,0.9-0.2s0.5,0.1,0.8,0.2c0.2,0.1,0.4,0.3,0.6,0.5s0.3,0.4,0.4,0.7c0.1,0.3,0.2,0.5,0.1,0.8c0,0.3,0,0.6-0.1,0.8
		c-0.1,0.3-0.2,0.5-0.4,0.7c-0.2,0.2-0.4,0.4-0.6,0.5C366.5,365.1,366.3,365.1,366,365.1z M365.9,364.6c0.2,0,0.4,0,0.6-0.1
		s0.3-0.2,0.5-0.4c0.1-0.2,0.2-0.3,0.3-0.5c0.1-0.2,0.1-0.4,0.1-0.6s0-0.4-0.1-0.6s-0.2-0.4-0.3-0.5c-0.1-0.2-0.3-0.3-0.5-0.4
		s-0.4-0.1-0.6-0.1s-0.3,0-0.4,0.1s-0.3,0.1-0.4,0.2s-0.2,0.2-0.3,0.3c-0.1,0.1-0.1,0.3-0.2,0.4v1.3c0.1,0.1,0.1,0.3,0.2,0.4
		s0.2,0.2,0.3,0.3c0.1,0.1,0.3,0.2,0.4,0.2C365.5,364.6,365.7,364.6,365.9,364.6L365.9,364.6z"/>
	<path class="st9" d="M370.9,360v-0.8h0.5v0.8H370.9z M370.9,365v-4.2h0.5v4.2H370.9z"/>
	<path class="st9" d="M374.6,364.8l-0.1,0.1l-0.2,0.1H374c-0.1,0-0.2,0-0.3,0c-0.1,0-0.2,0-0.3,0c-0.1,0-0.2-0.1-0.3-0.1
		c-0.1-0.1-0.1-0.2-0.2-0.3c0-0.1-0.1-0.2-0.1-0.4v-3h-0.6v-0.4h0.6v-1.4h0.5v1.4h1v0.4h-1v2.8c0,0.1,0.1,0.3,0.2,0.3
		c0.1,0.1,0.2,0.1,0.3,0.1c0.1,0,0.3,0,0.4-0.1l0.2-0.1L374.6,364.8z"/>
	<path class="st9" d="M378.7,365.1c-0.4,0-0.8-0.1-1-0.5s-0.4-0.9-0.3-1.4v-2.5h0.5v2.4c0,0.9,0.3,1.4,1,1.4c0.2,0,0.3,0,0.5-0.1
		s0.3-0.1,0.4-0.2s0.2-0.2,0.4-0.4c0.1-0.1,0.2-0.3,0.3-0.5v-2.6h0.5v3.5c0,0.1,0.1,0.2,0.2,0.2v0.5H381h-0.1
		c-0.1,0-0.2-0.1-0.3-0.1c-0.1-0.1-0.1-0.2-0.1-0.3V364c-0.2,0.3-0.4,0.6-0.7,0.8C379.4,365,379,365.1,378.7,365.1z"/>
	<path class="st9" d="M384.2,365.1c-0.3,0-0.7-0.1-0.9-0.3c-0.3-0.2-0.5-0.4-0.6-0.7v2.6h-0.5v-5.9h0.5v0.8c0.2-0.3,0.4-0.5,0.7-0.6
		c0.3-0.2,0.6-0.2,0.9-0.2s0.5,0.1,0.8,0.2c0.2,0.1,0.4,0.3,0.6,0.5s0.3,0.4,0.4,0.7c0.1,0.3,0.2,0.5,0.1,0.8c0,0.3,0,0.6-0.1,0.8
		c-0.1,0.3-0.2,0.5-0.4,0.7c-0.2,0.2-0.4,0.4-0.6,0.5C384.8,365.1,384.5,365.1,384.2,365.1z M384.1,364.6c0.2,0,0.4,0,0.6-0.1
		s0.3-0.2,0.5-0.4c0.1-0.2,0.2-0.3,0.3-0.5c0.1-0.2,0.1-0.4,0.1-0.6s0-0.4-0.1-0.6s-0.2-0.4-0.3-0.5c-0.1-0.2-0.3-0.3-0.5-0.4
		s-0.4-0.1-0.6-0.1s-0.3,0-0.4,0.1s-0.3,0.1-0.4,0.2s-0.2,0.2-0.3,0.3c-0.1,0.1-0.1,0.3-0.2,0.4v1.3c0.1,0.1,0.1,0.3,0.2,0.4
		s0.2,0.2,0.3,0.3c0.1,0.1,0.3,0.2,0.4,0.2C383.8,364.6,383.9,364.6,384.1,364.6L384.1,364.6z"/>
	<path class="st9" d="M387,365v-0.8h0.5v0.8H387z"/>
	<rect x="296.5" y="321.4" class="st10" width="149.5" height="1.3"/>
	
		<linearGradient id="SVGID_1_" gradientUnits="userSpaceOnUse" x1="189.5" y1="778.05" x2="332" y2="778.05" gradientTransform="matrix(1 0 0 1 0 -456)">
		<stop  offset="0" style="stop-color:#3A85C6"/>
		<stop  offset="0.12" style="stop-color:#3F86C1"/>
		<stop  offset="0.27" style="stop-color:#4E8BB3"/>
		<stop  offset="0.43" style="stop-color:#66929D"/>
		<stop  offset="0.6" style="stop-color:#899C7D"/>
		<stop  offset="0.78" style="stop-color:#B5A854"/>
		<stop  offset="0.96" style="stop-color:#E9B823"/>
		<stop  offset="1" style="stop-color:#F5BB18"/>
	</linearGradient>
	<rect x="189.5" y="321.4" class="st11" width="142.5" height="1.3"/>
	<circle class="st12" cx="334" cy="322" r="6"/>
	<text transform="matrix(1 0 0 1 326.45 338.33)" class="st0 st13 st14">100</text>
	<path class="st6" d="M195,289.8c-0.2-0.3-0.5-0.5-0.9-0.6c-0.4-0.2-0.8-0.2-1.3-0.2s-1.1,0.1-1.5,0.4c-0.3,0.3-0.5,0.7-0.5,1.1
		c0,0.2,0,0.4,0.1,0.6s0.2,0.3,0.4,0.4s0.4,0.2,0.7,0.3c0.3,0.1,0.6,0.2,1,0.2c0.4,0.1,0.8,0.2,1.1,0.3c0.3,0.1,0.6,0.2,0.9,0.4
		c0.2,0.2,0.4,0.4,0.5,0.6c0.1,0.3,0.2,0.6,0.2,0.9s-0.1,0.6-0.2,0.9c-0.1,0.3-0.3,0.5-0.6,0.7s-0.6,0.3-0.9,0.4
		c-0.4,0.1-0.7,0.1-1.1,0.1c-1.1,0-2.3-0.4-3.1-1.1l0.4-0.6c0.2,0.2,0.3,0.3,0.5,0.4s0.4,0.3,0.6,0.4c0.2,0.1,0.5,0.2,0.8,0.2
		c0.3,0.1,0.6,0.1,0.9,0.1c0.5,0,1-0.1,1.4-0.3c0.3-0.2,0.5-0.6,0.5-1c0-0.2,0-0.4-0.1-0.6s-0.3-0.3-0.4-0.4
		c-0.2-0.1-0.5-0.2-0.7-0.3c-0.3-0.1-0.6-0.2-1-0.3c-0.4-0.1-0.7-0.2-1.1-0.3c-0.3-0.1-0.5-0.2-0.8-0.4c-0.2-0.1-0.4-0.3-0.5-0.5
		s-0.2-0.5-0.2-0.8s0.1-0.7,0.2-1c0.1-0.3,0.3-0.5,0.6-0.7s0.6-0.3,0.9-0.4c0.4-0.1,0.7-0.2,1.1-0.1c0.5,0,0.9,0.1,1.4,0.2
		c0.4,0.2,0.8,0.4,1.1,0.7L195,289.8z"/>
	<path class="st6" d="M199.4,296.2c-0.4,0-0.8-0.1-1.1-0.2c-0.3-0.2-0.6-0.4-0.9-0.6c-0.3-0.3-0.5-0.6-0.6-1s-0.2-0.8-0.2-1.1
		c0-0.4,0.1-0.8,0.2-1.1c0.1-0.3,0.3-0.7,0.6-0.9c0.3-0.3,0.6-0.5,0.9-0.6c1.1-0.5,2.4-0.2,3.2,0.6c0.5,0.5,0.8,1.3,0.8,2v0.2v0.1
		h-4.9c0,0.3,0.1,0.6,0.2,0.9c0.1,0.2,0.3,0.5,0.5,0.7s0.4,0.3,0.6,0.4c0.2,0.1,0.5,0.2,0.8,0.2c0.2,0,0.4,0,0.6-0.1
		c0.2,0,0.3-0.1,0.5-0.2s0.3-0.2,0.4-0.3c0.1-0.1,0.2-0.3,0.3-0.4l0.6,0.2c-0.1,0.2-0.2,0.4-0.4,0.6s-0.4,0.3-0.6,0.5
		c-0.2,0.1-0.5,0.2-0.7,0.3C200,296.2,199.7,296.2,199.4,296.2z M201.5,293c0-0.3-0.1-0.6-0.2-0.8c-0.1-0.2-0.3-0.5-0.5-0.6
		c-0.2-0.2-0.4-0.3-0.6-0.4c-0.2-0.1-0.5-0.2-0.8-0.1c-0.5,0-1.1,0.2-1.4,0.6c-0.2,0.2-0.3,0.4-0.4,0.7c-0.1,0.3-0.2,0.5-0.2,0.8
		h4.1V293z"/>
	<path class="st6" d="M206.1,295.8l-0.2,0.1l-0.3,0.1l-0.4,0.1c-0.1,0-0.3,0-0.4,0c-0.2,0-0.3,0-0.5-0.1c-0.1,0-0.3-0.1-0.4-0.2
		c-0.1-0.1-0.2-0.2-0.3-0.3c-0.1-0.2-0.1-0.3-0.1-0.5v-4h-0.8v-0.6h0.8v-1.9h0.8v1.9h1.3v0.6h-1.3v3.9c0,0.2,0.1,0.4,0.2,0.5
		c0.1,0.1,0.3,0.2,0.5,0.1c0.2,0,0.4,0,0.6-0.1l0.3-0.1L206.1,295.8z"/>
	<path class="st6" d="M212.6,295.8l-0.2,0.1l-0.3,0.1l-0.4,0.1c-0.1,0-0.3,0-0.4,0c-0.2,0-0.3,0-0.5-0.1c-0.1,0-0.3-0.1-0.4-0.2
		c-0.1-0.1-0.2-0.2-0.3-0.3c-0.1-0.2-0.1-0.3-0.1-0.5v-4h-0.8v-0.6h0.8v-1.9h0.8v1.9h1.3v0.6h-1.3v3.9c0,0.2,0.1,0.4,0.2,0.5
		c0.1,0.1,0.3,0.2,0.5,0.1c0.2,0,0.4,0,0.6-0.1l0.3-0.1L212.6,295.8z"/>
	<path class="st6" d="M218.3,296.1h-0.8v-3.2c0-0.5-0.1-1-0.3-1.5c-0.2-0.3-0.6-0.5-1-0.5c-0.2,0-0.4,0-0.6,0.1
		c-0.2,0.1-0.4,0.2-0.6,0.4c-0.2,0.1-0.3,0.3-0.5,0.5c-0.1,0.2-0.2,0.4-0.3,0.6v3.5h-0.8v-8h0.8v3.6c0.2-0.4,0.5-0.8,0.9-1
		s0.8-0.4,1.3-0.4c0.3,0,0.6,0.1,0.8,0.2s0.4,0.3,0.6,0.5c0.2,0.2,0.3,0.5,0.3,0.8c0.1,0.3,0.1,0.7,0.1,1L218.3,296.1z"/>
	<path class="st6" d="M222.8,291.1c-0.5,0-0.9,0.2-1.3,0.4c-0.4,0.3-0.7,0.6-0.8,1.1v3.5h-0.8v-5.7h0.7v1.4c0.2-0.4,0.5-0.7,0.9-1
		c0.3-0.2,0.7-0.4,1.1-0.4h0.1L222.8,291.1z"/>
	<path class="st6" d="M225.9,296.2c-0.4,0-0.8-0.1-1.1-0.2c-0.3-0.2-0.6-0.4-0.9-0.6c-0.3-0.3-0.5-0.6-0.6-1s-0.2-0.8-0.2-1.1
		c0-0.4,0.1-0.8,0.2-1.1c0.1-0.3,0.3-0.7,0.6-0.9c0.3-0.3,0.6-0.5,0.9-0.6c1.1-0.5,2.4-0.2,3.2,0.6c0.5,0.5,0.8,1.3,0.8,2v0.2v0.1
		h-4.9c0,0.3,0.1,0.6,0.2,0.9c0.1,0.2,0.3,0.5,0.5,0.7s0.4,0.3,0.6,0.4c0.2,0.1,0.5,0.2,0.8,0.2c0.2,0,0.4,0,0.6-0.1
		c0.2,0,0.3-0.1,0.5-0.2s0.3-0.2,0.4-0.3c0.1-0.1,0.2-0.3,0.3-0.4l0.6,0.2c-0.1,0.2-0.2,0.4-0.4,0.6s-0.4,0.3-0.6,0.5
		c-0.2,0.1-0.5,0.2-0.7,0.3C226.5,296.2,226.2,296.2,225.9,296.2z M228,293c0-0.3-0.1-0.6-0.2-0.8c-0.1-0.2-0.3-0.5-0.5-0.6
		c-0.2-0.2-0.4-0.3-0.6-0.4c-0.2-0.1-0.5-0.2-0.8-0.1c-0.5,0-1.1,0.2-1.4,0.6c-0.2,0.2-0.3,0.4-0.4,0.7c-0.1,0.3-0.2,0.5-0.2,0.8
		h4.1V293z"/>
	<path class="st6" d="M231.8,296.2c-0.4,0-0.9-0.1-1.3-0.2c-0.4-0.1-0.8-0.4-1.1-0.6l0.3-0.5c0.3,0.2,0.6,0.4,1,0.6
		c0.3,0.1,0.7,0.2,1.1,0.2c0.4,0,0.8-0.1,1.1-0.3c0.3-0.2,0.4-0.5,0.4-0.8c0-0.1,0-0.3-0.1-0.4s-0.2-0.2-0.3-0.3
		c-0.2-0.1-0.4-0.2-0.5-0.2l-0.8-0.2c-0.3-0.1-0.6-0.2-0.9-0.2c-0.2-0.1-0.4-0.2-0.6-0.3c-0.1-0.1-0.3-0.2-0.4-0.4
		c-0.1-0.2-0.1-0.4-0.1-0.6c0-0.3,0.1-0.5,0.2-0.8c0.1-0.2,0.3-0.4,0.5-0.5s0.4-0.3,0.7-0.3c0.3-0.1,0.5-0.1,0.8-0.1
		c0.4,0,0.8,0.1,1.2,0.2c0.3,0.1,0.6,0.3,0.9,0.6l-0.4,0.4c-0.2-0.2-0.5-0.4-0.8-0.5s-0.6-0.2-0.9-0.2c-0.2,0-0.4,0-0.6,0.1
		c-0.2,0-0.3,0.1-0.4,0.2c-0.1,0.1-0.2,0.2-0.3,0.3c-0.1,0.1-0.1,0.3-0.1,0.5c0,0.1,0,0.3,0.1,0.4s0.1,0.2,0.3,0.3
		c0.1,0.1,0.3,0.1,0.4,0.2l0.6,0.2c0.4,0.1,0.7,0.2,1,0.3c0.2,0.1,0.5,0.2,0.7,0.3c0.4,0.2,0.6,0.6,0.6,1c0,0.5-0.2,1-0.6,1.3
		C233,296.1,232.4,296.3,231.8,296.2z"/>
	<path class="st6" d="M240,296.1h-0.8v-3.2c0-0.5-0.1-1-0.3-1.5c-0.2-0.3-0.6-0.5-1-0.5c-0.2,0-0.4,0-0.6,0.1
		c-0.2,0.1-0.4,0.2-0.6,0.4c-0.2,0.1-0.3,0.3-0.5,0.5c-0.1,0.2-0.2,0.4-0.3,0.6v3.5h-0.8v-8h0.8v3.6c0.2-0.4,0.5-0.8,0.9-1
		s0.8-0.4,1.3-0.4c0.3,0,0.6,0.1,0.8,0.2s0.4,0.3,0.6,0.5c0.2,0.2,0.3,0.5,0.3,0.8c0.1,0.3,0.1,0.7,0.1,1L240,296.1z"/>
	<path class="st6" d="M244.1,296.2c-0.4,0-0.8-0.1-1.1-0.2c-0.3-0.2-0.6-0.4-0.9-0.6c-0.3-0.3-0.5-0.6-0.6-0.9
		c-0.1-0.4-0.2-0.7-0.2-1.1s0.1-0.8,0.2-1.1c0.1-0.3,0.3-0.7,0.6-0.9c0.3-0.3,0.6-0.5,0.9-0.6c0.4-0.2,0.7-0.2,1.1-0.2
		c0.4,0,0.8,0.1,1.1,0.2c0.3,0.2,0.6,0.4,0.9,0.6c0.3,0.3,0.5,0.6,0.6,0.9c0.1,0.4,0.2,0.8,0.2,1.1c0,0.4-0.1,0.8-0.2,1.1
		c-0.1,0.3-0.3,0.7-0.6,0.9c-0.3,0.3-0.6,0.5-0.9,0.6C244.8,296.1,244.4,296.2,244.1,296.2z M242,293.3c0,0.3,0.1,0.6,0.2,0.9
		c0.1,0.3,0.3,0.5,0.4,0.7c0.2,0.2,0.4,0.4,0.7,0.5s0.5,0.2,0.8,0.2s0.6-0.1,0.8-0.2s0.5-0.3,0.7-0.5s0.3-0.5,0.4-0.7
		c0.2-0.6,0.2-1.2,0-1.8c-0.1-0.3-0.3-0.5-0.4-0.7c-0.2-0.2-0.4-0.4-0.7-0.5s-0.5-0.2-0.8-0.2s-0.6,0.1-0.8,0.2
		c-0.3,0.1-0.5,0.3-0.7,0.5s-0.3,0.5-0.4,0.7C242.1,292.7,242,293,242,293.3z"/>
	<path class="st6" d="M248.2,288.1h0.8v6.7c0,0.2,0,0.4,0.2,0.5c0.1,0.1,0.3,0.2,0.5,0.2h0.3l0.3-0.1l0.1,0.6
		c-0.2,0.1-0.3,0.1-0.5,0.1s-0.3,0-0.5,0c-0.3,0-0.6-0.1-0.8-0.3c-0.2-0.2-0.3-0.5-0.3-0.8v-6.9H248.2z"/>
	<path class="st6" d="M253.5,296.2c-0.4,0-0.8-0.1-1.1-0.3c-0.3-0.2-0.6-0.4-0.9-0.6c-0.2-0.3-0.4-0.6-0.6-0.9
		c-0.1-0.4-0.2-0.7-0.2-1.1s0.1-0.8,0.2-1.1c0.1-0.3,0.3-0.7,0.5-1s0.5-0.5,0.8-0.6c0.3-0.2,0.7-0.2,1-0.2c0.5,0,0.9,0.1,1.3,0.4
		c0.4,0.2,0.7,0.6,0.9,0.9v-3.5h0.8v7c0,0.2,0.1,0.3,0.3,0.3v0.7h-0.3c-0.2,0-0.3-0.1-0.5-0.2c-0.1-0.1-0.2-0.3-0.2-0.4V295
		c-0.2,0.4-0.5,0.7-0.9,0.9C254.3,296.1,253.9,296.2,253.5,296.2z M253.6,295.6c0.2,0,0.4,0,0.6-0.1c0.2-0.1,0.4-0.2,0.6-0.3
		c0.2-0.1,0.3-0.3,0.5-0.5c0.1-0.2,0.2-0.3,0.2-0.5v-1.8c-0.1-0.2-0.2-0.4-0.3-0.5c-0.1-0.2-0.3-0.3-0.5-0.5
		c-0.2-0.1-0.4-0.2-0.6-0.3c-0.2-0.1-0.4-0.1-0.6-0.1c-0.3,0-0.6,0.1-0.8,0.2s-0.5,0.3-0.6,0.5c-0.2,0.2-0.3,0.5-0.4,0.7
		c-0.1,0.3-0.1,0.6-0.1,0.9c0,0.6,0.2,1.2,0.6,1.6c0.2,0.2,0.4,0.4,0.7,0.5C253.1,295.5,253.4,295.6,253.6,295.6L253.6,295.6z"/>
	<g id="line" class="st15">
		<rect id="line2" x="62" y="28.3" class="st0" width="61" height="1.4"/>
	</g>
</g>
</svg>
