<svg xmlns="http://www.w3.org/2000/svg" viewBox="0 0 133.41 64.65"><defs><style>.cls-1{fill:#3a85c6}.cls-2{fill:#f3f3f3}.cls-3{fill:#fff;stroke:#b4b4b4;stroke-width:.5px}.cls-4{fill:#898989}</style></defs><title>thresh1</title><g id="Layer_2" data-name="Layer 2"><g id="Layer_1-2" data-name="Layer 1"><rect class="cls-1" x=".25" y="44.1" width="132.91" height="20.55" rx="7.5" ry="7.5"/><path class="cls-2" d="M20.68 50.05h.65l3.23 7.78h-.81l-1-2.43h-3.5l-1 2.43h-.82zm1.89 4.75L21 51l-1.59 3.8zm5.14 3.15a2.47 2.47 0 0 1-1.1-.25 2.8 2.8 0 0 1-.87-.65 3 3 0 0 1-.56-.94A3.08 3.08 0 0 1 25 55a3.32 3.32 0 0 1 .2-1.15 3.06 3.06 0 0 1 .54-.95 2.55 2.55 0 0 1 .82-.64 2.33 2.33 0 0 1 1-.24 2.24 2.24 0 0 1 1.28.38 2.87 2.87 0 0 1 .88.92v-3.49h.75v7c0 .21.09.31.26.31v.66h-.26a.68.68 0 0 1-.47-.1.53.53 0 0 1-.2-.41v-.56a2.5 2.5 0 0 1-.92.89 2.42 2.42 0 0 1-1.17.33zm.16-.66a1.8 1.8 0 0 0 .59-.11 2.41 2.41 0 0 0 .59-.3 2 2 0 0 0 .47-.45 1.22 1.22 0 0 0 .24-.55v-1.77a2 2 0 0 0-.32-.55 2.57 2.57 0 0 0-.44-.46 2.25 2.25 0 0 0-.58-.31 1.79 1.79 0 0 0-.6-.11 1.76 1.76 0 0 0-.83.2 2.11 2.11 0 0 0-.64.52 2.3 2.3 0 0 0-.41.74 2.61 2.61 0 0 0-.14.86 2.39 2.39 0 0 0 .61 1.61 2.16 2.16 0 0 0 .67.5 1.91 1.91 0 0 0 .8.18zm6.66.66a2.47 2.47 0 0 1-1.1-.25 2.8 2.8 0 0 1-.87-.65 3 3 0 0 1-.56-.94 3.08 3.08 0 0 1-.2-1.11 3.32 3.32 0 0 1 .2-1.15 3.06 3.06 0 0 1 .54-.95 2.55 2.55 0 0 1 .82-.64 2.33 2.33 0 0 1 1-.24 2.24 2.24 0 0 1 1.28.38 2.87 2.87 0 0 1 .88.92v-3.49h.75v7c0 .21.09.31.26.31v.66h-.26a.68.68 0 0 1-.46-.17.53.53 0 0 1-.2-.41v-.56a2.5 2.5 0 0 1-.92.89 2.42 2.42 0 0 1-1.16.4zm.16-.66a1.8 1.8 0 0 0 .59-.11 2.41 2.41 0 0 0 .59-.3 2 2 0 0 0 .47-.45 1.22 1.22 0 0 0 .24-.55v-1.77a2 2 0 0 0-.32-.55 2.57 2.57 0 0 0-.48-.46 2.25 2.25 0 0 0-.58-.31 1.79 1.79 0 0 0-.6-.11 1.76 1.76 0 0 0-.83.2 2.11 2.11 0 0 0-.64.52 2.3 2.3 0 0 0-.41.74 2.61 2.61 0 0 0-.14.86 2.39 2.39 0 0 0 .61 1.61 2.16 2.16 0 0 0 .67.5 1.91 1.91 0 0 0 .83.18zm10.02.66a2.26 2.26 0 0 1-1.28-.37 2.92 2.92 0 0 1-.89-.93v3.52h-.74v-8h.67v1.11a2.77 2.77 0 0 1 .91-.87 2.33 2.33 0 0 1 1.21-.41 2.38 2.38 0 0 1 1.08.25 2.78 2.78 0 0 1 .86.66 3.06 3.06 0 0 1 .56.95A3.12 3.12 0 0 1 47.3 55a3.46 3.46 0 0 1-.19 1.14 2.91 2.91 0 0 1-.53.94 2.55 2.55 0 0 1-.82.64 2.33 2.33 0 0 1-1.05.23zm-.21-.66a1.79 1.79 0 0 0 .84-.2 2.1 2.1 0 0 0 .65-.52 2.33 2.33 0 0 0 .41-.73 2.59 2.59 0 0 0 .14-.85 2.37 2.37 0 0 0-.16-.88 2.44 2.44 0 0 0-.45-.73 2.15 2.15 0 0 0-.67-.5 1.92 1.92 0 0 0-.84-.19 1.74 1.74 0 0 0-.6.12 2.47 2.47 0 0 0-.58.31 2.06 2.06 0 0 0-.46.45 1.21 1.21 0 0 0-.24.54v1.75a2.65 2.65 0 0 0 .33.57 2.36 2.36 0 0 0 .46.46 2.21 2.21 0 0 0 .55.3 1.77 1.77 0 0 0 .62.1zm8.86.55h-.75v-3.19a2.58 2.58 0 0 0-.33-1.46 1.12 1.12 0 0 0-1-.48 1.67 1.67 0 0 0-.63.13 2.31 2.31 0 0 0-.59.35 2.35 2.35 0 0 0-.48.51 2.16 2.16 0 0 0-.3.65v3.5h-.75v-8h.75v3.58a2.59 2.59 0 0 1 .94-1 2.43 2.43 0 0 1 1.3-.37 1.76 1.76 0 0 1 .83.18 1.55 1.55 0 0 1 .56.5 2.2 2.2 0 0 1 .32.78 4.7 4.7 0 0 1 .1 1zm4.02.11a2.71 2.71 0 0 1-1.14-.24 2.81 2.81 0 0 1-.89-.64 2.88 2.88 0 0 1-.59-.94 3.1 3.1 0 0 1-.2-1.13 3.06 3.06 0 0 1 .21-1.14 3 3 0 0 1 .59-.94 2.87 2.87 0 0 1 .89-.65 2.62 2.62 0 0 1 1.13-.27 2.66 2.66 0 0 1 1.13.24 2.85 2.85 0 0 1 .9.65 3 3 0 0 1 .59.94 3.06 3.06 0 0 1 .22 1.17 3.1 3.1 0 0 1-.22 1.13 2.91 2.91 0 0 1-.59.94 2.79 2.79 0 0 1-.9.64 2.75 2.75 0 0 1-1.13.24zM55.31 55a2.37 2.37 0 0 0 .17.89 2.43 2.43 0 0 0 .44.72 2 2 0 0 0 .66.49 1.89 1.89 0 0 0 .81.18 1.85 1.85 0 0 0 .81-.18 2.15 2.15 0 0 0 .66-.49 2.35 2.35 0 0 0 .45-.73 2.53 2.53 0 0 0 0-1.79 2.34 2.34 0 0 0-.45-.73 2.13 2.13 0 0 0-.66-.49 1.84 1.84 0 0 0-.81-.18 1.81 1.81 0 0 0-.8.18 2.11 2.11 0 0 0-.66.5 2.39 2.39 0 0 0-.45.74 2.45 2.45 0 0 0-.17.89zm10.96 2.84h-.75v-3.19a2.78 2.78 0 0 0-.3-1.48 1 1 0 0 0-.93-.46 1.91 1.91 0 0 0-.66.12 2.26 2.26 0 0 0-.61.34 2.63 2.63 0 0 0-.5.52 2 2 0 0 0-.32.65v3.5h-.75v-5.71h.68v1.29a2.68 2.68 0 0 1 1-1 2.75 2.75 0 0 1 1.44-.42 1.68 1.68 0 0 1 .8.18 1.37 1.37 0 0 1 .53.49 2.28 2.28 0 0 1 .28.78 5.45 5.45 0 0 1 .09 1zm4.06.11a2.75 2.75 0 0 1-1.15-.24 2.82 2.82 0 0 1-.9-.65 3 3 0 0 1-.6-.95 3.09 3.09 0 0 1-.21-1.11 3 3 0 0 1 .21-1.13 3 3 0 0 1 .59-.93 2.81 2.81 0 0 1 .9-.64 2.78 2.78 0 0 1 3.18.64 3 3 0 0 1 .79 2v.18a.46.46 0 0 1 0 .12h-4.89a2.39 2.39 0 0 0 .21.85 2.3 2.3 0 0 0 .47.67 2.09 2.09 0 0 0 .65.44 2 2 0 0 0 .78.16 2 2 0 0 0 .55-.08 2.21 2.21 0 0 0 .5-.21 1.87 1.87 0 0 0 .42-.32 1.38 1.38 0 0 0 .29-.42l.65.18a1.9 1.9 0 0 1-.37.58 2.61 2.61 0 0 1-.56.45 2.73 2.73 0 0 1-.7.3 3 3 0 0 1-.81.11zm2.1-3.27a2.3 2.3 0 0 0-.21-.84 2.28 2.28 0 0 0-.46-.65 2 2 0 0 0-.65-.43 2 2 0 0 0-.78-.15 2.05 2.05 0 0 0-1.44.58 2.11 2.11 0 0 0-.45.66 2.51 2.51 0 0 0-.2.83zm9.46 3.16h-.75v-3.19a2.78 2.78 0 0 0-.3-1.48 1 1 0 0 0-.93-.46 1.91 1.91 0 0 0-.66.12 2.26 2.26 0 0 0-.61.34 2.63 2.63 0 0 0-.5.52 2 2 0 0 0-.32.65v3.5h-.75v-5.71h.68v1.29a2.68 2.68 0 0 1 1-1 2.75 2.75 0 0 1 1.44-.42 1.68 1.68 0 0 1 .8.18 1.37 1.37 0 0 1 .53.49 2.28 2.28 0 0 1 .28.78 5.45 5.45 0 0 1 .09 1zm3.38.11a1.6 1.6 0 0 1-1.39-.62 3.1 3.1 0 0 1-.46-1.85v-3.35h.75v3.22q0 1.94 1.33 1.94a2 2 0 0 0 .65-.11 2.05 2.05 0 0 0 .59-.32 2.57 2.57 0 0 0 .48-.49 2.46 2.46 0 0 0 .34-.65v-3.6h.75v4.75c0 .21.09.31.26.31v.66h-.33a.59.59 0 0 1-.43-.19.66.66 0 0 1-.17-.47v-.66a2.65 2.65 0 0 1-1 1 2.7 2.7 0 0 1-1.37.43zm13.22-.11h-.75v-3.19a2.67 2.67 0 0 0-.32-1.47 1.06 1.06 0 0 0-.94-.47 1.6 1.6 0 0 0-.62.12 1.92 1.92 0 0 0-.54.34 2.33 2.33 0 0 0-.43.52 2.55 2.55 0 0 0-.29.66v3.49h-.75v-3.19a2.75 2.75 0 0 0-.31-1.48 1.06 1.06 0 0 0-.94-.46 1.68 1.68 0 0 0-1.15.45 2.51 2.51 0 0 0-.72 1.18v3.5H90v-5.71h.68v1.29a2.7 2.7 0 0 1 .92-1 2.28 2.28 0 0 1 1.25-.42 1.63 1.63 0 0 1 1.16.41 1.77 1.77 0 0 1 .53 1.06A2.44 2.44 0 0 1 96.75 52a1.74 1.74 0 0 1 .82.18 1.37 1.37 0 0 1 .54.5 2.32 2.32 0 0 1 .3.78 5 5 0 0 1 .09 1zm4.37.11a2.37 2.37 0 0 1-1.24-.34 2.5 2.5 0 0 1-.88-.88v1.11h-.67v-8h.75v3.49a3.27 3.27 0 0 1 .92-.94A2.21 2.21 0 0 1 103 52a2.27 2.27 0 0 1 1.08.25 2.54 2.54 0 0 1 .81.67 3.17 3.17 0 0 1 .51 1 3.35 3.35 0 0 1 .18 1.09 3.13 3.13 0 0 1-.21 1.14 3 3 0 0 1-.57.94 2.71 2.71 0 0 1-.86.64 2.47 2.47 0 0 1-1.08.22zm-.17-.66a1.92 1.92 0 0 0 .86-.19 2.08 2.08 0 0 0 .67-.51 2.48 2.48 0 0 0 .44-.73 2.33 2.33 0 0 0 .16-.85 2.57 2.57 0 0 0-.15-.87 2.43 2.43 0 0 0-.42-.74 2 2 0 0 0-.65-.51 1.8 1.8 0 0 0-.83-.19 1.75 1.75 0 0 0-.64.12 2.18 2.18 0 0 0-.55.31 2.54 2.54 0 0 0-.45.46 2.86 2.86 0 0 0-.33.54v1.78a1.22 1.22 0 0 0 .24.55 2 2 0 0 0 .46.44 2.4 2.4 0 0 0 .58.3 1.82 1.82 0 0 0 .61.09zm6.61.66a2.75 2.75 0 0 1-1.15-.24 2.82 2.82 0 0 1-.9-.65 3 3 0 0 1-.6-.95 3.09 3.09 0 0 1-.21-1.15 3 3 0 0 1 .21-1.13 3 3 0 0 1 .59-.93 2.81 2.81 0 0 1 .9-.64 2.78 2.78 0 0 1 3.18.64 3 3 0 0 1 .79 2v.18a.46.46 0 0 1 0 .12h-4.89a2.39 2.39 0 0 0 .21.85 2.3 2.3 0 0 0 .47.67 2.09 2.09 0 0 0 .65.44 2 2 0 0 0 .78.16 2 2 0 0 0 .55-.08 2.21 2.21 0 0 0 .5-.21 1.87 1.87 0 0 0 .42-.32 1.38 1.38 0 0 0 .29-.42l.65.18a1.9 1.9 0 0 1-.37.58 2.61 2.61 0 0 1-.56.45 2.73 2.73 0 0 1-.7.3 3 3 0 0 1-.81.15zm2.1-3.27a2.3 2.3 0 0 0-.21-.84 2.28 2.28 0 0 0-.46-.65 2 2 0 0 0-.65-.43 2 2 0 0 0-.78-.15 2.05 2.05 0 0 0-1.44.58 2.11 2.11 0 0 0-.45.66 2.51 2.51 0 0 0-.2.83zm4.71-1.9a2.36 2.36 0 0 0-1.32.42 2.1 2.1 0 0 0-.79 1.08v3.55h-.75v-5.7h.7v1.37a2.59 2.59 0 0 1 .86-1 2 2 0 0 1 1.15-.37h.14z"/><rect class="cls-3" x=".25" y=".25" width="132.91" height="23.29" rx="7.5" ry="7.5"/><path class="cls-4" d="M17.7 15.36V7.58h3.22a2 2 0 0 1 .93.21 2.45 2.45 0 0 1 .73.56 2.67 2.67 0 0 1 .48.78 2.39 2.39 0 0 1 .17.89 2.65 2.65 0 0 1-.16.93 2.5 2.5 0 0 1-.46.78 2.32 2.32 0 0 1-.71.55 2 2 0 0 1-.92.21h-2.52v2.87zm.77-3.55H21a1.3 1.3 0 0 0 .62-.15 1.51 1.51 0 0 0 .48-.39 1.84 1.84 0 0 0 .31-.57 2.08 2.08 0 0 0 .11-.67A1.89 1.89 0 0 0 22 8.77a1.56 1.56 0 0 0-.5-.38 1.4 1.4 0 0 0-.61-.14h-2.43zm10.69 3.55h-.75v-3.19a2.58 2.58 0 0 0-.33-1.46 1.12 1.12 0 0 0-1-.48 1.67 1.67 0 0 0-.63.13 2.31 2.31 0 0 0-.59.35 2.35 2.35 0 0 0-.48.51 2.16 2.16 0 0 0-.3.65v3.5h-.75v-8h.75v3.58a2.59 2.59 0 0 1 .94-1 2.43 2.43 0 0 1 1.3-.37 1.76 1.76 0 0 1 .83.18 1.55 1.55 0 0 1 .56.5 2.2 2.2 0 0 1 .32.78 4.7 4.7 0 0 1 .1 1zm4.03.11a2.71 2.71 0 0 1-1.19-.24 2.81 2.81 0 0 1-.89-.64 2.88 2.88 0 0 1-.59-.94 3.1 3.1 0 0 1-.21-1.13 3.06 3.06 0 0 1 .21-1.14 3 3 0 0 1 .59-.94 2.87 2.87 0 0 1 .89-.65 2.62 2.62 0 0 1 1.13-.24 2.66 2.66 0 0 1 1.13.24 2.85 2.85 0 0 1 .9.65 3 3 0 0 1 .59.94 3.06 3.06 0 0 1 .25 1.14 3.1 3.1 0 0 1-.21 1.13 2.91 2.91 0 0 1-.59.94 2.79 2.79 0 0 1-.9.64 2.75 2.75 0 0 1-1.11.24zm-2.07-2.94a2.37 2.37 0 0 0 .17.89 2.43 2.43 0 0 0 .44.72 2 2 0 0 0 .66.49 1.89 1.89 0 0 0 .81.18 1.85 1.85 0 0 0 .81-.18 2.15 2.15 0 0 0 .66-.49 2.35 2.35 0 0 0 .45-.73 2.53 2.53 0 0 0 0-1.79 2.34 2.34 0 0 0-.45-.73 2.13 2.13 0 0 0-.66-.49 1.84 1.84 0 0 0-.81-.18 1.81 1.81 0 0 0-.8.18 2.11 2.11 0 0 0-.66.5 2.39 2.39 0 0 0-.45.74 2.45 2.45 0 0 0-.18.89zm10.96 2.83h-.75v-3.19a2.78 2.78 0 0 0-.3-1.48 1 1 0 0 0-.93-.46 1.91 1.91 0 0 0-.66.12 2.26 2.26 0 0 0-.61.34 2.63 2.63 0 0 0-.5.52 2 2 0 0 0-.32.65v3.5h-.75V9.65H38v1.29a2.68 2.68 0 0 1 1-1 2.75 2.75 0 0 1 1.42-.38 1.68 1.68 0 0 1 .8.18 1.37 1.37 0 0 1 .53.49A2.28 2.28 0 0 1 42 11a5.45 5.45 0 0 1 .09 1zm4.05.11a2.75 2.75 0 0 1-1.13-.24 2.82 2.82 0 0 1-.9-.65 3 3 0 0 1-.6-.95 3.09 3.09 0 0 1-.21-1.15 3 3 0 0 1 .21-1.13 3 3 0 0 1 .59-.93 2.81 2.81 0 0 1 .9-.64 2.78 2.78 0 0 1 3.18.64 3 3 0 0 1 .79 2v.18a.46.46 0 0 1 0 .12H44a2.39 2.39 0 0 0 .21.85 2.3 2.3 0 0 0 .47.67 2.09 2.09 0 0 0 .65.44 2 2 0 0 0 .78.16 2 2 0 0 0 .55-.08 2.21 2.21 0 0 0 .5-.21 1.87 1.87 0 0 0 .42-.32 1.38 1.38 0 0 0 .29-.42l.65.18a1.9 1.9 0 0 1-.37.58 2.61 2.61 0 0 1-.56.45 2.73 2.73 0 0 1-.7.3 3 3 0 0 1-.76.15zm2.1-3.27a2.3 2.3 0 0 0-.21-.84 2.28 2.28 0 0 0-.46-.65 2 2 0 0 0-.65-.43 2 2 0 0 0-.78-.15 2.05 2.05 0 0 0-1.44.58 2.11 2.11 0 0 0-.45.66 2.51 2.51 0 0 0-.2.83zm9.47 3.16H57v-3.19a2.78 2.78 0 0 0-.3-1.48 1 1 0 0 0-.93-.46 1.91 1.91 0 0 0-.66.12 2.26 2.26 0 0 0-.61.34 2.63 2.63 0 0 0-.5.52 2 2 0 0 0-.32.65v3.5h-.75V9.65h.68v1.29a2.68 2.68 0 0 1 1-1A2.75 2.75 0 0 1 56 9.55a1.68 1.68 0 0 1 .8.18 1.37 1.37 0 0 1 .53.49 2.28 2.28 0 0 1 .28.78 5.45 5.45 0 0 1 .09 1zm3.37.11a1.6 1.6 0 0 1-1.39-.62 3.1 3.1 0 0 1-.45-1.85V9.65H60v3.22q0 1.94 1.33 1.94a2 2 0 0 0 .65-.11 2.05 2.05 0 0 0 .59-.32 2.57 2.57 0 0 0 .48-.49 2.46 2.46 0 0 0 .34-.65V9.65h.75v4.75c0 .21.09.31.26.31v.66H64a.59.59 0 0 1-.43-.19.66.66 0 0 1-.17-.47v-.66a2.65 2.65 0 0 1-1 1 2.7 2.7 0 0 1-1.33.42zm13.22-.11h-.75v-3.19a2.67 2.67 0 0 0-.32-1.47 1.06 1.06 0 0 0-.94-.47 1.6 1.6 0 0 0-.62.12 1.92 1.92 0 0 0-.54.34 2.33 2.33 0 0 0-.43.52 2.55 2.55 0 0 0-.29.66v3.49h-.75v-3.19a2.75 2.75 0 0 0-.31-1.48 1.06 1.06 0 0 0-.94-.46 1.68 1.68 0 0 0-1.15.45 2.51 2.51 0 0 0-.72 1.18v3.5h-.73V9.65h.68v1.29a2.7 2.7 0 0 1 .92-1 2.28 2.28 0 0 1 1.26-.37 1.63 1.63 0 0 1 1.16.41 1.77 1.77 0 0 1 .52 1.02 2.44 2.44 0 0 1 2.2-1.47 1.74 1.74 0 0 1 .82.18 1.37 1.37 0 0 1 .54.5 2.32 2.32 0 0 1 .3.78 5 5 0 0 1 .09 1zm4.37.11a2.37 2.37 0 0 1-1.24-.34 2.5 2.5 0 0 1-.88-.88v1.11h-.67v-8h.75v3.49a3.27 3.27 0 0 1 .92-.94 2.21 2.21 0 0 1 1.25-.36 2.27 2.27 0 0 1 1.08.25 2.54 2.54 0 0 1 .81.67 3.17 3.17 0 0 1 .51 1 3.35 3.35 0 0 1 .18 1.09 3.13 3.13 0 0 1-.21 1.14 3 3 0 0 1-.57.94 2.71 2.71 0 0 1-.86.64 2.47 2.47 0 0 1-1.07.19zm-.17-.66a1.92 1.92 0 0 0 .86-.19 2.08 2.08 0 0 0 .65-.52 2.48 2.48 0 0 0 .44-.73 2.33 2.33 0 0 0 .16-.85 2.57 2.57 0 0 0-.15-.87 2.43 2.43 0 0 0-.42-.74 2 2 0 0 0-.65-.51 1.8 1.8 0 0 0-.83-.19 1.75 1.75 0 0 0-.64.12 2.18 2.18 0 0 0-.55.31 2.54 2.54 0 0 0-.45.46 2.86 2.86 0 0 0-.33.54v1.78a1.22 1.22 0 0 0 .24.55 2 2 0 0 0 .46.44 2.4 2.4 0 0 0 .58.3 1.82 1.82 0 0 0 .63.1zm6.61.66a2.75 2.75 0 0 1-1.1-.24 2.82 2.82 0 0 1-.9-.65 3 3 0 0 1-.6-.95 3.09 3.09 0 0 1-.21-1.15 3 3 0 0 1 .21-1.13 3 3 0 0 1 .59-.93 2.81 2.81 0 0 1 .9-.64 2.78 2.78 0 0 1 3.18.64 3 3 0 0 1 .79 2v.18a.46.46 0 0 1 0 .12H83a2.39 2.39 0 0 0 .21.85 2.3 2.3 0 0 0 .47.67 2.09 2.09 0 0 0 .65.44 2 2 0 0 0 .78.16 2 2 0 0 0 .55-.08 2.21 2.21 0 0 0 .5-.21 1.87 1.87 0 0 0 .42-.32 1.38 1.38 0 0 0 .29-.42l.65.18a1.9 1.9 0 0 1-.37.58 2.61 2.61 0 0 1-.56.45 2.73 2.73 0 0 1-.7.3 3 3 0 0 1-.79.15zm2.1-3.27a2.3 2.3 0 0 0-.21-.84 2.28 2.28 0 0 0-.46-.65 2 2 0 0 0-.65-.43 2 2 0 0 0-.78-.15 2.05 2.05 0 0 0-1.44.58 2.11 2.11 0 0 0-.45.66 2.51 2.51 0 0 0-.2.83zm4.72-1.89a2.36 2.36 0 0 0-1.32.42 2.1 2.1 0 0 0-.79 1.08v3.55h-.75V9.65h.7V11a2.59 2.59 0 0 1 .86-1 2 2 0 0 1 1.15-.37h.14z"/></g></g></svg>