<svg xmlns="http://www.w3.org/2000/svg" viewBox="0 0 89.99 92.42"><defs><style>.cls-1{fill:none}.cls-2{clip-path:url(#clip-path)}.cls-3{fill:#fff}.cls-4{fill:#42b655}.cls-5{fill:#f5bb18}</style><clipPath id="clip-path" transform="translate(0 -3.58)"><path class="cls-1" d="M17.52 0h59.22v59.22H17.52z"/></clipPath></defs><title>feature3</title><g id="Layer_2" data-name="Layer 2"><g id="Layer_1-2" data-name="Layer 1"><path class="cls-1" d="M0 3.58h90V96H0z" transform="translate(0 -3.58)"/><g class="cls-2"><path class="cls-3" d="M74.27 19.74a5 5 0 0 1-4.93 4.93 4.19 4.19 0 0 1-1.26-.17l-8.78 8.76a4.36 4.36 0 0 1 .17 1.28 4.93 4.93 0 0 1-9.87 0 4.36 4.36 0 0 1 .17-1.28L43.47 27a4.85 4.85 0 0 1-2.57 0L29.68 38.22a4.19 4.19 0 0 1 .17 1.26 4.93 4.93 0 1 1-4.93-4.93 4.19 4.19 0 0 1 1.26.17l11.25-11.23a4.36 4.36 0 0 1-.17-1.28 4.93 4.93 0 0 1 9.87 0 4.36 4.36 0 0 1-.13 1.28l6.29 6.29a4.85 4.85 0 0 1 2.57 0L64.57 21a4.19 4.19 0 0 1-.17-1.26 4.93 4.93 0 0 1 9.87 0z" transform="translate(0 -3.58)"/></g><circle class="cls-4" cx="24.85" cy="36" r="2.64"/><circle class="cls-4" cx="42.43" cy="18.41" r="2.64"/><circle class="cls-4" cx="54.75" cy="31.31" r="2.64"/><circle class="cls-5" cx="69.4" cy="16.07" r="2.64"/><path class="cls-3" transform="rotate(-180 68.355 63.205)" d="M62.91 46.14H73.8v37.7H62.91z"/><path class="cls-3" transform="rotate(-180 47.5 62.705)" d="M42.14 45.15h10.72v38.7H42.14z"/><path class="cls-3" transform="rotate(-180 27.305 71.27)" d="M21.86 62.16h10.89v21.78H21.86z"/></g></g></svg>