<svg xmlns="http://www.w3.org/2000/svg" viewBox="0 0 100.57 51"><defs><style>.cls-1{fill:#fff}</style></defs><title>feature1</title><g id="Layer_2" data-name="Layer 2"><path class="cls-1" d="M87.82 44.63a6.37 6.37 0 0 0 6.34-6.37V6.39A6.39 6.39 0 0 0 87.82 0h-51a6.39 6.39 0 0 0-6.38 6.38v31.87a6.39 6.39 0 0 0 6.38 6.38H24.07V51h76.5v-6.37zm-51-38.25h51v31.87h-51zM17.71 18.54H3a3 3 0 0 0-3 3V48a3 3 0 0 0 3 3h14.71a3 3 0 0 0 3-3V21.48a3 3 0 0 0-3-2.94zm0 26.55H3V24.43h14.71z" id="Layer_1-2" data-name="Layer 1"/></g></svg>