<svg xmlns="http://www.w3.org/2000/svg" viewBox="0 0 196 143"><defs><style>.cls-1{fill:#0c3b51;}.cls-2{fill:none;}</style></defs><title>onetime</title><g id="Layer_2" data-name="Layer 2"><g id="Layer_1-2" data-name="Layer 1"><path class="cls-1" d="M172.17,96.08A11.9,11.9,0,0,0,184,84.17l.06-59.58a12,12,0,0,0-11.92-11.92H76.83A12,12,0,0,0,64.92,24.58V84.17A12,12,0,0,0,76.83,96.08H53V108H196V96.08ZM76.83,24.58h95.33V84.17H76.83Z"/><path class="cls-1" d="M41.11,47.33l-27.59,0A5.53,5.53,0,0,0,8,52.82v49.66A5.53,5.53,0,0,0,13.52,108H41.11a5.53,5.53,0,0,0,5.52-5.52V52.82A5.51,5.51,0,0,0,41.11,47.33Zm0,49.63H13.52V58.34H41.11Z"/><path class="cls-2" d="M0,0H143V143H0Z"/><path class="cls-2" d="M92,33h93v93H92Z"/></g></g></svg>